<svg width="24" height="24" viewBox="0 0 24 24" fill="none" xmlns="http://www.w3.org/2000/svg">
<path fill-rule="evenodd" clip-rule="evenodd" d="M1.20044 7.0002C1.20044 3.79694 3.79719 1.2002 7.00044 1.2002H17.0004C20.2037 1.2002 22.8004 3.79694 22.8004 7.0002V7.00027V7.00036V7.00049V7.00065V7.00085V7.00108V7.00135V7.00166V7.002V7.00238V7.00279V7.00324V7.00373V7.00424V7.0048V7.00539V7.00601V7.00667V7.00737V7.0081V7.00886V7.00966V7.01049V7.01136V7.01226V7.0132V7.01417V7.01517V7.01621V7.01729V7.01839V7.01953V7.02071V7.02192V7.02316V7.02443V7.02574V7.02709V7.02846V7.02987V7.03131V7.03279V7.0343V7.03584V7.03741V7.03902V7.04066V7.04233V7.04403V7.04577V7.04754V7.04934V7.05117V7.05304V7.05494V7.05686V7.05883V7.06082V7.06284V7.0649V7.06699V7.06911V7.07126V7.07344V7.07566V7.0779V7.08018V7.08248V7.08482V7.08719V7.08959V7.09202V7.09448V7.09697V7.09949V7.10205V7.10463V7.10724V7.10988V7.11256V7.11526V7.11799V7.12076V7.12355V7.12637V7.12922V7.1321V7.13501V7.13795V7.14092V7.14392V7.14695V7.15V7.15309V7.1562V7.15935V7.16252V7.16572V7.16895V7.17221V7.17549V7.17881V7.18215V7.18552V7.18892V7.19234V7.1958V7.19928V7.20279V7.20633V7.20989V7.21349V7.21711V7.22076V7.22443V7.22813V7.23186V7.23562V7.2394V7.24321V7.24705V7.25091V7.25481V7.25872V7.26267V7.26664V7.27063V7.27465V7.2787V7.28278V7.28688V7.29101V7.29516V7.29934V7.30354V7.30777V7.31203V7.31631V7.32062V7.32495V7.3293V7.33369V7.33809V7.34253V7.34698V7.35146V7.35597V7.3605V7.36506V7.36964V7.37424V7.37887V7.38353V7.3882V7.39291V7.39763V7.40238V7.40716V7.41195V7.41678V7.42162V7.42649V7.43138V7.4363V7.44124V7.4462V7.45118V7.45619V7.46122V7.46628V7.47135V7.47645V7.48158V7.48672V7.49189V7.49708V7.50229V7.50753V7.51278V7.51806V7.52337V7.52869V7.53403V7.5394V7.54479V7.5502V7.55563V7.56109V7.56656V7.57206V7.57758V7.58312V7.58868V7.59426V7.59986V7.60548V7.61113V7.61679V7.62248V7.62818V7.63391V7.63966V7.64542V7.65121V7.65702V7.66284V7.66869V7.67456V7.68045V7.68635V7.69228V7.69823V7.70419V7.71018V7.71618V7.72221V7.72825V7.73431V7.74039V7.7465V7.75261V7.75875V7.76491V7.77109V7.77728V7.78349V7.78972V7.79597V7.80224V7.80853V7.81483V7.82115V7.82749V7.83385V7.84023V7.84662V7.85303V7.85946V7.86591V7.87237V7.87885V7.88535V7.89187V7.8984V7.90495V7.91151V7.9181V7.9247V7.93131V7.93795V7.9446V7.95126V7.95795V7.96465V7.97136V7.97809V7.98484V7.9916V7.99838V8.00518V8.01199V8.01881V8.02566V8.03251V8.03939V8.04628V8.05318V8.0601V8.06703V8.07398V8.08095V8.08792V8.09492V8.10193V8.10895V8.11599V8.12304V8.1301V8.13719V8.14428V8.15139V8.15851V8.16565V8.1728V8.17997V8.18714V8.19434V8.20154V8.20876V8.216V8.22324V8.2305V8.23777V8.24506V8.25236V8.25967V8.267V8.27433V8.28168V8.28905V8.29642V8.30381V8.31121V8.31863V8.32605V8.33349V8.34094V8.3484V8.35587V8.36336V8.37086V8.37836V8.38589V8.39342V8.40096V8.40852V8.41608V8.42366V8.43125V8.43885V8.44646V8.45408V8.46171V8.46936V8.47701V8.48467V8.49235V8.50003V8.50773V8.51544V8.52315V8.53088V8.53862V8.54636V8.55412V8.56189V8.56966V8.57745V8.58524V8.59305V8.60086V8.60868V8.61652V8.62436V8.63221V8.64007V8.64794V8.65582V8.6637V8.6716V8.6795V8.68741V8.69533V8.70326V8.7112V8.71915V8.7271V8.73506V8.74303V8.75101V8.759V8.76699V8.77499V8.783V8.79102V8.79904V8.80707V8.81511V8.82316V8.83121V8.83927V8.84734V8.85541V8.86349V8.87158V8.87967V8.88777V8.89588V8.90399V8.91211V8.92024V8.92837V8.93651V8.94465V8.9528V8.96096V8.96912V8.97729V8.98546V8.99364V9.00182V9.01001V9.0182V9.0264V9.03461V9.04282V9.05103V9.05926V9.06748V9.07571V9.08394V9.09218V9.10043V9.10867V9.11693V9.12518V9.13344V9.14171V9.14998V9.15825V9.16653V9.17481V9.18309V9.19138V9.19967V9.20796V9.21626V9.22456V9.23287V9.24118V9.24949V9.2578V9.26612V9.27444V9.28276V9.29109V9.29941V9.30774V9.31608V9.32441V9.33275V9.34109V9.34943V9.35778V9.36612V9.37447V9.38282V9.39117V9.39952V9.40788V9.41623V9.42459V9.43295V9.44131V9.44967V9.45804V9.4664V9.47476V9.48313V9.4915V9.49986V9.50823V9.5166V9.52497V9.53334V9.54171V9.55008V9.55844V9.56681V9.57518V9.58355V9.59192V9.60029V9.60866V9.61703V9.6254V9.63377V9.64213V9.6505V9.65886V9.66723V9.67559V9.68396V9.69232V9.70068V9.70904V9.71739V9.72575V9.73411V9.74246V9.75081V9.75916V9.76751V9.77585V9.7842V9.79254V9.80088V9.80922V9.81755V9.82589V9.83422V9.84255V9.85087V9.85919V9.86751V9.87583V9.88415V9.89246V9.90077V9.90907V9.91737V9.92567V9.93397V9.94226V9.95055V9.95883V9.96711V9.97539V9.98366V9.99193V10.0002C22.8004 10.442 22.4423 10.8002 22.0004 10.8002C21.5586 10.8002 21.2004 10.442 21.2004 10.0002V9.99193V9.98366V9.97539V9.96711V9.95883V9.95055V9.94226V9.93397V9.92567V9.91737V9.90907V9.90077V9.89246V9.88415V9.87583V9.86751V9.85919V9.85087V9.84255V9.83422V9.82589V9.81755V9.80922V9.80088V9.79254V9.7842V9.77585V9.76751V9.75916V9.75081V9.74246V9.73411V9.72575V9.71739V9.70904V9.70068V9.69232V9.68396V9.67559V9.66723V9.65886V9.6505V9.64213V9.63377V9.6254V9.61703V9.60866V9.60029V9.59192V9.58355V9.57518V9.56681V9.55844V9.55008V9.54171V9.53334V9.52497V9.5166V9.50823V9.49986V9.4915V9.48313V9.47476V9.4664V9.45804V9.44967V9.44131V9.43295V9.42459V9.41623V9.40788V9.39952V9.39117V9.38282V9.37447V9.36612V9.35778V9.34943V9.34109V9.33275V9.32441V9.31608V9.30774V9.29941V9.29109V9.28276V9.27444V9.26612V9.2578V9.24949V9.24118V9.23287V9.22456V9.21626V9.20796V9.19967V9.19138V9.18309V9.17481V9.16653V9.15825V9.14998V9.14171V9.13344V9.12518V9.11693V9.10867V9.10043V9.09218V9.08394V9.07571V9.06748V9.05926V9.05103V9.04282V9.03461V9.0264V9.0182V9.01001V9.00182V8.99364V8.98546V8.97729V8.96912V8.96096V8.9528V8.94465V8.93651V8.92837V8.92024V8.91211V8.90399V8.89588V8.88777V8.87967V8.87158V8.86349V8.85541V8.84734V8.83927V8.83121V8.82316V8.81511V8.80707V8.79904V8.79102V8.783V8.77499V8.76699V8.759V8.75101V8.74303V8.73506V8.7271V8.71915V8.7112V8.70326V8.69533V8.68741V8.6795V8.6716V8.6637V8.65582V8.64794V8.64007V8.63221V8.62436V8.61652V8.60868V8.60086V8.59305V8.58524V8.57745V8.56966V8.56189V8.55412V8.54636V8.53862V8.53088V8.52315V8.51544V8.50773V8.50003V8.49235V8.48467V8.47701V8.46936V8.46171V8.45408V8.44646V8.43885V8.43125V8.42366V8.41608V8.40852V8.40096V8.39342V8.38589V8.37836V8.37086V8.36336V8.35587V8.3484V8.34094V8.33349V8.32605V8.31863V8.31121V8.30381V8.29642V8.28905V8.28168V8.27433V8.267V8.25967V8.25236V8.24506V8.23777V8.2305V8.22324V8.216V8.20876V8.20154V8.19434V8.18714V8.17997V8.1728V8.16565V8.15851V8.15139V8.14428V8.13719V8.1301V8.12304V8.11599V8.10895V8.10193V8.09492V8.08792V8.08095V8.07398V8.06703V8.0601V8.05318V8.04628V8.03939V8.03251V8.02566V8.01881V8.01199V8.00518V7.99838V7.9916V7.98484V7.97809V7.97136V7.96465V7.95795V7.95126V7.9446V7.93795V7.93131V7.9247V7.9181V7.91151V7.90495V7.8984V7.89187V7.88535V7.87885V7.87237V7.86591V7.85946V7.85303V7.84662V7.84023V7.83385V7.82749V7.82115V7.81483V7.80853V7.80224V7.79597V7.78972V7.78349V7.77728V7.77109V7.76491V7.75875V7.75261V7.7465V7.74039V7.73431V7.72825V7.72221V7.71618V7.71018V7.70419V7.69823V7.69228V7.68635V7.68045V7.67456V7.66869V7.66284V7.65702V7.65121V7.64542V7.63966V7.63391V7.62818V7.62248V7.61679V7.61113V7.60548V7.59986V7.59426V7.58868V7.58312V7.57758V7.57206V7.56656V7.56109V7.55563V7.5502V7.54479V7.5394V7.53403V7.52869V7.52337V7.51806V7.51278V7.50753V7.50229V7.49708V7.49189V7.48672V7.48158V7.47645V7.47135V7.46628V7.46122V7.45619V7.45118V7.4462V7.44124V7.4363V7.43138V7.42649V7.42162V7.41678V7.41195V7.40716V7.40238V7.39763V7.39291V7.3882V7.38353V7.37887V7.37424V7.36964V7.36506V7.3605V7.35597V7.35146V7.34698V7.34253V7.33809V7.33369V7.3293V7.32495V7.32062V7.31631V7.31203V7.30777V7.30354V7.29934V7.29516V7.29101V7.28688V7.28278V7.2787V7.27465V7.27063V7.26664V7.26267V7.25872V7.25481V7.25091V7.24705V7.24321V7.2394V7.23562V7.23186V7.22813V7.22443V7.22076V7.21711V7.21349V7.20989V7.20633V7.20279V7.19928V7.1958V7.19234V7.18892V7.18552V7.18215V7.17881V7.17549V7.17221V7.16895V7.16572V7.16252V7.15935V7.1562V7.15309V7.15V7.14695V7.14392V7.14092V7.13795V7.13501V7.1321V7.12922V7.12637V7.12355V7.12076V7.11799V7.11526V7.11256V7.10988V7.10724V7.10463V7.10205V7.09949V7.09697V7.09448V7.09202V7.08959V7.08719V7.08482V7.08248V7.08018V7.0779V7.07566V7.07344V7.07126V7.06911V7.06699V7.0649V7.06284V7.06082V7.05883V7.05686V7.05494V7.05304V7.05117V7.04934V7.04754V7.04577V7.04403V7.04233V7.04066V7.03902V7.03741V7.03584V7.0343V7.03279V7.03131V7.02987V7.02846V7.02709V7.02574V7.02443V7.02316V7.02192V7.02071V7.01953V7.01839V7.01729V7.01621V7.01517V7.01417V7.0132V7.01226V7.01136V7.01049V7.00966V7.00886V7.0081V7.00737V7.00667V7.00601V7.00539V7.0048V7.00424V7.00373V7.00324V7.00279V7.00238V7.002V7.00166V7.00135V7.00108V7.00085V7.00065V7.00049V7.00036V7.00027V7.0002C21.2004 4.6806 19.32 2.8002 17.0004 2.8002H7.00044C4.68084 2.8002 2.80044 4.6806 2.80044 7.0002V10.0002C2.80044 10.442 2.44227 10.8002 2.00044 10.8002C1.55861 10.8002 1.20044 10.442 1.20044 10.0002V7.0002ZM2.00029 13.2002C2.44211 13.2002 2.8003 13.5583 2.80032 14.0002L2.80044 17.0002L2.00044 17.0002H2.80044C2.80044 19.3198 4.68084 21.2002 7.00044 21.2002H17.0004C19.32 21.2002 21.2004 19.3198 21.2004 17.0002V14.0002C21.2004 13.5584 21.5586 13.2002 22.0004 13.2002C22.4423 13.2002 22.8004 13.5584 22.8004 14.0002V17.0002C22.8004 20.2034 20.2037 22.8002 17.0004 22.8002H7.00044C3.7972 22.8002 1.20046 20.2035 1.20044 17.0002V17.0002L1.20032 14.0002C1.2003 13.5584 1.55846 13.2002 2.00029 13.2002ZM12.0004 14.4C13.3258 14.4 14.4004 13.3255 14.4004 12C14.4004 10.6745 13.3258 9.6 12.0004 9.6C10.6749 9.6 9.60037 10.6745 9.60037 12C9.60037 13.3255 10.6749 14.4 12.0004 14.4ZM12.0004 16C14.2095 16 16.0004 14.2091 16.0004 12C16.0004 9.79086 14.2095 8 12.0004 8C9.79123 8 8.00037 9.79086 8.00037 12C8.00037 14.2091 9.79123 16 12.0004 16ZM17.3362 5.92124L15.7653 7.49219L17.3362 9.06314L18.9072 7.49219L17.3362 5.92124Z" fill="#171719"/>
</svg>
