<svg width="24" height="24" viewBox="0 0 24 24" fill="none" xmlns="http://www.w3.org/2000/svg">
<path d="M20.2173 15.7169L19.9973 15.4567C19.0373 14.2961 18.4573 13.5958 18.4573 10.2941C18.4573 7.22261 17.2273 5.23162 14.7173 4.23112C14.3273 2.90045 13.2373 2 11.9973 2C10.7573 2 9.66729 2.90045 9.30729 4.18109C6.77729 5.22161 5.54729 7.22261 5.54729 10.2941C5.54729 13.5958 4.96729 14.2961 4.00729 15.4567L3.78729 15.7169C3.37729 16.2171 3.29729 16.8974 3.56729 17.4777C3.85729 18.088 4.46729 18.4582 5.16729 18.4582H8.37729C8.39729 19.3887 8.76729 20.2691 9.42729 20.9395C10.1073 21.6098 11.0373 22 11.9973 22C12.9573 22 13.8873 21.6098 14.5673 20.9395C15.2473 20.2691 15.5973 19.3987 15.6173 18.4582H18.8273C19.5273 18.4582 20.1373 18.078 20.4273 17.4777C20.7073 16.8974 20.6173 16.2171 20.2073 15.7169H20.2173ZM13.4473 19.8189C12.6873 20.5693 11.3273 20.5793 10.5773 19.8189C10.2173 19.4587 10.0173 18.9785 9.98729 18.4782H14.0273C14.0073 18.9885 13.8073 19.4587 13.4373 19.8189H13.4473ZM18.8473 16.8674H5.17729C5.06729 16.8674 5.03729 16.8274 5.02729 16.7374L5.23729 16.4772C6.41729 15.0465 7.14729 13.986 7.14729 10.2941C7.14729 7.2026 8.62729 6.1921 9.91729 5.66183C10.3473 5.48174 10.6973 5.11156 10.8173 4.68134C10.9673 4.16108 11.3973 3.6008 11.9973 3.6008C12.5973 3.6008 13.0173 4.14107 13.1773 4.68134C13.3073 5.11156 13.6473 5.48174 14.0773 5.66183C15.3673 6.1921 16.8473 7.2026 16.8473 10.2941C16.8473 13.986 17.5673 15.0465 18.7573 16.4772L18.9673 16.7374V16.8074C18.9673 16.8074 18.9273 16.8774 18.8273 16.8774L18.8473 16.8674Z" fill="#171719"/>
</svg>
