<svg width="24" height="24" viewBox="0 0 24 24" fill="none" xmlns="http://www.w3.org/2000/svg">
<path fill-rule="evenodd" clip-rule="evenodd" d="M8.31922 3.19671C8.46259 2.95093 8.72571 2.7998 9.01024 2.7998H14.9902C15.2748 2.7998 15.5379 2.95093 15.6813 3.19671L17.0597 5.5598H18.9002C20.6123 5.5598 22.0002 6.94772 22.0002 8.6598V18.0898C22.0002 19.8019 20.6123 21.1898 18.9002 21.1898H5.10024C3.38816 21.1898 2.00024 19.8019 2.00024 18.0898V8.6598C2.00024 6.94772 3.38816 5.5598 5.10024 5.5598H6.94075L8.31922 3.19671ZM9.46974 4.3998L8.09127 6.7629C7.9479 7.00868 7.68478 7.1598 7.40024 7.1598H5.10024C4.27182 7.1598 3.60024 7.83138 3.60024 8.6598V18.0898C3.60024 18.9182 4.27182 19.5898 5.10024 19.5898H18.9002C19.7287 19.5898 20.4002 18.9182 20.4002 18.0898V8.6598C20.4002 7.83138 19.7287 7.1598 18.9002 7.1598H16.6002C16.3157 7.1598 16.0526 7.00868 15.9092 6.7629L14.5307 4.3998H9.46974ZM12.0002 10.1498C10.5367 10.1498 9.35024 11.3363 9.35024 12.7998C9.35024 14.2634 10.5367 15.4498 12.0002 15.4498C13.4638 15.4498 14.6502 14.2634 14.6502 12.7998C14.6502 11.3363 13.4638 10.1498 12.0002 10.1498ZM7.75024 12.7998C7.75024 10.4526 9.65303 8.5498 12.0002 8.5498C14.3475 8.5498 16.2502 10.4526 16.2502 12.7998C16.2502 15.147 14.3475 17.0498 12.0002 17.0498C9.65303 17.0498 7.75024 15.147 7.75024 12.7998Z" fill="#171719"/>
</svg>
