<svg width="24" height="24" viewBox="0 0 24 24" fill="none" xmlns="http://www.w3.org/2000/svg">
<path fill-rule="evenodd" clip-rule="evenodd" d="M1.20044 3.3C1.20044 2.85817 1.55861 2.5 2.00044 2.5H5.00044H19.0004H22.0004C22.4423 2.5 22.8004 2.85817 22.8004 3.3C22.8004 3.74183 22.4423 4.1 22.0004 4.1H20.7895C20.7967 4.16567 20.8004 4.2324 20.8004 4.3V14.3C20.8004 15.2941 19.9946 16.1 19.0004 16.1H12.8005V20.0002H16.0005C16.4423 20.0002 16.8005 20.3584 16.8005 20.8002C16.8005 21.242 16.4423 21.6002 16.0005 21.6002H8.00045C7.55862 21.6002 7.20045 21.242 7.20045 20.8002C7.20045 20.3584 7.55862 20.0002 8.00045 20.0002H11.2005V16.1H5.00044C4.00633 16.1 3.20044 15.2941 3.20044 14.3V4.3C3.20044 4.2324 3.20417 4.16567 3.21143 4.1H2.00044C1.55861 4.1 1.20044 3.74183 1.20044 3.3ZM5.00044 4.1H19.0004C19.1109 4.1 19.2004 4.18954 19.2004 4.3V14.3C19.2004 14.4105 19.1109 14.5 19.0004 14.5H5.00044C4.88998 14.5 4.80044 14.4105 4.80044 14.3V4.3C4.80044 4.18954 4.88998 4.1 5.00044 4.1ZM16.0661 8.36588C16.3786 8.05346 16.3786 7.54693 16.0661 7.23451C15.7537 6.92209 15.2472 6.92209 14.9348 7.23451L13.0005 9.16883L11.5661 7.73451C11.2537 7.42209 10.7472 7.42209 10.4348 7.73451L7.93477 10.2345C7.62235 10.5469 7.62235 11.0535 7.93477 11.3659C8.24719 11.6783 8.75372 11.6783 9.06614 11.3659L11.0005 9.43157L12.4348 10.8659C12.7472 11.1783 13.2537 11.1783 13.5661 10.8659L16.0661 8.36588Z" fill="#171719"/>
</svg>
