<svg width="24" height="24" viewBox="0 0 24 24" fill="none" xmlns="http://www.w3.org/2000/svg">
<path d="M8.94168 20.7992C7.41768 20.7992 5.98168 20.2361 4.89868 19.213C3.81868 18.1929 3.20068 16.777 3.20068 15.3281C3.20068 13.8791 3.81968 12.4623 4.89868 11.4432L12.4637 4.29367C14.0067 2.8357 16.6777 2.8357 18.2207 4.29367C18.9927 5.02415 19.4367 6.03921 19.4367 7.07832C19.4367 8.11743 18.9937 9.13149 18.2207 9.86298L10.6477 17.0125C9.72568 17.8833 8.14168 17.8833 7.22068 17.0125C6.75368 16.5716 6.48668 15.9574 6.48668 15.3281C6.48668 14.6988 6.75468 14.0836 7.22068 13.6437L14.2087 7.04726C14.5297 6.74465 15.0367 6.75867 15.3397 7.08133C15.6437 7.40298 15.6277 7.91101 15.3067 8.21463L8.31768 14.811C8.16868 14.9523 8.08668 15.1357 8.08668 15.3291C8.08668 15.5225 8.16968 15.7058 8.31868 15.8481C8.63668 16.1477 9.23068 16.1487 9.55068 15.8481L17.1227 8.69861C17.5827 8.26373 17.8367 7.68856 17.8367 7.08033C17.8367 6.47209 17.5827 5.89692 17.1227 5.46204C16.1887 4.58125 14.4957 4.57925 13.5607 5.46204L5.99668 12.6106C5.22568 13.339 4.80068 14.305 4.80068 15.3291C4.80068 16.3532 5.22568 17.3181 5.99668 18.0476C6.76968 18.7781 7.84368 19.1969 8.94168 19.1969C10.0397 19.1969 11.1137 18.7781 11.8867 18.0476L19.4507 10.8991C19.7707 10.5955 20.2787 10.6095 20.5817 10.9322C20.8847 11.2538 20.8697 11.7618 20.5487 12.0655L12.9847 19.214C11.9017 20.2371 10.4657 20.7992 8.94168 20.7992Z" fill="black"/>
</svg>
