<svg width="24" height="24" viewBox="0 0 24 24" fill="none" xmlns="http://www.w3.org/2000/svg">
<path fill-rule="evenodd" clip-rule="evenodd" d="M12.0003 3.70059C7.41638 3.70059 3.70034 7.41662 3.70034 12.0006C3.70034 16.5846 7.41638 20.3006 12.0003 20.3006C16.5843 20.3006 20.3003 16.5846 20.3003 12.0006C20.3003 7.41662 16.5843 3.70059 12.0003 3.70059ZM2.10034 12.0006C2.10034 6.53297 6.53272 2.10059 12.0003 2.10059C17.468 2.10059 21.9003 6.53297 21.9003 12.0006C21.9003 17.4682 17.468 21.9006 12.0003 21.9006C6.53272 21.9006 2.10034 17.4682 2.10034 12.0006ZM12.0003 7.58169C12.4422 7.58169 12.8003 7.93986 12.8003 8.38169V12.5615L15.6658 13.5166C16.085 13.6564 16.3115 14.1094 16.1718 14.5286C16.0321 14.9477 15.579 15.1743 15.1599 15.0345L11.7474 13.897C11.4207 13.7881 11.2003 13.4824 11.2003 13.1381V8.38169C11.2003 7.93986 11.5585 7.58169 12.0003 7.58169Z" fill="#171719"/>
</svg>
