<svg width="24" height="24" viewBox="0 0 24 24" fill="none" xmlns="http://www.w3.org/2000/svg">
<path fill-rule="evenodd" clip-rule="evenodd" d="M19.6208 4.38077C20.1284 4.88845 20.1284 5.71157 19.6207 6.21924L13.8399 12L19.6207 17.7808C20.1284 18.2884 20.1284 19.1115 19.6208 19.6192C19.1131 20.1269 18.29 20.1269 17.7823 19.6192L12.0014 13.8385L6.2207 19.6191C5.71302 20.1267 4.8899 20.1267 4.38222 19.6191C3.87454 19.1114 3.87455 18.2883 4.38223 17.7806L10.1629 12L4.38223 6.21943C3.87455 5.71175 3.87454 4.88863 4.38222 4.38095C4.8899 3.87326 5.71302 3.87326 6.2207 4.38094L12.0014 10.1615L17.7823 4.38075C18.29 3.87308 19.1131 3.87308 19.6208 4.38077Z" fill="#171719"/>
</svg>
