<svg width="24" height="24" viewBox="0 0 24 24" fill="none" xmlns="http://www.w3.org/2000/svg">
<path fill-rule="evenodd" clip-rule="evenodd" d="M8.94951 2.69215C9.27318 2.37527 9.70863 2.2002 10.1592 2.2002H13.8363C14.2869 2.2002 14.7223 2.37527 15.046 2.69215C15.3702 3.00959 15.5556 3.44379 15.5556 3.9002V4.81961C15.8998 4.98689 16.2316 5.17777 16.5486 5.39087L17.386 4.91754C17.779 4.69518 18.2438 4.6355 18.6798 4.74955C19.1161 4.86368 19.4933 5.14415 19.7245 5.53529L21.5626 8.64863C22.0494 9.47047 21.7521 10.5184 20.9327 10.982C20.9327 10.982 20.9328 10.9819 20.9327 10.982L20.1312 11.4355C20.1597 11.8113 20.16 12.1886 20.1322 12.5644L20.9376 13.0202C21.329 13.2439 21.6191 13.6129 21.7387 14.0511C21.8584 14.4897 21.7958 14.9564 21.5667 15.348L21.565 15.3508L19.7265 18.4648C19.2481 19.2738 18.1997 19.5411 17.3886 19.0833L16.55 18.6093C16.2328 18.8222 15.9008 19.0131 15.5565 19.1805V20.1002C15.5565 20.5566 15.3712 20.9908 15.0469 21.3082C14.7232 21.6251 14.2878 21.8002 13.8372 21.8002H10.1601C9.70955 21.8002 9.2741 21.6251 8.95043 21.3082C8.62619 20.9908 8.44084 20.5566 8.44084 20.1002V19.1807C8.09768 19.0139 7.76521 18.8229 7.44719 18.6093L6.6095 19.0828C6.21655 19.3052 5.75167 19.3649 5.3157 19.2508C4.8794 19.1367 4.50219 18.8562 4.27104 18.4651L2.43288 15.3518C2.43276 15.3516 2.433 15.352 2.43288 15.3518C1.94667 14.53 2.24359 13.4819 3.06276 13.0184C3.06272 13.0185 3.06281 13.0184 3.06276 13.0184L3.8647 12.5646C3.83661 12.1889 3.83661 11.8115 3.8647 11.4357L3.06276 10.982L3.05974 10.9802C2.66839 10.7565 2.37827 10.3874 2.25868 9.94927C2.13897 9.51064 2.2016 9.04397 2.43069 8.65235L2.43232 8.64956L4.27063 5.53599C4.38494 5.34223 4.5367 5.17313 4.71598 5.03854C4.89535 4.90387 5.09918 4.8058 5.3156 4.74919C5.532 4.69258 5.7574 4.67834 5.97912 4.70716C6.2007 4.73596 6.41501 4.8073 6.60978 4.9177C6.60965 4.91763 6.60992 4.91778 6.60978 4.9177L7.44655 5.39103C7.76377 5.1781 8.09572 4.98726 8.43992 4.81988V3.9002C8.43992 3.44379 8.62527 3.00959 8.94951 2.69215ZM10.1592 3.8002C10.1222 3.8002 10.09 3.81476 10.0688 3.83545C10.0483 3.85557 10.0399 3.87921 10.0399 3.9002V5.87621L9.54189 6.07922C8.98376 6.30672 8.46041 6.60746 7.9862 6.97288L7.56588 7.29677L5.82162 6.31011C5.80759 6.30215 5.7905 6.2961 5.77289 6.29381C5.75526 6.29152 5.7374 6.29269 5.72053 6.2971C5.70369 6.3015 5.68884 6.30888 5.67661 6.31806C5.66442 6.32721 5.65527 6.33781 5.64891 6.3486L3.81174 9.46024C3.81161 9.46048 3.81188 9.46001 3.81174 9.46024C3.79922 9.48207 3.79631 9.50633 3.80222 9.52799C3.80826 9.55013 3.82434 9.57406 3.85296 9.59069L5.59045 10.5739L5.50922 11.1176C5.42177 11.7029 5.42177 12.2975 5.50922 12.8828L5.59045 13.4265L3.85074 14.411C3.79508 14.4424 3.78888 14.5015 3.80955 14.5364L3.81011 14.5374L5.6485 17.6511C5.66148 17.673 5.68596 17.6939 5.72063 17.7029C5.75562 17.7121 5.7924 17.7068 5.8215 17.6903L7.5672 16.7036L7.98745 17.0278C8.4629 17.3945 8.98909 17.696 9.54224 17.9209L10.0408 18.1237V20.1002C10.0408 20.1212 10.0492 20.1448 10.0698 20.1649C10.0909 20.1856 10.1231 20.2002 10.1601 20.2002H13.8372C13.8743 20.2002 13.9065 20.1856 13.9276 20.1649C13.9481 20.1448 13.9565 20.1212 13.9565 20.1002V18.1242L14.4545 17.9212C15.0127 17.6937 15.536 17.3929 16.0102 17.0275L16.4304 16.7037L18.1751 17.6899C18.175 17.6899 18.1751 17.6899 18.1751 17.6899C18.2038 17.706 18.2395 17.7113 18.2765 17.7016C18.3135 17.6919 18.3367 17.6716 18.3489 17.651C18.3488 17.6511 18.3489 17.651 18.3489 17.651L20.1856 14.5401C20.1855 14.5404 20.1857 14.5399 20.1856 14.5401C20.1981 14.5183 20.201 14.4941 20.1951 14.4724C20.1891 14.4503 20.173 14.4264 20.1445 14.4097C20.1442 14.4096 20.1439 14.4094 20.1436 14.4092L18.4074 13.4268L18.488 12.8835C18.5749 12.2981 18.5744 11.7036 18.4864 11.1183L18.4046 10.5742L20.1448 9.58944C20.2004 9.55795 20.2066 9.49887 20.186 9.46396L18.347 6.3493C18.347 6.34928 18.347 6.34932 18.347 6.3493C18.334 6.32736 18.3095 6.30652 18.2749 6.29746C18.2399 6.2883 18.2031 6.29358 18.174 6.31005L16.428 7.297L16.0076 6.9723C15.5345 6.60678 15.0118 6.30626 14.4542 6.07944L13.9556 5.87664V3.9002C13.9556 3.87921 13.9472 3.85557 13.9267 3.83545C13.9055 3.81476 13.8733 3.8002 13.8363 3.8002H10.1592ZM11.9978 9.2002C10.3956 9.2002 9.12065 10.4725 9.12065 12.0002C9.12065 13.5279 10.3956 14.8002 11.9978 14.8002C13.5999 14.8002 14.8749 13.5279 14.8749 12.0002C14.8749 10.4725 13.5999 9.2002 11.9978 9.2002ZM7.52065 12.0002C7.52065 9.55707 9.54407 7.6002 11.9978 7.6002C14.4514 7.6002 16.4749 9.55707 16.4749 12.0002C16.4749 14.4433 14.4514 16.4002 11.9978 16.4002C9.54407 16.4002 7.52065 14.4433 7.52065 12.0002Z" fill="#171719"/>
</svg>
