<svg width="24" height="24" viewBox="0 0 24 24" fill="none" xmlns="http://www.w3.org/2000/svg">
<path fill-rule="evenodd" clip-rule="evenodd" d="M9.48038 2.59092L18.2004 2.59082C19.1945 2.59081 20.0004 3.3967 20.0004 4.39082V13.1109C20.0004 13.5527 19.6422 13.9109 19.2004 13.9109C18.7586 13.9109 18.4004 13.5527 18.4004 13.1109V4.39082C18.4004 4.28036 18.3108 4.19082 18.2004 4.19082L9.4804 4.19092C9.03857 4.19093 8.6804 3.83276 8.68039 3.39093C8.68039 2.9491 9.03855 2.59093 9.48038 2.59092ZM4.00049 7.61054C4.00049 6.61642 4.80638 5.81054 5.80049 5.81054H14.8005C15.7946 5.81054 16.6005 6.61642 16.6005 7.61054V19.6105C16.6005 20.6046 15.7946 21.4105 14.8005 21.4105H5.80049C4.80638 21.4105 4.00049 20.6046 4.00049 19.6105V7.61054ZM5.80049 7.41054C5.69003 7.41054 5.60049 7.50008 5.60049 7.61054V19.6105C5.60049 19.721 5.69003 19.8105 5.80049 19.8105H14.8005C14.9109 19.8105 15.0005 19.721 15.0005 19.6105V7.61054C15.0005 7.50008 14.9109 7.41054 14.8005 7.41054H5.80049Z" fill="#171719"/>
</svg>
