<svg width="24" height="24" viewBox="0 0 24 24" fill="none" xmlns="http://www.w3.org/2000/svg">
<path fill-rule="evenodd" clip-rule="evenodd" d="M2.88235 10.3808C2.37467 10.8884 2.37467 11.7116 2.88235 12.2192L11.0823 20.4192C11.59 20.9269 12.4131 20.9269 12.9208 20.4192L21.1208 12.2192C21.6285 11.7116 21.6285 10.8884 21.1208 10.3808C20.6131 9.87308 19.79 9.87308 19.2823 10.3808L12.0016 17.6615L4.72083 10.3808C4.21314 9.87308 3.39003 9.87308 2.88235 10.3808Z" fill="#171719"/>
<path fill-rule="evenodd" clip-rule="evenodd" d="M2.88235 2.38076C2.37467 2.88844 2.37467 3.71156 2.88235 4.21924L11.0823 12.4192C11.59 12.9269 12.4131 12.9269 12.9208 12.4192L21.1208 4.21924C21.6285 3.71156 21.6285 2.88844 21.1208 2.38076C20.6131 1.87308 19.79 1.87308 19.2823 2.38076L12.0016 9.66152L4.72083 2.38076C4.21314 1.87308 3.39003 1.87308 2.88235 2.38076Z" fill="#171719"/>
</svg>
