<svg width="24" height="24" viewBox="0 0 24 24" fill="none" xmlns="http://www.w3.org/2000/svg">
<path fill-rule="evenodd" clip-rule="evenodd" d="M12.0021 22C17.5249 22 22.0021 17.5228 22.0021 12C22.0021 6.47715 17.5249 2 12.0021 2C6.47923 2 2.00208 6.47715 2.00208 12C2.00208 17.5228 6.47923 22 12.0021 22ZM9.35577 8.64647C9.16048 8.45118 8.84384 8.45118 8.64855 8.64647C8.45325 8.84177 8.45325 9.1584 8.64855 9.3537L11.2948 12L8.64855 14.6463C8.45325 14.8416 8.45325 15.1582 8.64855 15.3535C8.84384 15.5488 9.16048 15.5488 9.35577 15.3535L12.0021 12.7072L14.6484 15.3535C14.8437 15.5488 15.1603 15.5488 15.3556 15.3535C15.5509 15.1582 15.5509 14.8416 15.3556 14.6463L12.7093 12L15.3556 9.3537C15.5509 9.1584 15.5509 8.84177 15.3556 8.64647C15.1603 8.45118 14.8437 8.45118 14.6484 8.64647L12.0021 11.2928L9.35577 8.64647Z" fill="#B1B1B6"/>
</svg>
