<svg width="24" height="24" viewBox="0 0 24 24" fill="none" xmlns="http://www.w3.org/2000/svg">
<path fill-rule="evenodd" clip-rule="evenodd" d="M11.9827 4.2002C8.14258 4.2002 4.35292 6.61755 1.451 11.1472L1.45099 11.1472L1.44887 11.1505C1.28738 11.4054 1.20255 11.7 1.1984 11.9975C1.19426 12.2942 1.27042 12.5901 1.42337 12.8488C3.66297 16.6655 7.40385 19.8002 11.9827 19.8002C16.5137 19.8002 20.3277 16.6595 22.573 12.8314C22.7221 12.5787 22.7982 12.2907 22.7982 12.0009C22.7982 11.7107 22.7218 11.4222 22.5723 11.1693L22.5712 11.1674C20.3242 7.38827 16.4854 4.2002 11.9827 4.2002ZM2.79977 12.009L2.80063 12.0066C5.51768 7.76739 8.86507 5.8002 11.9827 5.8002C15.7058 5.8002 19.1064 8.47178 21.1949 11.9834C21.195 11.9836 21.1953 11.9842 21.1958 11.9853C21.196 11.9861 21.1963 11.987 21.1966 11.9881C21.1976 11.9916 21.1982 11.996 21.1982 12.0009C21.1982 12.0059 21.1976 12.0103 21.1966 12.0137C21.1957 12.0171 21.1948 12.0187 21.1949 12.0185L21.1935 12.0208C19.1131 15.5685 15.7402 18.2002 11.9827 18.2002C8.18208 18.2002 4.88075 15.5801 2.80259 12.0377L2.8026 12.0377L2.80072 12.0346L2.8007 12.0346C2.8006 12.0343 2.80009 12.0332 2.79954 12.0311C2.79876 12.0282 2.79818 12.0243 2.79825 12.0198C2.79831 12.0154 2.79899 12.0116 2.79977 12.009ZM9.30061 12C9.30061 10.5088 10.5094 9.3 12.0006 9.3C13.4918 9.3 14.7006 10.5088 14.7006 12C14.7006 13.4912 13.4918 14.7 12.0006 14.7C10.5094 14.7 9.30061 13.4912 9.30061 12ZM12.0006 7.7C9.62579 7.7 7.70061 9.62518 7.70061 12C7.70061 14.3748 9.62579 16.3 12.0006 16.3C14.3754 16.3 16.3006 14.3748 16.3006 12C16.3006 9.62518 14.3754 7.7 12.0006 7.7Z" fill="#171719"/>
</svg>
