<svg width="24" height="24" viewBox="0 0 24 24" fill="none" xmlns="http://www.w3.org/2000/svg">
<path fill-rule="evenodd" clip-rule="evenodd" d="M4.53667 4.40652C4.20879 4.11037 3.70291 4.13609 3.40676 4.46397C3.11061 4.79185 3.13633 5.29773 3.46421 5.59388L18.9642 19.5939C19.2921 19.89 19.798 19.8643 20.0941 19.5364C20.3903 19.2085 20.3645 18.7027 20.0367 18.4065L4.53667 4.40652ZM11.9824 4.2002C10.9295 4.2002 9.87448 4.38331 8.83852 4.74488C8.42137 4.89048 8.20123 5.34667 8.34682 5.76382C8.49241 6.18097 8.94861 6.40111 9.36576 6.25552C10.2399 5.95042 11.117 5.8002 11.9824 5.8002C15.7056 5.8002 19.1061 8.47179 21.1947 11.9834C21.1948 11.9837 21.1956 11.9852 21.1964 11.9882C21.1973 11.9916 21.198 11.996 21.198 12.0009C21.198 12.0037 21.1978 12.0062 21.1975 12.0086C21.1972 12.0104 21.1968 12.0122 21.1964 12.0137C21.1955 12.017 21.1946 12.0185 21.1946 12.0185L21.1933 12.0209C20.6542 12.9401 20.0232 13.8046 19.3168 14.5791C19.2048 14.7019 19.091 14.8223 18.9754 14.9404C18.6662 15.256 18.6714 15.7625 18.987 16.0717C19.3026 16.3809 19.8091 16.3757 20.1183 16.06C20.2474 15.9283 20.3743 15.794 20.4989 15.6573C21.284 14.7965 21.9803 13.8415 22.5728 12.8314C22.7218 12.5787 22.798 12.2907 22.798 12.0009C22.798 11.7107 22.7216 11.4222 22.5721 11.1693L22.571 11.1675C20.3239 7.38827 16.4851 4.2002 11.9824 4.2002ZM4.59653 9.62447C4.89105 9.29513 4.86282 8.78938 4.53348 8.49486C4.20413 8.20034 3.69839 8.22857 3.40386 8.55791C2.71941 9.32329 2.06596 10.1869 1.45076 11.1472L1.45075 11.1472L1.44863 11.1505C1.28714 11.4054 1.20231 11.7 1.19816 11.9975C1.19402 12.2942 1.27019 12.5902 1.42316 12.8488C3.66277 16.6656 7.40363 19.8002 11.9824 19.8002C13.1231 19.8002 14.2223 19.5996 15.2627 19.2381C15.6801 19.0931 15.9009 18.6372 15.7559 18.2199C15.6109 17.8025 15.155 17.5817 14.7376 17.7267C13.8552 18.0333 12.9332 18.2002 11.9824 18.2002C8.18184 18.2002 4.88051 15.5801 2.80234 12.0378L2.80235 12.0377L2.80046 12.0346C2.80036 12.0343 2.79984 12.0332 2.79929 12.0311C2.79851 12.0282 2.79794 12.0243 2.798 12.0198C2.79806 12.0154 2.79874 12.0117 2.79952 12.009L2.80038 12.0066C3.37248 11.114 3.97412 10.3205 4.59653 9.62447ZM11.8197 8.14759C11.5176 8.15846 11.2178 8.20328 10.9258 8.2812C10.911 8.28484 10.8975 8.2924 10.8867 8.3031C10.8759 8.3138 10.8682 8.32723 10.8644 8.34195C10.8607 8.35668 10.861 8.37216 10.8653 8.38674C10.8696 8.40131 10.8778 8.41445 10.889 8.42474L15.7906 12.9809C15.8017 12.9913 15.8154 12.9985 15.8302 13.0018C15.8451 13.005 15.8605 13.0042 15.8749 12.9993C15.8894 12.9945 15.9022 12.9858 15.9121 12.9743C15.9219 12.9627 15.9285 12.9487 15.931 12.9337C16.0441 12.3381 16.0216 11.7247 15.8651 11.139C15.7087 10.5533 15.4223 10.0104 15.0273 9.55057C14.6323 9.09075 14.1388 8.72585 13.5835 8.48297C13.0282 8.24008 12.4253 8.12545 11.8197 8.14759ZM8.20526 11.3206C8.22011 11.3238 8.23379 11.331 8.24487 11.3414L13.1458 15.8969C13.157 15.9072 13.1652 15.9203 13.1695 15.9349C13.1738 15.9495 13.1741 15.9649 13.1703 15.9797C13.1666 15.9944 13.1589 16.0078 13.1481 16.0185C13.1373 16.0292 13.1238 16.0367 13.109 16.0404C12.4494 16.2169 11.7558 16.2231 11.0931 16.0584C10.4305 15.8936 9.82048 15.5633 9.32034 15.0984C8.8202 14.6336 8.44628 14.0493 8.23363 13.4004C8.02097 12.7516 7.97654 12.0593 8.10449 11.3886C8.10704 11.3736 8.1136 11.3596 8.12347 11.348C8.13334 11.3365 8.14617 11.3278 8.16057 11.323C8.17497 11.3182 8.19042 11.3173 8.20526 11.3206Z" fill="#171719"/>
</svg>
