<svg width="24" height="24" viewBox="0 0 24 24" fill="none" xmlns="http://www.w3.org/2000/svg">
<path fill-rule="evenodd" clip-rule="evenodd" d="M3.83567 10.4998C3.74678 10.9866 3.70034 11.4882 3.70034 12.0006C3.70034 12.7127 3.79002 13.4038 3.95869 14.0634C4.01492 14.0509 4.07337 14.0442 4.13337 14.0442H7.31604C7.25234 13.3834 7.21909 12.6995 7.21909 12.0006C7.21909 11.5002 7.23613 11.0076 7.26918 10.5256H4.03784C3.968 10.5256 3.90025 10.5166 3.83567 10.4998ZM4.28859 8.92559H7.44275C7.65077 7.54053 7.99699 6.28586 8.45225 5.24526C8.60103 4.90518 8.7638 4.58262 8.9405 4.2828C6.82276 5.12313 5.13296 6.80989 4.28859 8.92559ZM12.0003 2.10059C6.53272 2.10059 2.10034 6.53297 2.10034 12.0006C2.10034 17.4682 6.53272 21.9006 12.0003 21.9006C17.468 21.9006 21.9003 17.4682 21.9003 12.0006C21.9003 6.53297 17.468 2.10059 12.0003 2.10059ZM12.0003 3.70059C11.7153 3.70059 11.3808 3.82924 11.0067 4.19087C10.6288 4.55621 10.2519 5.1235 9.9181 5.88657C9.55061 6.72654 9.25432 7.76015 9.0624 8.92559H14.9383C14.7464 7.76015 14.4501 6.72654 14.0826 5.88657C13.7487 5.1235 13.3719 4.55621 12.994 4.19087C12.6199 3.82924 12.2853 3.70059 12.0003 3.70059ZM16.5579 8.92559C16.3499 7.54053 16.0037 6.28586 15.5484 5.24526C15.3997 4.90518 15.2369 4.58262 15.0602 4.2828C17.1779 5.12313 18.8677 6.80989 19.7121 8.92559H16.5579ZM15.1275 10.5256H8.87323C8.83773 11.0035 8.81909 11.4963 8.81909 12.0006C8.81909 12.7076 8.85571 13.3918 8.92407 14.0442H15.0766C15.145 13.3918 15.1816 12.7076 15.1816 12.0006C15.1816 11.4963 15.163 11.0035 15.1275 10.5256ZM16.6846 14.0442C16.7483 13.3834 16.7816 12.6995 16.7816 12.0006C16.7816 11.5002 16.7646 11.0076 16.7315 10.5256H19.9628C20.0327 10.5256 20.1004 10.5166 20.165 10.4998C20.2539 10.9866 20.3003 11.4882 20.3003 12.0006C20.3003 12.7058 20.2124 13.3905 20.0469 14.0442H16.6846ZM14.8343 15.6442H9.16634C9.35455 16.5785 9.61156 17.4139 9.9181 18.1146C10.2519 18.8777 10.6288 19.445 11.0067 19.8103C11.3808 20.1719 11.7153 20.3006 12.0003 20.3006C12.2853 20.3006 12.6199 20.1719 12.994 19.8103C13.3719 19.445 13.7487 18.8777 14.0826 18.1146C14.3891 17.4139 14.6461 16.5785 14.8343 15.6442ZM15.0602 19.7184C15.2369 19.4186 15.3997 19.096 15.5484 18.7559C15.9405 17.8597 16.2518 16.8046 16.4635 15.6442H19.4599C18.5555 17.4923 16.9845 18.9548 15.0602 19.7184ZM8.94051 19.7184C8.7638 19.4186 8.60103 19.096 8.45225 18.7559C8.06014 17.8597 7.74892 16.8046 7.53722 15.6442H4.54079C5.4452 17.4923 7.01618 18.9548 8.94051 19.7184Z" fill="#171719"/>
</svg>
