<svg width="24" height="24" viewBox="0 0 24 24" fill="none" xmlns="http://www.w3.org/2000/svg">
<path fill-rule="evenodd" clip-rule="evenodd" d="M11.998 3.53846C10.0371 3.53846 8.16135 4.24887 6.7822 5.50621C5.40391 6.76278 4.63441 8.46192 4.63441 10.2284V11.5058C5.05778 11.3245 5.5259 11.2308 5.99805 11.2308H7.08896C7.84735 11.2308 8.59533 11.4725 9.1642 11.9309C9.73697 12.3925 10.089 13.0463 10.089 13.7582V16.3956C10.089 17.1076 9.73697 17.7613 9.1642 18.2229C8.59533 18.6813 7.84735 18.9231 7.08896 18.9231H5.99805C5.23966 18.9231 4.49167 18.6813 3.9228 18.2229C3.35003 17.7613 2.99805 17.1076 2.99805 16.3956V13.7582C2.99805 13.5998 3.01547 13.4443 3.04888 13.2931C3.01601 13.2098 2.99805 13.1197 2.99805 13.0256V10.2284C2.99805 8.03835 3.95257 5.94293 5.64305 4.40175C7.33268 2.86135 9.61908 2 11.998 2C14.377 2 16.6634 2.86135 18.353 4.40175C20.0435 5.94293 20.998 8.03835 20.998 10.2284V13.0256C20.998 13.1197 20.9801 13.2098 20.9472 13.2931C20.9806 13.4443 20.998 13.5998 20.998 13.7582V16.3956C20.998 17.1076 20.6461 17.7613 20.0733 18.2229C19.6834 18.5371 19.2094 18.7495 18.7055 18.8521C18.3964 19.8035 17.4789 20.5325 16.4469 21.0176C15.1266 21.6383 13.3597 22 11.4526 22C11.0007 22 10.6344 21.6556 10.6344 21.2308C10.6344 20.8059 11.0007 20.4615 11.4526 20.4615C13.1608 20.4615 14.6666 20.1345 15.7151 19.6416C16.2167 19.4058 16.5658 19.1586 16.797 18.9214C16.0767 18.8991 15.3732 18.6591 14.8319 18.2229C14.2591 17.7613 13.9071 17.1076 13.9071 16.3956V13.7582C13.9071 13.0463 14.2591 12.3925 14.8319 11.9309C15.4008 11.4725 16.1487 11.2308 16.9071 11.2308H17.998C18.4702 11.2308 18.9383 11.3245 19.3617 11.5058V10.2284C19.3617 8.46192 18.5922 6.76278 17.2139 5.50621C15.8347 4.24887 13.959 3.53846 11.998 3.53846ZM5.99805 12.7692C5.59913 12.7692 5.2372 12.898 4.98773 13.099C4.74216 13.2969 4.63441 13.5376 4.63441 13.7582V16.3956C4.63441 16.6163 4.74216 16.8569 4.98773 17.0548C5.2372 17.2559 5.59913 17.3846 5.99805 17.3846H7.08896C7.48787 17.3846 7.8498 17.2559 8.09927 17.0548C8.34484 16.8569 8.45259 16.6163 8.45259 16.3956V13.7582C8.45259 13.5376 8.34484 13.2969 8.09927 13.099C7.8498 12.898 7.48787 12.7692 7.08896 12.7692H5.99805ZM16.9071 12.7692C16.5082 12.7692 16.1463 12.898 15.8968 13.099C15.6513 13.2969 15.5435 13.5376 15.5435 13.7582V16.3956C15.5435 16.6163 15.6513 16.8569 15.8968 17.0548C16.1463 17.2559 16.5082 17.3846 16.9071 17.3846H17.998C18.397 17.3846 18.7589 17.2559 19.0084 17.0548C19.2539 16.8569 19.3617 16.6163 19.3617 16.3956V13.7582C19.3617 13.5376 19.2539 13.2969 19.0084 13.099C18.7589 12.898 18.397 12.7692 17.998 12.7692H16.9071Z" fill="black"/>
</svg>
