<svg width="24" height="24" viewBox="0 0 24 24" fill="none" xmlns="http://www.w3.org/2000/svg">
<path fill-rule="evenodd" clip-rule="evenodd" d="M2.1001 12.0006C2.1001 6.53297 6.53248 2.10059 12.0001 2.10059C17.4677 2.10059 21.9001 6.53297 21.9001 12.0006C21.9001 17.4682 17.4677 21.9006 12.0001 21.9006C6.53248 21.9006 2.1001 17.4682 2.1001 12.0006ZM12.0001 7.68184C11.1995 7.68184 10.5251 8.34728 10.5251 9.1998C10.5251 9.64163 10.1669 9.9998 9.7251 9.9998C9.28327 9.9998 8.9251 9.64163 8.9251 9.1998C8.9251 7.49197 10.2878 6.08184 12.0001 6.08184C13.7124 6.08184 15.0751 7.49197 15.0751 9.1998C15.0751 10.6313 14.1177 11.8537 12.7994 12.2118C12.7992 12.4558 12.7991 12.7485 12.7991 13.0631C12.7991 13.5049 12.4409 13.8631 11.9991 13.8631C11.5573 13.8631 11.1991 13.5049 11.1991 13.0631C11.1991 12.6361 11.1994 12.2495 11.1996 11.9697L11.2001 11.5171C11.2007 11.0758 11.5587 10.7178 12.0001 10.7178C12.8007 10.7178 13.4751 10.0523 13.4751 9.1998C13.4751 8.34727 12.8007 7.68184 12.0001 7.68184ZM11.9991 15.7506C12.4409 15.7506 12.7991 16.1088 12.7991 16.5506V16.5906C12.7991 17.0324 12.4409 17.3906 11.9991 17.3906C11.5573 17.3906 11.1991 17.0324 11.1991 16.5906V16.5506C11.1991 16.1088 11.5573 15.7506 11.9991 15.7506Z" fill="#171719"/>
</svg>
