<svg width="24" height="24" viewBox="0 0 24 24" fill="none" xmlns="http://www.w3.org/2000/svg">
<path fill-rule="evenodd" clip-rule="evenodd" d="M11.5055 2.37169C11.7958 2.14303 12.205 2.14303 12.4954 2.37169L20.4954 8.67174C20.688 8.82343 20.8004 9.05507 20.8004 9.30025V19.2003C20.8004 19.8867 20.5312 20.5469 20.0489 21.0353C19.5663 21.524 18.9096 21.8003 18.2227 21.8003H5.77822C5.09132 21.8003 4.43459 21.524 3.95195 21.0353C3.46964 20.5469 3.20044 19.8867 3.20044 19.2003V9.30025C3.20044 9.05507 3.31287 8.82343 3.50549 8.67174L11.5055 2.37169ZM4.80044 9.68854V19.2003C4.80044 19.4687 4.90584 19.7242 5.09033 19.911C5.27448 20.0974 5.52212 20.2003 5.77822 20.2003H18.2227C18.4788 20.2003 18.7264 20.0974 18.9106 19.911C19.095 19.7242 19.2004 19.4687 19.2004 19.2003V9.68853L12.0004 4.01849L4.80044 9.68854Z" fill="#171719"/>
<path fill-rule="evenodd" clip-rule="evenodd" d="M12.0005 14.4009C12.4423 14.4009 12.8005 14.759 12.8005 15.2009V20.2009C12.8005 20.6428 12.4423 21.0009 12.0005 21.0009C11.5586 21.0009 11.2005 20.6427 11.2005 20.2009V15.2009C11.2005 14.759 11.5586 14.4009 12.0005 14.4009Z" fill="#171719"/>
</svg>
