<svg width="24" height="24" viewBox="0 0 24 24" fill="none" xmlns="http://www.w3.org/2000/svg">
<g clip-path="url(#clip0_1737_9218)">
<path fill-rule="evenodd" clip-rule="evenodd" d="M5.10098 10.7553V20.3997H18.901V10.7553H5.10098ZM3.50098 10.6581C3.50098 9.83108 4.16957 9.15527 5.00098 9.15527H19.001C19.8324 9.15527 20.501 9.83108 20.501 10.6581V20.4969C20.501 21.3239 19.8324 21.9997 19.001 21.9997H5.00098C4.16957 21.9997 3.50098 21.3239 3.50098 20.4969V10.6581Z" fill="#171719"/>
<path fill-rule="evenodd" clip-rule="evenodd" d="M12.001 3.6C11.2877 3.6 10.5852 3.91274 10.0536 4.50079C9.51965 5.09152 9.20767 5.90854 9.20767 6.77531V9.95556C9.20767 10.3974 8.8495 10.7556 8.40767 10.7556C7.96584 10.7556 7.60767 10.3974 7.60767 9.95556V6.77531C7.60767 5.53344 8.05286 4.32819 8.86665 3.42789C9.68287 2.52491 10.8082 2 12.001 2C13.1938 2 14.3191 2.52491 15.1354 3.42789C15.9491 4.32819 16.3943 5.53344 16.3943 6.77531V9.95556C16.3943 10.3974 16.0362 10.7556 15.5943 10.7556C15.1525 10.7556 14.7943 10.3974 14.7943 9.95556V6.77531C14.7943 5.90854 14.4824 5.09152 13.9484 4.50079C13.4168 3.91274 12.7143 3.6 12.001 3.6Z" fill="#171719"/>
</g>
<defs>
<clipPath id="clip0_1737_9218">
<rect width="24.0001" height="24" fill="white" transform="translate(0.000976562)"/>
</clipPath>
</defs>
</svg>
