<svg width="24" height="24" viewBox="0 0 24 24" fill="none" xmlns="http://www.w3.org/2000/svg">
<g clip-path="url(#clip0_1295_8039)">
<path fill-rule="evenodd" clip-rule="evenodd" d="M6.99854 5C3.13254 5 -0.00146484 8.13401 -0.00146484 12C-0.00146484 15.866 3.13254 19 6.99854 19H16.9985C20.8645 19 23.9985 15.866 23.9985 12C23.9985 8.13401 20.8645 5 16.9985 5H6.99854ZM6.79853 11.2002C6.35671 11.2002 5.99854 11.5584 5.99854 12.0002C5.99854 12.442 6.35671 12.8002 6.79854 12.8002H17.1985C17.6404 12.8002 17.9985 12.442 17.9985 12.0002C17.9985 11.5584 17.6404 11.2002 17.1985 11.2002H6.79853Z" fill="#171719"/>
</g>
<defs>
<clipPath id="clip0_1295_8039">
<rect width="24" height="24" fill="white"/>
</clipPath>
</defs>
</svg>
