<svg width="24" height="24" viewBox="0 0 24 24" fill="none" xmlns="http://www.w3.org/2000/svg">
<g clip-path="url(#clip0_1439_8637)">
<path fill-rule="evenodd" clip-rule="evenodd" d="M16.9985 6.6H6.99854C4.0162 6.6 1.59854 9.01766 1.59854 12C1.59854 14.9823 4.0162 17.4 6.99854 17.4H16.9985C19.9809 17.4 22.3985 14.9823 22.3985 12C22.3985 9.01766 19.9809 6.6 16.9985 6.6ZM6.99854 5C3.13254 5 -0.00146484 8.13401 -0.00146484 12C-0.00146484 15.866 3.13254 19 6.99854 19H16.9985C20.8645 19 23.9985 15.866 23.9985 12C23.9985 8.13401 20.8645 5 16.9985 5H6.99854Z" fill="black"/>
<path d="M5.99854 12.0002C5.99854 11.5584 6.35671 11.2002 6.79853 11.2002H17.1985C17.6404 11.2002 17.9985 11.5584 17.9985 12.0002C17.9985 12.442 17.6404 12.8002 17.1985 12.8002H6.79853C6.35671 12.8002 5.99854 12.442 5.99854 12.0002Z" fill="#171719"/>
</g>
<defs>
<clipPath id="clip0_1439_8637">
<rect width="24" height="24" fill="white"/>
</clipPath>
</defs>
</svg>
