<svg width="24" height="24" viewBox="0 0 24 24" fill="none" xmlns="http://www.w3.org/2000/svg">
<path fill-rule="evenodd" clip-rule="evenodd" d="M11.9978 5.70013C11.7315 5.70013 11.4761 5.59431 11.2878 5.40595C11.0996 5.2176 10.9938 4.96213 10.9938 4.69575V2.50438C10.9938 2.238 11.0996 1.98253 11.2878 1.79418C11.4761 1.60582 11.7315 1.5 11.9978 1.5C12.2641 1.5 12.5195 1.60582 12.7078 1.79418C12.896 1.98253 13.0018 2.238 13.0018 2.50438V4.69575C13.0018 4.96213 12.896 5.2176 12.7078 5.40595C12.5195 5.59431 12.2641 5.70013 11.9978 5.70013ZM11.9978 22.5C11.7315 22.5 11.4761 22.3942 11.2878 22.2058C11.0996 22.0175 10.9938 21.762 10.9938 21.4956V19.3042C10.9938 19.0379 11.0996 18.7824 11.2878 18.594C11.4761 18.4057 11.7315 18.2999 11.9978 18.2999C12.2641 18.2999 12.5195 18.4057 12.7078 18.594C12.896 18.7824 13.0018 19.0379 13.0018 19.3042V21.4956C13.0018 21.762 12.896 22.0175 12.7078 22.2058C12.5195 22.3942 12.2641 22.5 11.9978 22.5ZM16.6041 7.66944C16.7691 7.77978 16.9632 7.83868 17.1617 7.83871C17.2936 7.83886 17.4241 7.81297 17.5459 7.76252C17.6677 7.71206 17.7783 7.63804 17.8714 7.5447L19.4203 5.99521C19.6045 5.80603 19.7068 5.55189 19.7051 5.28781C19.7034 5.02373 19.5977 4.77096 19.411 4.58422C19.2244 4.39748 18.9717 4.29181 18.7077 4.29007C18.4437 4.28833 18.1897 4.39067 18.0006 4.57493L16.4516 6.12441C16.3113 6.2649 16.2158 6.44386 16.1771 6.63865C16.1384 6.83345 16.1583 7.03534 16.2343 7.21882C16.3103 7.40229 16.439 7.55911 16.6041 7.66944ZM5.28283 19.7175C5.08425 19.7175 4.89013 19.6586 4.72502 19.5482C4.55992 19.4378 4.43125 19.2809 4.35529 19.0973C4.27933 18.9138 4.25948 18.7118 4.29826 18.517C4.33705 18.3222 4.43271 18.1432 4.57317 18.0028L6.12211 16.4533C6.21488 16.358 6.32565 16.2821 6.44798 16.23C6.57031 16.1779 6.70178 16.1506 6.83474 16.1497C6.9677 16.1488 7.09951 16.1744 7.22252 16.2249C7.34552 16.2754 7.45728 16.3498 7.5513 16.4439C7.64532 16.5379 7.71973 16.6497 7.77021 16.7728C7.82068 16.8958 7.84623 17.0277 7.84535 17.1607C7.84447 17.2937 7.8172 17.4252 7.7651 17.5476C7.71301 17.67 7.63714 17.7808 7.54189 17.8736L5.99295 19.4231C5.89981 19.5165 5.78913 19.5906 5.66727 19.6412C5.5454 19.6917 5.41475 19.7177 5.28283 19.7175ZM19.3025 13.0036H21.4931C21.7594 13.0036 22.0147 12.8978 22.203 12.7095C22.3913 12.5212 22.4971 12.2658 22.4971 11.9996C22.4971 11.7333 22.3913 11.4779 22.203 11.2896C22.0147 11.1013 21.7594 10.9955 21.4931 10.9955H19.3025C19.0362 10.9955 18.7808 11.1013 18.5925 11.2896C18.4042 11.4779 18.2985 11.7333 18.2985 11.9996C18.2985 12.2658 18.4042 12.5212 18.5925 12.7095C18.7808 12.8978 19.0362 13.0036 19.3025 13.0036ZM4.69621 13.0036H2.50561C2.23933 13.0036 1.98395 12.8978 1.79566 12.7095C1.60737 12.5212 1.50159 12.2658 1.50159 11.9996C1.50159 11.7333 1.60737 11.4779 1.79566 11.2896C1.98395 11.1013 2.23933 10.9955 2.50561 10.9955H4.69621C4.96249 10.9955 5.21787 11.1013 5.40616 11.2896C5.59445 11.4779 5.70024 11.7333 5.70024 11.9996C5.70024 12.2658 5.59445 12.5212 5.40616 12.7095C5.21787 12.8978 4.96249 13.0036 4.69621 13.0036ZM18.3251 19.642C18.4469 19.6925 18.5776 19.7185 18.7095 19.7184C18.9081 19.7183 19.1022 19.6594 19.2673 19.549C19.4324 19.4386 19.5611 19.2817 19.637 19.0982C19.713 18.9146 19.7328 18.7127 19.6941 18.5178C19.6553 18.323 19.5596 18.144 19.4192 18.0036L17.8702 16.4541C17.6811 16.2699 17.427 16.1675 17.1631 16.1693C16.8991 16.171 16.6464 16.2767 16.4597 16.4634C16.2731 16.6501 16.1674 16.9029 16.1657 17.167C16.1639 17.4311 16.2662 17.6852 16.4504 17.8744L17.9994 19.4239C18.0925 19.5173 18.2032 19.5915 18.3251 19.642ZM6.83403 7.83871C6.7022 7.83896 6.57162 7.81312 6.44982 7.76266C6.32803 7.7122 6.21742 7.63812 6.12437 7.5447L4.57543 5.99521C4.39124 5.80603 4.28893 5.55189 4.29067 5.28781C4.29241 5.02373 4.39805 4.77096 4.58472 4.58422C4.77139 4.39748 5.02407 4.29181 5.28806 4.29007C5.55205 4.28833 5.8061 4.39067 5.99521 4.57493L7.54415 6.12441C7.68448 6.2649 7.78002 6.44386 7.8187 6.63865C7.85737 6.83345 7.83745 7.03534 7.76145 7.21882C7.68545 7.40229 7.55678 7.55911 7.39171 7.66944C7.22663 7.77978 7.03256 7.83868 6.83403 7.83871ZM9.40636 15.8704C10.1719 16.3821 11.0719 16.6552 11.9925 16.6552C13.2267 16.6538 14.4099 16.1627 15.2825 15.2897C16.1552 14.4167 16.6461 13.2332 16.6476 11.9986C16.6476 11.0776 16.3746 10.1773 15.8631 9.41147C15.3516 8.64568 14.6245 8.04883 13.774 7.69637C12.9234 7.34392 11.9874 7.2517 11.0844 7.43138C10.1814 7.61106 9.35197 8.05457 8.70095 8.70581C8.04993 9.35706 7.60659 10.1868 7.42697 11.0901C7.24736 11.9934 7.33954 12.9297 7.69187 13.7806C8.0442 14.6315 8.64084 15.3588 9.40636 15.8704Z" fill="#171719"/>
</svg>
