<svg width="24" height="24" viewBox="0 0 24 24" fill="none" xmlns="http://www.w3.org/2000/svg">
<path fill-rule="evenodd" clip-rule="evenodd" d="M12.0005 3.6C8.46587 3.6 5.60049 6.46538 5.60049 10C5.60049 11.0137 5.98562 12.1788 6.63252 13.4007C7.27398 14.6123 8.13895 15.817 9.01965 16.8934C9.89824 17.9672 10.779 18.8972 11.4412 19.5593C11.6529 19.771 11.8418 19.9549 12.0005 20.1068C12.1592 19.9549 12.3481 19.771 12.5598 19.5593C13.2219 18.8972 14.1027 17.9672 14.9813 16.8934C15.862 15.817 16.727 14.6123 17.3685 13.4007C18.0154 12.1788 18.4005 11.0137 18.4005 10C18.4005 6.46538 15.5351 3.6 12.0005 3.6ZM12.0005 21.2C11.469 21.7979 11.4687 21.7977 11.4687 21.7977L11.462 21.7917L11.4448 21.7762C11.4299 21.7629 11.4085 21.7435 11.3808 21.7183C11.3256 21.6679 11.2455 21.5944 11.1443 21.4995C10.9418 21.3099 10.6542 21.0351 10.3098 20.6907C9.62193 20.0028 8.70274 19.0328 7.78132 17.9066C6.86203 16.783 5.927 15.4877 5.21846 14.1493C4.51536 12.8212 4.00049 11.3863 4.00049 10C4.00049 5.58172 7.58221 2 12.0005 2C16.4188 2 20.0005 5.58172 20.0005 10C20.0005 11.3863 19.4856 12.8212 18.7825 14.1493C18.074 15.4877 17.1389 16.783 16.2197 17.9066C15.2982 19.0328 14.379 20.0028 13.6912 20.6907C13.3468 21.0351 13.0592 21.3099 12.8567 21.4995C12.7555 21.5944 12.6754 21.6679 12.6201 21.7183C12.5925 21.7435 12.571 21.7629 12.5562 21.7762L12.539 21.7917L12.5327 21.7972C12.5327 21.7972 12.532 21.7979 12.0005 21.2ZM12.0005 21.2L12.532 21.7979L12.0005 22.2704L11.4687 21.7977L12.0005 21.2ZM12.0008 8.20015C11.1724 8.20015 10.5008 8.87172 10.5008 9.70014C10.5008 10.5286 11.1724 11.2001 12.0008 11.2001C12.8292 11.2001 13.5008 10.5286 13.5008 9.70014C13.5008 8.87172 12.8292 8.20015 12.0008 8.20015ZM8.90078 9.70014C8.90078 7.98806 10.2887 6.60014 12.0008 6.60014C13.7129 6.60014 15.1008 7.98806 15.1008 9.70014C15.1008 11.4122 13.7129 12.8001 12.0008 12.8001C10.2887 12.8001 8.90078 11.4122 8.90078 9.70014Z" fill="#171719"/>
</svg>
