<svg width="24" height="24" viewBox="0 0 24 24" fill="none" xmlns="http://www.w3.org/2000/svg">
<path fill-rule="evenodd" clip-rule="evenodd" d="M5.10061 10.5004C4.27218 10.5004 3.60061 11.172 3.60061 12.0004C3.60061 12.8288 4.27218 13.5004 5.10061 13.5004C5.92904 13.5004 6.60061 12.8288 6.60061 12.0004C6.60061 11.172 5.92904 10.5004 5.10061 10.5004ZM2.00061 12.0004C2.00061 10.2883 3.38853 8.90039 5.10061 8.90039C6.81269 8.90039 8.20061 10.2883 8.20061 12.0004C8.20061 13.7125 6.81269 15.1004 5.10061 15.1004C3.38853 15.1004 2.00061 13.7125 2.00061 12.0004ZM12.0006 10.5004C11.1722 10.5004 10.5006 11.172 10.5006 12.0004C10.5006 12.8288 11.1722 13.5004 12.0006 13.5004C12.829 13.5004 13.5006 12.8288 13.5006 12.0004C13.5006 11.172 12.829 10.5004 12.0006 10.5004ZM8.90061 12.0004C8.90061 10.2883 10.2885 8.90039 12.0006 8.90039C13.7127 8.90039 15.1006 10.2883 15.1006 12.0004C15.1006 13.7125 13.7127 15.1004 12.0006 15.1004C10.2885 15.1004 8.90061 13.7125 8.90061 12.0004ZM18.9006 10.5004C18.0722 10.5004 17.4006 11.172 17.4006 12.0004C17.4006 12.8288 18.0722 13.5004 18.9006 13.5004C19.729 13.5004 20.4006 12.8288 20.4006 12.0004C20.4006 11.172 19.729 10.5004 18.9006 10.5004ZM15.8006 12.0004C15.8006 10.2883 17.1885 8.90039 18.9006 8.90039C20.6127 8.90039 22.0006 10.2883 22.0006 12.0004C22.0006 13.7125 20.6127 15.1004 18.9006 15.1004C17.1885 15.1004 15.8006 13.7125 15.8006 12.0004Z" fill="#171719"/>
</svg>
