<svg width="24" height="24" viewBox="0 0 24 24" fill="none" xmlns="http://www.w3.org/2000/svg">
<path fill-rule="evenodd" clip-rule="evenodd" d="M10.3999 5.60001C10.3999 4.71635 11.1162 4 11.9999 4C12.8836 4 13.5999 4.71635 13.5999 5.60001C13.5999 6.48367 12.8836 7.20002 11.9999 7.20002C11.1162 7.20002 10.3999 6.48367 10.3999 5.60001ZM10.3999 12.0003C10.3999 11.1166 11.1162 10.4002 11.9999 10.4002C12.8836 10.4002 13.5999 11.1166 13.5999 12.0003C13.5999 12.8839 12.8836 13.6003 11.9999 13.6003C11.1162 13.6003 10.3999 12.8839 10.3999 12.0003ZM10.3999 18.4001C10.3999 17.5164 11.1162 16.8001 11.9999 16.8001C12.8836 16.8001 13.5999 17.5164 13.5999 18.4001C13.5999 19.2838 12.8836 20.0001 11.9999 20.0001C11.1162 20.0001 10.3999 19.2838 10.3999 18.4001Z" fill="#171719"/>
</svg>
