<svg width="24" height="24" viewBox="0 0 24 24" fill="none" xmlns="http://www.w3.org/2000/svg">
<path fill-rule="evenodd" clip-rule="evenodd" d="M13.5007 5.1C13.5007 4.27157 12.8291 3.6 12.0007 3.6C11.1723 3.6 10.5007 4.27157 10.5007 5.1C10.5007 5.92843 11.1723 6.6 12.0007 6.6C12.8291 6.6 13.5007 5.92843 13.5007 5.1ZM12.0007 2C13.7128 2 15.1007 3.38792 15.1007 5.1C15.1007 6.81208 13.7128 8.2 12.0007 8.2C10.2886 8.2 8.90071 6.81208 8.90071 5.1C8.90071 3.38792 10.2886 2 12.0007 2ZM13.5007 12C13.5007 11.1716 12.8291 10.5 12.0007 10.5C11.1723 10.5 10.5007 11.1716 10.5007 12C10.5007 12.8284 11.1723 13.5 12.0007 13.5C12.8291 13.5 13.5007 12.8284 13.5007 12ZM12.0007 8.9C13.7128 8.9 15.1007 10.2879 15.1007 12C15.1007 13.7121 13.7128 15.1 12.0007 15.1C10.2886 15.1 8.90071 13.7121 8.90071 12C8.90071 10.2879 10.2886 8.9 12.0007 8.9ZM13.5007 18.9C13.5007 18.0716 12.8291 17.4 12.0007 17.4C11.1723 17.4 10.5007 18.0716 10.5007 18.9C10.5007 19.7284 11.1723 20.4 12.0007 20.4C12.8291 20.4 13.5007 19.7284 13.5007 18.9ZM12.0007 15.8C13.7128 15.8 15.1007 17.1879 15.1007 18.9C15.1007 20.6121 13.7128 22 12.0007 22C10.2886 22 8.90071 20.6121 8.90071 18.9C8.90071 17.1879 10.2886 15.8 12.0007 15.8Z" fill="#171719"/>
</svg>
