<svg width="24" height="24" viewBox="0 0 24 24" fill="none" xmlns="http://www.w3.org/2000/svg">
<path fill-rule="evenodd" clip-rule="evenodd" d="M18.3999 10.4004C19.2835 10.4004 19.9999 11.1167 19.9999 12.0004C19.9999 12.884 19.2835 13.6004 18.3999 13.6004C17.5162 13.6004 16.7999 12.884 16.7999 12.0004C16.7999 11.1167 17.5162 10.4004 18.3999 10.4004ZM11.9997 10.4004C12.8833 10.4004 13.5997 11.1167 13.5997 12.0004C13.5997 12.884 12.8833 13.6004 11.9997 13.6004C11.116 13.6004 10.3997 12.884 10.3997 12.0004C10.3997 11.1167 11.116 10.4004 11.9997 10.4004ZM5.59988 10.4004C6.48353 10.4004 7.19988 11.1167 7.19988 12.0004C7.19988 12.884 6.48353 13.6004 5.59988 13.6004C4.71622 13.6004 3.99988 12.884 3.99988 12.0004C3.99988 11.1167 4.71622 10.4004 5.59988 10.4004Z" fill="#171719"/>
</svg>
