<svg width="24" height="24" viewBox="0 0 24 24" fill="none" xmlns="http://www.w3.org/2000/svg">
<path fill-rule="evenodd" clip-rule="evenodd" d="M11.2944 4.90458C11.4827 5.09287 11.7381 5.19865 12.0044 5.19865C12.2707 5.19865 12.5261 5.09287 12.7143 4.90458C12.9026 4.71629 13.0084 4.46091 13.0084 4.19462V2.00402C13.0084 1.73774 12.9026 1.48236 12.7143 1.29407C12.5261 1.10578 12.2707 1 12.0044 1C11.7381 1 11.4827 1.10578 11.2944 1.29407C11.1061 1.48236 11.0004 1.73774 11.0004 2.00402V4.19462C11.0004 4.46091 11.1061 4.71629 11.2944 4.90458ZM18.4498 12.9796C18.27 9.54154 15.4386 6.78205 11.9779 6.78205C8.51722 6.78205 5.68576 9.54154 5.50598 12.9796H2.81464C2.36493 12.9796 2.00037 13.3441 2.00037 13.7939C2.00037 14.2436 2.36493 14.6081 2.81464 14.6081H21.1861C21.6358 14.6081 22.0004 14.2436 22.0004 13.7939C22.0004 13.3441 21.6358 12.9796 21.1861 12.9796H18.4498ZM5.91339 17.582C5.91339 18.0239 6.27156 18.382 6.71339 18.382H17.2873C17.7291 18.382 18.0873 18.0239 18.0873 17.582C18.0873 17.1402 17.7291 16.782 17.2873 16.782H6.71339C6.27156 16.782 5.91339 17.1402 5.91339 17.582ZM8.08735 20.6263C8.08735 21.0681 8.44552 21.4263 8.88735 21.4263H15.1134C15.5553 21.4263 15.9134 21.0681 15.9134 20.6263C15.9134 20.1844 15.5553 19.8263 15.1134 19.8263H8.88735C8.44552 19.8263 8.08735 20.1844 8.08735 20.6263ZM16.8494 7C16.6815 6.99998 16.5174 6.95018 16.3777 6.85691C16.2381 6.76363 16.1293 6.63106 16.065 6.47595C16.0008 6.32085 15.9839 6.15017 16.0166 5.98549C16.0493 5.82081 16.1301 5.66952 16.2488 5.55075L17.5588 4.24084C17.7187 4.08506 17.9336 3.99855 18.1568 4.00002C18.3801 4.00149 18.5938 4.09083 18.7517 4.24869C18.9095 4.40656 18.9989 4.62025 19.0003 4.8435C19.0018 5.06675 18.9153 5.2816 18.7595 5.44153L17.4496 6.75145C17.3708 6.83036 17.2773 6.89294 17.1743 6.93559C17.0713 6.97824 16.9609 7.00013 16.8494 7ZM6.82642 6.93571C6.92942 6.97837 7.03986 7.00022 7.15135 7C7.31925 6.99998 7.48338 6.95018 7.62298 6.85691C7.76259 6.76363 7.87141 6.63106 7.93568 6.47595C7.99996 6.32085 8.01681 6.15017 7.9841 5.98549C7.95139 5.82081 7.87058 5.66952 7.75191 5.55075L6.44195 4.24084C6.28201 4.08506 6.06715 3.99855 5.8439 4.00002C5.62064 4.00149 5.40694 4.09083 5.24907 4.24869C5.0912 4.40656 5.00185 4.62025 5.00038 4.8435C4.99891 5.06675 5.08543 5.2816 5.24121 5.44153L6.55117 6.75145C6.62987 6.83043 6.72341 6.89305 6.82642 6.93571Z" fill="#171719"/>
</svg>
