<svg width="24" height="24" viewBox="0 0 24 24" fill="none" xmlns="http://www.w3.org/2000/svg">
<path fill-rule="evenodd" clip-rule="evenodd" d="M15.7219 2.62016C15.9572 2.76606 16.1002 3.0232 16.1002 3.3V20.3C16.1002 20.5768 15.9572 20.8339 15.722 20.9798C15.4868 21.1257 15.1929 21.1397 14.9449 21.0168L7.04337 17.1H2.30024C1.85842 17.1 1.50024 16.7418 1.50024 16.3V7.3C1.50024 6.85817 1.85842 6.5 2.30024 6.5H7.04778L14.9448 2.58331C15.1928 2.46032 15.4867 2.47426 15.7219 2.62016ZM6.50024 8.1V15.5H3.10024V8.1H6.50024ZM14.5002 19.0106L8.10024 15.8381V7.76399L14.5002 4.58977V19.0106ZM18.4673 7.60698C18.0847 7.8279 17.9536 8.31717 18.1745 8.6998C18.3954 9.08244 18.8847 9.21354 19.2673 8.99263L20.9994 7.99263C21.382 7.77171 21.5131 7.28244 21.2922 6.8998C21.0713 6.51717 20.582 6.38607 20.1994 6.60698L18.4673 7.60698ZM17.5003 12.0498C17.5003 11.608 17.8585 11.2498 18.3003 11.2498H21.8003C22.2421 11.2498 22.6003 11.608 22.6003 12.0498C22.6003 12.4916 22.2421 12.8498 21.8003 12.8498H18.3003C17.8585 12.8498 17.5003 12.4916 17.5003 12.0498ZM19.2673 15.107C18.8847 14.8861 18.3954 15.0172 18.1745 15.3998C17.9536 15.7824 18.0847 16.2717 18.4673 16.4926L20.1994 17.4926C20.582 17.7135 21.0713 17.5824 21.2922 17.1998C21.5131 16.8172 21.382 16.3279 20.9994 16.107L19.2673 15.107Z" fill="black"/>
</svg>
