<svg width="24" height="24" viewBox="0 0 24 24" fill="none" xmlns="http://www.w3.org/2000/svg">
<path fill-rule="evenodd" clip-rule="evenodd" d="M16.2915 21.035C14.9912 21.6537 13.5362 22 12.0002 22C10.4643 22 9.00924 21.6537 7.70887 21.035C7.76719 20.924 7.8002 20.7976 7.8002 20.6634V17.6672C7.8002 17.2163 7.9793 16.7839 8.29811 16.4651C8.61693 16.1463 9.04933 15.9672 9.5002 15.9672C9.95106 15.9672 10.3835 16.1463 10.7023 16.4651C11.0211 16.7839 11.2002 17.2163 11.2002 17.6672V21.0005C11.2002 21.4423 11.5584 21.8005 12.0002 21.8005C12.442 21.8005 12.8002 21.4423 12.8002 21.0005V17.6672C12.8002 17.2163 12.9793 16.7839 13.2981 16.4651C13.6169 16.1463 14.0493 15.9672 14.5002 15.9672C14.9511 15.9672 15.3835 16.1463 15.7023 16.4651C16.0211 16.7839 16.2002 17.2163 16.2002 17.6672V20.6634C16.2002 20.7976 16.2332 20.924 16.2915 21.035ZM17.8002 20.1472V17.6672V16.2206C17.8002 15.9601 17.7437 15.7028 17.6345 15.4663L15.4351 10.7008C15.4254 10.6768 15.4146 10.6534 15.4027 10.6306L13.6345 6.7996C12.991 5.40534 11.0094 5.40534 10.3659 6.7996L8.59643 10.6334C8.58558 10.6544 8.57564 10.6759 8.56665 10.6979L6.36587 15.4663C6.25672 15.7028 6.2002 15.9601 6.2002 16.2206V17.6672V20.1471C3.65792 18.334 2.00024 15.3606 2.00024 12C2.00024 6.47715 6.4774 2 12.0002 2C17.5231 2 22.0002 6.47715 22.0002 12C22.0002 15.3606 20.3425 18.334 17.8002 20.1472ZM14.1803 11.8002L15.4263 14.4998C15.1281 14.4126 14.8165 14.3672 14.5002 14.3672C13.625 14.3672 12.7856 14.7149 12.1667 15.3337C12.1088 15.3916 12.0533 15.4515 12.0002 15.5131C11.9471 15.4515 11.8916 15.3916 11.8336 15.3337C11.2148 14.7149 10.3754 14.3672 9.5002 14.3672C9.18392 14.3672 8.87233 14.4126 8.57413 14.4998L9.8201 11.8002H14.1803ZM12.1818 7.47009L13.4418 10.2002H10.5586L11.8186 7.47009C11.8901 7.31518 12.1103 7.31518 12.1818 7.47009Z" fill="#171719"/>
<path fill-rule="evenodd" clip-rule="evenodd" d="M12.0002 2.8002C6.91918 2.8002 2.8002 6.91918 2.8002 12.0002C2.8002 17.0812 6.91918 21.2002 12.0002 21.2002C17.0812 21.2002 21.2002 17.0812 21.2002 12.0002C21.2002 6.91918 17.0812 2.8002 12.0002 2.8002ZM1.2002 12.0002C1.2002 6.03552 6.03552 1.2002 12.0002 1.2002C17.9649 1.2002 22.8002 6.03552 22.8002 12.0002C22.8002 17.9649 17.9649 22.8002 12.0002 22.8002C6.03552 22.8002 1.2002 17.9649 1.2002 12.0002Z" fill="#171719"/>
</svg>
