<svg width="24" height="24" viewBox="0 0 24 24" fill="none" xmlns="http://www.w3.org/2000/svg">
<path fill-rule="evenodd" clip-rule="evenodd" d="M12 2.8002C6.91893 2.8002 2.79995 6.91918 2.79995 12.0002C2.79995 17.0812 6.91893 21.2002 12 21.2002C17.081 21.2002 21.1999 17.0812 21.1999 12.0002C21.1999 6.91918 17.081 2.8002 12 2.8002ZM1.19995 12.0002C1.19995 6.03552 6.03528 1.2002 12 1.2002C17.9646 1.2002 22.7999 6.03552 22.7999 12.0002C22.7999 17.9649 17.9646 22.8002 12 22.8002C6.03528 22.8002 1.19995 17.9649 1.19995 12.0002Z" fill="#171719"/>
<path fill-rule="evenodd" clip-rule="evenodd" d="M10.3656 6.7996C11.0091 5.40534 12.9908 5.40534 13.6343 6.7996L17.6343 15.4663C17.7434 15.7028 17.8 15.9601 17.8 16.2206V20.6634C17.8 21.1053 17.4418 21.4634 17 21.4634C16.5581 21.4634 16.2 21.1053 16.2 20.6634V16.2206C16.2 16.1916 16.1937 16.163 16.1815 16.1368L12.1815 7.47009C12.11 7.31518 11.8899 7.31518 11.8184 7.47009L7.81836 16.1368C7.80623 16.163 7.79995 16.1916 7.79995 16.2206V20.6634C7.79995 21.1053 7.44178 21.4634 6.99995 21.4634C6.55812 21.4634 6.19995 21.1053 6.19995 20.6634V16.2206C6.19995 15.9601 6.25648 15.7028 6.36562 15.4663L10.3656 6.7996Z" fill="#171719"/>
<path fill-rule="evenodd" clip-rule="evenodd" d="M14.5 15.9672C14.0491 15.9672 13.6167 16.1463 13.2979 16.4651C12.9791 16.7839 12.8 17.2163 12.8 17.6672C12.8 18.109 12.4418 18.4672 12 18.4672C11.5581 18.4672 11.2 18.109 11.2 17.6672C11.2 16.792 11.5476 15.9526 12.1665 15.3337C12.7854 14.7149 13.6247 14.3672 14.5 14.3672C15.3752 14.3672 16.2145 14.7149 16.8334 15.3337C17.4523 15.9526 17.8 16.792 17.8 17.6672C17.8 18.109 17.4418 18.4672 17 18.4672C16.5581 18.4672 16.2 18.109 16.2 17.6672C16.2 17.2163 16.0208 16.7839 15.702 16.4651C15.3832 16.1463 14.9508 15.9672 14.5 15.9672Z" fill="#171719"/>
<path fill-rule="evenodd" clip-rule="evenodd" d="M7.1665 15.3337C7.78537 14.7149 8.62474 14.3672 9.49995 14.3672C10.3752 14.3672 11.2145 14.7149 11.8334 15.3337C12.4523 15.9526 12.8 16.792 12.8 17.6672V21.0005C12.8 21.4423 12.4418 21.8005 12 21.8005C11.5581 21.8005 11.2 21.4423 11.2 21.0005V17.6672C11.2 17.2163 11.0208 16.7839 10.702 16.4651C10.3832 16.1463 9.95082 15.9672 9.49995 15.9672C9.04908 15.9672 8.61668 16.1463 8.29787 16.4651C7.97906 16.7839 7.79995 17.2163 7.79995 17.6672C7.79995 18.109 7.44178 18.4672 6.99995 18.4672C6.55812 18.4672 6.19995 18.109 6.19995 17.6672C6.19995 16.792 6.54763 15.9526 7.1665 15.3337Z" fill="#171719"/>
<path fill-rule="evenodd" clip-rule="evenodd" d="M8.50732 11.0002C8.50732 10.5584 8.8655 10.2002 9.30732 10.2002H14.6927C15.1346 10.2002 15.4927 10.5584 15.4927 11.0002C15.4927 11.442 15.1346 11.8002 14.6927 11.8002H9.30732C8.8655 11.8002 8.50732 11.442 8.50732 11.0002Z" fill="#171719"/>
</svg>
