<svg width="24" height="24" viewBox="0 0 24 24" fill="none" xmlns="http://www.w3.org/2000/svg">
<path fill-rule="evenodd" clip-rule="evenodd" d="M18.3238 3.97394C17.8564 3.74228 17.3075 3.74228 16.84 3.97394C16.624 4.081 16.396 4.294 15.6767 5.0133L15.0069 5.68309L18.8174 9.49353L19.4872 8.82374C20.2065 8.10443 20.4195 7.87647 20.5265 7.66043C20.7582 7.19295 20.7582 6.64409 20.5265 6.17661C20.4195 5.96056 20.2065 5.73261 19.4872 5.0133C18.7678 4.294 18.5399 4.081 18.3238 3.97394ZM19.3875 11.1861L20.6185 9.95511C20.6517 9.92196 20.6844 9.88932 20.7166 9.85715C21.2945 9.27992 21.7205 8.85453 21.9601 8.37085C22.4136 7.45573 22.4136 6.38131 21.9601 5.46619C21.7205 4.98251 21.2945 4.55712 20.7166 3.97988C20.6843 3.94772 20.6517 3.91508 20.6185 3.88193C20.5854 3.84879 20.5527 3.81612 20.5206 3.78391C19.9433 3.20593 19.5179 2.77999 19.0343 2.54031C18.1191 2.08682 17.0447 2.08682 16.1296 2.54031C15.6459 2.77999 15.2205 3.20593 14.6433 3.7839C14.6111 3.8161 14.5785 3.84878 14.5453 3.88193L5.32166 13.1056C5.31046 13.1168 5.2994 13.1279 5.28848 13.1388C5.07422 13.3529 4.91372 13.5133 4.77585 13.6961C4.65399 13.8576 4.54738 14.0301 4.45739 14.2114C4.35559 14.4164 4.28389 14.6317 4.18817 14.9191C4.18329 14.9338 4.17835 14.9486 4.17334 14.9636L3.23554 17.777C3.04475 18.3494 2.88423 18.8309 2.79312 19.2186C2.70287 19.6027 2.64001 20.0459 2.79273 20.4742C2.99794 21.0497 3.4508 21.5025 4.02627 21.7077C4.45453 21.8604 4.89776 21.7976 5.28186 21.7073C5.66957 21.6162 6.15104 21.4557 6.72333 21.2649L9.53682 20.3271C9.55184 20.3221 9.56668 20.3172 9.58132 20.3123C9.86873 20.2166 10.084 20.1449 10.2891 20.0431C10.4703 19.9531 10.6428 19.8465 10.8044 19.7246C10.9871 19.5867 11.1475 19.4262 11.3617 19.212C11.3726 19.201 11.3836 19.19 11.3948 19.1788L19.3786 11.195C19.3801 11.1936 19.3816 11.1921 19.3831 11.1906C19.3845 11.1891 19.386 11.1876 19.3875 11.1861ZM17.686 10.6249L13.8756 6.81446L6.45303 14.237C6.19182 14.4982 6.11558 14.5769 6.05316 14.6597C5.99091 14.7422 5.93644 14.8303 5.89048 14.9229C5.84438 15.0157 5.80806 15.1191 5.69123 15.4696L4.76565 18.2464C4.55942 18.8651 4.42306 19.2766 4.3507 19.5846C4.28925 19.8461 4.30066 19.9334 4.30162 19.9418C4.34573 20.0609 4.4396 20.1547 4.55862 20.1988C4.5671 20.1998 4.65441 20.2112 4.91586 20.1498C5.2238 20.0774 5.63539 19.941 6.2541 19.7348L9.03085 18.8092C9.38132 18.6924 9.48471 18.6561 9.57755 18.61C9.67013 18.564 9.75825 18.5095 9.84077 18.4473C9.92351 18.3849 10.0022 18.3086 10.2635 18.0474L17.686 10.6249Z" fill="#171719"/>
</svg>
