<svg width="24" height="24" viewBox="0 0 24 24" fill="none" xmlns="http://www.w3.org/2000/svg">
<path fill-rule="evenodd" clip-rule="evenodd" d="M5.895 3.93142L4.34353 5.47971C4.09768 5.72506 3.97354 5.9915 3.94362 6.33778C3.88801 7.01806 4.00827 7.7818 4.4086 8.85146L4.40944 8.8537C5.06318 10.6165 6.05502 12.2755 7.57073 14.0989C9.39022 16.2659 11.5756 17.972 14.0625 19.1738C14.9924 19.6175 16.1404 20.0896 17.3395 20.1661L17.3416 20.1662C17.3791 20.1687 17.4253 20.1691 17.4992 20.1691C17.9963 20.1691 18.3248 20.024 18.6265 19.7069C18.8007 19.5055 19.1751 19.1249 19.4823 18.8167C19.6466 18.6519 19.8016 18.4979 19.9155 18.3852L19.9865 18.3151C20.0107 18.2478 20.0363 18.1643 20.0529 18.0786C20.0709 17.9852 20.0724 17.9187 20.0679 17.8803L17.5615 15.3791C17.5528 15.3704 17.5443 15.3615 17.536 15.3524C17.5224 15.3375 17.5073 15.3229 17.4916 15.3098C17.4815 15.3014 17.4723 15.2946 17.4643 15.2893C17.4292 15.3092 17.3857 15.3433 17.3407 15.3882L16.443 16.2841C16.4412 16.2859 16.4392 16.2879 16.4371 16.29C16.3331 16.3941 15.8946 16.8331 15.1818 16.8331C14.8909 16.8331 14.6228 16.7603 14.3712 16.6347C14.3437 16.621 14.3213 16.6081 14.3069 16.5996C14.298 16.5943 14.2898 16.5892 14.2841 16.5858C14.2733 16.5798 14.2627 16.5735 14.2522 16.567C14.1567 16.5079 14.0364 16.4471 13.8629 16.3605L13.851 16.3546C13.6745 16.2665 13.4516 16.1553 13.2294 16.0147M20.6638 18.7707L21.3837 19.1195C21.3437 19.2021 21.2898 19.2772 21.2243 19.3415L21.175 19.3901L21.0411 19.5223C20.9288 19.6334 20.7765 19.7848 20.6155 19.9462C20.2813 20.2815 19.9472 20.6237 19.8304 20.7609C19.8221 20.7706 19.8136 20.7801 19.8049 20.7894C19.1845 21.4515 18.4249 21.7691 17.4992 21.7691H17.4911C17.4274 21.7691 17.3312 21.7691 17.2354 21.7627C15.7158 21.6652 14.3372 21.0778 13.3718 20.617L13.3684 20.6154C10.6724 19.3129 8.30664 17.4641 6.344 15.1261L6.34156 15.1232C4.73488 13.1906 3.63884 11.3769 2.90969 9.41117C2.45878 8.20605 2.26765 7.19715 2.34911 6.20535L2.34934 6.20257C2.41122 5.48004 2.69926 4.8602 3.21332 4.34719L4.775 2.7887C4.78095 2.78275 4.78701 2.7769 4.79315 2.77115C5.10925 2.47501 5.53338 2.23047 6.03622 2.23047C6.64515 2.23047 7.07345 2.58802 7.26996 2.78413L7.27424 2.78841C7.56526 3.0603 7.83932 3.33882 8.11696 3.62497M20.6638 18.7707C21.3837 19.1195 21.3836 19.1197 21.3837 19.1195L21.3846 19.1176L21.3857 19.1154L21.3883 19.1099L21.3955 19.0945C21.4011 19.0824 21.4083 19.0665 21.4167 19.0472C21.4334 19.0087 21.4552 18.956 21.479 18.8922C21.5257 18.767 21.5841 18.5877 21.6239 18.382C21.6912 18.0331 21.7619 17.3068 21.2232 16.7728C21.2226 16.7723 21.2221 16.7717 21.2215 16.7712L18.7031 14.2579C18.4963 14.0362 18.0695 13.6792 17.4671 13.6792C16.8471 13.6792 16.4022 14.0644 16.2105 14.2557L15.3128 15.1515C15.2826 15.1817 15.262 15.2006 15.2357 15.2162C15.2133 15.2294 15.1982 15.2331 15.1818 15.2331C15.1718 15.2331 15.1512 15.233 15.1054 15.2125C15.1022 15.2105 15.0986 15.2084 15.095 15.2062C15.0892 15.2028 15.0822 15.1987 15.074 15.1941C14.9149 15.0973 14.7398 15.0099 14.593 14.9367L14.5773 14.9288C14.3893 14.8351 14.2328 14.7562 14.0846 14.6624C12.6984 13.7876 11.4282 12.6377 10.2106 11.1408C10.2058 11.1349 10.201 11.1291 10.1961 11.1234C9.54834 10.3001 9.14171 9.63524 8.85587 8.9518L8.85348 8.94464C8.82575 8.85571 8.82644 8.82429 8.82758 8.81449C8.82778 8.81268 8.82821 8.80892 8.83248 8.80029C8.8373 8.79056 8.85284 8.76291 8.89569 8.72014C8.89789 8.71795 8.90008 8.71574 8.90225 8.71352C8.98833 8.6367 9.03208 8.59934 9.05377 8.58132C9.06414 8.57271 9.06919 8.56875 9.07166 8.56682L9.08111 8.55949C9.08592 8.55575 9.09515 8.54856 9.10598 8.53969C9.1541 8.50029 9.19319 8.46046 9.22044 8.43271L9.22372 8.42936C9.23828 8.41454 9.25863 8.39368 9.28535 8.36629C9.31491 8.336 9.35226 8.29772 9.39817 8.25079C9.49041 8.16166 9.58569 8.06549 9.67372 7.97663C9.71562 7.93434 9.75587 7.89372 9.79337 7.85629C10.1121 7.53824 10.3924 7.11319 10.3924 6.58162C10.3924 6.05006 10.1121 5.62501 9.79337 5.30696L8.54743 4.06356C8.47408 3.98811 8.40108 3.91412 8.33095 3.84303L8.32827 3.84031C8.25525 3.7663 8.18528 3.69536 8.11696 3.62497M5.895 3.93142C5.96567 3.8666 6.01229 3.84268 6.03367 3.83419C6.0355 3.83511 6.03754 3.83618 6.0398 3.83742C6.06666 3.85211 6.10181 3.87879 6.13974 3.91666L6.15348 3.93037C6.15988 3.93675 6.16638 3.94302 6.17299 3.94919C6.4369 4.19529 6.69093 4.45291 6.96877 4.73927C7.04237 4.81509 7.1169 4.89064 7.18924 4.96397L7.18999 4.96473C7.2628 5.03854 7.33369 5.1104 7.40426 5.18302L8.66316 6.43948C8.73099 6.50717 8.76501 6.55413 8.78151 6.58162C8.76501 6.60912 8.73099 6.65608 8.66316 6.72376C8.61125 6.77556 8.56394 6.82334 8.51886 6.86888C8.43639 6.95216 8.36137 7.02793 8.27932 7.10699C8.2737 7.11241 8.26815 7.11791 8.26268 7.1235C8.20732 7.18006 8.168 7.22037 8.13844 7.25068C8.11441 7.27532 8.09681 7.29335 8.08228 7.30815C8.08031 7.31015 8.07851 7.31199 8.07685 7.31367C8.06436 7.32354 8.04965 7.33541 8.03147 7.35051C7.98733 7.38717 7.92396 7.44189 7.82241 7.53272C7.82173 7.5333 7.82102 7.5339 7.82031 7.53451C7.80638 7.54643 7.77221 7.57565 7.73242 7.62132C7.43635 7.92977 7.2793 8.27603 7.23823 8.63014C7.19817 8.97549 7.27672 9.26522 7.32972 9.4327L7.34739 9.48593C7.35329 9.50359 7.3598 9.52105 7.36692 9.53826C7.72836 10.4121 8.231 11.2162 8.95742 12.1366C8.9667 12.1484 8.9763 12.1599 8.98622 12.1711C10.2915 13.772 11.6824 15.0383 13.2294 16.0147" fill="#171719"/>
</svg>
