<svg width="24" height="24" viewBox="0 0 24 24" fill="none" xmlns="http://www.w3.org/2000/svg">
<path fill-rule="evenodd" clip-rule="evenodd" d="M12.0016 2C12.4434 2 12.8016 2.35817 12.8016 2.8V11.2H21.2016C21.6435 11.2 22.0016 11.5582 22.0016 12C22.0016 12.4418 21.6435 12.8 21.2016 12.8H12.8016V21.2C12.8016 21.6418 12.4434 22 12.0016 22C11.5598 22 11.2016 21.6418 11.2016 21.2V12.8H2.80159C2.35976 12.8 2.00159 12.4418 2.00159 12C2.00159 11.5582 2.35976 11.2 2.80159 11.2H11.2016V2.8C11.2016 2.35817 11.5598 2 12.0016 2Z" fill="#171719"/>
</svg>
