<svg width="24" height="24" viewBox="0 0 24 24" fill="none" xmlns="http://www.w3.org/2000/svg">
<path fill-rule="evenodd" clip-rule="evenodd" d="M3.7019 12.0002C3.7019 11.5584 4.06008 11.2002 4.5019 11.2002H19.5019C19.9437 11.2002 20.3019 11.5584 20.3019 12.0002C20.3019 12.442 19.9437 12.8002 19.5019 12.8002H4.5019C4.06008 12.8002 3.7019 12.442 3.7019 12.0002Z" fill="#171719"/>
<path fill-rule="evenodd" clip-rule="evenodd" d="M12.0019 3.7002C12.4437 3.7002 12.8019 4.05837 12.8019 4.5002L12.8019 19.5002C12.8019 19.942 12.4437 20.3002 12.0019 20.3002C11.5601 20.3002 11.2019 19.942 11.2019 19.5002L11.2019 4.5002C11.2019 4.05837 11.5601 3.7002 12.0019 3.7002Z" fill="#171719"/>
</svg>
