<svg width="24" height="24" viewBox="0 0 24 24" fill="none" xmlns="http://www.w3.org/2000/svg">
<path fill-rule="evenodd" clip-rule="evenodd" d="M3.38656 10.1378L2.66568 9.05644C2.42059 8.68881 1.9239 8.58947 1.55628 8.83456C1.18865 9.07964 1.08931 9.57633 1.3344 9.94396L3.3344 12.944C3.57948 13.3116 4.07617 13.4109 4.4438 13.1658L7.4438 11.1658C7.81142 10.9208 7.91076 10.4241 7.66568 10.0564C7.42059 9.68881 6.9239 9.58947 6.55628 9.83456L4.86986 10.9588C5.37821 7.19877 8.60062 4.3002 12.5 4.3002C16.7526 4.3002 20.2 7.7476 20.2 12.0002C20.2 16.2528 16.7526 19.7002 12.5 19.7002C9.70003 19.7002 7.24819 18.2062 5.89954 15.968C5.67151 15.5895 5.17987 15.4676 4.80144 15.6956C4.423 15.9236 4.30107 16.4153 4.5291 16.7937C6.15521 19.4924 9.11611 21.3002 12.5 21.3002C17.6363 21.3002 21.8 17.1364 21.8 12.0002C21.8 6.86395 17.6363 2.7002 12.5 2.7002C8.00163 2.7002 4.24919 5.89401 3.38656 10.1378Z" fill="#171719"/>
</svg>
