<svg width="24" height="24" viewBox="0 0 24 24" fill="none" xmlns="http://www.w3.org/2000/svg">
<path fill-rule="evenodd" clip-rule="evenodd" d="M11.0002 3.8002C7.02375 3.8002 3.8002 7.02375 3.8002 11.0002C3.8002 14.9766 7.02375 18.2002 11.0002 18.2002C14.9766 18.2002 18.2002 14.9766 18.2002 11.0002C18.2002 7.02375 14.9766 3.8002 11.0002 3.8002ZM2.2002 11.0002C2.2002 6.14009 6.14009 2.2002 11.0002 2.2002C15.8603 2.2002 19.8002 6.14009 19.8002 11.0002C19.8002 13.1421 19.0349 15.1053 17.7629 16.6313L21.5661 20.4345C21.8785 20.7469 21.8785 21.2535 21.5661 21.5659C21.2537 21.8783 20.7472 21.8783 20.4348 21.5659L16.6316 17.7627C15.1056 19.0349 13.1423 19.8002 11.0002 19.8002C6.14009 19.8002 2.2002 15.8603 2.2002 11.0002Z" fill="#171719"/>
</svg>
