<svg width="24" height="24" viewBox="0 0 24 24" fill="none" xmlns="http://www.w3.org/2000/svg">
<path fill-rule="evenodd" clip-rule="evenodd" d="M18.0004 3.8002C16.7854 3.8002 15.8004 4.78517 15.8004 6.0002C15.8004 7.21522 16.7854 8.2002 18.0004 8.2002C19.2155 8.2002 20.2004 7.21522 20.2004 6.0002C20.2004 4.78517 19.2155 3.8002 18.0004 3.8002ZM14.2004 6.0002C14.2004 3.90151 15.9018 2.2002 18.0004 2.2002C20.0991 2.2002 21.8004 3.90151 21.8004 6.0002C21.8004 8.09888 20.0991 9.8002 18.0004 9.8002C16.6461 9.8002 15.4573 9.09171 14.7843 8.02516L9.61065 10.811C9.73381 11.1851 9.80044 11.5849 9.80044 12.0002C9.80044 12.4155 9.73381 12.8153 9.61065 13.1894L14.7843 15.9752C15.4573 14.9087 16.6461 14.2002 18.0004 14.2002C20.0991 14.2002 21.8004 15.9015 21.8004 18.0002C21.8004 20.0989 20.0991 21.8002 18.0004 21.8002C15.9018 21.8002 14.2004 20.0989 14.2004 18.0002C14.2004 17.8292 14.2117 17.6609 14.2336 17.4959L8.79979 14.57C8.10521 15.3262 7.10818 15.8002 6.00044 15.8002C3.90176 15.8002 2.20044 14.0989 2.20044 12.0002C2.20044 9.90151 3.90176 8.2002 6.00044 8.2002C7.10818 8.2002 8.10521 8.67418 8.79979 9.4304L14.2336 6.5045C14.2117 6.33951 14.2004 6.17117 14.2004 6.0002ZM6.00044 9.8002C4.78541 9.8002 3.80044 10.7852 3.80044 12.0002C3.80044 13.2152 4.78541 14.2002 6.00044 14.2002C7.21547 14.2002 8.20044 13.2152 8.20044 12.0002C8.20044 10.7852 7.21547 9.8002 6.00044 9.8002ZM18.0004 15.8002C16.7854 15.8002 15.8004 16.7852 15.8004 18.0002C15.8004 19.2152 16.7854 20.2002 18.0004 20.2002C19.2155 20.2002 20.2004 19.2152 20.2004 18.0002C20.2004 16.7852 19.2155 15.8002 18.0004 15.8002Z" fill="#171719"/>
</svg>
