<svg width="24" height="24" viewBox="0 0 24 24" fill="none" xmlns="http://www.w3.org/2000/svg">
<path fill-rule="evenodd" clip-rule="evenodd" d="M10.8 3.18162C11.2441 2.11394 12.7566 2.11394 13.2006 3.18162L15.3286 8.29788L20.852 8.74069C22.0047 8.8331 22.4721 10.2716 21.5939 11.0238L17.3856 14.6287L18.6713 20.0186C18.9396 21.1434 17.716 22.0324 16.7291 21.4297L12.0003 18.5413L7.27151 21.4297C6.28469 22.0324 5.06106 21.1434 5.32937 20.0186L6.61506 14.6287L2.4068 11.0238C1.5286 10.2716 1.99598 8.8331 3.14863 8.74069L8.67205 8.29788L10.8 3.18162ZM12.0003 4.46205L10.079 9.08152C9.89178 9.53162 9.46849 9.83916 8.98256 9.87812L3.99547 10.2779L7.79511 13.5327C8.16533 13.8499 8.32702 14.3475 8.21391 14.8217L7.05305 19.6882L11.3227 17.0803C11.7387 16.8262 12.2619 16.8262 12.678 17.0803L16.9476 19.6882L15.7868 14.8217C15.6736 14.3475 15.8353 13.8499 16.2056 13.5327L20.0052 10.2779L15.0181 9.87812C14.5322 9.83916 14.1089 9.53162 13.9217 9.08152L12.0003 4.46205Z" fill="#171719"/>
</svg>
