<svg width="24" height="24" viewBox="0 0 24 24" fill="none" xmlns="http://www.w3.org/2000/svg">
<path fill-rule="evenodd" clip-rule="evenodd" d="M18.4345 1.93451C18.7469 1.62209 19.2535 1.62209 19.5659 1.93451L21.5659 3.93451C21.8783 4.24693 21.8783 4.75346 21.5659 5.06588L19.5659 7.06588C19.2535 7.3783 18.7469 7.3783 18.4345 7.06588C18.1221 6.75346 18.1221 6.24693 18.4345 5.93451L19.8688 4.5002L18.4345 3.06588C18.1221 2.75346 18.1221 2.24693 18.4345 1.93451Z" fill="#171719"/>
<path fill-rule="evenodd" clip-rule="evenodd" d="M3.2002 7.8752C3.2002 5.63368 4.97536 3.7002 7.25381 3.7002H20.0002C20.442 3.7002 20.8002 4.05837 20.8002 4.5002C20.8002 4.94202 20.442 5.3002 20.0002 5.3002H7.25381C5.92504 5.3002 4.8002 6.44983 4.8002 7.8752V12.5002C4.8002 12.942 4.44202 13.3002 4.0002 13.3002C3.55837 13.3002 3.2002 12.942 3.2002 12.5002V7.8752Z" fill="#171719"/>
<path fill-rule="evenodd" clip-rule="evenodd" d="M5.56586 22.0655C5.25344 22.3779 4.7469 22.3779 4.43449 22.0655L2.43449 20.0655C2.12207 19.7531 2.12207 19.2465 2.43449 18.9341L4.43449 16.9341C4.7469 16.6217 5.25344 16.6217 5.56586 16.9341C5.87828 17.2465 5.87828 17.7531 5.56586 18.0655L4.13154 19.4998L5.56586 20.9341C5.87828 21.2465 5.87828 21.7531 5.56586 22.0655Z" fill="#171719"/>
<path fill-rule="evenodd" clip-rule="evenodd" d="M20.8002 16.1248C20.8002 18.3663 19.025 20.2998 16.7466 20.2998H3.00017C2.55834 20.2998 2.20017 19.9416 2.20017 19.4998C2.20017 19.058 2.55834 18.6998 3.00017 18.6998H16.7466C18.0753 18.6998 19.2002 17.5502 19.2002 16.1248V11.4998C19.2002 11.058 19.5583 10.6998 20.0002 10.6998C20.442 10.6998 20.8002 11.058 20.8002 11.4998V16.1248Z" fill="#171719"/>
</svg>
