<svg width="24" height="24" viewBox="0 0 24 24" fill="none" xmlns="http://www.w3.org/2000/svg">
<path fill-rule="evenodd" clip-rule="evenodd" d="M3.20034 6.50039V17.5004H15.8003V6.50039H3.20034ZM1.60034 6.48789C1.60034 5.7673 2.10605 4.90039 3.0458 4.90039H15.9549C16.8946 4.90039 17.4003 5.7673 17.4003 6.48789V17.5129C17.4003 18.2335 16.8946 19.1004 15.9549 19.1004H3.0458C2.10605 19.1004 1.60034 18.2335 1.60034 17.5129V6.48789Z" fill="#171719"/>
<path fill-rule="evenodd" clip-rule="evenodd" d="M21.9945 6.80423C22.2453 6.94624 22.4003 7.21217 22.4003 7.50039V16.5004C22.4003 16.7886 22.2453 17.0545 21.9945 17.1966C21.7436 17.3386 21.4358 17.3347 21.1887 17.1864L16.1887 14.1864C15.8098 13.9591 15.687 13.4677 15.9143 13.0888C16.1416 12.7099 16.633 12.5871 17.0119 12.8144L20.8003 15.0874V8.91334L17.0119 11.1864C16.633 11.4137 16.1416 11.2909 15.9143 10.912C15.687 10.5331 15.8098 10.0417 16.1887 9.8144L21.1887 6.8144C21.4358 6.66611 21.7436 6.66223 21.9945 6.80423Z" fill="#171719"/>
</svg>
