<svg width="24" height="24" viewBox="0 0 24 24" fill="none" xmlns="http://www.w3.org/2000/svg">
<path fill-rule="evenodd" clip-rule="evenodd" d="M17.7539 17.1379L17.7582 17.1298C18.7476 15.2387 18.5889 13.0197 17.3145 11.2498L12.0003 3.96019L6.68614 11.2498C5.41181 13.0197 5.25312 15.2387 6.24255 17.1298L6.2468 17.1379L6.25095 17.1461C7.14963 18.9127 9.05545 20.1822 11.3185 20.3721C11.5444 20.3904 11.7715 20.4 12.0004 20.4C12.2292 20.4 12.4563 20.3904 12.6837 20.3721C14.9461 20.1817 16.8513 18.9124 17.7498 17.1461L17.7539 17.1379ZM12.8145 21.9667C12.5457 21.9884 12.275 22 12.0004 22C11.7257 22 11.4546 21.9884 11.1868 21.9667C8.42003 21.7351 5.99672 20.1752 4.82486 17.8715C3.5501 15.4351 3.76483 12.5658 5.39059 10.3109L11.1722 2.38005C11.5133 1.96179 12.1605 1.87554 12.6178 2.18741C12.6978 2.24195 12.7688 2.30688 12.8284 2.38005L18.6101 10.3109C20.2359 12.5658 20.4506 15.4351 19.1759 17.8715C18.0041 20.1751 15.5811 21.735 12.8145 21.9667Z" fill="#171719"/>
</svg>
