<svg width="38" height="86" viewBox="0 0 38 86" fill="none" xmlns="http://www.w3.org/2000/svg">
<g filter="url(#filter0_dd_8516_122112)">
<g filter="url(#filter1_i_8516_122112)">
<path d="M8 9C8 6.23858 10.2386 4 13 4H25C27.7614 4 30 6.23858 30 9V23H8V9Z" fill="#E9A29E"/>
<path d="M8 9C8 6.23858 10.2386 4 13 4H25C27.7614 4 30 6.23858 30 9V23H8V9Z" fill="url(#paint0_linear_8516_122112)"/>
</g>
<rect x="8" y="23" width="22" height="19" fill="url(#paint1_linear_8516_122112)"/>
<rect x="8" y="42" width="22" height="44" fill="url(#paint2_linear_8516_122112)"/>
<g filter="url(#filter2_i_8516_122112)">
<path d="M21.6569 36.0711C22.0474 36.4616 22.6805 36.4616 23.0711 36.0711C23.4616 35.6805 23.4616 35.0474 23.0711 34.6569L20.5962 32.182L23.0711 29.7071C23.4616 29.3166 23.4616 28.6834 23.0711 28.2929C22.6806 27.9024 22.0474 27.9024 21.6569 28.2929L19.182 30.7678L16.7071 28.2929C16.3166 27.9024 15.6834 27.9024 15.2929 28.2929C14.9024 28.6834 14.9024 29.3166 15.2929 29.7071L17.7678 32.182L15.2929 34.6569C14.9024 35.0474 14.9024 35.6805 15.2929 36.0711C15.6834 36.4616 16.3166 36.4616 16.7071 36.0711L19.182 33.5962L21.6569 36.0711Z" fill="#E9A29E"/>
<path d="M21.6569 36.0711C22.0474 36.4616 22.6805 36.4616 23.0711 36.0711C23.4616 35.6805 23.4616 35.0474 23.0711 34.6569L20.5962 32.182L23.0711 29.7071C23.4616 29.3166 23.4616 28.6834 23.0711 28.2929C22.6806 27.9024 22.0474 27.9024 21.6569 28.2929L19.182 30.7678L16.7071 28.2929C16.3166 27.9024 15.6834 27.9024 15.2929 28.2929C14.9024 28.6834 14.9024 29.3166 15.2929 29.7071L17.7678 32.182L15.2929 34.6569C14.9024 35.0474 14.9024 35.6805 15.2929 36.0711C15.6834 36.4616 16.3166 36.4616 16.7071 36.0711L19.182 33.5962L21.6569 36.0711Z" fill="#DD9795"/>
</g>
</g>
<rect x="8" y="42" width="22" height="1" fill="#D8D8D8"/>
<defs>
<filter id="filter0_dd_8516_122112" x="0" y="0" width="38" height="98" filterUnits="userSpaceOnUse" color-interpolation-filters="sRGB">
<feFlood flood-opacity="0" result="BackgroundImageFix"/>
<feColorMatrix in="SourceAlpha" type="matrix" values="0 0 0 0 0 0 0 0 0 0 0 0 0 0 0 0 0 0 127 0" result="hardAlpha"/>
<feOffset dy="2"/>
<feGaussianBlur stdDeviation="2"/>
<feColorMatrix type="matrix" values="0 0 0 0 0 0 0 0 0 0 0 0 0 0 0 0 0 0 0.06 0"/>
<feBlend mode="normal" in2="BackgroundImageFix" result="effect1_dropShadow_8516_122112"/>
<feColorMatrix in="SourceAlpha" type="matrix" values="0 0 0 0 0 0 0 0 0 0 0 0 0 0 0 0 0 0 127 0" result="hardAlpha"/>
<feOffset dy="4"/>
<feGaussianBlur stdDeviation="4"/>
<feColorMatrix type="matrix" values="0 0 0 0 0 0 0 0 0 0 0 0 0 0 0 0 0 0 0.06 0"/>
<feBlend mode="normal" in2="effect1_dropShadow_8516_122112" result="effect2_dropShadow_8516_122112"/>
<feBlend mode="normal" in="SourceGraphic" in2="effect2_dropShadow_8516_122112" result="shape"/>
</filter>
<filter id="filter1_i_8516_122112" x="8" y="4" width="22" height="20" filterUnits="userSpaceOnUse" color-interpolation-filters="sRGB">
<feFlood flood-opacity="0" result="BackgroundImageFix"/>
<feBlend mode="normal" in="SourceGraphic" in2="BackgroundImageFix" result="shape"/>
<feColorMatrix in="SourceAlpha" type="matrix" values="0 0 0 0 0 0 0 0 0 0 0 0 0 0 0 0 0 0 127 0" result="hardAlpha"/>
<feOffset dy="1"/>
<feGaussianBlur stdDeviation="1"/>
<feComposite in2="hardAlpha" operator="arithmetic" k2="-1" k3="1"/>
<feColorMatrix type="matrix" values="0 0 0 0 0.795833 0 0 0 0 0.506305 0 0 0 0 0.497396 0 0 0 1 0"/>
<feBlend mode="normal" in2="shape" result="effect1_innerShadow_8516_122112"/>
</filter>
<filter id="filter2_i_8516_122112" x="15" y="28" width="8.36328" height="9.36377" filterUnits="userSpaceOnUse" color-interpolation-filters="sRGB">
<feFlood flood-opacity="0" result="BackgroundImageFix"/>
<feBlend mode="normal" in="SourceGraphic" in2="BackgroundImageFix" result="shape"/>
<feColorMatrix in="SourceAlpha" type="matrix" values="0 0 0 0 0 0 0 0 0 0 0 0 0 0 0 0 0 0 127 0" result="hardAlpha"/>
<feOffset dy="1"/>
<feGaussianBlur stdDeviation="0.5"/>
<feComposite in2="hardAlpha" operator="arithmetic" k2="-1" k3="1"/>
<feColorMatrix type="matrix" values="0 0 0 0 0.766667 0 0 0 0 0.447461 0 0 0 0 0.437639 0 0 0 1 0"/>
<feBlend mode="normal" in2="shape" result="effect1_innerShadow_8516_122112"/>
</filter>
<linearGradient id="paint0_linear_8516_122112" x1="30" y1="14" x2="8" y2="14" gradientUnits="userSpaceOnUse">
<stop stop-color="#D18784"/>
<stop offset="0.218777" stop-color="#E9A29E"/>
<stop offset="0.523472" stop-color="#E9A8A4"/>
<stop offset="0.863338" stop-color="#CC7F7A"/>
<stop offset="0.945621" stop-color="#D89490"/>
<stop offset="1" stop-color="#D28B87"/>
</linearGradient>
<linearGradient id="paint1_linear_8516_122112" x1="8" y1="32.9318" x2="30" y2="32.9318" gradientUnits="userSpaceOnUse">
<stop stop-color="#DBDBDB"/>
<stop offset="0.0637281" stop-color="#EBEBEB"/>
<stop offset="0.178482" stop-color="#DADADA"/>
<stop offset="0.48833" stop-color="#F6F6F6"/>
<stop offset="0.757139" stop-color="#EFEFEF"/>
<stop offset="1" stop-color="#DDDDDD"/>
</linearGradient>
<linearGradient id="paint2_linear_8516_122112" x1="8" y1="65" x2="30" y2="65" gradientUnits="userSpaceOnUse">
<stop stop-color="#DBDBDB"/>
<stop offset="0.0637281" stop-color="#EBEBEB"/>
<stop offset="0.178482" stop-color="#DADADA"/>
<stop offset="0.48833" stop-color="#F6F6F6"/>
<stop offset="0.757139" stop-color="#EFEFEF"/>
<stop offset="1" stop-color="#DDDDDD"/>
</linearGradient>
</defs>
</svg>
