<svg width="38" height="86" viewBox="0 0 38 86" fill="none" xmlns="http://www.w3.org/2000/svg">
<g filter="url(#filter0_dd_8541_121312)">
<rect x="8" y="43.8057" width="22" height="42.1942" fill="url(#paint0_linear_8541_121312)"/>
<path d="M8 39.3354L8 42.2136L30 42.2136L30 39.3354C30 37.2485 29.6851 35.1735 29.0659 33.1805L20.2967 4.95497C20.1202 4.38703 19.5947 4 19 4C18.4053 4 17.8798 4.38703 17.7033 4.95497L8.93411 33.1805C8.31491 35.1735 8 37.2485 8 39.3354Z" fill="url(#paint1_linear_8541_121312)"/>
<mask id="mask0_8541_121312" style="mask-type:alpha" maskUnits="userSpaceOnUse" x="8" y="4" width="22" height="39">
<path d="M8 38.3534L8 42.2136L30 42.2136L30 38.3534C30 36.9174 29.7833 35.4896 29.3572 34.1182L20.2967 4.95497C20.1202 4.38703 19.5947 4 19 4C18.4053 4 17.8798 4.38703 17.7033 4.95497L8.64275 34.1182C8.21669 35.4896 8 36.9174 8 38.3534Z" fill="url(#paint2_linear_8541_121312)"/>
</mask>
<g mask="url(#mask0_8541_121312)">
<rect x="14" y="3.2041" width="11" height="8.75728" fill="#181818"/>
<rect x="14" y="3.2041" width="11" height="8.75728" fill="url(#paint3_linear_8541_121312)"/>
</g>
</g>
<rect x="8" y="42.2139" width="22" height="1.59223" fill="#181818"/>
<rect x="8" y="42.2139" width="22" height="1.59223" fill="url(#paint4_linear_8541_121312)"/>
<defs>
<filter id="filter0_dd_8541_121312" x="0" y="0" width="38" height="98" filterUnits="userSpaceOnUse" color-interpolation-filters="sRGB">
<feFlood flood-opacity="0" result="BackgroundImageFix"/>
<feColorMatrix in="SourceAlpha" type="matrix" values="0 0 0 0 0 0 0 0 0 0 0 0 0 0 0 0 0 0 127 0" result="hardAlpha"/>
<feOffset dy="2"/>
<feGaussianBlur stdDeviation="2"/>
<feColorMatrix type="matrix" values="0 0 0 0 0 0 0 0 0 0 0 0 0 0 0 0 0 0 0.06 0"/>
<feBlend mode="normal" in2="BackgroundImageFix" result="effect1_dropShadow_8541_121312"/>
<feColorMatrix in="SourceAlpha" type="matrix" values="0 0 0 0 0 0 0 0 0 0 0 0 0 0 0 0 0 0 127 0" result="hardAlpha"/>
<feOffset dy="4"/>
<feGaussianBlur stdDeviation="4"/>
<feColorMatrix type="matrix" values="0 0 0 0 0 0 0 0 0 0 0 0 0 0 0 0 0 0 0.06 0"/>
<feBlend mode="normal" in2="effect1_dropShadow_8541_121312" result="effect2_dropShadow_8541_121312"/>
<feBlend mode="normal" in="SourceGraphic" in2="effect2_dropShadow_8541_121312" result="shape"/>
</filter>
<linearGradient id="paint0_linear_8541_121312" x1="8" y1="65.8617" x2="30" y2="65.8617" gradientUnits="userSpaceOnUse">
<stop stop-color="#DBDBDB"/>
<stop offset="0.0637281" stop-color="#EBEBEB"/>
<stop offset="0.178482" stop-color="#DADADA"/>
<stop offset="0.48833" stop-color="#F6F6F6"/>
<stop offset="0.757139" stop-color="#EFEFEF"/>
<stop offset="1" stop-color="#DDDDDD"/>
</linearGradient>
<linearGradient id="paint1_linear_8541_121312" x1="8" y1="23.9753" x2="30" y2="23.9753" gradientUnits="userSpaceOnUse">
<stop stop-color="#DBDBDB"/>
<stop offset="0.0637281" stop-color="#EBEBEB"/>
<stop offset="0.178482" stop-color="#DADADA"/>
<stop offset="0.48833" stop-color="#F6F6F6"/>
<stop offset="0.757139" stop-color="#EFEFEF"/>
<stop offset="1" stop-color="#DDDDDD"/>
</linearGradient>
<linearGradient id="paint2_linear_8541_121312" x1="8" y1="23.9753" x2="30" y2="23.9753" gradientUnits="userSpaceOnUse">
<stop stop-color="#DBDBDB"/>
<stop offset="0.0637281" stop-color="#EBEBEB"/>
<stop offset="0.178482" stop-color="#DADADA"/>
<stop offset="0.48833" stop-color="#F6F6F6"/>
<stop offset="0.757139" stop-color="#EFEFEF"/>
<stop offset="1" stop-color="#DDDDDD"/>
</linearGradient>
<linearGradient id="paint3_linear_8541_121312" x1="14" y1="8.06926" x2="25" y2="8.06926" gradientUnits="userSpaceOnUse">
<stop stop-color="#1D1D1D"/>
<stop offset="0.497299" stop-color="#585858"/>
<stop offset="1" stop-color="#313131"/>
</linearGradient>
<linearGradient id="paint4_linear_8541_121312" x1="8" y1="43.0984" x2="30" y2="43.0984" gradientUnits="userSpaceOnUse">
<stop stop-color="#1D1D1D"/>
<stop offset="0.497299" stop-color="#585858"/>
<stop offset="1" stop-color="#313131"/>
</linearGradient>
</defs>
</svg>
