<svg width="24" height="24" viewBox="0 0 24 24" fill="none" xmlns="http://www.w3.org/2000/svg">
<g clip-path="url(#clip0_910_8014)">
<path d="M12.2409 6.61667C13.1458 6.61667 14.2853 6.00833 14.964 5.19167C15.5757 4.45833 16.0281 3.425 16.0281 2.39167C16.0281 2.25 16.0113 2.10833 15.9862 2C14.9724 2.04167 13.7659 2.675 13.0369 3.525C12.4588 4.175 11.9393 5.19167 11.9393 6.23333C11.9393 6.38333 11.9644 6.54167 11.9812 6.59167C12.0482 6.60833 12.1488 6.61667 12.2493 6.61667H12.2409ZM9.04863 22C10.2887 22 10.8417 21.175 12.3834 21.175C13.925 21.175 14.3021 21.975 15.6846 21.975C17.0671 21.975 17.9468 20.725 18.8015 19.5083C19.7566 18.1083 20.1588 16.7333 20.1839 16.675C20.0918 16.65 17.5028 15.5917 17.5028 12.6333C17.5028 10.0667 19.5472 8.90833 19.6645 8.81667C18.3071 6.88333 16.2543 6.83333 15.6846 6.83333C14.1596 6.83333 12.9196 7.75 12.1404 7.75C11.2941 7.75 10.1881 6.88333 8.8643 6.88333C6.36744 6.88333 3.82031 8.94167 3.82031 12.8333C3.82031 15.25 4.76711 17.8083 5.93175 19.4583C6.92882 20.8583 7.8002 22 9.04863 22Z" fill="white"/>
</g>
<defs>
<clipPath id="clip0_910_8014">
<rect width="24.0001" height="24" fill="white" transform="translate(0.000244141)"/>
</clipPath>
</defs>
</svg>
