<svg width="24" height="24" viewBox="0 0 24 24" fill="none" xmlns="http://www.w3.org/2000/svg">
<g clip-path="url(#clip0_910_8013)">
<path fill-rule="evenodd" clip-rule="evenodd" d="M21.7405 12.2269C21.7405 11.5175 21.6768 10.8364 21.5598 10.1816H12.1992V14.0498H17.5485C17.3182 15.2999 16.6178 16.3588 15.5654 17.0681V19.5769H18.7779C20.6572 17.8359 21.7405 15.2726 21.7405 12.2269Z" fill="#3E82F1"/>
<path fill-rule="evenodd" clip-rule="evenodd" d="M12.1993 22.0003C14.8828 22.0003 17.1337 21.1039 18.7779 19.5769L15.5654 17.0681C14.6749 17.6682 13.5364 18.0229 12.1983 18.0229C9.60934 18.0229 7.41831 16.264 6.63646 13.9004H3.31714V16.4911C4.95292 19.7591 8.31345 22.0003 12.1993 22.0003Z" fill="#32A753"/>
<path fill-rule="evenodd" clip-rule="evenodd" d="M6.63646 13.9004C6.43796 13.3003 6.3256 12.66 6.3256 12.0006C6.3256 11.3411 6.43889 10.7005 6.6374 10.1004V7.50977H3.31714C2.64391 8.85974 2.26001 10.3868 2.26001 12.0006C2.26001 13.6143 2.64391 15.1411 3.31714 16.4911L6.63646 13.9004Z" fill="#F9BB00"/>
<path fill-rule="evenodd" clip-rule="evenodd" d="M12.1992 5.9774C13.658 5.9774 14.9689 6.48234 15.9989 7.47245L18.85 4.60387C17.1281 2.99105 14.8781 2 12.1992 2C8.31342 2 4.95292 4.24174 3.31714 7.50977L6.6374 10.1004C7.41924 7.7368 9.61025 5.9774 12.1992 5.9774Z" fill="#E74133"/>
</g>
<defs>
<clipPath id="clip0_910_8013">
<rect width="24.0001" height="24" fill="white"/>
</clipPath>
</defs>
</svg>
