<svg width="24" height="24" viewBox="0 0 24 24" fill="none" xmlns="http://www.w3.org/2000/svg">
<g clip-path="url(#clip0_910_8013)">
<path fill-rule="evenodd" clip-rule="evenodd" d="M21.7408 12.2269C21.7408 11.5175 21.6771 10.8364 21.56 10.1816H12.1995V14.0498H17.5488C17.3184 15.2999 16.618 16.3588 15.5656 17.0681V19.5769H18.7782C20.6574 17.8359 21.7408 15.2726 21.7408 12.2269Z" fill="#3E82F1"/>
<path fill-rule="evenodd" clip-rule="evenodd" d="M12.1995 22.0003C14.8831 22.0003 17.134 21.1039 18.7782 19.5769L15.5656 17.0681C14.6751 17.6682 13.5366 18.0229 12.1986 18.0229C9.60959 18.0229 7.41855 16.264 6.63671 13.9004H3.31738V16.4911C4.95317 19.7591 8.31369 22.0003 12.1995 22.0003Z" fill="#32A753"/>
<path fill-rule="evenodd" clip-rule="evenodd" d="M6.63671 13.9004C6.4382 13.3003 6.32584 12.66 6.32584 12.0006C6.32584 11.3411 6.43914 10.7005 6.63764 10.1004V7.50977H3.31738C2.64415 8.85974 2.26025 10.3868 2.26025 12.0006C2.26025 13.6143 2.64415 15.1411 3.31738 16.4911L6.63671 13.9004Z" fill="#F9BB00"/>
<path fill-rule="evenodd" clip-rule="evenodd" d="M12.1995 5.9774C13.6583 5.9774 14.9692 6.48234 15.9991 7.47245L18.8503 4.60387C17.1284 2.99105 14.8783 2 12.1995 2C8.31366 2 4.95317 4.24174 3.31738 7.50977L6.63764 10.1004C7.41949 7.7368 9.61049 5.9774 12.1995 5.9774Z" fill="#E74133"/>
</g>
<defs>
<clipPath id="clip0_910_8013">
<rect width="24.0001" height="24" fill="white" transform="translate(0.000244141)"/>
</clipPath>
</defs>
</svg>
