<svg width="24" height="24" viewBox="0 0 24 24" fill="none" xmlns="http://www.w3.org/2000/svg">
<path fill-rule="evenodd" clip-rule="evenodd" d="M4.8 3C3.80589 3 3 3.80589 3 4.8V10.2C3 10.6418 3.35817 11 3.8 11C4.24183 11 4.6 10.6418 4.6 10.2V4.8C4.6 4.68954 4.68955 4.6 4.8 4.6H10.2C10.6418 4.6 11 4.24183 11 3.8C11 3.35817 10.6418 3 10.2 3H4.8ZM19.2 21C20.1942 21 21 20.1941 21 19.2V13.8C21 13.3582 20.6419 13 20.2 13C19.7582 13 19.4 13.3582 19.4 13.8V19.2C19.4 19.3105 19.3105 19.4 19.2 19.4H13.8C13.3582 19.4 13 19.7582 13 20.2C13 20.6418 13.3582 21 13.8 21H19.2ZM21 4.8C21 3.80589 20.1942 3 19.2 3H13.8C13.3582 3 13 3.35817 13 3.8C13 4.24183 13.3582 4.6 13.8 4.6H19.2C19.3105 4.6 19.4 4.68954 19.4 4.8V10.2C19.4 10.6418 19.7582 11 20.2 11C20.6419 11 21 10.6418 21 10.2V4.8ZM4.8 21C3.80589 21 3 20.1941 3 19.2V13.8C3 13.3582 3.35817 13 3.8 13C4.24183 13 4.6 13.3582 4.6 13.8V19.2C4.6 19.3105 4.68955 19.4 4.8 19.4H10.2C10.6418 19.4 11 19.7582 11 20.2C11 20.6418 10.6418 21 10.2 21H4.8Z" fill="black"/>
</svg>
