<svg width="24" height="24" viewBox="0 0 24 24" fill="none" xmlns="http://www.w3.org/2000/svg">
<path fill-rule="evenodd" clip-rule="evenodd" d="M13.4 8.79902C13.4 9.79314 14.2059 10.599 15.2 10.599H20.2001C20.6419 10.599 21.0001 10.2409 21.0001 9.79902C21.0001 9.3572 20.6419 8.99902 20.2001 8.99902H15.2C15.0896 8.99902 15 8.90948 15 8.79902V3.79902C15 3.3572 14.6419 2.99902 14.2 2.99902C13.7582 2.99902 13.4 3.3572 13.4 3.79902V8.79902ZM8.80002 10.6C9.79413 10.6 10.6 9.79411 10.6 8.8V3.8C10.6 3.35817 10.2418 3 9.80002 3C9.35819 3 9.00002 3.35817 9.00002 3.8V8.8C9.00002 8.91046 8.91048 9 8.80002 9H3.8C3.35817 9 3 9.35817 3 9.8C3 10.2418 3.35817 10.6 3.8 10.6H8.80002ZM15.2 13.3998C14.2059 13.3998 13.4 14.2057 13.4 15.1998V20.1998C13.4 20.6416 13.7582 20.9998 14.2 20.9998C14.6419 20.9998 15 20.6416 15 20.1998V15.1998C15 15.0893 15.0896 14.9998 15.2 14.9998H20.2001C20.6419 14.9998 21.0001 14.6416 21.0001 14.1998C21.0001 13.758 20.6419 13.3998 20.2001 13.3998H15.2ZM8.80002 13.3998C9.79413 13.3998 10.6 14.2057 10.6 15.1998V20.1998C10.6 20.6416 10.2418 20.9998 9.80002 20.9998C9.35819 20.9998 9.00002 20.6416 9.00002 20.1998V15.1998C9.00002 15.0893 8.91048 14.9998 8.80002 14.9998H3.8C3.35817 14.9998 3 14.6416 3 14.1998C3 13.758 3.35817 13.3998 3.8 13.3998H8.80002Z" fill="black"/>
</svg>
