<svg width="24" height="24" viewBox="0 0 24 24" fill="none" xmlns="http://www.w3.org/2000/svg">
<g clip-path="url(#clip0_383_9403)">
<path fill-rule="evenodd" clip-rule="evenodd" d="M16.2954 20.1818C16.2954 20.6337 16.6617 21 17.1136 21L20.1818 21C20.6336 21 21 20.6337 21 20.1818L21 3.81821C21 3.36634 20.6336 3.00003 20.1818 3.00003L17.1136 3.00003C16.6617 3.00003 16.2954 3.36634 16.2954 3.81821V20.1818ZM3.48301 20.9282C3.77693 21.0602 4.12094 21.0074 4.36175 20.7933L13.5663 12.6115C13.741 12.4563 13.8409 12.2337 13.8409 12C13.8409 11.7663 13.741 11.5437 13.5663 11.3885L4.36175 3.20668C4.12094 2.99262 3.77693 2.93983 3.48301 3.07182C3.18909 3.2038 3 3.496 3 3.81819L3 20.1818C3 20.504 3.18909 20.7962 3.48301 20.9282Z" fill="black"/>
</g>
<defs>
<clipPath id="clip0_383_9403">
<rect width="24.0001" height="24" fill="white"/>
</clipPath>
</defs>
</svg>
