<svg width="24" height="24" viewBox="0 0 24 24" fill="none" xmlns="http://www.w3.org/2000/svg">
<g clip-path="url(#clip0_383_9404)">
<path fill-rule="evenodd" clip-rule="evenodd" d="M4.12988 3.81818C4.12988 3.36631 4.49724 3 4.9504 3H9.05297C9.50613 3 9.87349 3.36631 9.87349 3.81818V20.1818C9.87349 20.6337 9.50613 21 9.05297 21H4.9504C4.49724 21 4.12988 20.6337 4.12988 20.1818V3.81818ZM14.1299 3.81818C14.1299 3.36631 14.4972 3 14.9504 3H19.053C19.5061 3 19.8735 3.36631 19.8735 3.81818V20.1818C19.8735 20.6337 19.5061 21 19.053 21H14.9504C14.4972 21 14.1299 20.6337 14.1299 20.1818V3.81818Z" fill="black"/>
</g>
<defs>
<clipPath id="clip0_383_9404">
<rect width="24.0001" height="24" fill="white"/>
</clipPath>
</defs>
</svg>
