<svg width="24" height="24" viewBox="0 0 24 24" fill="none" xmlns="http://www.w3.org/2000/svg">
<g clip-path="url(#clip0_383_9405)">
<path fill-rule="evenodd" clip-rule="evenodd" d="M7.70459 3.81818C7.70459 3.36631 7.33828 3 6.88641 3H3.81822C3.36635 3 3.00004 3.36631 3.00004 3.81818V20.1818C3.00004 20.6337 3.36635 21 3.81822 21H6.88641C7.33828 21 7.70459 20.6337 7.70459 20.1818V3.81818ZM20.517 3.07182C20.2231 2.93983 19.8791 2.99263 19.6382 3.20668L10.4337 11.3885C10.259 11.5437 10.1591 11.7663 10.1591 12C10.1591 12.2337 10.259 12.4563 10.4337 12.6115L19.6382 20.7933C19.8791 21.0074 20.2231 21.0602 20.517 20.9282C20.8109 20.7962 21 20.504 21 20.1818V3.81819C21 3.496 20.8109 3.20381 20.517 3.07182Z" fill="black"/>
</g>
<defs>
<clipPath id="clip0_383_9405">
<rect width="24.0001" height="24" fill="white"/>
</clipPath>
</defs>
</svg>
