<svg width="24" height="24" viewBox="0 0 24 24" fill="none" xmlns="http://www.w3.org/2000/svg">
<g clip-path="url(#clip0_383_9407)">
<path fill-rule="evenodd" clip-rule="evenodd" d="M6.3334 9.25089C7.42642 6.50711 10.107 4.5679 13.2405 4.5679C17.3452 4.5679 20.6726 7.89537 20.6726 12C20.6726 16.1046 17.3452 19.4321 13.2405 19.4321C10.5385 19.4321 8.17187 17.991 6.86934 15.8293C6.50336 15.222 5.71431 15.0263 5.10694 15.3923C4.49957 15.7582 4.30388 16.5473 4.66985 17.1546C6.41769 20.0553 9.60138 22 13.2405 22C18.7634 22 23.2405 17.5228 23.2405 12C23.2405 6.47715 18.7634 2 13.2405 2C8.89953 2 5.20458 4.76599 3.82195 8.63167L3.10241 7.55235C2.70906 6.96234 1.9119 6.80291 1.32188 7.19625C0.731867 7.58959 0.572433 8.38676 0.965776 8.97677L3.44676 12.6982C3.46275 12.7229 3.47956 12.7469 3.49714 12.7703C3.61624 12.9294 3.76617 13.0536 3.933 13.1399C4.0812 13.217 4.24632 13.266 4.42132 13.2799C4.57831 13.2926 4.73826 13.2767 4.89281 13.2303C5.02234 13.1916 5.14328 13.133 5.25209 13.058L8.97207 10.578C9.56208 10.1847 9.72152 9.38752 9.32818 8.7975C8.93483 8.20749 8.13766 8.04806 7.54765 8.4414L6.3334 9.25089Z" fill="black"/>
</g>
<defs>
<clipPath id="clip0_383_9407">
<rect width="24.0001" height="24" fill="white"/>
</clipPath>
</defs>
</svg>
