<svg width="40" height="40" viewBox="0 0 40 40" fill="none" xmlns="http://www.w3.org/2000/svg">
<g id="BowlFood">
<path id="Vector" d="M35 17.5C35.0009 20.3729 34.1768 23.1856 32.6257 25.6037C31.0745 28.0218 28.8616 29.9436 26.25 31.1406V32.5C26.25 32.8315 26.1183 33.1495 25.8839 33.3839C25.6495 33.6183 25.3315 33.75 25 33.75H15C14.6685 33.75 14.3505 33.6183 14.1161 33.3839C13.8817 33.1495 13.75 32.8315 13.75 32.5V31.1406C11.1384 29.9436 8.92548 28.0218 7.37434 25.6037C5.8232 23.1856 4.99909 20.3729 5 17.5H35Z" fill="#3A3A3F"/>
<path id="Vector_2" d="M35 16.25H33.6922C33.3781 12.8357 31.7998 9.66199 29.2667 7.35127C26.7337 5.04054 23.4287 3.75955 20 3.75955C16.5713 3.75955 13.2664 5.04054 10.7333 7.35127C8.20025 9.66199 6.62189 12.8357 6.30781 16.25H5C4.66848 16.25 4.35054 16.3817 4.11612 16.6161C3.8817 16.8505 3.75 17.1685 3.75 17.5C3.75549 20.4727 4.57358 23.3873 6.1158 25.9286C7.65801 28.47 9.86566 30.5414 12.5 31.9187V32.5C12.5 33.163 12.7634 33.7989 13.2322 34.2678C13.7011 34.7366 14.337 35 15 35H25C25.663 35 26.2989 34.7366 26.7678 34.2678C27.2366 33.7989 27.5 33.163 27.5 32.5V31.9187C30.1343 30.5414 32.342 28.47 33.8842 25.9286C35.4264 23.3873 36.2445 20.4727 36.25 17.5C36.25 17.1685 36.1183 16.8505 35.8839 16.6161C35.6495 16.3817 35.3315 16.25 35 16.25ZM27.1062 8.78593C27.3927 9.0203 27.6672 9.2677 27.9297 9.52811C24.6021 10.6987 21.8524 13.1044 20.25 16.2469H15.6406C16.4219 14.0569 17.8602 12.1616 19.7591 10.8197C21.658 9.47793 23.9249 8.7551 26.25 8.74999C26.5359 8.74999 26.8219 8.76405 27.1062 8.78593ZM29.5922 11.6297C30.4554 13.0338 30.997 14.6117 31.1781 16.25H23.1437C24.6592 13.9764 26.952 12.3336 29.5922 11.6297ZM20 6.24999C21.0031 6.25065 22.0015 6.38571 22.9688 6.65155C20.6132 7.23588 18.4533 8.43083 16.7067 10.116C14.9601 11.8011 13.6886 13.9168 13.0203 16.25H8.82187C9.13195 13.5013 10.4427 10.9629 12.5042 9.11865C14.5658 7.27439 17.2339 6.25328 20 6.24999ZM25.7281 30C25.5101 30.1002 25.3255 30.261 25.1964 30.4633C25.0673 30.6655 24.9991 30.9007 25 31.1406V32.5H15V31.1406C15.0009 30.9007 14.9327 30.6655 14.8036 30.4633C14.6745 30.261 14.4899 30.1002 14.2719 30C12.0736 28.9884 10.1801 27.4164 8.78142 25.4418C7.38271 23.4672 6.52802 21.1593 6.30312 18.75H33.6922C33.4677 21.1589 32.6137 23.4663 31.2159 25.4409C29.8181 27.4155 27.9255 28.9878 25.7281 30Z" fill="#2C2C30"/>
</g>
</svg>
