<svg width="41" height="40" viewBox="0 0 41 40" fill="none" xmlns="http://www.w3.org/2000/svg">
<path d="M3.50671 3.33024C3.44671 2.89011 3.79671 2.5 4.24671 2.5H36.7567C37.2067 2.5 37.5567 2.89011 37.4967 3.33024L32.6867 35.6295C32.5267 36.6998 31.5867 37.5 30.4767 37.5H10.5267C9.41671 37.5 8.47671 36.6998 8.31671 35.6295L3.50671 3.33024Z" fill="#E5E9ED"/>
<path d="M33.3119 11.5675C32.3136 11.819 26.5838 12.463 22.1746 10.7021C14.1881 7.51228 8.65587 8.64934 7.60557 8.91097C7.53278 8.9311 7.49118 9.0116 7.50158 9.0921V9.16253L10.7045 33.1214C10.8085 33.9164 11.4324 34.5 12.1707 34.5H29.1835C29.9219 34.5 30.5458 33.9164 30.6498 33.1214L32.3656 20.2414V20.2112L33.4991 11.7486C33.5095 11.6379 33.4263 11.5474 33.3223 11.5675H33.3119Z" fill="#92CAFF"/>
</svg>
