<svg width="24" height="24" viewBox="0 0 24 24" fill="none" xmlns="http://www.w3.org/2000/svg">
<path fill-rule="evenodd" clip-rule="evenodd" d="M8.86709 2.00043L16.4925 2C16.9537 1.99995 17.3879 2.23492 17.6361 2.63023C17.885 3.0268 17.9082 3.52438 17.6958 3.94245L15.7496 7.7738H18.2524C18.7838 7.7738 19.2732 8.08548 19.489 8.58059C19.7055 9.07734 19.5991 9.65195 19.2252 10.0395L8.08014 21.5877C7.81662 21.8608 7.46122 22 7.1072 22C6.85914 22 6.60769 21.9319 6.38491 21.7913C5.84047 21.4477 5.61243 20.7634 5.85781 20.1595L8.62943 13.3389H5.34768C4.90584 13.3389 4.48806 13.1233 4.23508 12.7555M8.86709 2.00043C8.32343 2.00045 7.82548 2.32657 7.61756 2.83801L4.09807 11.4984C3.92886 11.9148 3.9813 12.3865 4.23508 12.7555M16.0751 3.60002L9.0348 3.60042L5.7274 11.7389H9.81804C10.0843 11.7389 10.3331 11.8714 10.4817 12.0923C10.6304 12.3131 10.6594 12.5935 10.5592 12.8401L7.83943 19.5331L17.6441 9.3738H14.4459C14.1677 9.3738 13.9095 9.22931 13.764 8.99222C13.6186 8.75513 13.6067 8.45949 13.7326 8.21149L16.0751 3.60002Z" fill="#171719"/>
</svg>
