<svg width="24" height="24" viewBox="0 0 24 24" fill="none" xmlns="http://www.w3.org/2000/svg">
<path fill-rule="evenodd" clip-rule="evenodd" d="M3.92872 2.21073C4.3648 2.2818 4.6607 2.69291 4.58963 3.12899L3.94098 7.10938H6.20005V3.0002C6.20005 2.55837 6.55822 2.2002 7.00005 2.2002C7.44188 2.2002 7.80005 2.55837 7.80005 3.0002V7.10938H10.0591L9.41046 3.12899C9.3394 2.69291 9.6353 2.2818 10.0714 2.21073C10.5075 2.13967 10.9186 2.43557 10.9896 2.87164L11.7864 7.76116C11.7954 7.80919 11.8001 7.85873 11.8001 7.90938C11.8001 9.2008 11.2987 10.4428 10.4006 11.3614C9.86882 11.9052 9.2236 12.3092 8.52044 12.5485C8.41104 12.5857 8.30024 12.619 8.18825 12.6481C8.06031 12.6814 7.9308 12.7094 7.80005 12.7319V21.0002C7.80005 21.442 7.44188 21.8002 7.00005 21.8002C6.55822 21.8002 6.20005 21.442 6.20005 21.0002V12.7319C5.21926 12.563 4.30859 12.0865 3.59962 11.3614C2.70149 10.4429 2.20005 9.20083 2.20005 7.90941C2.20005 7.87708 2.20201 7.8448 2.20591 7.81273C2.20672 7.80606 2.20762 7.7994 2.2086 7.79276C2.20957 7.78608 2.21062 7.77943 2.21176 7.77281L3.01046 2.87164C3.08153 2.43557 3.49265 2.13967 3.92872 2.21073ZM20.8 3.0002C20.8 2.72644 20.6601 2.47169 20.429 2.32491C20.1979 2.17813 19.9078 2.1597 19.66 2.27606C18.2047 2.95944 17.1597 4.18984 16.4077 5.56296C15.6551 6.93742 15.1655 8.5092 14.8438 9.96938C14.5211 11.4342 14.3607 12.8178 14.2807 13.8327C14.2405 14.3411 14.2204 14.7596 14.2103 15.0526C14.2052 15.1991 14.2027 15.3144 14.2014 15.3941C14.2007 15.4339 14.2004 15.4649 14.2002 15.4864L14.2001 15.5114L14.2001 15.5185L14.2 15.5219H15C14.2 15.5219 14.2 15.5222 14.2 15.5219C14.2 15.9638 14.5582 16.3219 15 16.3219H19.2V21.0002C19.2 21.442 19.5582 21.8002 20 21.8002C20.4419 21.8002 20.8 21.442 20.8 21.0002V3.0002Z" fill="#171719"/>
</svg>
