<svg width="24" height="24" viewBox="0 0 24 24" fill="none" xmlns="http://www.w3.org/2000/svg">
<path fill-rule="evenodd" clip-rule="evenodd" d="M17.1901 2C17.632 2 17.9901 2.35817 17.9901 2.8V9.23461C18.0896 9.20669 18.1912 9.17286 18.2912 9.13197C18.5621 9.02118 18.7867 8.87305 18.9407 8.68416C19.0838 8.50858 19.2002 8.25746 19.2002 7.85996V3.25996C19.2002 2.81813 19.5584 2.45996 20.0002 2.45996C20.442 2.45996 20.8002 2.81813 20.8002 3.25996V7.85996C20.8002 8.61246 20.565 9.22385 20.1808 9.69514C19.8075 10.1531 19.3289 10.4362 18.8967 10.613C18.5738 10.745 18.2572 10.8257 17.9901 10.8756V21.2C17.9901 21.6418 17.632 22 17.1901 22C16.7483 22 16.3901 21.6418 16.3901 21.2V10.8765C16.1221 10.8267 15.8035 10.7458 15.4787 10.613C15.0465 10.4362 14.5679 10.1531 14.1946 9.69514C13.8104 9.22385 13.5752 8.61246 13.5752 7.85996V3.25996C13.5752 2.81813 13.9334 2.45996 14.3752 2.45996C14.817 2.45996 15.1752 2.81813 15.1752 3.25996V7.85996C15.1752 8.25746 15.2916 8.50858 15.4347 8.68416C15.5887 8.87305 15.8133 9.02118 16.0842 9.13197C16.1859 9.17353 16.2891 9.2078 16.3901 9.23598V2.8C16.3901 2.35817 16.7483 2 17.1901 2Z" fill="#171719"/>
<path fill-rule="evenodd" clip-rule="evenodd" d="M4.18834 3.39212C4.81361 2.574 5.73425 2.00006 6.8127 2.00006C7.89116 2.00006 8.8118 2.574 9.43707 3.39212C10.0618 4.20952 10.4252 5.30393 10.4252 6.48006C10.4252 7.65619 10.0618 8.7506 9.43707 9.568C8.97345 10.1746 8.34745 10.647 7.61514 10.8507V21.2004C7.61514 21.6422 7.25697 22.0004 6.81514 22.0004C6.37331 22.0004 6.01514 21.6422 6.01514 21.2004V10.852C5.28073 10.6491 4.65298 10.176 4.18834 9.568C3.56363 8.7506 3.2002 7.65619 3.2002 6.48006C3.2002 5.30393 3.56363 4.20952 4.18834 3.39212ZM5.45958 4.36369C5.06637 4.87819 4.8002 5.62378 4.8002 6.48006C4.8002 7.33635 5.06637 8.08194 5.45958 8.59643C5.85224 9.1102 6.33786 9.36006 6.8127 9.36006C7.28755 9.36006 7.77317 9.1102 8.16583 8.59643C8.55904 8.08194 8.82521 7.33635 8.82521 6.48006C8.82521 5.62378 8.55904 4.87819 8.16583 4.36369C7.77316 3.84992 7.28755 3.60006 6.8127 3.60006C6.33786 3.60006 5.85224 3.84992 5.45958 4.36369Z" fill="#171719"/>
</svg>
