<svg width="24" height="24" viewBox="0 0 24 24" fill="none" xmlns="http://www.w3.org/2000/svg">
<path fill-rule="evenodd" clip-rule="evenodd" d="M4.58963 3.12899C4.6607 2.69291 4.3648 2.2818 3.92872 2.21073C3.49265 2.13967 3.08153 2.43557 3.01046 2.87164L2.21046 7.78073C2.20353 7.82328 2.20005 7.86631 2.20005 7.90941C2.20005 9.20083 2.70149 10.4429 3.59962 11.3614C4.30859 12.0865 5.21926 12.563 6.20005 12.7319V21.0002C6.20005 21.442 6.55822 21.8002 7.00005 21.8002C7.44188 21.8002 7.80005 21.442 7.80005 21.0002V12.7319C8.78084 12.563 9.6915 12.0865 10.4005 11.3614C11.2986 10.4429 11.8 9.20083 11.8 7.90941C11.8 7.86631 11.7966 7.82328 11.7896 7.78073L10.9896 2.87164C10.9186 2.43557 10.5075 2.13967 10.0714 2.21073C9.6353 2.2818 9.3394 2.69291 9.41046 3.12899L10.1995 7.97076C10.184 8.82692 9.84461 9.64132 9.25647 10.2428C8.65788 10.855 7.8509 11.1969 7.01257 11.2003C7.0084 11.2002 7.00423 11.2002 7.00005 11.2002C6.99587 11.2002 6.99169 11.2002 6.98753 11.2003C6.14919 11.1969 5.34222 10.855 4.74363 10.2428C4.15549 9.64132 3.8161 8.82692 3.8006 7.97076L4.58963 3.12899ZM7.80005 3.0002C7.80005 2.55837 7.44188 2.2002 7.00005 2.2002C6.55822 2.2002 6.20005 2.55837 6.20005 3.0002V8.0002C6.20005 8.44202 6.55822 8.8002 7.00005 8.8002C7.44188 8.8002 7.80005 8.44202 7.80005 8.0002V3.0002ZM20.429 2.32491C20.6601 2.47169 20.8 2.72644 20.8 3.0002V21.0002C20.8 21.442 20.4419 21.8002 20 21.8002C19.5582 21.8002 19.2 21.442 19.2 21.0002V16.3219H15C14.5582 16.3219 14.2 15.9638 14.2 15.5219C14.2 15.5222 14.2 15.5219 15 15.5219H14.2L14.2001 15.5185L14.2001 15.5114L14.2002 15.4864C14.2004 15.4649 14.2007 15.4339 14.2014 15.3941C14.2027 15.3144 14.2052 15.1991 14.2103 15.0526C14.2204 14.7596 14.2405 14.3411 14.2807 13.8327C14.3607 12.8178 14.5211 11.4342 14.8438 9.96938C15.1655 8.5092 15.6551 6.93742 16.4077 5.56296C17.1597 4.18984 18.2047 2.95944 19.66 2.27606C19.9078 2.1597 20.1979 2.17813 20.429 2.32491ZM15.8259 14.7219H19.2V4.49789C18.667 4.98582 18.2069 5.60868 17.8111 6.33146C17.1575 7.52493 16.7096 8.93684 16.4063 10.3136C16.104 11.6858 15.9519 12.9924 15.8757 13.9585C15.853 14.2466 15.8371 14.5036 15.8259 14.7219Z" fill="#171719"/>
</svg>
