<svg width="24" height="24" viewBox="0 0 24 24" fill="none" xmlns="http://www.w3.org/2000/svg">
<path fill-rule="evenodd" clip-rule="evenodd" d="M7.8002 2.39961C7.8002 1.95778 7.44202 1.59961 7.0002 1.59961C6.55837 1.59961 6.2002 1.95778 6.2002 2.39961V4.19963H4.0002C3.00608 4.19963 2.2002 5.00552 2.2002 5.99963V8.99963V19.9996C2.2002 20.9937 3.00608 21.7996 4.0002 21.7996H20.0002C20.9943 21.7996 21.8002 20.9937 21.8002 19.9996V8.99963V5.99963C21.8002 5.00551 20.9943 4.19963 20.0002 4.19963H17.8002V2.39962C17.8002 1.95779 17.442 1.59962 17.0002 1.59962C16.5584 1.59962 16.2002 1.95779 16.2002 2.39962V4.19963H7.8002V2.39961ZM20.2002 5.99963V8.19963H3.8002V5.99963C3.8002 5.88917 3.88974 5.79963 4.0002 5.79963H20.0002C20.1107 5.79963 20.2002 5.88917 20.2002 5.99963ZM20.2002 9.79963H3.8002V19.9996C3.8002 20.1101 3.88974 20.1996 4.0002 20.1996H20.0002C20.1107 20.1996 20.2002 20.1101 20.2002 19.9996V9.79963ZM11.5028 11.6664C11.3719 11.3807 11.0859 11.1981 10.7716 11.1996C10.4573 11.2012 10.1731 11.3866 10.045 11.6735L8.98123 14.0565H7.0002C6.55837 14.0565 6.2002 14.4147 6.2002 14.8565C6.2002 15.2983 6.55837 15.6565 7.0002 15.6565H9.5002C9.81588 15.6565 10.102 15.4709 10.2307 15.1826L10.7849 13.9411L12.7968 18.3328C12.9349 18.6345 13.245 18.8195 13.5761 18.7979C13.9072 18.7763 14.1906 18.5526 14.2885 18.2356L15.0845 15.6565H17.0002C17.4421 15.6565 17.8002 15.2983 17.8002 14.8565C17.8002 14.4147 17.4421 14.0565 17.0002 14.0565H14.4942C14.1432 14.0565 13.8332 14.2852 13.7297 14.6206L13.3781 15.76L11.5028 11.6664Z" fill="#171719"/>
</svg>
