<svg width="24" height="24" viewBox="0 0 24 24" fill="none" xmlns="http://www.w3.org/2000/svg">
<path d="M3.7998 9.2398L11.9998 2.7998L20.1999 9.2398V19.3598C20.1999 19.8478 20.0079 20.3158 19.6661 20.6609C19.3244 21.0059 18.8609 21.1998 18.3776 21.1998H5.62203C5.13875 21.1998 4.67526 21.0059 4.33352 20.6609C3.99179 20.3158 3.7998 19.8478 3.7998 19.3598V9.2398Z" fill="#F2F2F5"/>
<path fill-rule="evenodd" clip-rule="evenodd" d="M11.5057 2.17084C11.7957 1.94305 12.2039 1.94305 12.4939 2.17084L20.6939 8.61084C20.887 8.7625 20.9998 8.99445 20.9998 9.24V19.36C20.9998 20.0577 20.7254 20.7283 20.2345 21.224C19.7434 21.7199 19.0756 22 18.3776 22H5.62198C4.92401 22 4.2562 21.7199 3.76505 21.224C3.27416 20.7283 2.99976 20.0577 2.99976 19.36V9.24C2.99976 8.99445 3.11252 8.7625 3.30564 8.61084L11.5057 2.17084ZM4.59976 9.62894V19.36C4.59976 19.6383 4.70932 19.9037 4.9019 20.0981C5.09421 20.2923 5.35339 20.4 5.62198 20.4H18.3776C18.6462 20.4 18.9053 20.2923 19.0977 20.0981C19.2902 19.9037 19.3998 19.6383 19.3998 19.36V9.62893L11.9998 3.81723L4.59976 9.62894Z" fill="#F2F2F5"/>
<path fill-rule="evenodd" clip-rule="evenodd" d="M7.19995 17.2004C7.19995 16.7586 7.55812 16.4004 7.99995 16.4004H16C16.4418 16.4004 16.8 16.7586 16.8 17.2004C16.8 17.6422 16.4418 18.0004 16 18.0004H7.99995C7.55812 18.0004 7.19995 17.6422 7.19995 17.2004Z" fill="#171719"/>
</svg>
