<svg width="24" height="24" viewBox="0 0 24 24" fill="none" xmlns="http://www.w3.org/2000/svg">
<path fill-rule="evenodd" clip-rule="evenodd" d="M12.4942 2.17084C12.2041 1.94305 11.7959 1.94305 11.5059 2.17084L3.30588 8.61084C3.11277 8.7625 3 8.99445 3 9.24V19.36C3 20.0577 3.2744 20.7283 3.76529 21.224C4.25645 21.7199 4.92425 22 5.62223 22H18.3778C19.0758 22 19.7436 21.7199 20.2348 21.224C20.7257 20.7283 21.0001 20.0577 21.0001 19.36V9.24C21.0001 8.99445 20.8873 8.7625 20.6942 8.61084L12.4942 2.17084ZM4.6 19.36V9.62893L12 3.81723L19.4 9.62894V19.36C19.4 19.6383 19.2905 19.9037 19.0979 20.0981C18.9056 20.2923 18.6464 20.4 18.3778 20.4H5.62223C5.35364 20.4 5.09446 20.2923 4.90215 20.0981C4.70957 19.9037 4.6 19.6383 4.6 19.36ZM8.00021 16.4C7.55838 16.4 7.20021 16.7582 7.20021 17.2C7.20021 17.6419 7.55838 18 8.00021 18H16.0002C16.4421 18 16.8002 17.6419 16.8002 17.2C16.8002 16.7582 16.4421 16.4 16.0002 16.4H8.00021Z" fill="#171719"/>
</svg>
