<svg width="24" height="24" viewBox="0 0 24 24" fill="none" xmlns="http://www.w3.org/2000/svg">
<path fill-rule="evenodd" clip-rule="evenodd" d="M5.3 3C3.7536 3 2.5 4.2536 2.5 5.8V19.2C2.5 20.7464 3.7536 22 5.3 22H18.7C20.2464 22 21.5 20.7464 21.5 19.2V5.8C21.5 4.2536 20.2464 3 18.7 3H5.3Z" fill="#F2F2F5"/>
<path fill-rule="evenodd" clip-rule="evenodd" d="M9.00044 7.2002C9.44227 7.2002 9.80044 7.55837 9.80044 8.0002V8.42877C9.80044 8.85529 9.99711 9.29451 10.3998 9.63964C10.8062 9.98803 11.3805 10.2002 12.0004 10.2002C12.6203 10.2002 13.1947 9.98803 13.6011 9.63964C14.0038 9.29451 14.2004 8.85529 14.2004 8.42877V8.0002C14.2004 7.55837 14.5586 7.2002 15.0004 7.2002C15.4423 7.2002 15.8004 7.55837 15.8004 8.0002V8.42877C15.8004 9.36622 15.365 10.2351 14.6424 10.8544C13.9236 11.4705 12.9718 11.8002 12.0004 11.8002C11.029 11.8002 10.0772 11.4705 9.35849 10.8544C8.63591 10.2351 8.20044 9.36622 8.20044 8.42877V8.0002C8.20044 7.55837 8.55861 7.2002 9.00044 7.2002Z" fill="#171717"/>
</svg>
