<svg width="24" height="24" viewBox="0 0 24 24" fill="none" xmlns="http://www.w3.org/2000/svg">
<path fill-rule="evenodd" clip-rule="evenodd" d="M2.49951 5.8C2.49951 4.2536 3.75312 3 5.29951 3H18.6995C20.2459 3 21.4995 4.2536 21.4995 5.8V19.2C21.4995 20.7464 20.2459 22 18.6995 22H5.29951C3.75311 22 2.49951 20.7464 2.49951 19.2V5.8ZM5.29951 4.6C4.63677 4.6 4.09951 5.13726 4.09951 5.8V19.2C4.09951 19.8627 4.63677 20.4 5.29951 20.4H18.6995C19.3623 20.4 19.8995 19.8627 19.8995 19.2V5.8C19.8995 5.13726 19.3623 4.6 18.6995 4.6H5.29951Z" fill="#171719"/>
<path fill-rule="evenodd" clip-rule="evenodd" d="M8.9998 8.2C9.44163 8.2 9.7998 8.55817 9.7998 9V9.42857C9.7998 9.85509 9.99647 10.2943 10.3991 10.6394C10.8056 10.9878 11.3799 11.2 11.9998 11.2C12.6197 11.2 13.194 10.9878 13.6005 10.6394C14.0031 10.2943 14.1998 9.85509 14.1998 9.42857V9C14.1998 8.55817 14.558 8.2 14.9998 8.2C15.4416 8.2 15.7998 8.55817 15.7998 9V9.42857C15.7998 10.366 15.3643 11.2349 14.6418 11.8543C13.923 12.4703 12.9712 12.8 11.9998 12.8C11.0284 12.8 10.0766 12.4703 9.35785 11.8543C8.63528 11.2349 8.1998 10.366 8.1998 9.42857V9C8.1998 8.55817 8.55798 8.2 8.9998 8.2Z" fill="#171719"/>
</svg>
