<svg width="24" height="24" viewBox="0 0 24 24" fill="none" xmlns="http://www.w3.org/2000/svg">
<path fill-rule="evenodd" clip-rule="evenodd" d="M17.7541 17.1379L17.7583 17.1298C18.7478 15.2387 18.589 13.0197 17.3146 11.2498L12.0004 3.96019L6.68626 11.2498C5.41193 13.0197 5.25324 15.2387 6.24267 17.1298L6.24692 17.1379L6.25108 17.1461C7.14975 18.9127 9.05557 20.1822 11.3186 20.3721C11.5445 20.3904 11.7717 20.4 12.0005 20.4C12.2293 20.4 12.4564 20.3904 12.6838 20.3721C14.9463 20.1817 16.8514 18.9124 17.7499 17.1461L17.7541 17.1379ZM12.8146 21.9667C12.5459 21.9884 12.2751 22 12.0005 22C11.7259 22 11.4547 21.9884 11.1869 21.9667C8.42015 21.7351 5.99685 20.1752 4.82498 17.8715C3.55022 15.4351 3.76495 12.5658 5.39072 10.3109L11.1724 2.38005C11.5134 1.96179 12.1606 1.87554 12.6179 2.18741C12.6979 2.24195 12.7689 2.30688 12.8285 2.38005L18.6102 10.3109C20.236 12.5658 20.4508 15.4351 19.176 17.8715C18.0042 20.1751 15.5812 21.735 12.8146 21.9667Z" fill="#171719"/>
</svg>
