<svg width="24" height="24" viewBox="0 0 24 24" fill="none" xmlns="http://www.w3.org/2000/svg">
<path fill-rule="evenodd" clip-rule="evenodd" d="M12.0519 21.9999C12.309 21.9985 12.5626 21.9871 12.8146 21.9667C12.9875 21.9522 13.1591 21.9326 13.3291 21.9078C15.8792 21.5371 18.0775 20.0312 19.176 17.8715C19.3353 17.567 19.4714 17.2557 19.5844 16.9396C20.375 14.7274 20.0328 12.284 18.6102 10.3109L12.8285 2.38005C12.7689 2.30688 12.6979 2.24196 12.6179 2.18741C12.6179 2.18741 12.6179 2.18741 12.6179 2.18741C12.1606 1.87554 11.5134 1.96179 11.1724 2.38005L5.39072 10.3109C3.76495 12.5658 3.55022 15.4351 4.82498 17.8715C4.97147 18.1595 5.1375 18.4358 5.32132 18.6994C6.60804 20.5444 8.766 21.7641 11.1869 21.9667C11.2204 21.9694 11.2539 21.972 11.2875 21.9744C11.5225 21.9911 11.7602 22 12.0005 22C12.0177 22 12.0348 22 12.0519 21.9999Z" fill="#171719"/>
</svg>
