<svg width="24" height="24" viewBox="0 0 24 24" fill="none" xmlns="http://www.w3.org/2000/svg">
<path fill-rule="evenodd" clip-rule="evenodd" d="M2.09985 4.26559C2.09985 3.06989 3.06916 2.10059 4.26485 2.10059H19.7349C20.9306 2.10059 21.8999 3.0699 21.8999 4.26559V19.7356C21.8999 20.9313 20.9306 21.9006 19.7349 21.9006H4.26485C3.06917 21.9006 2.09985 20.9313 2.09985 19.7356V4.26559ZM7.50779 9.17495L9.25456 11.5781C10.8369 10.4097 13.163 10.4097 14.7453 11.5781L16.4921 9.17495C13.8942 7.34195 10.1057 7.34195 7.50779 9.17495ZM6.3413 8.04639C9.57913 5.5848 14.4208 5.5848 17.6586 8.04639C18.2226 8.476 18.3902 9.27509 17.9511 9.88895L17.9476 9.89392L15.9857 12.5929L15.9826 12.5972C15.7265 12.9448 15.3496 13.1261 14.9848 13.1829L14.9236 13.1925H14.8881C14.8802 13.1934 14.8694 13.1945 14.8589 13.1955C14.8399 13.1973 14.8049 13.2002 14.7627 13.2002C14.4305 13.2002 14.1026 13.0919 13.8391 12.8984L13.8332 12.8941L13.8274 12.8897C12.8021 12.1073 11.2058 12.1058 10.1783 12.8853C9.83593 13.1552 9.41647 13.2286 9.04937 13.1875L9.04539 13.1871C8.6354 13.1392 8.26152 12.9286 8.0173 12.5972L8.01415 12.593L6.04877 9.88896C5.60418 9.26736 5.78685 8.4861 6.32822 8.05654L6.33471 8.0514L6.3413 8.04639Z" fill="#171719"/>
</svg>
