<svg width="20" height="19" viewBox="0 0 20 19" fill="none" xmlns="http://www.w3.org/2000/svg">
<path fill-rule="evenodd" clip-rule="evenodd" d="M0.499512 2.8C0.499512 1.2536 1.75312 0 3.29951 0H16.6995C18.2459 0 19.4995 1.2536 19.4995 2.8V16.2C19.4995 17.7464 18.2459 19 16.6995 19H3.29951C1.75311 19 0.499512 17.7464 0.499512 16.2V2.8ZM3.29951 1.6C2.63677 1.6 2.09951 2.13726 2.09951 2.8V16.2C2.09951 16.8627 2.63677 17.4 3.29951 17.4H16.6995C17.3623 17.4 17.8995 16.8627 17.8995 16.2V2.8C17.8995 2.13726 17.3623 1.6 16.6995 1.6H3.29951Z" fill="#171719"/>
<path fill-rule="evenodd" clip-rule="evenodd" d="M6.9998 5.2C7.44163 5.2 7.7998 5.55817 7.7998 6V6.42857C7.7998 6.85509 7.99647 7.29432 8.39912 7.63944C8.80557 7.98783 9.3799 8.2 9.9998 8.2C10.6197 8.2 11.194 7.98783 11.6005 7.63944C12.0031 7.29432 12.1998 6.85509 12.1998 6.42857V6C12.1998 5.55817 12.558 5.2 12.9998 5.2C13.4416 5.2 13.7998 5.55817 13.7998 6V6.42857C13.7998 7.36602 13.3643 8.2349 12.6418 8.85425C11.923 9.47033 10.9712 9.8 9.9998 9.8C9.02841 9.8 8.07661 9.47033 7.35785 8.85425C6.63528 8.2349 6.1998 7.36602 6.1998 6.42857V6C6.1998 5.55817 6.55798 5.2 6.9998 5.2Z" fill="#171719"/>
</svg>
