<svg width="20" height="21" viewBox="0 0 20 21" fill="none" xmlns="http://www.w3.org/2000/svg">
<path fill-rule="evenodd" clip-rule="evenodd" d="M5.8002 1.39961C5.8002 0.957782 5.44202 0.599609 5.0002 0.599609C4.55837 0.599609 4.2002 0.957782 4.2002 1.39961V3.19963H2.0002C1.00608 3.19963 0.200195 4.00552 0.200195 4.99963V7.99963V18.9996C0.200195 19.9937 1.00608 20.7996 2.0002 20.7996H18.0002C18.9943 20.7996 19.8002 19.9937 19.8002 18.9996V7.99963V4.99963C19.8002 4.00551 18.9943 3.19963 18.0002 3.19963H15.8002V1.39962C15.8002 0.957788 15.442 0.599615 15.0002 0.599615C14.5584 0.599615 14.2002 0.957788 14.2002 1.39962V3.19963H5.8002V1.39961ZM18.2002 4.99963V7.19963H1.8002V4.99963C1.8002 4.88917 1.88974 4.79963 2.0002 4.79963H18.0002C18.1107 4.79963 18.2002 4.88917 18.2002 4.99963ZM18.2002 8.79963H1.8002V18.9996C1.8002 19.1101 1.88974 19.1996 2.0002 19.1996H18.0002C18.1107 19.1996 18.2002 19.1101 18.2002 18.9996V8.79963ZM9.5028 10.6664C9.37191 10.3807 9.08586 10.1981 8.77159 10.1996C8.45732 10.2012 8.17306 10.3866 8.04496 10.6735L6.98123 13.0565H5.0002C4.55837 13.0565 4.2002 13.4147 4.2002 13.8565C4.2002 14.2983 4.55837 14.6565 5.0002 14.6565H7.5002C7.81588 14.6565 8.10205 14.4709 8.23072 14.1826L8.78492 12.9411L10.7968 17.3328C10.9349 17.6345 11.245 17.8195 11.5761 17.7979C11.9072 17.7763 12.1906 17.5526 12.2885 17.2356L13.0845 14.6565H15.0002C15.4421 14.6565 15.8002 14.2983 15.8002 13.8565C15.8002 13.4147 15.4421 13.0565 15.0002 13.0565H12.4942C12.1432 13.0565 11.8332 13.2852 11.7297 13.6206L11.3781 14.76L9.5028 10.6664Z" fill="#171719"/>
</svg>
