<svg width="18" height="20" viewBox="0 0 18 20" fill="none" xmlns="http://www.w3.org/2000/svg">
<path fill-rule="evenodd" clip-rule="evenodd" d="M14.1899 0C14.6317 0 14.9899 0.358172 14.9899 0.8V7.23461C15.0894 7.20669 15.1909 7.17286 15.2909 7.13197C15.5619 7.02118 15.7865 6.87305 15.9404 6.68416C16.0836 6.50858 16.2 6.25746 16.2 5.85996V1.25996C16.2 0.818133 16.5581 0.459961 17 0.459961C17.4418 0.459961 17.8 0.818133 17.8 1.25996V5.85996C17.8 6.61246 17.5648 7.22385 17.1806 7.69514C16.8072 8.15313 16.3287 8.43624 15.8965 8.61295C15.5736 8.74498 15.2569 8.82573 14.9899 8.87557V19.2C14.9899 19.6418 14.6317 20 14.1899 20C13.7481 20 13.3899 19.6418 13.3899 19.2V8.87648C13.1218 8.82671 12.8033 8.74578 12.4784 8.61295C12.0463 8.43624 11.5677 8.15313 11.1943 7.69514C10.8101 7.22385 10.575 6.61246 10.575 5.85996V1.25996C10.575 0.818133 10.9331 0.459961 11.375 0.459961C11.8168 0.459961 12.175 0.818133 12.175 1.25996V5.85996C12.175 6.25746 12.2913 6.50858 12.4345 6.68416C12.5885 6.87305 12.813 7.02118 13.084 7.13197C13.1856 7.17353 13.2889 7.2078 13.3899 7.23598V0.8C13.3899 0.358172 13.7481 0 14.1899 0Z" fill="#171719"/>
<path fill-rule="evenodd" clip-rule="evenodd" d="M1.1881 1.39212C1.81336 0.573998 2.734 6.10352e-05 3.81246 6.10352e-05C4.89092 6.10352e-05 5.81155 0.573998 6.43682 1.39212C7.06154 2.20952 7.42497 3.30393 7.42497 4.48006C7.42497 5.65619 7.06154 6.7506 6.43682 7.568C5.97321 8.17461 5.34721 8.64697 4.6149 8.85067V19.2004C4.6149 19.6422 4.25672 20.0004 3.8149 20.0004C3.37307 20.0004 3.0149 19.6422 3.0149 19.2004V8.85202C2.28049 8.64907 1.65274 8.17596 1.1881 7.568C0.563384 6.7506 0.199951 5.65619 0.199951 4.48006C0.199951 3.30393 0.563384 2.20952 1.1881 1.39212ZM2.45934 2.36369C2.06612 2.87819 1.79995 3.62378 1.79995 4.48006C1.79995 5.33635 2.06612 6.08194 2.45934 6.59643C2.852 7.1102 3.33761 7.36006 3.81246 7.36006C4.28731 7.36006 4.77292 7.1102 5.16558 6.59643C5.5588 6.08194 5.82497 5.33635 5.82497 4.48006C5.82497 3.62378 5.5588 2.87819 5.16558 2.36369C4.77292 1.84992 4.2873 1.60006 3.81246 1.60006C3.33761 1.60006 2.852 1.84992 2.45934 2.36369Z" fill="#171719"/>
</svg>
