<svg width="18" height="20" viewBox="0 0 18 20" fill="none" xmlns="http://www.w3.org/2000/svg">
<path fill-rule="evenodd" clip-rule="evenodd" d="M9.49415 0.170839C9.20411 -0.0569463 8.79594 -0.0569463 8.5059 0.170839L0.305879 6.61084C0.112766 6.7625 0 6.99445 0 7.24V17.36C0 18.0577 0.274402 18.7283 0.765294 19.224C1.25645 19.7199 1.92425 20 2.62223 20H15.3778C16.0758 20 16.7436 19.7199 17.2348 19.224C17.7257 18.7283 18.0001 18.0577 18.0001 17.36V7.24C18.0001 6.99445 17.8873 6.7625 17.6942 6.61084L9.49415 0.170839ZM1.6 17.36V7.62893L9.00003 1.81723L16.4 7.62894V17.36C16.4 17.6383 16.2905 17.9037 16.0979 18.0981C15.9056 18.2923 15.6464 18.4 15.3778 18.4H2.62223C2.35364 18.4 2.09446 18.2923 1.90215 18.0981C1.70957 17.9037 1.6 17.6383 1.6 17.36ZM5.00021 14.4C4.55838 14.4 4.20021 14.7582 4.20021 15.2C4.20021 15.6419 4.55838 16 5.00021 16H13.0002C13.4421 16 13.8002 15.6419 13.8002 15.2C13.8002 14.7582 13.4421 14.4 13.0002 14.4H5.00021Z" fill="#171719"/>
</svg>
