<svg width="16" height="20" viewBox="0 0 16 20" fill="none" xmlns="http://www.w3.org/2000/svg">
<path fill-rule="evenodd" clip-rule="evenodd" d="M4.86709 0.000431248L12.4925 8.30739e-09C12.9537 -5.10133e-05 13.3879 0.23492 13.6361 0.630231C13.885 1.0268 13.9082 1.52438 13.6958 1.94245L11.7496 5.7738H14.2524C14.7838 5.7738 15.2732 6.08548 15.489 6.58059C15.7055 7.07734 15.5991 7.65195 15.2252 8.03954L4.08014 19.5877C3.81662 19.8608 3.46122 20 3.1072 20C2.85914 20 2.60769 19.9319 2.38491 19.7913C1.84047 19.4477 1.61243 18.7634 1.85781 18.1595L4.62943 11.3389H1.34768C0.90584 11.3389 0.488063 11.1233 0.235081 10.7555M4.86709 0.000431248C4.32343 0.000449189 3.82548 0.326569 3.61756 0.838008L0.0980732 9.49841C-0.0711433 9.91476 -0.0187044 10.3865 0.235081 10.7555M12.0751 1.60002L5.0348 1.60042L1.7274 9.73895H5.81804C6.08427 9.73895 6.33306 9.87139 6.48172 10.0923C6.63037 10.3131 6.65941 10.5935 6.55919 10.8401L3.83943 17.5331L13.6441 7.3738H10.4459C10.1677 7.3738 9.90953 7.22931 9.76404 6.99222C9.61855 6.75513 9.60666 6.45949 9.73264 6.21149L12.0751 1.60002Z" fill="#171719"/>
</svg>
