<svg width="60" height="60" viewBox="0 0 60 60" fill="none" xmlns="http://www.w3.org/2000/svg">
<path opacity="0.2" d="M48.7499 45H11.25C10.9218 44.998 10.5999 44.91 10.3164 44.7446C10.0329 44.5792 9.79784 44.3423 9.63461 44.0576C9.47138 43.7729 9.38573 43.4504 9.38623 43.1222C9.38673 42.794 9.47336 42.4717 9.63745 42.1875C11.182 39.5156 13.125 32.768 13.125 24.375C13.125 19.8995 14.9028 15.6072 18.0675 12.4426C21.2322 9.2779 25.5244 7.5 30 7.5C34.4755 7.5 38.7677 9.2779 41.9324 12.4426C45.097 15.6072 46.875 19.8995 46.875 24.375C46.875 32.7703 48.8203 39.5156 50.3671 42.1875C50.5314 42.472 50.6181 42.7948 50.6183 43.1234C50.6186 43.4519 50.5326 43.7748 50.3688 44.0596C50.205 44.3445 49.9692 44.5813 49.6851 44.7463C49.401 44.9114 49.0785 44.9988 48.7499 45Z" fill="#48484E"/>
<path d="M12.6375 8.11359C12.4728 7.92798 12.2729 7.7769 12.0495 7.6691C11.826 7.5613 11.5833 7.49893 11.3356 7.4856C11.0878 7.47227 10.8399 7.50825 10.6061 7.59145C10.3724 7.67465 10.1574 7.80342 9.97382 7.97029C9.7902 8.13717 9.64152 8.33883 9.53641 8.56358C9.4313 8.78834 9.37184 9.03172 9.36148 9.27962C9.35113 9.52753 9.39008 9.77502 9.47607 10.0078C9.56207 10.2405 9.69341 10.4539 9.86247 10.6355L13.7859 14.9527C12.1196 17.8127 11.2444 21.0645 11.25 24.3745C11.25 32.6573 9.31403 38.9948 8.01325 41.2355C7.68107 41.8051 7.50497 42.4523 7.50271 43.1117C7.50044 43.7711 7.6721 44.4194 8.00036 44.9913C8.32862 45.5632 8.80187 46.0384 9.3724 46.3691C9.94293 46.6997 10.5906 46.8741 11.25 46.8745H42.8062L47.3625 51.8855C47.5271 52.0711 47.727 52.2222 47.9505 52.33C48.1739 52.4378 48.4166 52.5001 48.6644 52.5135C48.9121 52.5268 49.1601 52.4908 49.3938 52.4076C49.6276 52.3244 49.8425 52.1956 50.0261 52.0288C50.2097 51.8619 50.3584 51.6602 50.4635 51.4355C50.5686 51.2107 50.6281 50.9673 50.6385 50.7194C50.6488 50.4715 50.6099 50.224 50.5239 49.9913C50.4379 49.7586 50.3065 49.5452 50.1375 49.3636L12.6375 8.11359ZM11.25 43.1245C13.0547 40.0214 15 32.8308 15 24.3745C14.9967 22.1339 15.4982 19.9213 16.4672 17.9011L39.3961 43.1245H11.25ZM39.375 52.4995C39.375 52.9968 39.1774 53.4737 38.8258 53.8254C38.4742 54.177 37.9972 54.3745 37.5 54.3745H22.5C22.0027 54.3745 21.5258 54.177 21.1741 53.8254C20.8225 53.4737 20.625 52.9968 20.625 52.4995C20.625 52.0023 20.8225 51.5253 21.1741 51.1737C21.5258 50.8221 22.0027 50.6245 22.5 50.6245H37.5C37.9972 50.6245 38.4742 50.8221 38.8258 51.1737C39.1774 51.5253 39.375 52.0023 39.375 52.4995ZM50.1562 42.0112C49.9372 42.0962 49.7044 42.1399 49.4695 42.1402C49.0929 42.1398 48.7251 42.026 48.4141 41.8136C48.1031 41.6013 47.8632 41.3002 47.7257 40.9495C46.0195 36.6066 45 30.4097 45 24.3745C45.0007 21.751 44.3133 19.1731 43.0064 16.8982C41.6995 14.6233 39.8188 12.731 37.552 11.4101C35.2852 10.0892 32.7117 9.38591 30.0881 9.37049C27.4646 9.35507 24.8829 10.028 22.6008 11.3222C22.1692 11.556 21.6632 11.6113 21.1914 11.4762C20.7195 11.3411 20.3195 11.0264 20.0771 10.5996C19.8347 10.1728 19.7693 9.66802 19.895 9.19358C20.0207 8.71914 20.3273 8.31288 20.7492 8.06203C23.6017 6.44402 26.8288 5.60248 30.1082 5.62141C33.3876 5.64033 36.6047 6.51906 39.4384 8.16988C42.272 9.8207 44.6232 12.1859 46.2571 15.0293C47.891 17.8728 48.7506 21.0951 48.75 24.3745C48.75 32.6597 50.6367 38.1066 51.2156 39.5808C51.3973 40.0436 51.3878 40.5596 51.1892 41.0154C50.9905 41.4712 50.619 41.8294 50.1562 42.0112Z" fill="#48484E"/>
</svg>
