<svg width="60" height="60" viewBox="0 0 60 60" fill="none" xmlns="http://www.w3.org/2000/svg">
<path opacity="0.2" d="M50.625 11.25V20.625H9.375V11.25C9.375 10.7527 9.57254 10.2758 9.92418 9.92418C10.2758 9.57254 10.7527 9.375 11.25 9.375H48.75C49.2473 9.375 49.7242 9.57254 50.0758 9.92418C50.4275 10.2758 50.625 10.7527 50.625 11.25Z" fill="#48484E"/>
<path d="M48.75 7.5H43.125V5.625C43.125 5.12772 42.9275 4.65081 42.5758 4.29917C42.2242 3.94754 41.7473 3.75 41.25 3.75C40.7527 3.75 40.2758 3.94754 39.9242 4.29917C39.5725 4.65081 39.375 5.12772 39.375 5.625V7.5H20.625V5.625C20.625 5.12772 20.4275 4.65081 20.0758 4.29917C19.7242 3.94754 19.2473 3.75 18.75 3.75C18.2527 3.75 17.7758 3.94754 17.4242 4.29917C17.0725 4.65081 16.875 5.12772 16.875 5.625V7.5H11.25C10.2554 7.5 9.30161 7.89509 8.59835 8.59835C7.89509 9.30161 7.5 10.2554 7.5 11.25V48.75C7.5 49.7446 7.89509 50.6984 8.59835 51.4016C9.30161 52.1049 10.2554 52.5 11.25 52.5H48.75C49.7446 52.5 50.6984 52.1049 51.4016 51.4016C52.1049 50.6984 52.5 49.7446 52.5 48.75V11.25C52.5 10.2554 52.1049 9.30161 51.4016 8.59835C50.6984 7.89509 49.7446 7.5 48.75 7.5ZM16.875 11.25V13.125C16.875 13.6223 17.0725 14.0992 17.4242 14.4508C17.7758 14.8025 18.2527 15 18.75 15C19.2473 15 19.7242 14.8025 20.0758 14.4508C20.4275 14.0992 20.625 13.6223 20.625 13.125V11.25H39.375V13.125C39.375 13.6223 39.5725 14.0992 39.9242 14.4508C40.2758 14.8025 40.7527 15 41.25 15C41.7473 15 42.2242 14.8025 42.5758 14.4508C42.9275 14.0992 43.125 13.6223 43.125 13.125V11.25H48.75V18.75H11.25V11.25H16.875ZM48.75 48.75H11.25V22.5H48.75V48.75ZM32.8125 30.9375C32.8125 31.4938 32.6475 32.0375 32.3385 32.5C32.0295 32.9626 31.5902 33.323 31.0763 33.5359C30.5624 33.7488 29.9969 33.8045 29.4513 33.696C28.9057 33.5874 28.4046 33.3196 28.0113 32.9262C27.6179 32.5329 27.3501 32.0318 27.2415 31.4862C27.133 30.9406 27.1887 30.3751 27.4016 29.8612C27.6145 29.3473 27.9749 28.908 28.4375 28.599C28.9 28.2899 29.4437 28.125 30 28.125C30.7459 28.125 31.4613 28.4213 31.9887 28.9488C32.5162 29.4762 32.8125 30.1916 32.8125 30.9375ZM43.125 30.9375C43.125 31.4938 42.96 32.0375 42.651 32.5C42.342 32.9626 41.9027 33.323 41.3888 33.5359C40.8749 33.7488 40.3094 33.8045 39.7638 33.696C39.2182 33.5874 38.7171 33.3196 38.3238 32.9262C37.9304 32.5329 37.6626 32.0318 37.554 31.4862C37.4455 30.9406 37.5012 30.3751 37.7141 29.8612C37.927 29.3473 38.2874 28.908 38.75 28.599C39.2125 28.2899 39.7562 28.125 40.3125 28.125C41.0584 28.125 41.7738 28.4213 42.3012 28.9488C42.8287 29.4762 43.125 30.1916 43.125 30.9375ZM22.5 40.3125C22.5 40.8688 22.3351 41.4125 22.026 41.875C21.717 42.3376 21.2777 42.698 20.7638 42.9109C20.2499 43.1238 19.6844 43.1795 19.1388 43.071C18.5932 42.9624 18.0921 42.6946 17.6988 42.3012C17.3054 41.9079 17.0376 41.4068 16.929 40.8612C16.8205 40.3156 16.8762 39.7501 17.0891 39.2362C17.302 38.7223 17.6624 38.283 18.125 37.974C18.5875 37.665 19.1312 37.5 19.6875 37.5C20.4334 37.5 21.1488 37.7963 21.6762 38.3238C22.2037 38.8512 22.5 39.5666 22.5 40.3125ZM32.8125 40.3125C32.8125 40.8688 32.6475 41.4125 32.3385 41.875C32.0295 42.3376 31.5902 42.698 31.0763 42.9109C30.5624 43.1238 29.9969 43.1795 29.4513 43.071C28.9057 42.9624 28.4046 42.6946 28.0113 42.3012C27.6179 41.9079 27.3501 41.4068 27.2415 40.8612C27.133 40.3156 27.1887 39.7501 27.4016 39.2362C27.6145 38.7223 27.9749 38.283 28.4375 37.974C28.9 37.665 29.4437 37.5 30 37.5C30.7459 37.5 31.4613 37.7963 31.9887 38.3238C32.5162 38.8512 32.8125 39.5666 32.8125 40.3125ZM43.125 40.3125C43.125 40.8688 42.96 41.4125 42.651 41.875C42.342 42.3376 41.9027 42.698 41.3888 42.9109C40.8749 43.1238 40.3094 43.1795 39.7638 43.071C39.2182 42.9624 38.7171 42.6946 38.3238 42.3012C37.9304 41.9079 37.6626 41.4068 37.554 40.8612C37.4455 40.3156 37.5012 39.7501 37.7141 39.2362C37.927 38.7223 38.2874 38.283 38.75 37.974C39.2125 37.665 39.7562 37.5 40.3125 37.5C41.0584 37.5 41.7738 37.7963 42.3012 38.3238C42.8287 38.8512 43.125 39.5666 43.125 40.3125Z" fill="#48484E"/>
</svg>
