<svg width="60" height="60" viewBox="0 0 60 60" fill="none" xmlns="http://www.w3.org/2000/svg">
<path opacity="0.2" d="M52.5 30C52.5005 33.9514 51.4604 37.8333 49.4843 41.2551C47.5082 44.6769 44.6658 47.5179 41.243 49.4924C37.8203 51.4669 33.9379 52.5052 29.9865 52.5028C26.0351 52.5005 22.154 51.4575 18.7336 49.4789L9.97031 52.4016C9.63995 52.5117 9.28542 52.5277 8.94648 52.4477C8.60754 52.3678 8.29757 52.195 8.05131 51.9487C7.80506 51.7024 7.63225 51.3925 7.55227 51.0535C7.47228 50.7146 7.48827 50.3601 7.59844 50.0297L10.5211 41.2664C8.79354 38.2783 7.7766 34.9328 7.54898 31.4887C7.32136 28.0446 7.88915 24.5944 9.20843 21.4049C10.5277 18.2154 12.5631 15.3721 15.1571 13.0952C17.7511 10.8182 20.8342 9.16859 24.1678 8.27391C27.5014 7.37923 30.9961 7.26349 34.3816 7.93565C37.7671 8.60781 40.9526 10.0498 43.6916 12.1502C46.4306 14.2505 48.6496 16.9528 50.177 20.0481C51.7044 23.1433 52.4993 26.5484 52.5 30Z" fill="#48484E"/>
<path d="M30 5.625C25.7917 5.62408 21.6549 6.71271 17.9921 8.78491C14.3294 10.8571 11.2656 13.8423 9.09884 17.4499C6.9321 21.0575 5.73628 25.1647 5.62778 29.3715C5.51928 33.5784 6.50179 37.7417 8.47968 41.4563L5.81953 49.4367C5.59918 50.0975 5.5672 50.8065 5.72718 51.4844C5.88715 52.1623 6.23277 52.7822 6.72527 53.2747C7.21778 53.7672 7.83772 54.1128 8.51561 54.2728C9.19349 54.4328 9.90254 54.4008 10.5633 54.1805L18.5437 51.5203C21.8127 53.259 25.4349 54.2302 29.1352 54.36C32.8356 54.4898 36.5169 53.775 39.8997 52.2697C43.2825 50.7644 46.2779 48.5082 48.6586 45.6724C51.0393 42.8366 52.7426 39.4957 53.6394 35.9033C54.5361 32.3109 54.6026 28.5614 53.8339 24.9395C53.0652 21.3175 51.4814 17.9183 49.2029 14.9998C46.9243 12.0813 44.0108 9.72028 40.6835 8.09591C37.3562 6.47154 33.7026 5.62652 30 5.625ZM30 50.625C26.3742 50.6275 22.8119 49.6726 19.6734 47.857C19.3886 47.6918 19.0652 47.6045 18.7359 47.6039C18.5342 47.604 18.3339 47.6372 18.143 47.7023L9.375 50.625L12.2977 41.8594C12.3819 41.6075 12.4117 41.3406 12.385 41.0763C12.3583 40.8121 12.2758 40.5565 12.143 40.3266C9.86946 36.3959 8.95666 31.8248 9.54616 27.3224C10.1357 22.82 12.1945 18.638 15.4033 15.4251C18.6121 12.2123 22.7915 10.1481 27.2932 9.55294C31.7948 8.95776 36.3671 9.86478 40.3006 12.1333C44.2342 14.4019 47.3091 17.9051 49.0485 22.0996C50.7879 26.2941 51.0944 30.9453 49.9205 35.3318C48.7467 39.7182 46.1581 43.5947 42.5563 46.3599C38.9545 49.125 34.5408 50.6243 30 50.625ZM32.8125 30C32.8125 30.5563 32.6475 31.1 32.3385 31.5625C32.0295 32.0251 31.5902 32.3855 31.0763 32.5984C30.5624 32.8113 29.9969 32.867 29.4513 32.7585C28.9057 32.6499 28.4046 32.3821 28.0113 31.9887C27.6179 31.5954 27.3501 31.0943 27.2415 30.5487C27.133 30.0031 27.1887 29.4376 27.4016 28.9237C27.6145 28.4098 27.9749 27.9705 28.4375 27.6615C28.9 27.3524 29.4437 27.1875 30 27.1875C30.7459 27.1875 31.4613 27.4838 31.9887 28.0113C32.5162 28.5387 32.8125 29.2541 32.8125 30ZM22.5 30C22.5 30.5563 22.335 31.1 22.026 31.5625C21.717 32.0251 21.2777 32.3855 20.7638 32.5984C20.2499 32.8113 19.6844 32.867 19.1388 32.7585C18.5932 32.6499 18.0921 32.3821 17.6988 31.9887C17.3054 31.5954 17.0376 31.0943 16.929 30.5487C16.8205 30.0031 16.8762 29.4376 17.0891 28.9237C17.302 28.4098 17.6624 27.9705 18.125 27.6615C18.5875 27.3524 19.1312 27.1875 19.6875 27.1875C20.4334 27.1875 21.1488 27.4838 21.6762 28.0113C22.2037 28.5387 22.5 29.2541 22.5 30ZM43.125 30C43.125 30.5563 42.96 31.1 42.651 31.5625C42.342 32.0251 41.9027 32.3855 41.3888 32.5984C40.8749 32.8113 40.3094 32.867 39.7638 32.7585C39.2182 32.6499 38.7171 32.3821 38.3238 31.9887C37.9304 31.5954 37.6626 31.0943 37.554 30.5487C37.4455 30.0031 37.5012 29.4376 37.7141 28.9237C37.927 28.4098 38.2874 27.9705 38.75 27.6615C39.2125 27.3524 39.7562 27.1875 40.3125 27.1875C41.0584 27.1875 41.7738 27.4838 42.3012 28.0113C42.8287 28.5387 43.125 29.2541 43.125 30Z" fill="#48484E"/>
</svg>
