<svg width="60" height="60" viewBox="0 0 60 60" fill="none" xmlns="http://www.w3.org/2000/svg">
<path opacity="0.2" d="M45.75 16.875L41.4492 52.7344C41.3921 53.188 41.1711 53.6051 40.828 53.9072C40.4849 54.2094 40.0431 54.3757 39.5859 54.375H20.4141C19.9569 54.3757 19.5151 54.2094 19.172 53.9072C18.8289 53.6051 18.6079 53.188 18.5508 52.7344L14.25 16.875H45.75Z" fill="#48484E"/>
<path d="M48.2812 6.25547C48.1049 6.05675 47.8883 5.89777 47.6459 5.78908C47.4035 5.68039 47.1407 5.62446 46.875 5.625H13.125C12.8589 5.62491 12.5959 5.68145 12.3534 5.79086C12.1108 5.90027 11.8943 6.06004 11.7183 6.25957C11.5423 6.45909 11.4108 6.69379 11.3324 6.94807C11.2541 7.20236 11.2308 7.4704 11.2641 7.73438L16.6898 52.9688C16.8041 53.8756 17.2456 54.7095 17.9314 55.3137C18.6172 55.9179 19.5001 56.2509 20.4141 56.25H39.5859C40.5032 56.2503 41.3887 55.9143 42.0749 55.3058C42.7612 54.6973 43.2007 53.8583 43.3102 52.9477L48.7359 7.73438C48.7697 7.46971 48.7467 7.20088 48.6683 6.94584C48.5898 6.6908 48.4579 6.45544 48.2812 6.25547ZM44.7656 9.375L44.0859 15H15.9141L15.2344 9.375H44.7656ZM39.5859 52.5H20.4141L16.3641 18.75H43.6359L39.5859 52.5Z" fill="#48484E"/>
</svg>
