<svg width="60" height="60" viewBox="0 0 60 60" fill="none" xmlns="http://www.w3.org/2000/svg">
<path opacity="0.2" d="M48.1875 37.3617L50.0789 45L43.125 40.9078L36.1711 45L38.0625 37.3617L31.875 32.2523L39.9961 31.6266L43.125 24.375L46.2539 31.6266L54.375 32.2523L48.1875 37.3617Z" fill="#48484E"/>
<path d="M7.5 15C7.5 14.5027 7.69754 14.0258 8.04918 13.6742C8.40081 13.3225 8.87772 13.125 9.375 13.125H50.625C51.1223 13.125 51.5992 13.3225 51.9508 13.6742C52.3025 14.0258 52.5 14.5027 52.5 15C52.5 15.4973 52.3025 15.9742 51.9508 16.3258C51.5992 16.6775 51.1223 16.875 50.625 16.875H9.375C8.87772 16.875 8.40081 16.6775 8.04918 16.3258C7.69754 15.9742 7.5 15.4973 7.5 15ZM9.375 31.875H22.5C22.9973 31.875 23.4742 31.6775 23.8258 31.3258C24.1775 30.9742 24.375 30.4973 24.375 30C24.375 29.5027 24.1775 29.0258 23.8258 28.6742C23.4742 28.3225 22.9973 28.125 22.5 28.125H9.375C8.87772 28.125 8.40081 28.3225 8.04918 28.6742C7.69754 29.0258 7.5 29.5027 7.5 30C7.5 30.4973 7.69754 30.9742 8.04918 31.3258C8.40081 31.6775 8.87772 31.875 9.375 31.875ZM26.25 43.125H9.375C8.87772 43.125 8.40081 43.3225 8.04918 43.6742C7.69754 44.0258 7.5 44.5027 7.5 45C7.5 45.4973 7.69754 45.9742 8.04918 46.3258C8.40081 46.6775 8.87772 46.875 9.375 46.875H26.25C26.7473 46.875 27.2242 46.6775 27.5758 46.3258C27.9275 45.9742 28.125 45.4973 28.125 45C28.125 44.5027 27.9275 44.0258 27.5758 43.6742C27.2242 43.3225 26.7473 43.125 26.25 43.125ZM55.568 33.6984L50.2898 38.0555L51.8977 44.55C51.9858 44.9081 51.9664 45.2842 51.8418 45.6313C51.7173 45.9784 51.4932 46.2811 51.1975 46.5015C50.9018 46.7219 50.5477 46.8502 50.1795 46.8703C49.8113 46.8905 49.4453 46.8016 49.1273 46.6148L43.125 43.0828L37.1227 46.6148C36.8047 46.8016 36.4387 46.8905 36.0705 46.8703C35.7023 46.8502 35.3482 46.7219 35.0525 46.5015C34.7568 46.2811 34.5327 45.9784 34.4082 45.6313C34.2836 45.2842 34.2642 44.9081 34.3523 44.55L35.9578 38.0555L30.682 33.6984C30.3943 33.4605 30.1842 33.1421 30.0786 32.784C29.973 32.4259 29.9767 32.0444 30.0892 31.6884C30.2018 31.3324 30.418 31.0181 30.7103 30.7858C31.0025 30.5535 31.3575 30.4137 31.7297 30.3844L38.7234 29.843L41.4023 23.632C41.5471 23.2952 41.7874 23.0082 42.0936 22.8065C42.3998 22.6048 42.7584 22.4974 43.125 22.4974C43.4916 22.4974 43.8502 22.6048 44.1564 22.8065C44.4626 23.0082 44.7029 23.2952 44.8477 23.632L47.5266 29.843L54.5203 30.3844C54.8925 30.4137 55.2475 30.5535 55.5397 30.7858C55.832 31.0181 56.0482 31.3324 56.1608 31.6884C56.2733 32.0444 56.277 32.4259 56.1714 32.784C56.0658 33.1421 55.8557 33.4605 55.568 33.6984ZM49.5984 33.7641L46.1086 33.4945C45.7682 33.4684 45.4413 33.3498 45.1634 33.1515C44.8854 32.9533 44.6668 32.6829 44.5312 32.3695L43.125 29.107L41.7188 32.3695C41.5832 32.6829 41.3646 32.9533 41.0866 33.1515C40.8087 33.3498 40.4818 33.4684 40.1414 33.4945L36.6516 33.7641L39.2555 35.9156C39.5282 36.1404 39.7319 36.4376 39.843 36.7731C39.9542 37.1085 39.9682 37.4686 39.8836 37.8117L39.0633 41.1211L42.1734 39.2906C42.4618 39.1208 42.7903 39.0312 43.125 39.0312C43.4597 39.0312 43.7882 39.1208 44.0766 39.2906L47.1867 41.1211L46.3664 37.8117C46.2818 37.4686 46.2958 37.1085 46.407 36.7731C46.5181 36.4376 46.7218 36.1404 46.9945 35.9156L49.5984 33.7641Z" fill="#48484E"/>
</svg>
