<svg width="60" height="60" viewBox="0 0 60 60" fill="none" xmlns="http://www.w3.org/2000/svg">
<path opacity="0.2" d="M46.875 20.625L30 37.5H22.5V30L39.375 13.125L46.875 20.625Z" fill="#48484E"/>
<path d="M53.8266 13.673L46.3266 6.17296C46.1524 5.99863 45.9456 5.86033 45.718 5.76597C45.4904 5.67161 45.2464 5.62305 45 5.62305C44.7536 5.62305 44.5096 5.67161 44.282 5.76597C44.0544 5.86033 43.8476 5.99863 43.6734 6.17296L21.1734 28.673C20.9994 28.8472 20.8613 29.0541 20.7672 29.2817C20.6731 29.5093 20.6248 29.7532 20.625 29.9995V37.4995C20.625 37.9968 20.8225 38.4737 21.1742 38.8253C21.5258 39.177 22.0027 39.3745 22.5 39.3745H30C30.2463 39.3747 30.4902 39.3264 30.7178 39.2323C30.9455 39.1382 31.1523 39.0001 31.3266 38.8261L53.8266 16.3261C54.0009 16.1519 54.1392 15.9452 54.2336 15.7175C54.3279 15.4899 54.3765 15.2459 54.3765 14.9995C54.3765 14.7531 54.3279 14.5091 54.2336 14.2815C54.1392 14.0539 54.0009 13.8471 53.8266 13.673ZM29.2242 35.6245H24.375V30.7753L39.375 15.7753L44.2242 20.6245L29.2242 35.6245ZM46.875 17.9737L42.0258 13.1245L45 10.1503L49.8492 14.9995L46.875 17.9737ZM52.5 29.9995V48.7495C52.5 49.7441 52.1049 50.6979 51.4016 51.4012C50.6984 52.1044 49.7446 52.4995 48.75 52.4995H11.25C10.2554 52.4995 9.30161 52.1044 8.59835 51.4012C7.89509 50.6979 7.5 49.7441 7.5 48.7495V11.2495C7.5 10.255 7.89509 9.30113 8.59835 8.59787C9.30161 7.89461 10.2554 7.49952 11.25 7.49952H30C30.4973 7.49952 30.9742 7.69707 31.3258 8.0487C31.6775 8.40033 31.875 8.87724 31.875 9.37452C31.875 9.8718 31.6775 10.3487 31.3258 10.7003C30.9742 11.052 30.4973 11.2495 30 11.2495H11.25V48.7495H48.75V29.9995C48.75 29.5022 48.9475 29.0253 49.2992 28.6737C49.6508 28.3221 50.1277 28.1245 50.625 28.1245C51.1223 28.1245 51.5992 28.3221 51.9508 28.6737C52.3025 29.0253 52.5 29.5022 52.5 29.9995Z" fill="#48484E"/>
</svg>
