<svg width="60" height="60" viewBox="0 0 60 60" fill="none" xmlns="http://www.w3.org/2000/svg">
<path opacity="0.2" d="M46.875 41.25H24.375C24.375 41.25 26.25 42.6562 26.25 45C26.25 46.4918 25.6574 47.9226 24.6025 48.9775C23.5476 50.0324 22.1168 50.625 20.625 50.625C19.1332 50.625 17.7024 50.0324 16.6475 48.9775C15.5926 47.9226 15 46.4918 15 45V15C15 13.5082 14.4074 12.0774 13.3525 11.0225C12.2976 9.96763 10.8668 9.375 9.375 9.375H41.25C42.7418 9.375 44.1726 9.96763 45.2275 11.0225C46.2824 12.0774 46.875 13.5082 46.875 15V41.25Z" fill="#48484E"/>
<path d="M22.5 24.375C22.5 23.8777 22.6975 23.4008 23.0492 23.0492C23.4008 22.6975 23.8777 22.5 24.375 22.5H39.375C39.8723 22.5 40.3492 22.6975 40.7008 23.0492C41.0525 23.4008 41.25 23.8777 41.25 24.375C41.25 24.8723 41.0525 25.3492 40.7008 25.7008C40.3492 26.0525 39.8723 26.25 39.375 26.25H24.375C23.8777 26.25 23.4008 26.0525 23.0492 25.7008C22.6975 25.3492 22.5 24.8723 22.5 24.375ZM24.375 33.75H39.375C39.8723 33.75 40.3492 33.5525 40.7008 33.2008C41.0525 32.8492 41.25 32.3723 41.25 31.875C41.25 31.3777 41.0525 30.9008 40.7008 30.5492C40.3492 30.1975 39.8723 30 39.375 30H24.375C23.8777 30 23.4008 30.1975 23.0492 30.5492C22.6975 30.9008 22.5 31.3777 22.5 31.875C22.5 32.3723 22.6975 32.8492 23.0492 33.2008C23.4008 33.5525 23.8777 33.75 24.375 33.75ZM54.375 45C54.375 46.9891 53.5848 48.8968 52.1783 50.3033C50.7718 51.7098 48.8641 52.5 46.875 52.5H20.625C18.6359 52.5 16.7282 51.7098 15.3217 50.3033C13.9152 48.8968 13.125 46.9891 13.125 45V15C13.125 14.0054 12.7299 13.0516 12.0267 12.3483C11.3234 11.6451 10.3696 11.25 9.375 11.25C8.38044 11.25 7.42661 11.6451 6.72335 12.3483C6.02009 13.0516 5.625 14.0054 5.625 15C5.625 16.3453 6.75703 17.2547 6.76875 17.2641C7.07907 17.5029 7.30683 17.8328 7.42009 18.2077C7.53335 18.5825 7.52642 18.9834 7.40027 19.3541C7.27413 19.7247 7.03509 20.0466 6.71671 20.2746C6.39832 20.5025 6.01657 20.6251 5.625 20.625C5.21953 20.6257 4.82507 20.4931 4.50234 20.2477C4.23047 20.0484 1.875 18.1898 1.875 15C1.875 13.0109 2.66518 11.1032 4.0717 9.6967C5.47822 8.29018 7.38588 7.5 9.375 7.5H41.25C43.2391 7.5 45.1468 8.29018 46.5533 9.6967C47.9598 11.1032 48.75 13.0109 48.75 15V39.375H50.625C51.0307 39.375 51.4254 39.5066 51.75 39.75C52.0312 39.9516 54.375 41.8102 54.375 45ZM22.5609 40.6594C22.689 40.2812 22.9335 39.9533 23.2594 39.7226C23.5853 39.4919 23.9758 39.3702 24.375 39.375H45V15C45 14.0054 44.6049 13.0516 43.9016 12.3483C43.1984 11.6451 42.2446 11.25 41.25 11.25H15.8648C16.528 12.3884 16.8766 13.6826 16.875 15V45C16.875 45.9946 17.2701 46.9484 17.9734 47.6516C18.6766 48.3549 19.6304 48.75 20.625 48.75C21.6196 48.75 22.5734 48.3549 23.2766 47.6516C23.9799 46.9484 24.375 45.9946 24.375 45C24.375 43.6547 23.243 42.7453 23.2313 42.7359C22.9117 42.5074 22.6741 42.1822 22.5534 41.8083C22.4327 41.4344 22.4354 41.0316 22.5609 40.6594ZM50.625 45C50.6016 44.3053 50.3334 43.6412 49.868 43.125H27.8367C28.0252 43.7321 28.1208 44.3643 28.1203 45C28.1221 46.3168 27.7752 47.6107 27.1148 48.75H46.875C47.8696 48.75 48.8234 48.3549 49.5266 47.6516C50.2299 46.9484 50.625 45.9946 50.625 45Z" fill="#48484E"/>
</svg>
