<svg width="60" height="60" viewBox="0 0 60 60" fill="none" xmlns="http://www.w3.org/2000/svg">
<path opacity="0.2" d="M45 26.25C45 29.9584 43.9003 33.5835 41.8401 36.6669C39.7798 39.7504 36.8514 42.1536 33.4253 43.5727C29.9992 44.9919 26.2292 45.3632 22.5921 44.6397C18.9549 43.9163 15.614 42.1305 12.9917 39.5083C10.3695 36.886 8.58375 33.5451 7.86028 29.9079C7.1368 26.2708 7.50812 22.5008 8.92726 19.0747C10.3464 15.6486 12.7496 12.7202 15.8331 10.6599C18.9165 8.59967 22.5416 7.5 26.25 7.5C28.7123 7.5 31.1505 7.98498 33.4253 8.92726C35.7002 9.86953 37.7672 11.2506 39.5083 12.9917C41.2494 14.7328 42.6305 16.7998 43.5727 19.0747C44.515 21.3495 45 23.7877 45 26.25Z" fill="#48484E"/>
<path d="M53.8266 51.1731L42.0938 39.4403C45.5011 35.3537 47.2017 30.1109 46.8419 24.8024C46.4821 19.494 44.0895 14.5286 40.1619 10.9393C36.2343 7.34995 31.0741 5.41304 25.7547 5.5315C20.4354 5.64995 15.3665 7.81465 11.6026 11.5753C7.83865 15.3359 5.66948 20.4028 5.54632 25.722C5.42316 31.0413 7.35551 36.2032 10.9414 40.134C14.5272 44.0648 19.4905 46.4617 24.7986 46.8262C30.1068 47.1907 35.3511 45.4947 39.4406 42.091L51.1734 53.8262C51.3476 54.0004 51.5545 54.1386 51.7821 54.2329C52.0097 54.3271 52.2536 54.3757 52.5 54.3757C52.7464 54.3757 52.9903 54.3271 53.2179 54.2329C53.4455 54.1386 53.6524 54.0004 53.8266 53.8262C54.0008 53.652 54.139 53.4452 54.2332 53.2176C54.3275 52.9899 54.376 52.746 54.376 52.4996C54.376 52.2533 54.3275 52.0093 54.2332 51.7817C54.139 51.5541 54.0008 51.3473 53.8266 51.1731ZM9.375 26.2496C9.375 22.9121 10.3647 19.6495 12.2189 16.8744C14.0732 14.0993 16.7087 11.9364 19.7922 10.6592C22.8757 9.38193 26.2687 9.04775 29.5421 9.69888C32.8156 10.35 35.8224 11.9572 38.1824 14.3172C40.5424 16.6772 42.1496 19.684 42.8008 22.9575C43.4519 26.2309 43.1177 29.6239 41.8405 32.7074C40.5632 35.7909 38.4003 38.4264 35.6252 40.2807C32.8502 42.1349 29.5876 43.1246 26.25 43.1246C21.776 43.1197 17.4867 41.3402 14.3231 38.1766C11.1595 35.013 9.37996 30.7236 9.375 26.2496Z" fill="#48484E"/>
</svg>
