<svg width="60" height="60" viewBox="0 0 60 60" fill="none" xmlns="http://www.w3.org/2000/svg">
<path opacity="0.2" d="M53 15L50.1048 32.5507C49.9453 33.5185 49.4828 34.3938 48.7979 35.0242C48.1131 35.6545 47.2493 35.9999 46.3571 36H16.4643L13 15H53Z" fill="#48484E"/>
<path d="M54.5552 15.121C54.3779 14.9089 54.1562 14.7382 53.9057 14.6212C53.6553 14.5041 53.3821 14.4434 53.1057 14.4435H15.0204L13.585 6.55109C13.506 6.1159 13.2767 5.72227 12.9372 5.43882C12.5976 5.15536 12.1694 5.00006 11.7271 5H5.88868C5.38777 5 4.90738 5.19899 4.55318 5.55319C4.19899 5.90738 4 6.38778 4 6.88869C4 7.3896 4.19899 7.87 4.55318 8.2242C4.90738 8.5784 5.38777 8.77738 5.88868 8.77738H10.1382L16.1725 41.898C16.3503 42.8802 16.7844 43.7981 17.4309 44.5587C16.5386 45.3921 15.8945 46.4564 15.5702 47.6335C15.2458 48.8106 15.2538 50.0545 15.5933 51.2274C15.9327 52.4002 16.5903 53.4561 17.4933 54.278C18.3962 55.0999 19.5091 55.6557 20.7086 55.8837C21.9081 56.1117 23.1473 56.0031 24.2888 55.5698C25.4303 55.1365 26.4295 54.3956 27.1756 53.4291C27.9217 52.4626 28.3856 51.3083 28.5157 50.0943C28.6459 48.8803 28.4373 47.6539 27.913 46.5512H38.636C38.2135 47.4358 37.9948 48.4039 37.9962 49.3843C37.9962 50.6917 38.3839 51.9697 39.1103 53.0568C39.8366 54.1439 40.869 54.9912 42.0769 55.4915C43.2848 55.9918 44.6139 56.1227 45.8962 55.8677C47.1785 55.6126 48.3564 54.983 49.2808 54.0585C50.2053 53.1341 50.8349 51.9562 51.09 50.6739C51.345 49.3916 51.2141 48.0625 50.7138 46.8546C50.2135 45.6467 49.3662 44.6143 48.2791 43.8879C47.1921 43.1615 45.914 42.7738 44.6066 42.7738H21.7465C21.3042 42.7738 20.8759 42.6185 20.5364 42.335C20.1969 42.0516 19.9676 41.6579 19.8885 41.2228L19.1401 37.1078H46.526C47.8529 37.1076 49.1376 36.6417 50.1563 35.7913C51.1749 34.941 51.8628 33.7601 52.0999 32.4545L54.9707 16.6698C55.0193 16.3969 55.0073 16.1168 54.9355 15.8491C54.8637 15.5815 54.7339 15.3329 54.5552 15.121ZM24.7755 49.3843C24.7755 49.9446 24.6093 50.4923 24.298 50.9582C23.9867 51.4241 23.5443 51.7872 23.0266 52.0016C22.5089 52.2161 21.9393 52.2722 21.3898 52.1629C20.8402 52.0536 20.3354 51.7837 19.9392 51.3875C19.543 50.9913 19.2732 50.4865 19.1639 49.937C19.0546 49.3874 19.1107 48.8178 19.3251 48.3001C19.5395 47.7824 19.9026 47.34 20.3685 47.0287C20.8344 46.7174 21.3821 46.5512 21.9425 46.5512C22.6938 46.5512 23.4144 46.8497 23.9457 47.381C24.477 47.9123 24.7755 48.6329 24.7755 49.3843ZM47.4396 49.3843C47.4396 49.9446 47.2735 50.4923 46.9622 50.9582C46.6509 51.4241 46.2084 51.7872 45.6908 52.0016C45.1731 52.2161 44.6035 52.2722 44.0539 52.1629C43.5044 52.0536 42.9996 51.7837 42.6034 51.3875C42.2072 50.9913 41.9373 50.4865 41.828 49.937C41.7187 49.3874 41.7748 48.8178 41.9892 48.3001C42.2037 47.7824 42.5668 47.34 43.0327 47.0287C43.4986 46.7174 44.0463 46.5512 44.6066 46.5512C45.358 46.5512 46.0786 46.8497 46.6098 47.381C47.1411 47.9123 47.4396 48.6329 47.4396 49.3843ZM48.384 31.7793C48.3047 32.2157 48.0744 32.6102 47.7334 32.8938C47.3923 33.1774 46.9624 33.332 46.5189 33.3304H18.4531L15.7074 18.2208H50.8416L48.384 31.7793Z" fill="#48484E"/>
</svg>
