<svg width="60" height="60" viewBox="0 0 60 60" fill="none" xmlns="http://www.w3.org/2000/svg">
<path opacity="0.2" d="M52.5 30C52.5 34.4501 51.1804 38.8002 48.7081 42.5003C46.2357 46.2004 42.7217 49.0843 38.6104 50.7873C34.4991 52.4903 29.9751 52.9358 25.6105 52.0677C21.2459 51.1995 17.2368 49.0566 14.0901 45.9099C10.9434 42.7632 8.80051 38.7541 7.93234 34.3895C7.06417 30.025 7.50975 25.501 9.21272 21.3896C10.9157 17.2783 13.7996 13.7643 17.4997 11.2919C21.1998 8.8196 25.5499 7.5 30 7.5C35.9674 7.5 41.6903 9.87053 45.9099 14.0901C50.1295 18.3097 52.5 24.0326 52.5 30Z" fill="#48484E"/>
<path d="M30 5.625C25.1791 5.625 20.4664 7.05457 16.458 9.73293C12.4495 12.4113 9.32533 16.2181 7.48045 20.6721C5.63556 25.126 5.15285 30.027 6.09337 34.7553C7.03388 39.4836 9.35538 43.8268 12.7643 47.2357C16.1732 50.6446 20.5164 52.9661 25.2447 53.9066C29.973 54.8472 34.874 54.3644 39.3279 52.5196C43.7819 50.6747 47.5887 47.5505 50.2671 43.542C52.9454 39.5336 54.375 34.8209 54.375 30C54.3682 23.5374 51.7979 17.3415 47.2282 12.7718C42.6585 8.20209 36.4626 5.63182 30 5.625ZM30 50.625C25.9208 50.625 21.9331 49.4154 18.5414 47.1491C15.1496 44.8828 12.5061 41.6616 10.945 37.8928C9.38394 34.1241 8.97549 29.9771 9.77131 25.9763C10.5671 21.9754 12.5315 18.3004 15.4159 15.4159C18.3004 12.5315 21.9754 10.5671 25.9763 9.7713C29.9771 8.97548 34.1241 9.38393 37.8929 10.945C41.6616 12.506 44.8828 15.1496 47.1491 18.5414C49.4154 21.9331 50.625 25.9208 50.625 30C50.6188 35.4682 48.4438 40.7106 44.5772 44.5772C40.7106 48.4438 35.4682 50.6188 30 50.625ZM18.75 25.3125C18.75 24.7562 18.915 24.2125 19.224 23.75C19.533 23.2874 19.9723 22.927 20.4862 22.7141C21.0001 22.5012 21.5656 22.4455 22.1112 22.554C22.6568 22.6626 23.1579 22.9304 23.5512 23.3238C23.9446 23.7171 24.2124 24.2182 24.321 24.7638C24.4295 25.3094 24.3738 25.8749 24.1609 26.3888C23.9481 26.9027 23.5876 27.342 23.1251 27.651C22.6625 27.9601 22.1188 28.125 21.5625 28.125C20.8166 28.125 20.1012 27.8287 19.5738 27.3012C19.0463 26.7738 18.75 26.0584 18.75 25.3125ZM35.625 25.3125C35.625 24.7562 35.79 24.2125 36.099 23.75C36.408 23.2874 36.8473 22.927 37.3612 22.7141C37.8751 22.5012 38.4406 22.4455 38.9862 22.554C39.5318 22.6626 40.0329 22.9304 40.4262 23.3238C40.8196 23.7171 41.0874 24.2182 41.196 24.7638C41.3045 25.3094 41.2488 25.8749 41.0359 26.3888C40.823 26.9027 40.4626 27.342 40 27.651C39.5375 27.9601 38.9938 28.125 38.4375 28.125C37.6916 28.125 36.9762 27.8287 36.4488 27.3012C35.9213 26.7738 35.625 26.0584 35.625 25.3125ZM43.125 39.375C43.125 39.8723 42.9275 40.3492 42.5758 40.7008C42.2242 41.0525 41.7473 41.25 41.25 41.25C38.9063 41.25 37.7227 39.6703 36.9375 38.625C36.2344 37.6875 36.0188 37.5 35.625 37.5C35.2313 37.5 35.0227 37.6781 34.3125 38.625C33.5274 39.6703 32.3438 41.25 30 41.25C27.6563 41.25 26.4844 39.6703 25.6875 38.625C24.9844 37.6875 24.7688 37.5 24.375 37.5C23.9813 37.5 23.7727 37.6781 23.0625 38.625C22.2774 39.6703 21.0938 41.25 18.75 41.25C18.2527 41.25 17.7758 41.0525 17.4242 40.7008C17.0726 40.3492 16.875 39.8723 16.875 39.375C16.875 38.8777 17.0726 38.4008 17.4242 38.0492C17.7758 37.6975 18.2527 37.5 18.75 37.5C19.1438 37.5 19.3524 37.3219 20.0625 36.375C20.8594 35.3297 22.0313 33.75 24.375 33.75C26.7188 33.75 27.8906 35.3297 28.6875 36.375C29.3906 37.3125 29.6063 37.5 30 37.5C30.3938 37.5 30.6024 37.3219 31.3125 36.375C32.1094 35.3297 33.2813 33.75 35.625 33.75C37.9688 33.75 39.1524 35.3297 39.9375 36.375C40.6406 37.3125 40.8563 37.5 41.25 37.5C41.7473 37.5 42.2242 37.6975 42.5758 38.0492C42.9275 38.4008 43.125 38.8777 43.125 39.375Z" fill="#48484E"/>
</svg>
