<svg width="60" height="60" viewBox="0 0 60 60" fill="none" xmlns="http://www.w3.org/2000/svg">
<path opacity="0.2" d="M52.5 30C52.5 34.4501 51.1804 38.8002 48.7081 42.5003C46.2357 46.2004 42.7217 49.0843 38.6104 50.7873C34.4991 52.4903 29.9751 52.9358 25.6105 52.0677C21.2459 51.1995 17.2368 49.0566 14.0901 45.9099C10.9434 42.7632 8.80051 38.7541 7.93234 34.3895C7.06417 30.025 7.50975 25.501 9.21272 21.3896C10.9157 17.2783 13.7996 13.7643 17.4997 11.2919C21.1998 8.8196 25.5499 7.5 30 7.5C35.9674 7.5 41.6903 9.87053 45.9099 14.0901C50.1295 18.3097 52.5 24.0326 52.5 30Z" fill="#48484E"/>
<path d="M30 5.625C25.1791 5.625 20.4664 7.05457 16.458 9.73293C12.4495 12.4113 9.32533 16.2181 7.48045 20.6721C5.63556 25.126 5.15285 30.027 6.09337 34.7553C7.03388 39.4836 9.35538 43.8268 12.7643 47.2357C16.1732 50.6446 20.5164 52.9661 25.2447 53.9066C29.973 54.8472 34.874 54.3644 39.3279 52.5196C43.7819 50.6747 47.5887 47.5505 50.2671 43.542C52.9454 39.5336 54.375 34.8209 54.375 30C54.3682 23.5374 51.7979 17.3415 47.2282 12.7718C42.6585 8.20209 36.4626 5.63182 30 5.625ZM30 50.625C25.9208 50.625 21.9331 49.4154 18.5414 47.1491C15.1496 44.8828 12.5061 41.6616 10.945 37.8928C9.38394 34.1241 8.97549 29.9771 9.77131 25.9763C10.5671 21.9754 12.5315 18.3004 15.4159 15.4159C18.3004 12.5315 21.9754 10.5671 25.9763 9.7713C29.9771 8.97548 34.1241 9.38393 37.8929 10.945C41.6616 12.506 44.8828 15.1496 47.1491 18.5414C49.4154 21.9331 50.625 25.9208 50.625 30C50.6188 35.4682 48.4438 40.7106 44.5772 44.5772C40.7106 48.4438 35.4682 50.6188 30 50.625ZM44.4516 28.6734C44.6258 28.8476 44.764 29.0545 44.8582 29.2821C44.9525 29.5097 45.0011 29.7536 45.0011 30C45.0011 30.2464 44.9525 30.4903 44.8582 30.7179C44.764 30.9455 44.6258 31.1524 44.4516 31.3266C44.2774 31.5008 44.0706 31.639 43.8429 31.7332C43.6153 31.8275 43.3714 31.876 43.125 31.876C42.8786 31.876 42.6347 31.8275 42.4071 31.7332C42.1795 31.639 41.9727 31.5008 41.7984 31.3266L39.375 28.9008L36.9516 31.3266C36.5997 31.6784 36.1226 31.876 35.625 31.876C35.1275 31.876 34.6503 31.6784 34.2984 31.3266C33.9466 30.9747 33.749 30.4976 33.749 30C33.749 29.5024 33.9466 29.0253 34.2984 28.6734L36.7242 26.25L34.2984 23.8266C33.9466 23.4747 33.749 22.9976 33.749 22.5C33.749 22.0024 33.9466 21.5253 34.2984 21.1734C34.6503 20.8216 35.1275 20.624 35.625 20.624C36.1226 20.624 36.5997 20.8216 36.9516 21.1734L39.375 23.5992L41.7984 21.1734C41.9727 20.9992 42.1795 20.861 42.4071 20.7668C42.6347 20.6725 42.8786 20.624 43.125 20.624C43.3714 20.624 43.6153 20.6725 43.8429 20.7668C44.0706 20.861 44.2774 20.9992 44.4516 21.1734C44.6258 21.3476 44.764 21.5545 44.8582 21.7821C44.9525 22.0097 45.0011 22.2536 45.0011 22.5C45.0011 22.7464 44.9525 22.9903 44.8582 23.2179C44.764 23.4455 44.6258 23.6524 44.4516 23.8266L42.0258 26.25L44.4516 28.6734ZM25.7016 23.8266L23.2758 26.25L25.7016 28.6734C26.0534 29.0253 26.2511 29.5024 26.2511 30C26.2511 30.4976 26.0534 30.9747 25.7016 31.3266C25.3497 31.6784 24.8726 31.876 24.375 31.876C23.8775 31.876 23.4003 31.6784 23.0484 31.3266L20.625 28.9008L18.2016 31.3266C17.8497 31.6784 17.3726 31.876 16.875 31.876C16.3775 31.876 15.9003 31.6784 15.5484 31.3266C15.1966 30.9747 14.999 30.4976 14.999 30C14.999 29.5024 15.1966 29.0253 15.5484 28.6734L17.9742 26.25L15.5484 23.8266C15.1966 23.4747 14.999 22.9976 14.999 22.5C14.999 22.0024 15.1966 21.5253 15.5484 21.1734C15.9003 20.8216 16.3775 20.624 16.875 20.624C17.3726 20.624 17.8497 20.8216 18.2016 21.1734L20.625 23.5992L23.0484 21.1734C23.4003 20.8216 23.8775 20.624 24.375 20.624C24.8726 20.624 25.3497 20.8216 25.7016 21.1734C26.0534 21.5253 26.2511 22.0024 26.2511 22.5C26.2511 22.9976 26.0534 23.4747 25.7016 23.8266ZM32.8125 42.1875C32.8125 42.7438 32.6476 43.2875 32.3385 43.75C32.0295 44.2126 31.5902 44.573 31.0763 44.7859C30.5624 44.9988 29.9969 45.0545 29.4513 44.946C28.9057 44.8374 28.4046 44.5696 28.0113 44.1762C27.6179 43.7829 27.3501 43.2818 27.2416 42.7362C27.133 42.1906 27.1887 41.6251 27.4016 41.1112C27.6145 40.5973 27.975 40.158 28.4375 39.849C28.9 39.54 29.4438 39.375 30 39.375C30.7459 39.375 31.4613 39.6713 31.9887 40.1988C32.5162 40.7262 32.8125 41.4416 32.8125 42.1875Z" fill="#48484E"/>
</svg>
