<svg width="60" height="60" viewBox="0 0 60 60" fill="none" xmlns="http://www.w3.org/2000/svg">
<path opacity="0.2" d="M39.375 39.375V52.5H20.625V39.375C20.625 38.8777 20.8225 38.4008 21.1742 38.0492C21.5258 37.6975 22.0027 37.5 22.5 37.5H37.5C37.9973 37.5 38.4742 37.6975 38.8258 38.0492C39.1775 38.4008 39.375 38.8777 39.375 39.375Z" fill="#48484E"/>
<path d="M54.2648 34.352L41.175 11.8731L41.1492 11.8286C39.9714 9.93235 38.3294 8.36788 36.3785 7.28305C34.4276 6.19823 32.2322 5.62891 30 5.62891C27.7678 5.62891 25.5724 6.19823 23.6215 7.28305C21.6706 8.36788 20.0286 9.93235 18.8508 11.8286L18.825 11.8731L5.73514 34.352C4.5072 36.3399 3.83218 38.6195 3.77982 40.9555C3.72745 43.2915 4.29963 45.5991 5.43727 47.64C6.57491 49.6809 8.23675 51.3811 10.2512 52.565C12.2656 53.749 14.5595 54.3737 16.8961 54.3746H43.1039C45.4405 54.3737 47.7344 53.749 49.7488 52.565C51.7632 51.3811 53.4251 49.6809 54.5627 47.64C55.7003 45.5991 56.2725 43.2915 56.2202 40.9555C56.1678 38.6195 55.4928 36.3399 54.2648 34.352ZM37.5 50.6246H22.5V39.3746H37.5V50.6246ZM51.2953 45.8082C50.4928 47.2765 49.3073 48.4998 47.8649 49.3479C46.4225 50.196 44.7771 50.6373 43.1039 50.6246H41.25V39.3746C41.25 38.3801 40.8549 37.4263 40.1516 36.723C39.4484 36.0197 38.4945 35.6246 37.5 35.6246H22.5C21.5054 35.6246 20.5516 36.0197 19.8483 36.723C19.1451 37.4263 18.75 38.3801 18.75 39.3746V50.6246H16.8961C15.2249 50.6251 13.5841 50.1789 12.1433 49.3322C10.7025 48.4855 9.51431 47.269 8.70162 45.8088C7.88893 44.3486 7.48132 42.6977 7.52101 41.027C7.56069 39.3563 8.04623 37.7267 8.92733 36.3067C8.93681 36.2916 8.94542 36.2759 8.95311 36.2598L22.043 13.7832C22.8857 12.4349 24.0575 11.323 25.4482 10.5522C26.839 9.78138 28.4029 9.37695 29.993 9.37695C31.583 9.37695 33.1469 9.78138 34.5377 10.5522C35.9284 11.323 37.1002 12.4349 37.943 13.7832L51.0328 36.2598C51.0405 36.2759 51.0491 36.2916 51.0586 36.3067C51.9528 37.7213 52.4469 39.352 52.4882 41.0251C52.5294 42.6982 52.1164 44.3512 51.293 45.8082H51.2953Z" fill="#48484E"/>
</svg>
