<svg width="60" height="60" viewBox="0 0 60 60" fill="none" xmlns="http://www.w3.org/2000/svg">
<path opacity="0.2" d="M3.75 16.875H28.125V43.125H24.375C24.375 41.6332 23.7824 40.2024 22.7275 39.1475C21.6726 38.0926 20.2418 37.5 18.75 37.5C17.2582 37.5 15.8274 38.0926 14.7725 39.1475C13.7176 40.2024 13.125 41.6332 13.125 43.125C13.125 41.6332 12.5324 40.2024 11.4775 39.1475C10.4226 38.0926 8.99184 37.5 7.5 37.5C6.00816 37.5 4.57742 38.0926 3.52252 39.1475C2.46763 40.2024 1.875 41.6332 1.875 43.125V18.75C1.875 18.2527 2.07254 17.7758 2.42417 17.4242C2.77581 17.0725 3.25272 16.875 3.75 16.875ZM50.625 24.375V22.5C50.625 19.5163 49.4397 16.6548 47.33 14.545C45.2202 12.4353 42.3587 11.25 39.375 11.25H37.5C37.0027 11.25 36.5258 11.4475 36.1742 11.7992C35.8225 12.1508 35.625 12.6277 35.625 13.125V43.125H46.875C46.875 41.6332 47.4676 40.2024 48.5225 39.1475C49.5774 38.0926 51.0082 37.5 52.5 37.5C53.9918 37.5 55.4226 38.0926 56.4775 39.1475C57.5324 40.2024 58.125 41.6332 58.125 43.125V31.875C58.125 29.8859 57.3348 27.9782 55.9283 26.5717C54.5218 25.1652 52.6141 24.375 50.625 24.375Z" fill="#48484E"/>
<path d="M52.5 22.6875V22.5C52.4963 19.0202 51.1123 15.6839 48.6517 13.2233C46.1911 10.7627 42.8548 9.37872 39.375 9.375H37.5C36.5054 9.375 35.5516 9.77009 34.8484 10.4733C34.1451 11.1766 33.75 12.1304 33.75 13.125V41.25H30V16.875C30 16.3777 29.8025 15.9008 29.4508 15.5492C29.0992 15.1975 28.6223 15 28.125 15H3.75C2.75544 15 1.80161 15.3951 1.09835 16.0984C0.395088 16.8016 0 17.7554 0 18.75L0 43.125C0.00171244 44.6477 0.466864 46.1338 1.33361 47.3857C2.20036 48.6377 3.42764 49.5961 4.85229 50.1337C6.27694 50.6712 7.83147 50.7624 9.30919 50.3951C10.7869 50.0278 12.1178 49.2194 13.125 48.0773C14.0253 49.1001 15.1871 49.8582 16.4858 50.2704C17.7844 50.6826 19.1709 50.7332 20.4961 50.4168C21.8214 50.1004 23.0354 49.429 24.0079 48.4747C24.9803 47.5203 25.6744 46.3191 26.0156 45H45.2344C45.6878 46.7709 46.7724 48.3153 48.2843 49.3428C49.7962 50.3703 51.6313 50.8103 53.4448 50.58C55.2583 50.3497 56.9252 49.4651 58.1323 48.0923C59.3394 46.7194 60.0036 44.953 60 43.125V31.875C59.9974 29.7146 59.25 27.6212 57.8838 25.9476C56.5176 24.274 54.6161 23.1226 52.5 22.6875ZM37.5 13.125H39.375C41.8614 13.125 44.246 14.1127 46.0041 15.8709C47.7623 17.629 48.75 20.0136 48.75 22.5V24.375C48.75 24.8723 48.9475 25.3492 49.2992 25.7008C49.6508 26.0525 50.1277 26.25 50.625 26.25C52.1168 26.25 53.5476 26.8426 54.6025 27.8975C55.6574 28.9524 56.25 30.3832 56.25 31.875V36.6352C55.1116 35.972 53.8174 35.6234 52.5 35.625C50.8372 35.6266 49.222 36.1796 47.9072 37.1975C46.5924 38.2154 45.6524 39.6407 45.2344 41.25H37.5V13.125ZM26.25 18.75V41.25H26.0156C25.6744 39.9309 24.9803 38.7297 24.0079 37.7753C23.0354 36.821 21.8214 36.1496 20.4961 35.8332C19.1709 35.5168 17.7844 35.5674 16.4858 35.9796C15.1871 36.3918 14.0253 37.1499 13.125 38.1727C11.9826 36.8696 10.4231 36.0039 8.71309 35.7235C7.00307 35.443 5.24872 35.7653 3.75 36.6352V18.75H26.25ZM7.5 46.875C6.75832 46.875 6.0333 46.6551 5.41661 46.243C4.79993 45.831 4.31928 45.2453 4.03545 44.5601C3.75162 43.8748 3.67736 43.1208 3.82206 42.3934C3.96675 41.666 4.3239 40.9978 4.84835 40.4734C5.3728 39.9489 6.04098 39.5918 6.76841 39.4471C7.49584 39.3024 8.24984 39.3766 8.93506 39.6605C9.62029 39.9443 10.206 40.4249 10.618 41.0416C11.0301 41.6583 11.25 42.3833 11.25 43.125C11.25 44.1196 10.8549 45.0734 10.1517 45.7767C9.44839 46.4799 8.49456 46.875 7.5 46.875ZM18.75 46.875C18.0083 46.875 17.2833 46.6551 16.6666 46.243C16.0499 45.831 15.5693 45.2453 15.2855 44.5601C15.0016 43.8748 14.9274 43.1208 15.0721 42.3934C15.2167 41.666 15.5739 40.9978 16.0984 40.4734C16.6228 39.9489 17.291 39.5918 18.0184 39.4471C18.7458 39.3024 19.4998 39.3766 20.1851 39.6605C20.8703 39.9443 21.456 40.4249 21.868 41.0416C22.2801 41.6583 22.5 42.3833 22.5 43.125C22.5 44.1196 22.1049 45.0734 21.4016 45.7767C20.6984 46.4799 19.7446 46.875 18.75 46.875ZM52.5 46.875C51.7583 46.875 51.0333 46.6551 50.4166 46.243C49.7999 45.831 49.3193 45.2453 49.0354 44.5601C48.7516 43.8748 48.6774 43.1208 48.8221 42.3934C48.9668 41.666 49.3239 40.9978 49.8484 40.4734C50.3728 39.9489 51.041 39.5918 51.7684 39.4471C52.4958 39.3024 53.2498 39.3766 53.9351 39.6605C54.6203 39.9443 55.206 40.4249 55.618 41.0416C56.0301 41.6583 56.25 42.3833 56.25 43.125C56.25 44.1196 55.8549 45.0734 55.1516 45.7767C54.4484 46.4799 53.4946 46.875 52.5 46.875Z" fill="#48484E"/>
</svg>
