<svg width="60" height="60" viewBox="0 0 60 60" fill="none" xmlns="http://www.w3.org/2000/svg">
<path opacity="0.2" d="M46.875 16.875V43.125C46.875 43.6223 46.6775 44.0992 46.3258 44.4508C45.9742 44.8025 45.4973 45 45 45H7.5C7.00272 45 6.52581 44.8025 6.17417 44.4508C5.82254 44.0992 5.625 43.6223 5.625 43.125V16.875C5.625 16.3777 5.82254 15.9008 6.17417 15.5492C6.52581 15.1975 7.00272 15 7.5 15H45C45.4973 15 45.9742 15.1975 46.3258 15.5492C46.6775 15.9008 46.875 16.3777 46.875 16.875Z" fill="#48484E"/>
<path d="M59.0086 17.1094C58.7096 16.9491 58.3727 16.873 58.0338 16.8891C57.695 16.9052 57.3668 17.0129 57.0844 17.2008L48.75 22.7461V16.875C48.75 15.8804 48.3549 14.9266 47.6516 14.2233C46.9484 13.5201 45.9946 13.125 45 13.125H7.5C6.50544 13.125 5.55161 13.5201 4.84835 14.2233C4.14509 14.9266 3.75 15.8804 3.75 16.875V43.125C3.75 44.1196 4.14509 45.0734 4.84835 45.7766C5.55161 46.4799 6.50544 46.875 7.5 46.875H45C45.9946 46.875 46.9484 46.4799 47.6516 45.7766C48.3549 45.0734 48.75 44.1196 48.75 43.125V37.2656L57.0844 42.8227C57.3939 43.0237 57.7559 43.1288 58.125 43.125C58.6223 43.125 59.0992 42.9275 59.4508 42.5758C59.8025 42.2242 60 41.7473 60 41.25V18.75C59.9976 18.4126 59.9043 18.0822 59.7298 17.7934C59.5553 17.5047 59.3062 17.2684 59.0086 17.1094ZM45 43.125H7.5V16.875H45V43.125ZM56.25 37.7461L48.75 32.7469V27.2531L56.25 22.2656V37.7461Z" fill="#48484E"/>
</svg>
