<svg width="24" height="24" viewBox="0 0 24 24" fill="none" xmlns="http://www.w3.org/2000/svg">
<path fill-rule="evenodd" clip-rule="evenodd" d="M2.8821 12.419C2.37442 11.9114 2.37442 11.0882 2.8821 10.5806L11.0821 2.38057C11.5898 1.87288 12.4129 1.87288 12.9206 2.38057L21.1206 10.5806C21.6283 11.0882 21.6283 11.9114 21.1206 12.419C20.6129 12.9267 19.7898 12.9267 19.2821 12.419L12.0013 5.13828L4.72058 12.419C4.2129 12.9267 3.38979 12.9267 2.8821 12.419Z" fill="#171719"/>
<path fill-rule="evenodd" clip-rule="evenodd" d="M2.8821 20.419C2.37442 19.9114 2.37442 19.0882 2.8821 18.5806L11.0821 10.3806C11.5898 9.87288 12.4129 9.87288 12.9206 10.3806L21.1206 18.5806C21.6283 19.0882 21.6283 19.9114 21.1206 20.419C20.6129 20.9267 19.7898 20.9267 19.2821 20.419L12.0013 13.1383L4.72058 20.419C4.2129 20.9267 3.38979 20.9267 2.8821 20.419Z" fill="#171719"/>
</svg>
