<svg width="40" height="40" viewBox="0 0 40 40" fill="none" xmlns="http://www.w3.org/2000/svg">
<g clip-path="url(#clip0_2260_9485)">
<path d="M30.36 30.5708L30.37 30.5808L37.297 14.0108C38.691 11.1248 37.998 7.31982 35.338 4.66082C32.693 2.01582 28.915 1.31582 26.034 2.68182L9.41902 9.62982L9.42902 9.63982C8.07302 10.2488 6.81302 11.0868 5.71802 12.1808C0.307017 17.5918 0.868017 26.9258 6.97102 33.0288C13.074 39.1318 22.408 39.6928 27.818 34.2818C28.912 33.1878 29.75 31.9278 30.359 30.5708H30.36Z" fill="#68C76F"/>
<path d="M28.7609 29.0836L28.7689 29.0916L34.8799 14.7606C36.3849 11.8836 35.9699 8.56357 33.7019 6.29657C31.4469 4.04157 28.3239 3.71057 25.2779 5.10057L10.9069 11.2296L10.9149 11.2376C9.74194 11.7746 8.64894 12.5066 7.69694 13.4586C2.98994 18.1656 3.34794 26.2436 8.55094 31.4466C13.7539 36.6496 21.8319 37.0076 26.5389 32.3006C27.4909 31.3486 28.2239 30.2556 28.7599 29.0826L28.7609 29.0836Z" fill="#FFE3A0"/>
<path d="M17.4021 30.3271C21.6707 30.3271 25.1311 26.8667 25.1311 22.5981C25.1311 18.3295 21.6707 14.8691 17.4021 14.8691C13.1335 14.8691 9.6731 18.3295 9.6731 22.5981C9.6731 26.8667 13.1335 30.3271 17.4021 30.3271Z" fill="#734B3F"/>
</g>
<defs>
<clipPath id="clip0_2260_9485">
<rect width="40" height="40" fill="white"/>
</clipPath>
</defs>
</svg>
