<svg width="40" height="40" viewBox="0 0 40 40" fill="none" xmlns="http://www.w3.org/2000/svg">
<g clip-path="url(#clip0_2260_9462)">
<path d="M34.6629 15.6327C34.3849 7.91574 28.0549 1.67574 20.3349 1.50374C12.0789 1.31974 5.32788 7.95774 5.32788 16.1727C5.32788 18.6597 5.94888 21.0017 7.04088 23.0537L7.03488 23.0497C7.05088 23.0787 7.06588 23.1047 7.08188 23.1327C7.12288 23.2087 7.16688 23.2827 7.20988 23.3587C7.25388 23.4367 7.29888 23.5147 7.34288 23.5897C7.41388 23.7117 7.48688 23.8317 7.56188 23.9507C7.60488 24.0187 7.64688 24.0837 7.68988 24.1497C7.74488 24.2347 7.79888 24.3207 7.85488 24.4047C9.93288 27.4987 11.6999 27.7207 12.3259 30.0817H18.6759V23.0197L15.2869 19.6307C14.7389 19.0827 14.7389 18.1947 15.2869 17.6467C15.8349 17.0987 16.7229 17.0987 17.2709 17.6467L20.0219 20.3977L22.7289 17.6907C23.2769 17.1427 24.1649 17.1427 24.7129 17.6907C25.2609 18.2387 25.2609 19.1267 24.7129 19.6747L21.3239 23.0637V30.0807H27.6739C28.3019 27.7107 30.0789 27.4957 32.1659 24.3747C32.1679 24.3727 32.1689 24.3697 32.1709 24.3677C32.2709 24.2187 32.3709 24.0617 32.4719 23.8987C32.5239 23.8147 32.5749 23.7307 32.6249 23.6457C32.7389 23.4547 32.8529 23.2587 32.9669 23.0487L32.9579 23.0537C34.1289 20.8527 34.7589 18.3197 34.6619 15.6317L34.6629 15.6327Z" fill="#FFC33A"/>
<path d="M21.324 30.0823V23.0653L24.713 19.6763C25.261 19.1283 25.261 18.2403 24.713 17.6923C24.165 17.1443 23.277 17.1443 22.729 17.6923L20.022 20.3993L17.271 17.6483C16.723 17.1003 15.835 17.1003 15.287 17.6483C14.739 18.1963 14.739 19.0843 15.287 19.6323L18.676 23.0213V30.0833H21.325L21.324 30.0823Z" fill="#FF9000"/>
<path d="M12.3538 30.083C12.3608 30.241 12.3658 30.405 12.3678 30.577V33.456C12.3678 36.241 14.8258 38.499 17.6118 38.499H22.3878C25.1728 38.499 27.6618 36.241 27.6618 33.456V30.688C27.6618 30.474 27.6678 30.275 27.6768 30.082H12.3548L12.3538 30.083Z" fill="#7D8996"/>
<path d="M27.8481 30.3076H12.1841V33.3076H27.8481V30.3076Z" fill="#4B596A"/>
</g>
<defs>
<clipPath id="clip0_2260_9462">
<rect width="40" height="40" fill="white"/>
</clipPath>
</defs>
</svg>
