<svg width="40" height="40" viewBox="0 0 40 40" fill="none" xmlns="http://www.w3.org/2000/svg">
<path d="M13.663 6.48906C13.663 5.82606 13.126 5.28906 12.463 5.28906H7.83599C7.17299 5.28906 6.63599 5.82606 6.63599 6.48906V7.53106H13.663V6.48906Z" fill="#8595AA"/>
<path d="M19.9999 15.4316C16.4759 15.4316 13.6079 18.2996 13.6079 21.8246C13.6079 25.3496 16.4749 28.2156 19.9999 28.2156C23.5249 28.2156 26.3919 25.3486 26.3919 21.8246C26.3919 18.3006 23.5249 15.4316 19.9999 15.4316ZM19.9999 25.0236C18.2359 25.0236 16.8009 23.5876 16.8009 21.8236C16.8009 21.3986 16.8879 20.9956 17.0389 20.6246C16.7029 20.3916 16.4679 20.0216 16.4679 19.5826C16.4679 18.8706 17.0469 18.2906 17.7589 18.2906C18.1979 18.2906 18.5679 18.5246 18.8009 18.8616C19.1719 18.7106 19.5759 18.6236 19.9999 18.6236C21.7639 18.6236 23.1999 20.0596 23.1999 21.8236C23.1999 23.5876 21.7649 25.0236 19.9999 25.0236Z" fill="#333D4B"/>
<path d="M33.7001 7.53125H6.30005C4.09105 7.53125 2.30005 9.32225 2.30005 11.5312V31.6663C2.30005 33.8663 4.10005 35.6663 6.30005 35.6663H33.7001C35.909 35.6663 37.7001 33.8752 37.7001 31.6663V11.5312C37.7001 9.32225 35.909 7.53125 33.7001 7.53125ZM20 29.7153C15.648 29.7153 12.108 26.1752 12.108 21.8242C12.108 17.4732 15.648 13.9312 20 13.9312C24.3521 13.9312 27.892 17.4722 27.892 21.8242C27.892 26.1763 24.3521 29.7153 20 29.7153ZM30.0091 15.3403C28.9211 15.3403 28.039 14.4583 28.039 13.3702C28.039 12.2822 28.9211 11.4002 30.0091 11.4002C31.097 11.4002 31.979 12.2822 31.979 13.3702C31.979 14.4583 31.097 15.3403 30.0091 15.3403Z" fill="#4E5968"/>
<path d="M20 18.623C19.576 18.623 19.1721 18.71 18.8011 18.861C18.9461 19.07 19.05 19.309 19.05 19.582C19.05 20.294 18.4711 20.873 17.7591 20.873C17.4861 20.873 17.247 20.769 17.038 20.624C16.887 20.995 16.8 21.399 16.8 21.823C16.8 23.587 18.2351 25.023 19.9991 25.023C21.7631 25.023 23.199 23.587 23.199 21.823C23.199 20.059 21.765 18.623 20 18.623Z" fill="#4E5968"/>
<path d="M19.05 19.582C19.05 19.309 18.946 19.07 18.801 18.861C18.568 18.525 18.198 18.29 17.759 18.29C17.047 18.29 16.468 18.869 16.468 19.582C16.468 20.021 16.703 20.391 17.039 20.624C17.248 20.769 17.487 20.873 17.76 20.873C18.472 20.873 19.051 20.294 19.051 19.582H19.05Z" fill="white"/>
<path d="M19.9999 13.9316C15.6479 13.9316 12.1079 17.4726 12.1079 21.8246C12.1079 26.1766 15.6479 29.7156 19.9999 29.7156C24.3519 29.7156 27.8919 26.1756 27.8919 21.8246C27.8919 17.4736 24.3519 13.9316 19.9999 13.9316ZM19.9999 28.2146C16.4759 28.2146 13.6079 25.3476 13.6079 21.8236C13.6079 18.2996 16.4749 15.4306 19.9999 15.4306C23.5249 15.4306 26.3919 18.2986 26.3919 21.8236C26.3919 25.3486 23.5249 28.2146 19.9999 28.2146Z" fill="#D0D6DE"/>
<path d="M30.0091 11.3994C28.9211 11.3994 28.0391 12.2814 28.0391 13.3694C28.0391 14.4574 28.9211 15.3394 30.0091 15.3394C31.0971 15.3394 31.9791 14.4574 31.9791 13.3694C31.9791 12.2814 31.0971 11.3994 30.0091 11.3994Z" fill="#FFE63B"/>
</svg>
