<svg width="40" height="40" viewBox="0 0 40 40" fill="none" xmlns="http://www.w3.org/2000/svg">
<g clip-path="url(#clip0_2260_9385)">
<path d="M32.984 7.94043H7.01699C5.44298 7.94043 4.16699 9.21642 4.16699 10.7904V25.0904C4.16699 26.6644 5.44298 27.9404 7.01699 27.9404H32.984C34.558 27.9404 35.834 26.6644 35.834 25.0904V10.7904C35.834 9.21642 34.558 7.94043 32.984 7.94043Z" fill="#D0D5DA"/>
<path fill-rule="evenodd" clip-rule="evenodd" d="M20.167 7.94057H31.953V6.05957C31.953 4.95457 31.058 4.05957 29.953 4.05957H22.167C21.062 4.05957 20.167 4.95457 20.167 6.05957V7.94057Z" fill="#3182F6"/>
<path d="M32.984 10.9404H7.01699C5.44298 10.9404 4.16699 12.2164 4.16699 13.7904V28.0904C4.16699 29.6644 5.44298 30.9404 7.01699 30.9404H32.984C34.558 30.9404 35.834 29.6644 35.834 28.0904V13.7904C35.834 12.2164 34.558 10.9404 32.984 10.9404Z" fill="#E5E9EE"/>
<path fill-rule="evenodd" clip-rule="evenodd" d="M12.167 10.9406H23.953V9.05957C23.953 7.95457 23.058 7.05957 21.953 7.05957H14.167C13.062 7.05957 12.167 7.95457 12.167 9.05957V10.9406Z" fill="#00BC79"/>
<path fill-rule="evenodd" clip-rule="evenodd" d="M4.16699 13.9404V32.0904C4.16699 33.6644 5.44299 34.9404 7.01699 34.9404H32.984C34.558 34.9404 35.834 33.6644 35.834 32.0904V16.7904C35.834 15.2164 34.558 13.9404 32.984 13.9404H4.16699Z" fill="#FFC33A"/>
<path fill-rule="evenodd" clip-rule="evenodd" d="M4.16699 13.9406H15.953V12.0596C15.953 10.9546 15.058 10.0596 13.953 10.0596H6.16699C5.06199 10.0596 4.16699 10.9546 4.16699 12.0596V13.9406Z" fill="#EC4452"/>
</g>
<defs>
<clipPath id="clip0_2260_9385">
<rect width="40" height="40" fill="white"/>
</clipPath>
</defs>
</svg>
