<svg width="40" height="40" viewBox="0 0 40 40" fill="none" xmlns="http://www.w3.org/2000/svg">
<g clip-path="url(#clip0_2260_9517)">
<path d="M27.6379 7.57666C27.6379 8.12866 27.1899 8.57666 26.6379 8.57666H11.7359C11.1839 8.57666 10.7359 8.12866 10.7359 7.57666V6.55566H8.05493V33.5497H30.3179V6.55666H27.6369V7.57766L27.6379 7.57666Z" fill="white"/>
<path d="M11.7361 8.57689H26.6381C27.1901 8.57689 27.6381 8.12889 27.6381 7.57689V6.96289H10.7361V7.57689C10.7361 8.12889 11.1841 8.57689 11.7361 8.57689Z" fill="#A3ADB7"/>
<path d="M26.64 4.42012H22.03C22.04 4.32012 22.06 4.22012 22.06 4.11012C22.06 3.74012 21.99 3.38012 21.85 3.05012C21.44 2.07012 20.46 1.37012 19.32 1.37012C18.18 1.37012 17.21 2.07012 16.8 3.05012C16.66 3.38012 16.58 3.74012 16.58 4.11012C16.58 4.22012 16.6 4.32012 16.61 4.42012H11.74C11.18 4.42012 10.74 4.87012 10.74 5.42012V6.96012H27.64V5.42012C27.64 4.87012 27.19 4.42012 26.64 4.42012ZM19.32 3.15012C19.86 3.15012 20.29 3.58012 20.29 4.11012C20.29 4.64012 19.86 5.08012 19.32 5.08012C18.79 5.08012 18.36 4.64012 18.36 4.11012C18.36 3.58012 18.79 3.15012 19.32 3.15012Z" fill="#D0D5DA"/>
<path d="M31.104 3.05371H21.851C21.987 3.37871 22.063 3.73571 22.063 4.11071C22.063 4.21671 22.043 4.31771 22.032 4.42071H26.638C27.19 4.42071 27.638 4.86871 27.638 5.42071V6.55671H30.319V33.5507H8.05502V6.55671H10.736V5.42071C10.736 4.86871 11.184 4.42071 11.736 4.42071H16.615C16.603 4.31771 16.584 4.21671 16.584 4.11071C16.584 3.73571 16.66 3.37871 16.796 3.05371H7.26902C6.10802 3.05371 5.16602 3.99571 5.16602 5.15671V34.9507C5.16602 36.1127 6.10802 37.0537 7.26902 37.0537H31.104C32.265 37.0537 33.207 36.1117 33.207 34.9507V5.15671C33.207 3.99471 32.265 3.05371 31.104 3.05371Z" fill="#FFC33A"/>
<path d="M19.3229 3.14551C18.7899 3.14551 18.3579 3.57751 18.3579 4.11051C18.3579 4.64351 18.7899 5.07551 19.3229 5.07551C19.8559 5.07551 20.2879 4.64351 20.2879 4.11051C20.2879 3.57751 19.8559 3.14551 19.3229 3.14551Z" fill="#FFC33A"/>
</g>
<defs>
<clipPath id="clip0_2260_9517">
<rect width="40" height="40" fill="white"/>
</clipPath>
</defs>
</svg>
