<svg width="40" height="40" viewBox="0 0 40 40" fill="none" xmlns="http://www.w3.org/2000/svg">
<g clip-path="url(#clip0_2260_9586)">
<path d="M7.88501 6.32324V30.3562C17.575 30.6532 27.266 17.2782 36.956 19.5782C27.266 11.1112 17.575 17.1412 7.88501 6.32324Z" fill="#E32939"/>
<path d="M7.04395 36.8381C6.49095 36.8381 6.04395 36.3911 6.04395 35.8381V6.16211C6.04395 5.60911 6.49095 5.16211 7.04395 5.16211C7.59695 5.16211 8.04394 5.60911 8.04394 6.16211V35.8381C8.04394 36.3911 7.59695 36.8381 7.04395 36.8381Z" fill="#333D4B"/>
<path d="M7.04297 8.16211C8.14754 8.16211 9.04297 7.26668 9.04297 6.16211C9.04297 5.05754 8.14754 4.16211 7.04297 4.16211C5.9384 4.16211 5.04297 5.05754 5.04297 6.16211C5.04297 7.26668 5.9384 8.16211 7.04297 8.16211Z" fill="#333D4B"/>
</g>
<defs>
<clipPath id="clip0_2260_9586">
<rect width="40" height="40" fill="white"/>
</clipPath>
</defs>
</svg>
