<svg width="40" height="40" viewBox="0 0 40 40" fill="none" xmlns="http://www.w3.org/2000/svg">
<g clip-path="url(#clip0_2335_9343)">
<path d="M17.719 35H22.28C23.2007 35 23.947 34.2537 23.947 33.333V22.456C23.947 21.5353 23.2007 20.789 22.28 20.789H17.719C16.7984 20.789 16.052 21.5353 16.052 22.456V33.333C16.052 34.2537 16.7984 35 17.719 35Z" fill="#007FF3"/>
<path d="M6.66702 35H11.228C12.1487 35 12.895 34.2537 12.895 33.333L12.895 14.562C12.895 13.6413 12.1487 12.895 11.228 12.895H6.66702C5.74636 12.895 5.00002 13.6413 5.00002 14.562L5.00002 33.333C5.00002 34.2537 5.74636 35 6.66702 35Z" fill="#00BC79"/>
<path d="M28.772 35H33.333C34.2537 35 35 34.2537 35 33.333V6.667C35 5.74634 34.2537 5 33.333 5H28.772C27.8513 5 27.105 5.74634 27.105 6.667L27.105 33.333C27.105 34.2537 27.8513 35 28.772 35Z" fill="#FC2D4C"/>
</g>
<defs>
<clipPath id="clip0_2335_9343">
<rect width="40" height="40" fill="white"/>
</clipPath>
</defs>
</svg>
