<svg width="40" height="40" viewBox="0 0 40 40" fill="none" xmlns="http://www.w3.org/2000/svg">
<g clip-path="url(#clip0_2260_10158)">
<path d="M15.7396 35.2155L35.238 15.7171C38.2628 12.6923 38.2628 7.78817 35.238 4.76339L35.2174 4.7428C32.1926 1.71803 27.2885 1.71803 24.2637 4.7428L4.76535 24.2412C1.74057 27.266 1.74057 32.1701 4.76535 35.1949L4.78594 35.2155C7.81071 38.2402 12.7148 38.2402 15.7396 35.2155Z" fill="#333D4B"/>
<path d="M34.3593 3.23638L33.1034 4.49235C32.9896 4.60606 32.9896 4.79043 33.1034 4.90414L35.08 6.88074C35.1937 6.99446 35.378 6.99446 35.4918 6.88074L36.7477 5.62478C36.8614 5.51106 36.8614 5.3267 36.7477 5.21298L34.7711 3.23638C34.6574 3.12266 34.473 3.12266 34.3593 3.23638Z" fill="#333D4B"/>
<path d="M9.54058 32.917L7.06982 30.4463L6.59626 30.9199L9.06702 33.3906L9.54058 32.917Z" fill="#4E5968"/>
<path d="M31.9094 7.625L30.9194 8.61502L29.9002 7.625L29.4343 8.09089L30.4243 9.08091L29.4343 10.1L29.9002 10.5659L30.9194 9.5468L31.9094 10.5659L32.3753 10.1L31.3852 9.08091L32.3753 8.09089L31.9094 7.625Z" fill="#4E5968"/>
<path d="M26.9156 12.2604L11.2675 27.9085C11.0401 28.1359 11.0401 28.5047 11.2675 28.7321C11.4949 28.9595 11.8637 28.9595 12.0911 28.7321L27.7392 13.084C27.9666 12.8566 27.9666 12.4878 27.7392 12.2604C27.5118 12.033 27.143 12.033 26.9156 12.2604Z" fill="white"/>
</g>
<defs>
<clipPath id="clip0_2260_10158">
<rect width="40" height="40" fill="white"/>
</clipPath>
</defs>
</svg>
