<svg width="40" height="40" viewBox="0 0 40 40" fill="none" xmlns="http://www.w3.org/2000/svg">
<g clip-path="url(#clip0_2334_9793)">
<path d="M21.3489 17.4257L8.13189 20.9667C7.38789 21.1657 7.13889 22.0957 7.68389 22.6397L17.3589 32.3147C17.9029 32.8587 18.8329 32.6097 19.0319 31.8667L22.5729 18.6497C22.7719 17.9057 22.0919 17.2257 21.3479 17.4247L21.3489 17.4257Z" fill="#FFCD00"/>
<path d="M15.085 1.5C14.3 3.528 13.852 5.725 13.852 8.031C13.852 18.037 21.963 26.148 31.969 26.148C34.275 26.148 36.472 25.7 38.5 24.915C35.877 31.689 29.316 36.5 21.617 36.5C11.612 36.5 3.5 28.389 3.5 18.383C3.5 10.683 8.312 4.122 15.085 1.5Z" fill="#FFCD00"/>
<path d="M13.7683 20.3896C14.491 19.9723 14.671 18.9311 14.1704 18.064C13.6697 17.1968 12.678 16.8321 11.9553 17.2494C11.2326 17.6666 11.0526 18.7078 11.5532 19.575C12.0539 20.4421 13.0456 20.8068 13.7683 20.3896Z" fill="black"/>
</g>
<defs>
<clipPath id="clip0_2334_9793">
<rect width="40" height="40" fill="white"/>
</clipPath>
</defs>
</svg>
