<svg width="40" height="40" viewBox="0 0 40 40" fill="none" xmlns="http://www.w3.org/2000/svg">
<g clip-path="url(#clip0_2260_9331)">
<path d="M20 35.9482C29.665 35.9482 37.5 28.1132 37.5 18.4482C37.5 8.78326 29.665 0.948242 20 0.948242C10.335 0.948242 2.5 8.78326 2.5 18.4482C2.5 28.1132 10.335 35.9482 20 35.9482Z" fill="#EBEBEB"/>
<path d="M19.9999 31.4667C27.1896 31.4667 33.0179 25.6383 33.0179 18.4487C33.0179 11.259 27.1896 5.43066 19.9999 5.43066C12.8103 5.43066 6.98193 11.259 6.98193 18.4487C6.98193 25.6383 12.8103 31.4667 19.9999 31.4667Z" fill="#F3F3F3"/>
<path d="M27.854 11.4405L26.479 25.3485H24.192L22.953 17.7645C22.642 14.8045 24.332 11.9965 27.093 10.8855C27.474 10.7325 27.883 11.0305 27.854 11.4405Z" fill="#B7B7B7"/>
<path d="M24.192 25.3486L23.269 37.5946C23.25 38.3946 23.893 39.0526 24.693 39.0526H25.974C26.774 39.0526 27.417 38.3946 27.398 37.5946L26.478 25.3486H24.192Z" fill="#767676"/>
<path d="M14.932 25.3486L14.009 37.5946C13.99 38.3946 14.633 39.0526 15.433 39.0526H16.714C17.514 39.0526 18.157 38.3946 18.138 37.5946L17.218 25.3486H14.931H14.932Z" fill="#767676"/>
<path d="M17.1759 24.7427C17.1819 23.8807 17.8559 23.6397 17.8559 23.6397L17.8519 23.6357C17.8799 23.6217 17.9099 23.6147 17.9389 23.6007L19.6249 23.0027C20.5459 22.5317 21.1069 21.3607 20.9879 20.1547L19.7989 11.5237C19.7449 11.1347 19.4129 10.8457 19.0209 10.8457C18.5829 10.8457 18.2299 11.2037 18.2349 11.6417L18.3279 19.0827C18.3279 19.3597 18.1929 19.6077 17.9829 19.7147C17.8429 19.7867 17.6839 19.7867 17.5439 19.7147C17.3349 19.6077 17.1989 19.3597 17.1989 19.0827L17.0719 11.6177C17.0649 11.1887 16.7149 10.8457 16.2859 10.8457H15.8609C15.4319 10.8457 15.0829 11.1897 15.0749 11.6177L14.9479 19.0827C14.9479 19.3597 14.8129 19.6077 14.6019 19.7147C14.4629 19.7867 14.3029 19.7867 14.1629 19.7147C13.9539 19.6077 13.8179 19.3597 13.8179 19.0827L13.9119 11.6417C13.9179 11.2037 13.5639 10.8457 13.1259 10.8457C12.7329 10.8457 12.4009 11.1357 12.3479 11.5237L11.1589 20.1547C11.0399 21.3597 11.6009 22.5307 12.5219 23.0027L14.2079 23.6007C14.2349 23.6147 14.2639 23.6217 14.2919 23.6347L14.2869 23.6397C14.2869 23.6397 14.9919 23.8867 14.9709 24.7907L14.9319 25.3487H17.2189L17.1759 24.7427Z" fill="#B7B7B7"/>
</g>
<defs>
<clipPath id="clip0_2260_9331">
<rect width="40" height="40" fill="white"/>
</clipPath>
</defs>
</svg>
