<svg width="40" height="40" viewBox="0 0 40 40" fill="none" xmlns="http://www.w3.org/2000/svg">
<g clip-path="url(#clip0_2260_9603)">
<path d="M21.7919 19.0437C21.6619 18.8947 21.5409 18.7457 21.4179 18.5957C21.4149 18.6877 21.4069 18.7847 21.4009 18.8797C21.5339 18.9247 21.6619 18.9847 21.7919 19.0437Z" fill="#FF9C00"/>
<path d="M34.214 24.2009C34.579 26.0909 34.03 28.1219 32.567 29.5849C31.601 30.5509 30.384 31.0959 29.127 31.2649C30.991 31.2829 32.625 30.7859 33.829 29.7079C33.903 29.6409 33.987 29.5869 34.058 29.5159C35.49 28.0839 36.012 25.9649 35.751 23.5439C35.618 23.6289 35.481 23.7139 35.321 23.7939C34.968 23.9709 34.595 24.0999 34.214 24.2009Z" fill="#FF9C00"/>
<path d="M9.68091 10.4132C9.72391 10.3922 9.75791 10.3612 9.80191 10.3412C10.1189 10.1932 10.4449 10.0902 10.7729 10.0162C11.5179 8.42417 13.2649 5.27617 15.2199 5.84517C15.4329 5.90717 15.6219 6.01218 15.7999 6.13318C16.2979 5.64818 16.8889 5.31917 17.5159 5.14017C15.0149 4.82917 12.8209 5.33918 11.3519 6.80818C11.2809 6.87918 11.2259 6.96318 11.1599 7.03718C10.3459 7.94518 9.86391 9.10017 9.68191 10.4122L9.68091 10.4132Z" fill="#FF9C00"/>
<path d="M38.2639 15.436C37.0079 13.395 32.9269 13.474 32.9269 13.474C32.9269 13.474 34.0649 11.787 31.7109 10.06C30.6969 9.316 29.5089 9.331 28.4849 9.586C29.2759 9.724 30.0349 10.073 30.6459 10.684C32.2369 12.275 32.2369 14.854 30.6459 16.445C30.5899 16.501 30.5249 16.539 30.4669 16.591C31.6659 18.228 32.4089 19.843 32.6289 21.178C33.4669 22.044 34.0009 23.095 34.2139 24.2C34.5949 24.099 34.9679 23.969 35.3209 23.792C35.4809 23.712 35.6179 23.627 35.7509 23.542C38.2329 21.948 36.2639 19.477 36.2639 19.477C36.2639 19.477 39.5199 17.475 38.2639 15.434V15.436Z" fill="#036D50"/>
<path d="M16.0909 12.6303C16.5649 13.6463 16.6439 14.7433 16.3969 15.7543C17.0839 16.1173 17.6679 16.6853 18.0209 17.4433C18.2439 17.9223 18.3489 18.4243 18.3589 18.9213C19.3389 18.5623 20.4149 18.5453 21.4009 18.8803C21.4069 18.7853 21.4149 18.6883 21.4179 18.5963C21.4519 17.5753 21.3219 16.7053 21.0869 15.9663C20.5199 16.0683 19.9389 16.0423 19.3849 15.8283C17.5499 15.1193 16.7319 12.8113 17.5589 10.6723C17.5729 10.6363 17.591 10.6003 17.606 10.5643C17.46 9.07228 17.0309 6.97028 15.7999 6.13228C15.6219 6.01128 15.4329 5.90628 15.2199 5.84428C13.2649 5.27528 11.5179 8.42328 10.7729 10.0153C12.8949 9.54028 15.1339 10.5783 16.0909 12.6293V12.6303Z" fill="#036D50"/>
<path d="M19.3848 15.8291C19.9388 16.0431 20.5198 16.0691 21.0868 15.9671C22.3988 15.7311 23.6268 14.7341 24.2038 13.2411C25.0298 11.1031 24.5508 7.91812 22.7158 7.20912C20.9118 6.51212 18.4738 8.46712 17.6058 10.5651C17.5908 10.6011 17.5728 10.6371 17.5588 10.6731C16.7328 12.8111 17.5508 15.1201 19.3848 15.8291ZM18.7698 11.1411C19.2088 10.0061 20.4848 9.44112 21.6198 9.88012C22.7548 10.3181 23.3198 11.5951 22.8808 12.7301C22.4418 13.8651 21.1658 14.4301 20.0308 13.9911C18.8958 13.5521 18.3308 12.2761 18.7688 11.1411H18.7698Z" fill="#FFFEFA"/>
<path d="M24.0859 21.1042C24.0579 21.1322 24.0409 21.1652 24.0139 21.1932C24.2229 21.6302 24.3579 22.0932 24.4229 22.5652C24.7429 22.6002 25.0609 22.6612 25.3729 22.7492C25.4289 22.6852 25.4729 22.6132 25.5339 22.5522C27.0769 21.0102 29.5779 21.0102 31.1199 22.5522C32.6619 24.0942 32.6619 26.5952 31.1199 28.1382C30.6679 28.5902 30.1299 28.8932 29.5609 29.0802C29.4689 29.8372 29.2299 30.5712 28.8419 31.2522C28.9369 31.2552 29.0339 31.2642 29.1279 31.2652C30.3849 31.0962 31.6019 30.5522 32.5679 29.5852C34.0309 28.1222 34.5799 26.0912 34.2149 24.2012C34.0019 23.0972 33.4679 22.0452 32.6299 21.1792C32.6069 21.1552 32.5919 21.1272 32.5689 21.1042C30.2269 18.7622 26.4299 18.7622 24.0879 21.1042H24.0859Z" fill="#D12030"/>
<path d="M29.561 29.08C30.129 28.893 30.668 28.59 31.12 28.138C32.662 26.596 32.662 24.095 31.12 22.552C29.577 21.01 27.076 21.01 25.534 22.552C25.473 22.613 25.43 22.685 25.373 22.749C26.305 23.01 27.185 23.506 27.918 24.239C29.24 25.561 29.772 27.358 29.561 29.08Z" fill="#F56570"/>
<path d="M32.57 21.1001C32.59 21.1301 32.61 21.1601 32.63 21.1801C32.41 19.8401 31.67 18.2301 30.47 16.5901C30.52 16.5401 30.59 16.5001 30.65 16.4501C32.24 14.8501 32.24 12.2701 30.65 10.6801C30.04 10.0701 29.28 9.72012 28.49 9.59012C28.35 9.56012 28.22 9.53012 28.09 9.52012C28.75 8.03012 28.47 6.23012 27.25 5.00012C25.66 3.41012 23.08 3.41012 21.49 5.00012C21.28 5.22012 21.1 5.45012 20.94 5.69012C19.92 4.99012 18.66 4.81012 17.52 5.14012C16.89 5.32012 16.3 5.65012 15.8 6.13012C17.03 6.97012 17.46 9.07012 17.61 10.5701C18.47 8.47012 20.91 6.51012 22.72 7.21012C24.55 7.92012 25.03 11.1001 24.2 13.2401C23.63 14.7301 22.4 15.7301 21.09 15.9701C21.32 16.7101 21.45 17.5801 21.42 18.6001C21.54 18.7501 21.66 18.9001 21.79 19.0401C21.66 18.9901 21.53 18.9301 21.4 18.8801C20.42 18.5401 19.34 18.5601 18.36 18.9201C18.35 18.4201 18.24 17.9201 18.02 17.4401C17.67 16.6801 17.08 16.1201 16.4 15.7501C16.64 14.7401 16.57 13.6501 16.09 12.6301C15.13 10.5801 12.9 9.54012 10.77 10.0201C10.45 10.0901 10.12 10.1901 9.79999 10.3401C9.75999 10.3601 9.71999 10.3901 9.67999 10.4101C9.11999 14.4801 11.48 20.0901 16.13 24.7401C16.3 24.9101 16.48 25.0701 16.66 25.2401C20.61 28.9801 25.15 31.1101 28.84 31.2501C29.23 30.5701 29.47 29.8401 29.56 29.0801C29.77 27.3601 29.24 25.5601 27.92 24.2401C27.18 23.5101 26.3 23.0101 25.37 22.7501C25.06 22.6601 24.74 22.6001 24.42 22.5601C24.36 22.0901 24.22 21.6301 24.01 21.1901C24.04 21.1601 24.06 21.1301 24.09 21.1001C26.43 18.7601 30.23 18.7601 32.57 21.1001ZM27.68 15.9901L27.92 15.5201C28.1 15.1701 28.52 15.0401 28.87 15.2101L29.34 15.4601C29.69 15.6301 29.82 16.0601 29.64 16.4101L29.4 16.8701C29.23 17.2201 28.8 17.3601 28.45 17.1801L27.98 16.9401C27.64 16.7601 27.5 16.3401 27.68 15.9901ZM22.83 19.8501C22.46 19.9801 22.06 19.7801 21.93 19.4101L21.81 19.0501L21.76 18.9101C21.63 18.5401 21.83 18.1401 22.19 18.0201L22.69 17.8401C23.06 17.7201 23.46 17.9101 23.59 18.2801L23.76 18.7801C23.89 19.1501 23.7 19.5501 23.33 19.6801L22.96 19.8001L22.83 19.8501Z" fill="#23B169"/>
<path d="M20.0309 13.9913C21.1659 14.4303 22.4419 13.8653 22.8809 12.7303C23.3199 11.5953 22.7549 10.3183 21.6199 9.8803C20.4849 9.4413 19.2089 10.0063 18.7699 11.1413C18.3309 12.2763 18.8949 13.5523 20.0309 13.9913Z" fill="#FFD900"/>
<path d="M27.9187 15.5227L27.6785 15.9917C27.5008 16.3388 27.638 16.7642 27.9851 16.9419L28.4541 17.1822C28.8012 17.3599 29.2266 17.2227 29.4043 16.8756L29.6446 16.4065C29.8223 16.0595 29.6851 15.6341 29.338 15.4563L28.8689 15.2161C28.5219 15.0384 28.0965 15.1756 27.9187 15.5227Z" fill="#FFD900"/>
<path d="M21.931 19.4119C22.059 19.7799 22.46 19.9759 22.829 19.8479L22.958 19.8029L23.327 19.6749C23.695 19.5469 23.891 19.1449 23.763 18.7769L23.59 18.2779C23.462 17.9099 23.061 17.7139 22.692 17.8419L22.193 18.0149C21.825 18.1419 21.629 18.5439 21.757 18.9129L21.804 19.0499L21.929 19.4119H21.931Z" fill="#FFD900"/>
<path d="M29.1279 31.2647C29.0339 31.2647 28.9369 31.2557 28.8419 31.2517C25.1469 31.1137 20.6059 28.9837 16.6609 25.2397C16.4839 25.0717 16.3029 24.9117 16.1289 24.7377C11.4799 20.0887 9.11594 14.4827 9.68094 10.4117C9.86294 9.0997 10.3449 7.9447 11.1589 7.0367C11.1769 6.9957 11.1879 6.9707 11.1879 6.9707L8.27794 9.8807C2.00794 16.1517 2.00794 26.3177 8.27794 32.5877C14.5479 38.8577 24.7149 38.8577 30.9849 32.5877L33.8949 29.6777C33.8949 29.6777 33.8699 29.6897 33.8289 29.7067C32.6249 30.7847 30.9909 31.2817 29.1269 31.2637L29.1279 31.2647Z" fill="#FFC450"/>
</g>
<defs>
<clipPath id="clip0_2260_9603">
<rect width="40" height="40" fill="white"/>
</clipPath>
</defs>
</svg>
