<svg width="40" height="40" viewBox="0 0 40 40" fill="none" xmlns="http://www.w3.org/2000/svg">
<g clip-path="url(#clip0_2260_9536)">
<path d="M28.5 3.5H11.5C7.08172 3.5 3.5 7.08172 3.5 11.5V28.5C3.5 32.9183 7.08172 36.5 11.5 36.5H28.5C32.9183 36.5 36.5 32.9183 36.5 28.5V11.5C36.5 7.08172 32.9183 3.5 28.5 3.5Z" fill="#B7B7B7"/>
<path d="M20.002 28.1201C24.6964 28.1201 28.502 24.3145 28.502 19.6201C28.502 14.9257 24.6964 11.1201 20.002 11.1201C15.3075 11.1201 11.502 14.9257 11.502 19.6201C11.502 24.3145 15.3075 28.1201 20.002 28.1201Z" fill="#DEDEDE"/>
<path d="M20.002 26.6201C23.8679 26.6201 27.002 23.4861 27.002 19.6201C27.002 15.7541 23.8679 12.6201 20.002 12.6201C16.136 12.6201 13.002 15.7541 13.002 19.6201C13.002 23.4861 16.136 26.6201 20.002 26.6201Z" fill="#3D3D3D"/>
<path d="M20.8201 14.942C20.8201 14.4903 20.4539 14.124 20.0021 14.124C19.5503 14.124 19.1841 14.4903 19.1841 14.942V17.346C19.1841 17.7978 19.5503 18.164 20.0021 18.164C20.4539 18.164 20.8201 17.7978 20.8201 17.346V14.942Z" fill="#EDEDED"/>
<path d="M20.0039 9.41687C19.5899 9.41687 19.2539 9.08087 19.2539 8.66687V7.33887C19.2539 6.92487 19.5899 6.58887 20.0039 6.58887C20.4179 6.58887 20.7539 6.92487 20.7539 7.33887V8.66687C20.7539 9.08087 20.4179 9.41687 20.0039 9.41687Z" fill="#DEDEDE"/>
<path d="M14.4529 10.8755C14.1939 10.8755 13.9419 10.7405 13.8029 10.5005L13.1389 9.35154C12.9319 8.99354 13.0549 8.53454 13.4129 8.32754C13.7719 8.11954 14.2299 8.24354 14.4369 8.60154L15.1009 9.75054C15.3079 10.1085 15.1849 10.5675 14.8269 10.7745C14.7089 10.8425 14.5799 10.8755 14.4519 10.8755H14.4529Z" fill="#DEDEDE"/>
<path d="M10.3748 14.9159C10.2478 14.9159 10.1188 14.8839 9.99985 14.8149L8.84985 14.1509C8.49085 13.9439 8.36885 13.4849 8.57585 13.1269C8.78285 12.7689 9.24185 12.6449 9.59985 12.8529L10.7498 13.5169C11.1088 13.7239 11.2308 14.1829 11.0238 14.5409C10.8848 14.7809 10.6328 14.9159 10.3738 14.9159H10.3748Z" fill="#DEDEDE"/>
<path d="M8.86291 20.4531H7.53491C7.12091 20.4531 6.78491 20.1171 6.78491 19.7031C6.78491 19.2891 7.12091 18.9531 7.53491 18.9531H8.86291C9.27691 18.9531 9.61291 19.2891 9.61291 19.7031C9.61291 20.1171 9.27691 20.4531 8.86291 20.4531Z" fill="#DEDEDE"/>
<path d="M25.5549 10.8755C25.4279 10.8755 25.2989 10.8435 25.1799 10.7745C24.8209 10.5675 24.6989 10.1085 24.9059 9.75054L25.5699 8.60154C25.7779 8.24354 26.2369 8.11954 26.5939 8.32754C26.9529 8.53454 27.0749 8.99354 26.8679 9.35154L26.2039 10.5005C26.0649 10.7405 25.8139 10.8755 25.5549 10.8755Z" fill="#DEDEDE"/>
<path d="M29.6329 14.9159C29.3739 14.9159 29.1219 14.7809 28.9829 14.5409C28.7759 14.1829 28.8989 13.7239 29.2569 13.5169L30.4069 12.8529C30.7649 12.6449 31.2239 12.7689 31.4309 13.1269C31.6379 13.4849 31.5149 13.9439 31.1569 14.1509L30.0069 14.8149C29.8889 14.8829 29.7609 14.9159 29.6329 14.9159Z" fill="#DEDEDE"/>
<path d="M32.472 20.4521H31.144C30.73 20.4521 30.394 20.1161 30.394 19.7021C30.394 19.2881 30.73 18.9521 31.144 18.9521H32.472C32.886 18.9521 33.222 19.2881 33.222 19.7021C33.222 20.1161 32.886 20.4521 32.472 20.4521Z" fill="#DEDEDE"/>
</g>
<defs>
<clipPath id="clip0_2260_9536">
<rect width="40" height="40" fill="white"/>
</clipPath>
</defs>
</svg>
