<svg width="40" height="40" viewBox="0 0 40 40" fill="none" xmlns="http://www.w3.org/2000/svg">
<g clip-path="url(#clip0_2260_9498)">
<path d="M35 37.0003C34.488 37.0003 33.977 36.8053 33.586 36.4143L24.605 27.4333C23.824 26.6523 23.824 25.3863 24.605 24.6053C25.386 23.8243 26.652 23.8243 27.433 24.6053L36.414 33.5863C37.195 34.3673 37.195 35.6333 36.414 36.4143C36.023 36.8053 35.512 37.0003 35 37.0003Z" fill="#4E5968"/>
<path d="M29.6301 17.315C29.6301 10.525 24.1061 5 17.3151 5C13.9201 5 10.8411 6.381 8.61108 8.611L26.0181 26.019C28.2481 23.789 29.6301 20.71 29.6301 17.315Z" fill="#E5E9EE"/>
<path d="M26.019 26.0193L8.611 8.61133C6.381 10.8413 5 13.9203 5 17.3153C5 24.1053 10.525 29.6303 17.315 29.6303C20.71 29.6303 23.789 28.2493 26.019 26.0193Z" fill="#F0F3F6"/>
<path d="M17.314 31.129C9.697 31.129 3.5 24.932 3.5 17.315C3.5 9.698 9.697 3.5 17.314 3.5C24.931 3.5 31.129 9.697 31.129 17.315C31.129 24.933 24.932 31.129 17.314 31.129ZM17.314 6.5C11.351 6.5 6.5 11.352 6.5 17.315C6.5 23.278 11.352 28.129 17.314 28.129C23.276 28.129 28.129 23.277 28.129 17.315C28.129 11.353 23.277 6.5 17.314 6.5Z" fill="#A3ADB7"/>
</g>
<defs>
<clipPath id="clip0_2260_9498">
<rect width="40" height="40" fill="white"/>
</clipPath>
</defs>
</svg>
