<svg width="40" height="40" viewBox="0 0 40 40" fill="none" xmlns="http://www.w3.org/2000/svg">
<g clip-path="url(#clip0_2260_9356)">
<path d="M20 37.5C29.665 37.5 37.5 29.665 37.5 20C37.5 10.335 29.665 2.5 20 2.5C10.335 2.5 2.5 10.335 2.5 20C2.5 29.665 10.335 37.5 20 37.5Z" fill="#FFC84D"/>
<path d="M25.06 23.2601C28.8718 23.2601 31.962 20.1699 31.962 16.3581C31.962 12.5462 28.8718 9.45605 25.06 9.45605C21.2481 9.45605 18.158 12.5462 18.158 16.3581C18.158 20.1699 21.2481 23.2601 25.06 23.2601Z" fill="white"/>
<path d="M27.9899 11.38C27.1309 10.873 26.1299 10.583 25.0599 10.583C21.8699 10.583 19.2849 13.169 19.2849 16.358C19.2849 18.216 20.1629 19.869 21.5259 20.926C22.5029 21.683 23.7289 22.134 25.0609 22.134C28.2509 22.134 30.8359 19.548 30.8359 16.359C30.8359 14.239 29.6929 12.384 27.9899 11.38ZM22.9359 19.049C22.2099 19.049 21.5539 18.751 21.0809 18.272L23.3569 13.875C24.5959 14.077 25.5439 15.145 25.5439 16.441C25.5439 17.881 24.3759 19.049 22.9359 19.049Z" fill="#E0E0E0"/>
<path d="M14.2481 13.2676C13.2121 13.2676 12.3721 14.1076 12.3721 15.1436C12.3721 16.1796 13.2121 17.0196 14.2481 17.0196C15.2841 17.0196 16.1241 16.1796 16.1241 15.1436C16.1241 14.1076 15.2841 13.2676 14.2481 13.2676Z" fill="black"/>
<path d="M21.0809 18.272L23.3569 13.875C23.2189 13.853 23.0799 13.833 22.9359 13.833C21.4959 13.833 20.3279 15.001 20.3279 16.441C20.3279 17.155 20.6159 17.801 21.0809 18.272Z" fill="#6B6B6B"/>
<path d="M23.3568 13.874L21.0808 18.271C21.5538 18.75 22.2098 19.048 22.9358 19.048C24.3768 19.048 25.5438 17.88 25.5438 16.44C25.5438 15.144 24.5958 14.076 23.3568 13.874Z" fill="black"/>
<path d="M22.9359 13.832C23.0799 13.832 23.2189 13.852 23.3569 13.874L25.0599 10.583C21.8699 10.583 19.2849 13.169 19.2849 16.358C19.2849 17.601 19.6769 18.752 20.3449 19.694L21.0809 18.272C20.6159 17.801 20.3279 17.155 20.3279 16.441C20.3279 15.001 21.4959 13.833 22.9359 13.833V13.832Z" fill="#EDEDED"/>
<path d="M17.143 25.6528C18.554 25.7758 19.603 26.1368 20.266 26.4408C20.551 26.5708 20.832 26.2548 20.671 25.9858C20.152 25.1198 19.121 23.9368 17.307 23.7778C15.493 23.6188 14.272 24.6048 13.61 25.3678C13.405 25.6048 13.627 25.9658 13.93 25.8868C14.636 25.7028 15.731 25.5288 17.143 25.6528Z" fill="#FF6D00"/>
<path d="M13.744 10.759C14.904 10.86 15.551 11.185 16.099 11.486C16.415 11.659 16.69 11.426 16.555 11.065C16.265 10.285 15.395 9.39797 13.875 9.26497C12.355 9.13197 11.344 9.85397 10.923 10.572C10.728 10.904 10.958 11.181 11.299 11.065C11.891 10.865 12.584 10.658 13.744 10.759Z" fill="black"/>
<path d="M23.698 7.75897C22.538 7.85997 21.891 8.18497 21.343 8.48597C21.027 8.65897 20.752 8.42597 20.887 8.06497C21.177 7.28497 22.047 6.39797 23.567 6.26497C25.087 6.13197 26.098 6.85397 26.519 7.57197C26.714 7.90397 26.484 8.18097 26.143 8.06497C25.551 7.86497 24.858 7.65797 23.698 7.75897Z" fill="black"/>
</g>
<defs>
<clipPath id="clip0_2260_9356">
<rect width="40" height="40" fill="white"/>
</clipPath>
</defs>
</svg>
