<svg width="40" height="40" viewBox="0 0 40 40" fill="none" xmlns="http://www.w3.org/2000/svg">
<g clip-path="url(#clip0_2260_9642)">
<path d="M29.5298 9.36133H9.58081C7.95481 9.36133 6.56181 10.3353 5.93681 11.7283C5.71281 12.2283 5.58081 12.7783 5.58081 13.3613V31.1983C5.58081 33.4073 7.37181 35.1983 9.58081 35.1983H29.5288C31.7378 35.1983 33.5288 33.4073 33.5288 31.1983V13.3613C33.5288 13.2363 33.5028 13.1193 33.4918 12.9973C33.3048 10.9613 31.6128 9.36133 29.5288 9.36133H29.5298ZM25.5778 26.3643L23.0368 28.9053C22.1228 29.8193 20.6418 29.8193 19.7278 28.9053L10.7098 19.8873C9.79581 18.9733 9.79581 17.4923 10.7098 16.5783L13.2508 14.0373C14.1648 13.1233 15.6458 13.1233 16.5598 14.0373L25.5778 23.0553C26.4918 23.9693 26.4918 25.4503 25.5778 26.3643ZM29.2598 14.3363C28.5198 14.3363 27.9208 13.7363 27.9208 12.9973C27.9208 12.2583 28.5208 11.6583 29.2598 11.6583C29.9988 11.6583 30.5988 12.2583 30.5988 12.9973C30.5988 13.7363 29.9988 14.3363 29.2598 14.3363Z" fill="#4E5968"/>
<path d="M5.9369 11.7291L2.9309 10.7301C2.3259 10.5291 1.7019 10.9791 1.7019 11.6161V20.4111C1.7019 21.0481 2.3259 21.4991 2.9309 21.2971L5.5819 20.4161V13.3611C5.5819 12.7781 5.7129 12.2271 5.9379 11.7281L5.9369 11.7291Z" fill="#2E3D51"/>
<path d="M38.4199 6.0198V12.7098C38.4199 13.3898 37.88 13.9298 37.2 13.9298H36.7799C36.2099 13.9298 35.7499 13.5298 35.6199 12.9998H33.49C33.31 10.9598 31.61 9.3598 29.53 9.3598H23.45L24.87 6.9298C25.31 6.1798 26.0999 5.7298 26.9699 5.7298H35.6199C35.7599 5.1998 36.2099 4.7998 36.7799 4.7998H37.2C37.88 4.7998 38.4199 5.3498 38.4199 6.0198Z" fill="#2E3D51"/>
<path d="M13.2511 14.0381L10.7105 16.5787C9.7967 17.4926 9.79672 18.9742 10.7106 19.888L19.7277 28.9049C20.6416 29.8187 22.1232 29.8187 23.037 28.9048L25.5776 26.3641C26.4914 25.4503 26.4914 23.9687 25.5775 23.0549L16.5604 14.038C15.6465 13.1242 14.1649 13.1242 13.2511 14.0381Z" fill="#2E3D51"/>
<path d="M29.2589 11.6582C28.5189 11.6582 27.9199 12.2582 27.9199 12.9972C27.9199 13.7362 28.5199 14.3362 29.2589 14.3362C29.9979 14.3362 30.5979 13.7362 30.5979 12.9972C30.5979 12.2582 29.9979 11.6582 29.2589 11.6582Z" fill="#FFCD00"/>
</g>
<defs>
<clipPath id="clip0_2260_9642">
<rect width="40" height="40" fill="white"/>
</clipPath>
</defs>
</svg>
