<svg width="40" height="40" viewBox="0 0 40 40" fill="none" xmlns="http://www.w3.org/2000/svg">
<path d="M23.9704 2.96043C23.9704 2.95043 23.9605 2.95043 23.9505 2.94043L21.3204 5.22043C20.9104 4.55043 20.1204 4.32043 19.4804 4.73043C18.8004 5.17043 18.5605 6.16043 18.9405 6.94043C19.1005 7.27043 19.3404 7.51043 19.6304 7.64043L18.5805 9.49043L18.5704 9.51043L18.5405 9.48043L18.2104 10.0704C18.6204 9.97043 19.0305 9.96043 19.4205 10.0904C19.9405 10.2804 20.3704 10.5304 20.7204 10.8204L21.1604 10.0404C21.9904 9.95043 22.8105 9.62043 23.4904 9.04043C25.3004 7.49043 25.5204 4.77043 23.9704 2.96043ZM23.8004 6.43043C23.5904 6.43043 23.4205 6.13043 23.4205 5.76043C23.4205 5.39043 23.5904 5.08043 23.8004 5.08043C24.0104 5.08043 24.1905 5.39043 24.1905 5.76043C24.1905 6.13043 24.0204 6.43043 23.8004 6.43043Z" fill="#FFCCA8"/>
<path d="M13.4002 21.1806C13.5002 21.5306 13.5302 21.9006 13.4702 22.2906C13.2402 23.7006 11.9102 24.6606 10.5002 24.4306C9.09021 24.2006 8.13021 22.8706 8.36021 21.4606C8.44021 20.9706 8.66021 20.5406 8.96021 20.1906L8.95021 20.1806L12.8202 15.1006L15.7702 18.0706L13.4002 21.1806Z" fill="#FFCCA8"/>
<path d="M31.01 17.3609C30.88 18.1809 30.32 18.8309 29.6 19.1309L27.18 20.8309C25.81 21.8009 23.93 21.5809 22.82 20.3209L22.25 19.7009V14.1709L24.87 17.0209C25.14 17.3309 25.61 17.3909 25.95 17.1509L26.41 16.8209C26.41 16.7609 26.41 16.6909 26.42 16.6209C26.62 15.3509 27.82 14.4909 29.08 14.6909C30.35 14.9009 31.21 16.0909 31.01 17.3609Z" fill="#FFCCA8"/>
<path d="M28.7711 32.2241L22.2371 21.8751H15.7141V21.8301L9.9541 30.9921L14.2541 33.8791V33.8821L18.4461 27.2161C18.6861 26.8341 19.2421 26.8341 19.4821 27.2161L24.4671 35.1121L24.2771 34.8021L28.7701 32.2251L28.7711 32.2241Z" fill="#3E5AF4"/>
<path d="M22.237 21.8748H22.252V14.0038C22.252 14.0038 22.233 12.0658 20.721 10.8168C20.372 10.5288 19.944 10.2768 19.417 10.0948C19.028 9.95983 18.62 9.96883 18.206 10.0658C15.631 10.6708 12.812 15.0848 12.812 15.0848L12.823 15.0958L15.77 18.0658L15.715 21.8298V21.8748H22.237Z" fill="#93C9FF"/>
<path d="M33.4238 33.9476L33.1438 33.4906C32.7278 32.8116 31.9948 32.3926 31.1988 32.3786L28.7708 32.2256L24.2778 34.8026L24.4678 35.1126L26.3968 38.2586C26.5198 38.4586 26.7808 38.5216 26.9818 38.3986L33.2848 34.5336C33.4848 34.4106 33.5478 34.1486 33.4248 33.9486L33.4238 33.9476Z" fill="#4E5968"/>
<path d="M9.9538 30.9922L7.7938 34.4222C7.6688 34.6212 7.7288 34.8832 7.9268 35.0082L14.1838 38.9472C14.3828 39.0722 14.6448 39.0122 14.7698 38.8142L15.0558 38.3602C15.4798 37.6862 15.5308 36.8432 15.1918 36.1232L14.2558 33.8822V33.8792L9.9538 30.9922Z" fill="#4E5968"/>
<path d="M23.95 2.9302V2.9402L21.32 5.2202C20.91 4.55019 20.12 4.3202 19.48 4.7302C18.8 5.1702 18.56 6.1602 18.94 6.9402C19.1 7.2702 19.34 7.51019 19.63 7.64019L18.58 9.4902L18.57 9.5102L18.54 9.4802C18.37 9.39019 18.22 9.2902 18.07 9.1702C18.04 9.1502 18.02 9.1302 17.99 9.1002C17.81 8.9602 17.65 8.8002 17.5 8.6302C17.46 8.5802 17.41 8.5402 17.37 8.4902C17.22 8.3002 17.07 8.1002 16.95 7.8802C16.92 7.8302 16.9 7.78019 16.87 7.72019C16.83 7.63019 16.78 7.5502 16.74 7.4502C16.49 8.1202 15.83 9.5802 14.39 11.0102C13.02 12.3802 10.5 12.8002 9.52005 12.2702C9.29005 12.1502 9.33005 11.8002 9.57005 11.7302C11.22 11.2302 11.17 10.0902 12.6 8.4402C13.9 6.9502 15.86 6.9702 16.58 7.0402C16.6 7.0902 16.62 7.13019 16.64 7.18019C16.62 7.11019 16.59 7.0502 16.57 6.9802C16.5 6.7602 16.45 6.5202 16.42 6.2802C16.42 6.2402 16.42 6.18019 16.41 6.14019C16.4 6.01019 16.39 5.8902 16.39 5.7602C16.39 5.7102 16.4 5.6502 16.4 5.60019C16.41 5.44019 16.43 5.2902 16.45 5.1302C16.47 5.0102 16.49 4.8902 16.52 4.7702C16.55 4.6102 16.61 4.4502 16.66 4.3002C16.7 4.2002 16.73 4.1002 16.78 4.0002C16.85 3.8302 16.95 3.6702 17.04 3.5102C17.09 3.4402 17.13 3.3602 17.18 3.2902C17.29 3.1302 17.42 2.9902 17.55 2.8502C17.61 2.7802 17.67 2.7102 17.74 2.6502C17.87 2.5202 18.01 2.4102 18.16 2.3002C18.24 2.2402 18.33 2.1802 18.41 2.1302C18.56 2.0302 18.71 1.9502 18.87 1.8702C18.97 1.8302 19.07 1.7802 19.18 1.7402C19.33 1.6902 19.48 1.6402 19.64 1.6002C19.76 1.5702 19.88 1.5402 20 1.5202C20.16 1.5002 20.31 1.4802 20.47 1.4702C20.55 1.4702 20.62 1.4502 20.69 1.4502C20.75 1.4502 20.8 1.4602 20.85 1.4702C21.03 1.4702 21.2 1.5002 21.38 1.5202C21.49 1.5402 21.61 1.5602 21.72 1.5802C21.9 1.6302 22.08 1.6902 22.25 1.7602C22.35 1.8002 22.45 1.8302 22.54 1.8702C22.73 1.9602 22.9 2.0702 23.07 2.1802C23.14 2.2302 23.23 2.2702 23.3 2.3302C23.47 2.4602 23.63 2.6202 23.78 2.7802C23.84 2.8302 23.9 2.8702 23.95 2.9302Z" fill="#333333"/>
<path d="M23.8039 6.43098C24.0149 6.43098 24.1859 6.12898 24.1859 5.75698C24.1859 5.38498 24.0139 5.08398 23.8029 5.08398C23.5919 5.08398 23.4209 5.38598 23.4209 5.75798C23.4209 6.12998 23.5929 6.43098 23.8039 6.43098Z" fill="black"/>
</svg>
