<svg width="40" height="40" viewBox="0 0 40 40" fill="none" xmlns="http://www.w3.org/2000/svg">
<path d="M13.8243 0.799805H26.1676C27.0859 0.799805 27.8222 1.53465 27.8222 2.4328V7.55226C27.8222 8.18097 27.301 8.69536 26.664 8.69536H13.3279C12.6909 8.69536 12.1697 8.18097 12.1697 7.55226V2.4328C12.1697 1.53465 12.9142 0.799805 13.8243 0.799805Z" fill="#C8E1FF"/>
<path d="M30.9907 12.9081L27.2844 8.70312H12.7156L9.00931 12.9081C8.3971 13.5041 8 14.4186 8 15.4556V35.9334C8 37.7379 9.18304 39.1994 10.6391 39.1994H29.4271C30.85 39.1422 32 37.7052 32 35.9334V15.4556C32 14.4186 31.6029 13.5041 30.9907 12.9081Z" fill="#E5E9ED"/>
<rect x="8" y="19.2002" width="24" height="9.6" fill="#FFCAC5"/>
</svg>
