<svg width="40" height="40" viewBox="0 0 40 40" fill="none" xmlns="http://www.w3.org/2000/svg">
<path d="M6.36301 29.7841C4.78801 25.5911 6.29901 17.0181 7.09901 13.2101C7.29001 12.3031 8.35301 11.9021 9.09501 12.4571C12.207 14.7851 18.992 20.2171 20.579 24.4431C22.054 28.3691 20.067 32.7471 16.141 34.2211C12.215 35.6961 7.83701 33.7101 6.36301 29.7841Z" fill="#C8E1FF"/>
<path d="M22.0551 15.915C19.0201 14.949 14.8971 10.332 13.1221 8.20902C12.6991 7.70302 12.9441 6.93302 13.5801 6.76302C16.2501 6.05002 22.2701 4.65102 25.3291 5.62402C28.1711 6.52802 29.7411 9.56502 28.8371 12.407C27.9331 15.249 24.8971 16.819 22.0551 15.915Z" fill="#93C9FF"/>
<path d="M26.878 29.457C25.12 27.613 24.002 22.788 23.573 20.617C23.471 20.1 23.938 19.653 24.451 19.778C26.598 20.304 31.36 21.637 33.132 23.496C34.778 25.223 34.713 27.957 32.986 29.603C31.259 31.249 28.524 31.184 26.878 29.457Z" fill="#64A7FF"/>
</svg>
