<svg width="40" height="40" viewBox="0 0 40 40" fill="none" xmlns="http://www.w3.org/2000/svg">
<path d="M3.00671 3.33024C2.94671 2.89011 3.29671 2.5 3.74671 2.5H36.2567C36.7067 2.5 37.0567 2.89011 36.9967 3.33024L32.1867 35.6295C32.0267 36.6998 31.0867 37.5 29.9767 37.5H10.0267C8.91671 37.5 7.97671 36.6998 7.81671 35.6295L3.00671 3.33024Z" fill="#E5E9ED"/>
<path d="M32.8119 11.5675C31.8136 11.819 26.0838 12.463 21.6746 10.7021C13.6881 7.51228 8.15587 8.64934 7.10557 8.91097C7.03278 8.9311 6.99118 9.0116 7.00158 9.0921V9.16253L10.2045 33.1214C10.3085 33.9164 10.9324 34.5 11.6707 34.5H28.6835C29.4219 34.5 30.0458 33.9164 30.1498 33.1214L31.8656 20.2414V20.2112L32.9991 11.7486C33.0095 11.6379 32.9263 11.5474 32.8223 11.5675H32.8119Z" fill="#FA878F"/>
</svg>
