<svg width="40" height="40" viewBox="0 0 40 40" fill="none" xmlns="http://www.w3.org/2000/svg">
<g clip-path="url(#clip0_2260_9415)">
<path d="M31.772 36.9097L31.284 34.9257C31.094 34.1537 30.844 33.3907 30.448 32.7017C29.484 31.0217 27.962 29.7107 26.123 29.0117L22.304 27.5607C21.826 27.3787 21.335 27.2447 20.84 27.1407V28.7497C20.84 29.8497 19.95 30.7397 18.85 30.7397C17.75 30.7397 16.86 29.8497 16.86 28.7497V27.1377C16.36 27.2417 15.864 27.3777 15.381 27.5617L11.562 29.0127C10.183 29.5367 8.98199 30.4057 8.06099 31.5157C7.18399 32.5737 6.65399 33.8757 6.37499 35.2217L6.02199 36.9277C5.96099 37.2227 6.18599 37.5007 6.48799 37.5007H31.31C31.619 37.5007 31.846 37.2097 31.772 36.9097Z" fill="#C4C4C4"/>
<path d="M11.0399 19.2099C10.8899 18.3399 11.0999 17.4399 11.6299 16.7299C11.9999 16.2499 12.3199 16.0099 12.3199 16.0099C13.0189 15.3939 13.5409 14.6929 13.9349 14.0049C12.2279 14.2229 10.6679 14.5529 9.32489 14.9759C8.24289 19.4909 8.68689 24.4019 8.68689 24.4019C8.68689 24.4019 9.20689 26.3689 16.8599 26.6659V25.6399C13.8899 24.8799 11.5899 22.3599 11.0399 19.2099Z" fill="#333333"/>
<path d="M21.8799 14.6199C25.2299 15.1099 26.8099 17.3099 26.3599 19.8799C25.6399 22.6599 23.5199 24.8499 20.8399 25.5999V26.6709C25.2979 26.5019 27.3869 25.7689 28.3539 25.1809C28.8579 24.8739 29.1749 24.3339 29.1889 23.7429C29.2679 20.3649 28.7239 17.3079 28.1269 15.0159C25.6819 14.2279 22.4929 13.7439 18.9939 13.7139C19.8369 14.1189 20.7909 14.4589 21.8789 14.6189L21.8799 14.6199Z" fill="#333333"/>
<path d="M18.8499 30.74C19.9499 30.74 20.8399 29.85 20.8399 28.75V25.6C23.5199 24.85 25.6399 22.66 26.3599 19.88C26.8099 17.31 25.2299 15.11 21.8799 14.62C20.7929 14.459 19.8379 14.12 18.9949 13.715C18.8819 13.715 18.7719 13.709 18.6579 13.709C17.0009 13.709 15.4149 13.816 13.9349 14.005C13.5399 14.693 13.0189 15.394 12.3199 16.01C12.3199 16.01 11.9999 16.25 11.6299 16.73C11.0999 17.44 10.8899 18.34 11.0399 19.21C11.5899 22.36 13.8899 24.88 16.8599 25.64V28.75C16.8599 29.85 17.7499 30.74 18.8499 30.74Z" fill="#FFCCA8"/>
<path d="M16.406 18.6C16.8887 18.6 17.28 18.1303 17.28 17.551C17.28 16.9716 16.8887 16.502 16.406 16.502C15.9233 16.502 15.532 16.9716 15.532 17.551C15.532 18.1303 15.9233 18.6 16.406 18.6Z" fill="black"/>
<path d="M21.021 18.6C21.5037 18.6 21.895 18.1303 21.895 17.551C21.895 16.9716 21.5037 16.502 21.021 16.502C20.5383 16.502 20.147 16.9716 20.147 17.551C20.147 18.1303 20.5383 18.6 21.021 18.6Z" fill="black"/>
<path d="M19.8018 22.1602C19.9978 22.1602 20.1368 22.3482 20.0848 22.5372C19.9198 23.1392 19.3678 23.5822 18.7128 23.5822C18.0578 23.5822 17.5068 23.1392 17.3408 22.5372C17.2888 22.3482 17.4278 22.1602 17.6238 22.1602H19.8018Z" fill="#5C2F17"/>
<path d="M18.8531 29.1443C18.0301 29.1443 17.3061 28.7353 16.8621 28.1123V28.7523C16.8621 29.8513 17.7531 30.7433 18.8531 30.7433C19.9531 30.7433 20.8441 29.8523 20.8441 28.7523V28.1123C20.4001 28.7343 19.6761 29.1443 18.8531 29.1443Z" fill="#4C6DB5"/>
<path d="M15.828 32.8953C16.2047 32.8953 16.51 32.5899 16.51 32.2133C16.51 31.8366 16.2047 31.5312 15.828 31.5312C15.4513 31.5312 15.146 31.8366 15.146 32.2133C15.146 32.5899 15.4513 32.8953 15.828 32.8953Z" fill="#4C6DB5"/>
<path d="M22.059 32.8953C22.4356 32.8953 22.741 32.5899 22.741 32.2133C22.741 31.8366 22.4356 31.5312 22.059 31.5312C21.6823 31.5312 21.377 31.8366 21.377 32.2133C21.377 32.5899 21.6823 32.8953 22.059 32.8953Z" fill="#4C6DB5"/>
<path d="M15.828 36.8044C16.2047 36.8044 16.51 36.4991 16.51 36.1224C16.51 35.7458 16.2047 35.4404 15.828 35.4404C15.4513 35.4404 15.146 35.7458 15.146 36.1224C15.146 36.4991 15.4513 36.8044 15.828 36.8044Z" fill="#4C6DB5"/>
<path d="M22.059 36.8044C22.4356 36.8044 22.741 36.4991 22.741 36.1224C22.741 35.7458 22.4356 35.4404 22.059 35.4404C21.6823 35.4404 21.377 35.7458 21.377 36.1224C21.377 36.4991 21.6823 36.8044 22.059 36.8044Z" fill="#4C6DB5"/>
<path d="M31.09 9.056C31.09 7.343 29.701 5.955 27.989 5.955C27.916 5.955 27.848 5.972 27.776 5.976C27.04 4.843 25.651 4.069 24.036 4.069C23.535 4.069 23.061 4.157 22.613 4.293C21.822 3.211 20.553 2.5 19.11 2.5C17.535 2.5 16.169 3.345 15.406 4.598C14.764 4.27 14.023 4.069 13.222 4.069C11.613 4.069 10.226 4.839 9.48898 5.966C9.45298 5.965 9.41898 5.955 9.38298 5.955C7.66998 5.955 6.28198 7.344 6.28198 9.056C6.28198 10.655 7.49698 11.956 9.05098 12.124V14.965C9.05098 14.989 9.06198 15.009 9.07798 15.022C9.06098 15.009 9.05098 14.989 9.05098 14.965V12.149C11.591 11.309 14.962 10.797 18.66 10.797C22.358 10.797 25.728 11.309 28.268 12.149V14.965V12.13C29.849 11.987 31.091 10.674 31.091 9.057L31.09 9.056Z" fill="#E6E6E6"/>
<path d="M28.178 15.0309C28.223 15.0459 28.267 15.0119 28.267 14.9639C28.267 15.0119 28.224 15.0449 28.178 15.0309Z" fill="#E6E6E6"/>
<path d="M18.658 10.7969C14.96 10.7969 11.59 11.3089 9.05005 12.1489V14.9649C9.05005 14.9889 9.06105 15.0089 9.07705 15.0219C9.09305 15.0349 9.11605 15.0389 9.13805 15.0319C9.19805 15.0129 9.26405 14.9959 9.32505 14.9759C10.668 14.5539 12.228 14.2229 13.935 14.0049C15.415 13.8159 17.001 13.7089 18.658 13.7089C18.772 13.7089 18.882 13.7139 18.995 13.7149C22.494 13.7449 25.683 14.2289 28.128 15.0169C28.144 15.0219 28.162 15.0269 28.178 15.0319C28.223 15.0469 28.267 15.0129 28.267 14.9649V12.1489C25.727 11.3089 22.356 10.7969 18.658 10.7969Z" fill="#C4C4C4"/>
<path d="M32.5861 22.6799C31.2311 21.9739 29.4171 22.5599 28.3341 24.6399C27.6471 25.9589 27.7711 27.4979 28.0901 28.5189C28.2791 29.1249 28.1691 29.7859 27.8621 30.3419L27.5931 30.8029L23.6841 37.4989H26.1171L28.8971 31.4819L29.1801 30.8699C29.4651 30.2909 29.9731 29.8719 30.5741 29.6369C31.5301 29.2629 32.7751 28.5249 33.4181 27.2909C34.5021 25.2109 33.9421 23.3859 32.5871 22.6789L32.5861 22.6799Z" fill="#807057"/>
</g>
<defs>
<clipPath id="clip0_2260_9415">
<rect width="40" height="40" fill="white"/>
</clipPath>
</defs>
</svg>
