<svg width="24" height="24" viewBox="0 0 24 24" fill="none" xmlns="http://www.w3.org/2000/svg">
<path fill-rule="evenodd" clip-rule="evenodd" d="M12.0011 3.70059C7.41711 3.70059 3.70107 7.41662 3.70107 12.0006C3.70107 16.5846 7.41711 20.3006 12.0011 20.3006C16.585 20.3006 20.3011 16.5846 20.3011 12.0006C20.3011 7.41662 16.585 3.70059 12.0011 3.70059ZM2.10107 12.0006C2.10107 6.53297 6.53346 2.10059 12.0011 2.10059C17.4687 2.10059 21.9011 6.53297 21.9011 12.0006C21.9011 17.4682 17.4687 21.9006 12.0011 21.9006C6.53346 21.9006 2.10107 17.4682 2.10107 12.0006ZM12.0011 6.65059C12.4429 6.65059 12.8011 7.00876 12.8011 7.45059V12.0006C12.8011 12.4424 12.4429 12.8006 12.0011 12.8006C11.5592 12.8006 11.2011 12.4424 11.2011 12.0006V7.45059C11.2011 7.00876 11.5592 6.65059 12.0011 6.65059ZM12.0011 14.5731C12.4429 14.5731 12.8011 14.9313 12.8011 15.3731V15.4131C12.8011 15.8549 12.4429 16.2131 12.0011 16.2131C11.5592 16.2131 11.2011 15.8549 11.2011 15.4131V15.3731C11.2011 14.9313 11.5592 14.5731 12.0011 14.5731Z" fill="#171719"/>
</svg>
