<svg width="22" height="16" viewBox="0 0 22 16" fill="none" xmlns="http://www.w3.org/2000/svg">
<path fill-rule="evenodd" clip-rule="evenodd" d="M10.9827 0.200195C7.14258 0.200195 3.35292 2.61755 0.451001 7.14718L0.450993 7.14718L0.44887 7.15053C0.287383 7.40537 0.202553 7.70001 0.198402 7.9975C0.194262 8.29421 0.270421 8.59013 0.423369 8.84877C2.66297 12.6655 6.40385 15.8002 10.9827 15.8002C15.5137 15.8002 19.3277 12.6595 21.573 8.83137C21.7221 8.57872 21.7982 8.29067 21.7982 8.00093C21.7982 7.71071 21.7218 7.4222 21.5723 7.16925L21.5712 7.16745C19.3242 3.38827 15.4854 0.200195 10.9827 0.200195ZM1.79977 8.00898L1.80063 8.00656C4.51768 3.76739 7.86507 1.8002 10.9827 1.8002C14.7058 1.8002 18.1064 4.47178 20.1949 7.98339C20.195 7.98357 20.1953 7.98421 20.1958 7.98534C20.196 7.98607 20.1963 7.987 20.1966 7.98815C20.1976 7.99158 20.1982 7.99597 20.1982 8.00093C20.1982 8.00589 20.1976 8.01027 20.1966 8.0137C20.1957 8.01714 20.1948 8.01868 20.1949 8.01849L20.1935 8.02085C18.1131 11.5685 14.7402 14.2002 10.9827 14.2002C7.18208 14.2002 3.88075 11.5801 1.80259 8.03775L1.8026 8.03774L1.80072 8.03459L1.8007 8.03456C1.8006 8.03434 1.80009 8.03323 1.79954 8.03114C1.79876 8.02817 1.79818 8.02426 1.79825 8.01982C1.79831 8.01538 1.79899 8.01165 1.79977 8.00898ZM8.30061 8C8.30061 6.50883 9.50944 5.3 11.0006 5.3C12.4918 5.3 13.7006 6.50883 13.7006 8C13.7006 9.49117 12.4918 10.7 11.0006 10.7C9.50944 10.7 8.30061 9.49117 8.30061 8ZM11.0006 3.7C8.62579 3.7 6.70061 5.62518 6.70061 8C6.70061 10.3748 8.62579 12.3 11.0006 12.3C13.3754 12.3 15.3006 10.3748 15.3006 8C15.3006 5.62518 13.3754 3.7 11.0006 3.7Z" fill="#171719"/>
</svg>
