<svg width="24" height="24" viewBox="0 0 24 24" fill="none" xmlns="http://www.w3.org/2000/svg">
<path d="M9.52367 3.83938C9.52367 3.3758 9.89947 3 10.363 3H13.6249C14.0885 3 14.4643 3.3758 14.4643 3.83938C14.4643 4.30295 14.0885 4.67876 13.6249 4.67876H10.363C9.89947 4.67876 9.52367 4.30295 9.52367 3.83938Z" fill="black"/>
<path d="M7.94021 3.82603C7.95425 4.2894 7.59 4.67641 7.12664 4.69045C6.32755 4.71467 5.99467 4.77798 5.75754 4.89993L5.74906 4.90429C5.38918 5.08423 5.08978 5.38459 4.88666 5.77194C4.76549 6.00892 4.70251 6.34224 4.67838 7.13871C4.66434 7.60208 4.27732 7.96632 3.81396 7.95228C3.3506 7.93824 2.98635 7.55123 3.00039 7.08787C3.0245 6.29228 3.082 5.61037 3.39496 5.00184L3.39751 4.99687C3.74939 4.32371 4.2937 3.75617 4.99411 3.4048C5.60154 3.0938 6.2821 3.03652 7.07579 3.01247C7.53915 2.99842 7.92617 3.36267 7.94021 3.82603Z" fill="black"/>
<path d="M16.0477 3.82603C16.0618 3.36267 16.4488 2.99842 16.9121 3.01247C17.7058 3.03652 18.3864 3.0938 18.9938 3.4048C19.6942 3.75617 20.2385 4.32372 20.5904 4.99688L20.593 5.00183C20.9059 5.61036 20.9634 6.29228 20.9875 7.08787C21.0016 7.55123 20.6373 7.93824 20.174 7.95228C19.7106 7.96632 19.3236 7.60208 19.3095 7.13871C19.2854 6.34224 19.2224 6.00893 19.1013 5.77195C18.8981 5.38459 18.5988 5.08419 18.2389 4.90424L18.2304 4.89998C17.9932 4.77803 17.6604 4.71467 16.8613 4.69045C16.3979 4.67641 16.0337 4.2894 16.0477 3.82603Z" fill="black"/>
<path d="M3.83939 9.52366C4.30296 9.52366 4.67876 9.89947 4.67876 10.363V13.6249C4.67876 14.0884 4.30296 14.4642 3.83939 14.4642C3.37581 14.4642 3.00001 14.0884 3.00001 13.6249V10.363C3.00001 9.89947 3.37581 9.52366 3.83939 9.52366Z" fill="black"/>
<path d="M20.1485 9.52366C20.6121 9.52366 20.9879 9.89947 20.9879 10.363V13.6249C20.9879 14.0884 20.6121 14.4642 20.1485 14.4642C19.685 14.4642 19.3092 14.0884 19.3092 13.6249V10.363C19.3092 9.89947 19.685 9.52366 20.1485 9.52366Z" fill="black"/>
<path d="M20.186 16.0477C20.6494 16.0618 21.0136 16.4488 20.9996 16.9121C20.9755 17.7077 20.918 18.3896 20.605 18.9982L20.6025 19.0031C20.2506 19.6763 19.7062 20.2439 19.0057 20.5953C18.3983 20.9062 17.7178 20.9635 16.9242 20.9875C16.4608 21.0016 16.0738 20.6373 16.0598 20.174C16.0458 19.7106 16.41 19.3236 16.8734 19.3095C17.6725 19.2853 18.0053 19.222 18.2425 19.1001L18.2509 19.0957C18.6108 18.9158 18.9102 18.6154 19.1133 18.228C19.2345 17.9911 19.2975 17.6577 19.3216 16.8613C19.3357 16.3979 19.7227 16.0337 20.186 16.0477Z" fill="black"/>
<path d="M3.81396 16.0598C4.27732 16.0457 4.66434 16.41 4.67838 16.8734C4.70259 17.6724 4.7659 18.0053 4.88785 18.2425L4.89222 18.2509C5.07216 18.6108 5.37252 18.9102 5.75988 19.1133C5.99686 19.2345 6.33016 19.2975 7.12664 19.3216C7.59 19.3357 7.95425 19.7227 7.94021 20.186C7.92617 20.6494 7.53915 21.0136 7.07579 20.9996C6.28021 20.9755 5.5983 20.918 4.98977 20.605L4.98481 20.6025C4.31165 20.2506 3.7441 19.7063 3.39273 19.0059C3.08173 18.3985 3.02444 17.7179 3.00039 16.9242C2.98635 16.4608 3.3506 16.0738 3.81396 16.0598Z" fill="black"/>
<path d="M9.52367 20.1485C9.52367 19.685 9.89947 19.3092 10.363 19.3092H13.6249C14.0885 19.3092 14.4643 19.685 14.4643 20.1485C14.4643 20.6121 14.0885 20.9879 13.6249 20.9879H10.363C9.89947 20.9879 9.52367 20.6121 9.52367 20.1485Z" fill="black"/>
</svg>
