<svg width="24" height="24" viewBox="0 0 24 24" fill="none" xmlns="http://www.w3.org/2000/svg">
<path fill-rule="evenodd" clip-rule="evenodd" d="M8.39993 2.8C8.39993 2.35817 8.04175 2 7.59993 2C7.1581 2 6.79993 2.35817 6.79993 2.8V3.7998H3.63636C2.81209 3.7998 2 4.42031 2 5.35435V20.4453C2 21.3793 2.81209 21.9998 3.63636 21.9998H20.3636C21.1879 21.9998 22 21.3793 22 20.4453V5.35435C22 4.42031 21.1879 3.7998 20.3636 3.7998H17.2V2.8C17.2 2.35817 16.8418 2 16.4 2C15.9581 2 15.6 2.35817 15.6 2.8V3.7998H8.39993V2.8ZM6.79993 5.3998V6.4C6.79993 6.84183 7.1581 7.2 7.59993 7.2C8.04175 7.2 8.39993 6.84183 8.39993 6.4V5.3998H15.6V6.4C15.6 6.84183 15.9581 7.2 16.4 7.2C16.8418 7.2 17.2 6.84183 17.2 6.4V5.3998H20.3636C20.3791 5.3998 20.3911 5.40222 20.4 5.40512V8.7002H3.6V5.40512C3.60887 5.40222 3.6209 5.3998 3.63636 5.3998H6.79993ZM3.6 10.3002V20.3945C3.60887 20.3974 3.6209 20.3998 3.63636 20.3998H20.3636C20.3791 20.3998 20.3911 20.3974 20.4 20.3945V10.3002H3.6Z" fill="#171719"/>
</svg>
