<svg width="20" height="20" viewBox="0 0 20 20" fill="none" xmlns="http://www.w3.org/2000/svg">
<path fill-rule="evenodd" clip-rule="evenodd" d="M3.895 1.93142L2.34353 3.47971C2.09768 3.72506 1.97354 3.9915 1.94362 4.33778C1.88801 5.01806 2.00827 5.7818 2.4086 6.85146L2.40944 6.8537C3.06318 8.61651 4.05502 10.2755 5.57073 12.0989C7.39022 14.2659 9.57561 15.972 12.0625 17.1738C12.9924 17.6175 14.1404 18.0896 15.3395 18.1661L15.3416 18.1662C15.3791 18.1687 15.4253 18.1691 15.4992 18.1691C15.9963 18.1691 16.3248 18.024 16.6265 17.7069C16.8007 17.5055 17.1751 17.1249 17.4823 16.8167C17.6466 16.6519 17.8016 16.4979 17.9155 16.3852L17.9865 16.3151C18.0107 16.2478 18.0363 16.1643 18.0529 16.0786C18.0709 15.9852 18.0724 15.9187 18.0679 15.8803L15.5615 13.3791C15.5528 13.3704 15.5443 13.3615 15.536 13.3524C15.5224 13.3375 15.5073 13.3229 15.4916 13.3098C15.4815 13.3014 15.4723 13.2946 15.4643 13.2893C15.4292 13.3092 15.3857 13.3433 15.3407 13.3882L14.443 14.2841C14.4412 14.2859 14.4392 14.2879 14.4371 14.29C14.3331 14.3941 13.8946 14.8331 13.1818 14.8331C12.8909 14.8331 12.6228 14.7603 12.3712 14.6347C12.3437 14.621 12.3213 14.6081 12.3069 14.5996C12.298 14.5943 12.2898 14.5892 12.2841 14.5858C12.2733 14.5798 12.2627 14.5735 12.2522 14.567C12.1567 14.5079 12.0364 14.4471 11.8629 14.3605L11.851 14.3546C11.6745 14.2665 11.4516 14.1553 11.2294 14.0147M18.6638 16.7707L19.3837 17.1195C19.3437 17.2021 19.2898 17.2772 19.2243 17.3415L19.175 17.3901L19.0411 17.5223C18.9288 17.6334 18.7765 17.7848 18.6155 17.9462C18.2813 18.2815 17.9472 18.6237 17.8304 18.7609C17.8221 18.7706 17.8136 18.7801 17.8049 18.7894C17.1845 19.4515 16.4249 19.7691 15.4992 19.7691H15.4911C15.4274 19.7691 15.3312 19.7691 15.2354 19.7627C13.7158 19.6652 12.3372 19.0778 11.3718 18.617L11.3684 18.6154C8.67241 17.3129 6.30664 15.4641 4.344 13.1261L4.34156 13.1232C2.73488 11.1906 1.63884 9.37687 0.90969 7.41117C0.458779 6.20605 0.26765 5.19715 0.349111 4.20535L0.34934 4.20257C0.411221 3.48004 0.699255 2.8602 1.21332 2.34719L2.775 0.788699C2.78095 0.782753 2.78701 0.776901 2.79315 0.771146C3.10925 0.475005 3.53338 0.230469 4.03622 0.230469C4.64515 0.230469 5.07345 0.588018 5.26996 0.784129L5.27424 0.788406C5.56526 1.0603 5.83932 1.33882 6.11696 1.62497M18.6638 16.7707C19.3837 17.1195 19.3836 17.1197 19.3837 17.1195L19.3846 17.1176L19.3857 17.1154L19.3883 17.1099L19.3955 17.0945C19.4011 17.0824 19.4083 17.0665 19.4167 17.0472C19.4334 17.0087 19.4552 16.956 19.479 16.8922C19.5257 16.767 19.5841 16.5877 19.6239 16.382C19.6912 16.0331 19.7619 15.3068 19.2232 14.7728C19.2226 14.7723 19.2221 14.7717 19.2215 14.7712L16.7031 12.2579C16.4963 12.0362 16.0695 11.6792 15.4671 11.6792C14.8471 11.6792 14.4022 12.0644 14.2105 12.2557L13.3128 13.1515C13.2826 13.1817 13.262 13.2006 13.2357 13.2162C13.2133 13.2294 13.1982 13.2331 13.1818 13.2331C13.1718 13.2331 13.1512 13.233 13.1054 13.2125C13.1022 13.2105 13.0986 13.2084 13.095 13.2062C13.0892 13.2028 13.0822 13.1987 13.074 13.1941C12.9149 13.0973 12.7398 13.0099 12.593 12.9367L12.5773 12.9288C12.3893 12.8351 12.2328 12.7562 12.0846 12.6624C10.6984 11.7876 9.42822 10.6377 8.21061 9.1408C8.20584 9.13494 8.20099 9.12915 8.19607 9.12342C7.54834 8.30005 7.14171 7.63524 6.85587 6.9518L6.85348 6.94464C6.82575 6.85571 6.82644 6.82429 6.82758 6.81449C6.82778 6.81268 6.82821 6.80892 6.83248 6.80029C6.8373 6.79056 6.85284 6.76291 6.89569 6.72014C6.89789 6.71795 6.90008 6.71574 6.90225 6.71352C6.98833 6.6367 7.03208 6.59934 7.05377 6.58132C7.06414 6.57271 7.06919 6.56875 7.07166 6.56682L7.08111 6.55949C7.08592 6.55575 7.09515 6.54856 7.10598 6.53969C7.1541 6.50029 7.19319 6.46046 7.22044 6.43271L7.22372 6.42936C7.23828 6.41454 7.25863 6.39368 7.28535 6.36629C7.31491 6.336 7.35226 6.29772 7.39817 6.25079C7.49041 6.16166 7.58569 6.06549 7.67372 5.97663C7.71562 5.93434 7.75587 5.89372 7.79337 5.85629C8.11207 5.53824 8.39235 5.11319 8.39235 4.58162C8.39235 4.05006 8.11207 3.62501 7.79337 3.30696L6.54743 2.06356C6.47408 1.98811 6.40108 1.91412 6.33095 1.84303L6.32827 1.84031C6.25525 1.7663 6.18528 1.69536 6.11696 1.62497M3.895 1.93142C3.96567 1.8666 4.01229 1.84268 4.03367 1.83419C4.0355 1.83511 4.03754 1.83618 4.0398 1.83742C4.06666 1.85211 4.10181 1.87879 4.13974 1.91666L4.15348 1.93037C4.15988 1.93675 4.16638 1.94302 4.17299 1.94919C4.4369 2.19529 4.69093 2.45291 4.96877 2.73927C5.04237 2.81509 5.1169 2.89064 5.18924 2.96397L5.18999 2.96473C5.2628 3.03854 5.33369 3.1104 5.40426 3.18302L6.66316 4.43948C6.73099 4.50717 6.76501 4.55413 6.78151 4.58162C6.76501 4.60912 6.73099 4.65608 6.66316 4.72376C6.61125 4.77556 6.56394 4.82334 6.51886 4.86888C6.43639 4.95216 6.36137 5.02793 6.27932 5.10699C6.2737 5.11241 6.26815 5.11791 6.26268 5.1235C6.20732 5.18006 6.168 5.22037 6.13844 5.25068C6.11441 5.27532 6.09681 5.29335 6.08228 5.30815C6.08031 5.31015 6.07851 5.31199 6.07685 5.31367C6.06436 5.32354 6.04965 5.33541 6.03147 5.35051C5.98733 5.38717 5.92396 5.44189 5.82241 5.53272C5.82173 5.5333 5.82102 5.5339 5.82031 5.53451C5.80638 5.54643 5.77221 5.57565 5.73242 5.62132C5.43635 5.92977 5.2793 6.27603 5.23823 6.63014C5.19817 6.97549 5.27672 7.26522 5.32972 7.4327L5.34739 7.48593C5.35329 7.50359 5.3598 7.52105 5.36692 7.53826C5.72836 8.41207 6.231 9.21617 6.95742 10.1366C6.9667 10.1484 6.9763 10.1599 6.98622 10.1711C8.2915 11.772 9.68237 13.0383 11.2294 14.0147" fill="#171719"/>
</svg>
