<svg width="21" height="19" viewBox="0 0 21 19" fill="none" xmlns="http://www.w3.org/2000/svg">
<path fill-rule="evenodd" clip-rule="evenodd" d="M6.81922 0.446708C6.96259 0.200934 7.22571 0.0498047 7.51024 0.0498047H13.4902C13.7748 0.0498047 14.0379 0.200934 14.1813 0.446708L15.5597 2.8098H17.4002C19.1123 2.8098 20.5002 4.19772 20.5002 5.9098V15.3398C20.5002 17.0519 19.1123 18.4398 17.4002 18.4398H3.60024C1.88816 18.4398 0.500244 17.0519 0.500244 15.3398V5.9098C0.500244 4.19772 1.88816 2.8098 3.60024 2.8098H5.44075L6.81922 0.446708ZM7.96974 1.6498L6.59127 4.0129C6.4479 4.25868 6.18478 4.4098 5.90024 4.4098H3.60024C2.77182 4.4098 2.10024 5.08138 2.10024 5.9098V15.3398C2.10024 16.1682 2.77182 16.8398 3.60024 16.8398H17.4002C18.2287 16.8398 18.9002 16.1682 18.9002 15.3398V5.9098C18.9002 5.08138 18.2287 4.4098 17.4002 4.4098H15.1002C14.8157 4.4098 14.5526 4.25868 14.4092 4.0129L13.0307 1.6498H7.96974ZM10.5002 7.3998C9.03669 7.3998 7.85024 8.58625 7.85024 10.0498C7.85024 11.5134 9.03669 12.6998 10.5002 12.6998C11.9638 12.6998 13.1502 11.5134 13.1502 10.0498C13.1502 8.58625 11.9638 7.3998 10.5002 7.3998ZM6.25024 10.0498C6.25024 7.70259 8.15303 5.7998 10.5002 5.7998C12.8475 5.7998 14.7502 7.70259 14.7502 10.0498C14.7502 12.397 12.8475 14.2998 10.5002 14.2998C8.15303 14.2998 6.25024 12.397 6.25024 10.0498Z" fill="#171719"/>
</svg>
