<svg width="24" height="24" viewBox="0 0 24 24" fill="none" xmlns="http://www.w3.org/2000/svg">
<path fill-rule="evenodd" clip-rule="evenodd" d="M2.00085 2.8C2.00085 2.35817 2.35903 2 2.80085 2H5.07602C5.46266 2 5.79396 2.27651 5.86312 2.6569L8.31953 16.1683C8.34766 16.3232 8.42926 16.4634 8.55008 16.5642C8.67086 16.6651 8.82319 16.7203 8.98052 16.7204C8.98048 16.7204 8.98055 16.7204 8.98052 16.7204H17.8889C18.3307 16.7204 18.6889 17.0785 18.6889 17.5204C18.6889 17.9622 18.3307 18.3204 17.8889 18.3204H8.98052C8.44844 18.3203 7.93315 18.1335 7.52469 17.7925C7.11627 17.4515 6.84046 16.978 6.74533 16.4545C6.74533 16.4545 6.74534 16.4546 6.74533 16.4545L4.40835 3.6H2.80085C2.35903 3.6 2.00085 3.24183 2.00085 2.8Z" fill="#171719"/>
<path fill-rule="evenodd" clip-rule="evenodd" d="M9.05688 18.3197C8.48251 18.3197 8.01687 18.7853 8.01687 19.3597C8.01687 19.9342 8.48251 20.3998 9.05688 20.3998C9.63124 20.3998 10.0969 19.9342 10.0969 19.3597C10.0969 18.7853 9.63124 18.3197 9.05688 18.3197ZM6.41687 19.3597C6.41687 17.9017 7.59883 16.7197 9.05688 16.7197C10.5149 16.7197 11.6969 17.9017 11.6969 19.3597C11.6969 20.8178 10.5149 21.9998 9.05688 21.9998C7.59883 21.9998 6.41687 20.8178 6.41687 19.3597Z" fill="#171719"/>
<path fill-rule="evenodd" clip-rule="evenodd" d="M17.8889 18.3204C17.3145 18.3204 16.8488 18.7853 16.8488 19.3597C16.8488 19.9342 17.3144 20.3998 17.8888 20.3998C18.4632 20.3998 18.9288 19.9342 18.9288 19.3597C18.9288 18.7853 18.4633 18.3204 17.8889 18.3204ZM15.2488 19.3597C15.2488 17.9017 16.4309 16.7204 17.8889 16.7204C19.347 16.7204 20.5288 17.9017 20.5288 19.3597C20.5288 20.8178 19.3468 21.9998 17.8888 21.9998C16.4307 21.9998 15.2488 20.8178 15.2488 19.3597Z" fill="#171719"/>
<path fill-rule="evenodd" clip-rule="evenodd" d="M4.94482 6.48067C4.94482 6.03885 5.303 5.68067 5.74482 5.68067H21.2009C21.4381 5.68067 21.6631 5.78596 21.8151 5.96809C21.9671 6.15023 22.0304 6.39042 21.988 6.62382L20.8693 12.7749C20.7742 13.2984 20.4983 13.772 20.0899 14.113C19.6814 14.454 19.1663 14.6408 18.6342 14.6409H7.08343C6.6416 14.6409 6.28343 14.2827 6.28343 13.8409C6.28343 13.399 6.6416 13.0409 7.08343 13.0409H18.634C18.6339 13.0409 18.634 13.0409 18.634 13.0409C18.7913 13.0408 18.9437 12.9855 19.0645 12.8847C19.1853 12.7839 19.2669 12.6438 19.295 12.4889L20.2423 7.28067H5.74482C5.303 7.28067 4.94482 6.9225 4.94482 6.48067Z" fill="#171719"/>
</svg>
