<svg width="32" height="32" viewBox="0 0 32 32" fill="none" xmlns="http://www.w3.org/2000/svg">
<rect width="32" height="32" rx="16" fill="#212125"/>
<path fill-rule="evenodd" clip-rule="evenodd" d="M20.289 9.28951C20.4973 9.08123 20.835 9.08123 21.0433 9.28951L22.3766 10.6228C22.5849 10.8311 22.5849 11.1688 22.3766 11.3771L21.0433 12.7104C20.835 12.9187 20.4973 12.9187 20.289 12.7104C20.0807 12.5021 20.0807 12.1645 20.289 11.9562L21.2452 11L20.289 10.0438C20.0807 9.83548 20.0807 9.49779 20.289 9.28951Z" fill="#8A8A91"/>
<path fill-rule="evenodd" clip-rule="evenodd" d="M10.1328 13.25C10.1328 11.7557 11.3163 10.4667 12.8352 10.4667H21.3328C21.6273 10.4667 21.8661 10.7055 21.8661 11C21.8661 11.2946 21.6273 11.5333 21.3328 11.5333H12.8352C11.9494 11.5333 11.1995 12.2998 11.1995 13.25V16.3333C11.1995 16.6279 10.9607 16.8667 10.6661 16.8667C10.3716 16.8667 10.1328 16.6279 10.1328 16.3333V13.25Z" fill="#8A8A91"/>
<path fill-rule="evenodd" clip-rule="evenodd" d="M11.71 22.7104C11.5017 22.9186 11.164 22.9186 10.9558 22.7104L9.62243 21.377C9.41415 21.1688 9.41415 20.8311 9.62243 20.6228L10.9558 19.2895C11.164 19.0812 11.5017 19.0812 11.71 19.2895C11.9183 19.4977 11.9183 19.8354 11.71 20.0437L10.7538 20.9999L11.71 21.9561C11.9183 22.1644 11.9183 22.5021 11.71 22.7104Z" fill="#8A8A91"/>
<path fill-rule="evenodd" clip-rule="evenodd" d="M21.8662 18.75C21.8662 20.2443 20.6828 21.5333 19.1638 21.5333H9.99958C9.70503 21.5333 9.46625 21.2945 9.46625 21C9.46625 20.7054 9.70503 20.4667 9.99958 20.4667H19.1638C20.0497 20.4667 20.7995 19.7002 20.7995 18.75V15.6667C20.7995 15.3721 21.0383 15.1333 21.3329 15.1333C21.6274 15.1333 21.8662 15.3721 21.8662 15.6667V18.75Z" fill="#8A8A91"/>
</svg>
