<svg width="16" height="16" viewBox="0 0 16 16" fill="none" xmlns="http://www.w3.org/2000/svg">
<path fill-rule="evenodd" clip-rule="evenodd" d="M12.29 1.28951C12.4983 1.08123 12.836 1.08123 13.0442 1.28951L14.3776 2.62284C14.5859 2.83112 14.5859 3.16881 14.3776 3.37709L13.0442 4.71042C12.836 4.9187 12.4983 4.9187 12.29 4.71042C12.0817 4.50215 12.0817 4.16446 12.29 3.95618L13.2462 2.99997L12.29 2.04376C12.0817 1.83548 12.0817 1.49779 12.29 1.28951Z" fill="#8A8A91"/>
<path fill-rule="evenodd" clip-rule="evenodd" d="M2.13281 5.25001C2.13281 3.75567 3.31625 2.46667 4.83521 2.46667H13.3328C13.6273 2.46667 13.8661 2.70546 13.8661 3.00001C13.8661 3.29456 13.6273 3.53334 13.3328 3.53334H4.83521C3.94937 3.53334 3.19948 4.29977 3.19948 5.25001V8.33334C3.19948 8.62789 2.9607 8.86667 2.66614 8.86667C2.37159 8.86667 2.13281 8.62789 2.13281 8.33334V5.25001Z" fill="#8A8A91"/>
<path fill-rule="evenodd" clip-rule="evenodd" d="M3.71098 14.7104C3.5027 14.9186 3.16501 14.9186 2.95673 14.7104L1.6234 13.377C1.41512 13.1688 1.41512 12.8311 1.6234 12.6228L2.95673 11.2895C3.16501 11.0812 3.5027 11.0812 3.71098 11.2895C3.91926 11.4977 3.91926 11.8354 3.71098 12.0437L2.75477 12.9999L3.71098 13.9561C3.91926 14.1644 3.91926 14.5021 3.71098 14.7104Z" fill="#8A8A91"/>
<path fill-rule="evenodd" clip-rule="evenodd" d="M13.8672 10.75C13.8672 12.2443 12.6837 13.5333 11.1648 13.5333H2.00056C1.706 13.5333 1.46722 13.2945 1.46722 13C1.46722 12.7054 1.706 12.4667 2.00056 12.4667H11.1648C12.0506 12.4667 12.8005 11.7002 12.8005 10.75V7.66666C12.8005 7.37211 13.0393 7.13332 13.3339 7.13332C13.6284 7.13332 13.8672 7.37211 13.8672 7.66666V10.75Z" fill="#8A8A91"/>
</svg>
