<svg width="32" height="32" viewBox="0 0 32 32" fill="none" xmlns="http://www.w3.org/2000/svg">
<rect width="32" height="32" rx="16" fill="#F6F6F9"/>
<path fill-rule="evenodd" clip-rule="evenodd" d="M20.289 9.28951C20.4973 9.08123 20.835 9.08123 21.0433 9.28951L22.3766 10.6228C22.5849 10.8311 22.5849 11.1688 22.3766 11.3771L21.0433 12.7104C20.835 12.9187 20.4973 12.9187 20.289 12.7104C20.0807 12.5021 20.0807 12.1645 20.289 11.9562L21.2452 11L20.289 10.0438C20.0807 9.83548 20.0807 9.49779 20.289 9.28951Z" fill="#8A8A91"/>
<path fill-rule="evenodd" clip-rule="evenodd" d="M10.1328 13.2501C10.1328 11.7558 11.3163 10.4668 12.8352 10.4668H21.3328C21.6273 10.4668 21.8661 10.7056 21.8661 11.0001C21.8661 11.2947 21.6273 11.5335 21.3328 11.5335H12.8352C11.9494 11.5335 11.1995 12.2999 11.1995 13.2501V16.3335C11.1995 16.628 10.9607 16.8668 10.6661 16.8668C10.3716 16.8668 10.1328 16.628 10.1328 16.3335V13.2501Z" fill="#8A8A91"/>
<path fill-rule="evenodd" clip-rule="evenodd" d="M11.71 22.7105C11.5017 22.9188 11.164 22.9188 10.9558 22.7105L9.62243 21.3772C9.41415 21.1689 9.41415 20.8312 9.62243 20.6229L10.9558 19.2896C11.164 19.0813 11.5017 19.0813 11.71 19.2896C11.9183 19.4979 11.9183 19.8355 11.71 20.0438L10.7538 21L11.71 21.9562C11.9183 22.1645 11.9183 22.5022 11.71 22.7105Z" fill="#8A8A91"/>
<path fill-rule="evenodd" clip-rule="evenodd" d="M21.8662 18.7499C21.8662 20.2442 20.6828 21.5332 19.1638 21.5332H9.99958C9.70503 21.5332 9.46625 21.2944 9.46625 20.9999C9.46625 20.7053 9.70503 20.4665 9.99958 20.4665H19.1638C20.0497 20.4665 20.7995 19.7001 20.7995 18.7499V15.6665C20.7995 15.372 21.0383 15.1332 21.3329 15.1332C21.6274 15.1332 21.8662 15.372 21.8662 15.6665V18.7499Z" fill="#8A8A91"/>
</svg>
