<svg width="22" height="20" viewBox="0 0 22 20" fill="none" xmlns="http://www.w3.org/2000/svg">
<path fill-rule="evenodd" clip-rule="evenodd" d="M0.200439 1.3C0.200439 0.858172 0.558612 0.5 1.00044 0.5H4.00044H18.0004H21.0004C21.4423 0.5 21.8004 0.858172 21.8004 1.3C21.8004 1.74183 21.4423 2.1 21.0004 2.1H19.7895C19.7967 2.16567 19.8004 2.2324 19.8004 2.3V12.3C19.8004 13.2941 18.9946 14.1 18.0004 14.1H11.8005V18.0002H15.0005C15.4423 18.0002 15.8005 18.3584 15.8005 18.8002C15.8005 19.242 15.4423 19.6002 15.0005 19.6002H7.00045C6.55862 19.6002 6.20045 19.242 6.20045 18.8002C6.20045 18.3584 6.55862 18.0002 7.00045 18.0002H10.2005V14.1H4.00044C3.00633 14.1 2.20044 13.2941 2.20044 12.3V2.3C2.20044 2.2324 2.20417 2.16567 2.21143 2.1H1.00044C0.558612 2.1 0.200439 1.74183 0.200439 1.3ZM4.00044 2.1H18.0004C18.1109 2.1 18.2004 2.18954 18.2004 2.3V12.3C18.2004 12.4105 18.1109 12.5 18.0004 12.5H4.00044C3.88998 12.5 3.80044 12.4105 3.80044 12.3V2.3C3.80044 2.18954 3.88998 2.1 4.00044 2.1ZM15.0661 6.36588C15.3786 6.05346 15.3786 5.54693 15.0661 5.23451C14.7537 4.92209 14.2472 4.92209 13.9348 5.23451L12.0005 7.16883L10.5661 5.73451C10.2537 5.42209 9.74719 5.42209 9.43477 5.73451L6.93477 8.23451C6.62235 8.54693 6.62235 9.05346 6.93477 9.36588C7.24719 9.6783 7.75372 9.6783 8.06614 9.36588L10.0005 7.43157L11.4348 8.86588C11.7472 9.1783 12.2537 9.1783 12.5661 8.86588L15.0661 6.36588Z" fill="#171719"/>
</svg>
