<svg width="24" height="24" viewBox="0 0 24 24" fill="none" xmlns="http://www.w3.org/2000/svg">
<g clip-path="url(#clip0_1375_8265)">
<path fill-rule="evenodd" clip-rule="evenodd" d="M12.125 22C17.6478 22 22.125 17.5228 22.125 12C22.125 6.47715 17.6478 2 12.125 2C6.60215 2 2.125 6.47715 2.125 12C2.125 17.5228 6.60215 22 12.125 22ZM17.2068 9.611C17.544 9.27129 17.542 8.72255 17.2023 8.38536C16.8626 8.04816 16.3138 8.0502 15.9766 8.38991L10.6362 13.7702L8.27351 11.3899C7.93632 11.0502 7.38758 11.0482 7.04787 11.3854C6.70816 11.7226 6.70612 12.2713 7.04331 12.611L10.0211 15.611C10.1838 15.7749 10.4052 15.8671 10.6362 15.8671C10.8672 15.8671 11.0886 15.7749 11.2513 15.611L17.2068 9.611Z" fill="#171719"/>
</g>
<defs>
<clipPath id="clip0_1375_8265">
<rect width="24.0001" height="24" fill="white" transform="translate(0.000244141)"/>
</clipPath>
</defs>
</svg>
