<svg width="24" height="24" viewBox="0 0 24 24" fill="none" xmlns="http://www.w3.org/2000/svg">
<g clip-path="url(#clip0_1378_8265)">
<path fill-rule="evenodd" clip-rule="evenodd" d="M20.5252 12C20.5252 16.6392 16.7644 20.4 12.1252 20.4C7.48605 20.4 3.72524 16.6392 3.72524 12C3.72524 7.36081 7.48605 3.6 12.1252 3.6C16.7644 3.6 20.5252 7.36081 20.5252 12ZM22.1252 12C22.1252 17.5228 17.6481 22 12.1252 22C6.6024 22 2.12524 17.5228 2.12524 12C2.12524 6.47715 6.6024 2 12.1252 2C17.6481 2 22.1252 6.47715 22.1252 12ZM17.2071 9.611C17.5443 9.27129 17.5422 8.72255 17.2025 8.38536C16.8628 8.04816 16.3141 8.0502 15.9769 8.38991L10.6364 13.7702L8.27376 11.3899C7.93656 11.0502 7.38783 11.0482 7.04812 11.3854C6.70841 11.7226 6.70637 12.2713 7.04356 12.611L10.0213 15.611C10.184 15.7749 10.4055 15.8671 10.6364 15.8671C10.8674 15.8671 11.0888 15.7749 11.2515 15.611L17.2071 9.611Z" fill="#171719"/>
</g>
<defs>
<clipPath id="clip0_1378_8265">
<rect width="24.0001" height="24" fill="white" transform="translate(0.000244141)"/>
</clipPath>
</defs>
</svg>
