<svg width="24" height="24" viewBox="0 0 24 24" fill="none" xmlns="http://www.w3.org/2000/svg">
<g clip-path="url(#clip0_1575_10150)">
<path d="M8.94144 20.7992C7.41744 20.7992 5.98144 20.2361 4.89844 19.213C3.81844 18.1929 3.20044 16.777 3.20044 15.3281C3.20044 13.8791 3.81944 12.4623 4.89844 11.4432L12.4634 4.29367C14.0064 2.8357 16.6774 2.8357 18.2204 4.29367C18.9924 5.02415 19.4364 6.03921 19.4364 7.07832C19.4364 8.11743 18.9934 9.13149 18.2204 9.86298L10.6474 17.0125C9.72544 17.8833 8.14144 17.8833 7.22044 17.0125C6.75344 16.5716 6.48644 15.9574 6.48644 15.3281C6.48644 14.6988 6.75444 14.0836 7.22044 13.6437L14.2084 7.04726C14.5294 6.74465 15.0364 6.75867 15.3394 7.08133C15.6434 7.40298 15.6274 7.91101 15.3064 8.21463L8.31744 14.811C8.16844 14.9523 8.08644 15.1357 8.08644 15.3291C8.08644 15.5225 8.16944 15.7058 8.31844 15.8481C8.63644 16.1477 9.23044 16.1487 9.55044 15.8481L17.1224 8.69861C17.5824 8.26373 17.8364 7.68856 17.8364 7.08033C17.8364 6.47209 17.5824 5.89692 17.1224 5.46204C16.1884 4.58125 14.4954 4.57925 13.5604 5.46204L5.99644 12.6106C5.22544 13.339 4.80044 14.305 4.80044 15.3291C4.80044 16.3532 5.22544 17.3181 5.99644 18.0476C6.76944 18.7781 7.84344 19.1969 8.94144 19.1969C10.0394 19.1969 11.1134 18.7781 11.8864 18.0476L19.4504 10.8991C19.7704 10.5955 20.2784 10.6095 20.5814 10.9322C20.8844 11.2538 20.8694 11.7618 20.5484 12.0655L12.9844 19.214C11.9014 20.2371 10.4654 20.7992 8.94144 20.7992Z" fill="black"/>
</g>
<defs>
<clipPath id="clip0_1575_10150">
<rect width="24.0001" height="24" fill="white" transform="translate(0.000488281)"/>
</clipPath>
</defs>
</svg>
