<svg width="16" height="20" viewBox="0 0 16 20" fill="none" xmlns="http://www.w3.org/2000/svg">
<path fill-rule="evenodd" clip-rule="evenodd" d="M5.48038 0.59092L14.2004 0.59082C15.1945 0.590809 16.0004 1.3967 16.0004 2.39082V11.1109C16.0004 11.5527 15.6422 11.9109 15.2004 11.9109C14.7586 11.9109 14.4004 11.5527 14.4004 11.1109V2.39082C14.4004 2.28036 14.3108 2.19082 14.2004 2.19082L5.4804 2.19092C5.03857 2.19093 4.6804 1.83276 4.68039 1.39093C4.68039 0.949102 5.03855 0.590925 5.48038 0.59092ZM0.000488281 5.61054C0.000488281 4.61642 0.806375 3.81054 1.80049 3.81054H10.8005C11.7946 3.81054 12.6005 4.61642 12.6005 5.61054V17.6105C12.6005 18.6046 11.7946 19.4105 10.8005 19.4105H1.80049C0.806375 19.4105 0.000488281 18.6046 0.000488281 17.6105V5.61054ZM1.80049 5.41054C1.69003 5.41054 1.60049 5.50008 1.60049 5.61054V17.6105C1.60049 17.721 1.69003 17.8105 1.80049 17.8105H10.8005C10.9109 17.8105 11.0005 17.721 11.0005 17.6105V5.61054C11.0005 5.50008 10.9109 5.41054 10.8005 5.41054H1.80049Z" fill="#171719"/>
</svg>
