<svg width="20" height="20" viewBox="0 0 20 20" fill="none" xmlns="http://www.w3.org/2000/svg">
<path fill-rule="evenodd" clip-rule="evenodd" d="M10.0003 1.70059C5.41638 1.70059 1.70034 5.41662 1.70034 10.0006C1.70034 14.5846 5.41638 18.3006 10.0003 18.3006C14.5843 18.3006 18.3003 14.5846 18.3003 10.0006C18.3003 5.41662 14.5843 1.70059 10.0003 1.70059ZM0.100342 10.0006C0.100342 4.53297 4.53272 0.100586 10.0003 0.100586C15.468 0.100586 19.9003 4.53297 19.9003 10.0006C19.9003 15.4682 15.468 19.9006 10.0003 19.9006C4.53272 19.9006 0.100342 15.4682 0.100342 10.0006ZM10.0003 5.58169C10.4422 5.58169 10.8003 5.93986 10.8003 6.38169V10.5615L13.6658 11.5166C14.085 11.6564 14.3115 12.1094 14.1718 12.5286C14.0321 12.9477 13.579 13.1743 13.1599 13.0345L9.74736 11.897C9.42069 11.7881 9.20034 11.4824 9.20034 11.1381V6.38169C9.20034 5.93986 9.55851 5.58169 10.0003 5.58169Z" fill="#171719"/>
</svg>
