<svg width="24" height="24" viewBox="0 0 24 24" fill="none" xmlns="http://www.w3.org/2000/svg">
<g clip-path="url(#clip0_1326_10512)">
<path fill-rule="evenodd" clip-rule="evenodd" d="M18.667 5.3349C18.9794 5.64732 18.9794 6.15385 18.667 6.46627L13.1326 12.0006L18.667 17.5349C18.9794 17.8473 18.9794 18.3539 18.667 18.6663C18.3545 18.9787 17.848 18.9787 17.5356 18.6663L12.0013 13.132L6.46713 18.6661C6.15471 18.9785 5.64817 18.9785 5.33575 18.6661C5.02334 18.3537 5.02334 17.8472 5.33576 17.5347L10.8699 12.0006L5.33576 6.46644C5.02334 6.15402 5.02334 5.64749 5.33576 5.33507C5.64817 5.02265 6.15471 5.02265 6.46713 5.33507L12.0013 10.8692L17.5356 5.3349C17.848 5.02248 18.3545 5.02248 18.667 5.3349Z" fill="#171719"/>
</g>
<defs>
<clipPath id="clip0_1326_10512">
<rect width="24.0001" height="24" fill="white" transform="translate(0.00146484)"/>
</clipPath>
</defs>
</svg>
