<svg width="24" height="24" viewBox="0 0 24 24" fill="none" xmlns="http://www.w3.org/2000/svg">
<g clip-path="url(#clip0_1326_10517)">
<path fill-rule="evenodd" clip-rule="evenodd" d="M18.5208 5.48135C19.0285 5.98904 19.0285 6.81216 18.5208 7.31983L13.84 12.0006L18.5208 16.6813C19.0285 17.189 19.0285 18.0121 18.5208 18.5198C18.0131 19.0275 17.19 19.0275 16.6823 18.5198L12.0015 13.839L7.32079 18.5196C6.81311 19.0273 5.98999 19.0273 5.48232 18.5196C4.97464 18.0119 4.97465 17.1888 5.48233 16.6812L10.163 12.0006L5.48233 7.31998C4.97465 6.81231 4.97464 5.98919 5.48232 5.48151C5.98999 4.97382 6.81311 4.97381 7.32079 5.48149L12.0015 10.1621L16.6823 5.48134C17.19 4.97366 18.0131 4.97367 18.5208 5.48135Z" fill="#171719"/>
</g>
<defs>
<clipPath id="clip0_1326_10517">
<rect width="24.0001" height="24" fill="white" transform="translate(0.00158691)"/>
</clipPath>
</defs>
</svg>
