<svg width="24" height="24" viewBox="0 0 24 24" fill="none" xmlns="http://www.w3.org/2000/svg">
<g clip-path="url(#clip0_320_8968)">
<path fill-rule="evenodd" clip-rule="evenodd" d="M19.767 4.23431C20.0794 4.54673 20.0794 5.05327 19.767 5.36569L13.1326 12.0001L19.767 18.6345C20.0794 18.9469 20.0794 19.4535 19.767 19.7659C19.4546 20.0783 18.9481 20.0783 18.6357 19.7659L12.0012 13.1315L5.36703 19.7657C5.05461 20.0781 4.54808 20.0781 4.23566 19.7657C3.92324 19.4533 3.92324 18.9467 4.23566 18.6343L10.8699 12.0001L4.23566 5.36588C3.92324 5.05346 3.92324 4.54693 4.23566 4.23451C4.54808 3.92209 5.05461 3.92209 5.36703 4.23451L12.0012 10.8687L18.6357 4.23431C18.9481 3.9219 19.4546 3.9219 19.767 4.23431Z" fill="#171719"/>
</g>
<defs>
<clipPath id="clip0_320_8968">
<rect width="24.0001" height="24" fill="white" transform="translate(0.00134277)"/>
</clipPath>
</defs>
</svg>
