<svg width="18" height="20" viewBox="0 0 18 20" fill="none" xmlns="http://www.w3.org/2000/svg">
<path fill-rule="evenodd" clip-rule="evenodd" d="M8.99805 1.53846C7.0371 1.53846 5.16135 2.24887 3.7822 3.50621C2.40391 4.76278 1.63441 6.46192 1.63441 8.22844V9.50581C2.05778 9.32446 2.5259 9.23077 2.99805 9.23077H4.08896C4.84735 9.23077 5.59533 9.4725 6.1642 9.93093C6.73697 10.3925 7.08896 11.0463 7.08896 11.7582V14.3956C7.08896 15.1076 6.73697 15.7613 6.1642 16.2229C5.59533 16.6813 4.84735 16.9231 4.08896 16.9231H2.99805C2.23966 16.9231 1.49167 16.6813 0.922803 16.2229C0.350033 15.7613 -0.00195312 15.1076 -0.00195312 14.3956V11.7582C-0.00195312 11.5998 0.0154714 11.4443 0.0488752 11.2931C0.0160056 11.2098 -0.00195312 11.1197 -0.00195312 11.0256V8.22844C-0.00195312 6.03835 0.952573 3.94293 2.64305 2.40175C4.33268 0.861353 6.61908 0 8.99805 0C11.377 0 13.6634 0.861353 15.353 2.40175C17.0435 3.94293 17.998 6.03835 17.998 8.22844V11.0256C17.998 11.1197 17.9801 11.2098 17.9472 11.2931C17.9806 11.4443 17.998 11.5998 17.998 11.7582V14.3956C17.998 15.1076 17.6461 15.7613 17.0733 16.2229C16.6834 16.5371 16.2094 16.7495 15.7055 16.8521C15.3964 17.8035 14.4789 18.5325 13.4469 19.0176C12.1266 19.6383 10.3597 20 8.45259 20C8.00072 20 7.63441 19.6556 7.63441 19.2308C7.63441 18.8059 8.00072 18.4615 8.45259 18.4615C10.1608 18.4615 11.6666 18.1345 12.7151 17.6416C13.2167 17.4058 13.5658 17.1586 13.797 16.9214C13.0767 16.8991 12.3732 16.6591 11.8319 16.2229C11.2591 15.7613 10.9071 15.1076 10.9071 14.3956V11.7582C10.9071 11.0463 11.2591 10.3925 11.8319 9.93093C12.4008 9.4725 13.1487 9.23077 13.9071 9.23077H14.998C15.4702 9.23077 15.9383 9.32446 16.3617 9.50581V8.22844C16.3617 6.46192 15.5922 4.76278 14.2139 3.50621C12.8347 2.24887 10.959 1.53846 8.99805 1.53846ZM2.99805 10.7692C2.59913 10.7692 2.2372 10.898 1.98773 11.099C1.74216 11.2969 1.63441 11.5376 1.63441 11.7582V14.3956C1.63441 14.6163 1.74216 14.8569 1.98773 15.0548C2.2372 15.2559 2.59913 15.3846 2.99805 15.3846H4.08896C4.48787 15.3846 4.8498 15.2559 5.09927 15.0548C5.34484 14.8569 5.45259 14.6163 5.45259 14.3956V11.7582C5.45259 11.5376 5.34484 11.2969 5.09927 11.099C4.8498 10.898 4.48787 10.7692 4.08896 10.7692H2.99805ZM13.9071 10.7692C13.5082 10.7692 13.1463 10.898 12.8968 11.099C12.6513 11.2969 12.5435 11.5376 12.5435 11.7582V14.3956C12.5435 14.6163 12.6513 14.8569 12.8968 15.0548C13.1463 15.2559 13.5082 15.3846 13.9071 15.3846H14.998C15.397 15.3846 15.7589 15.2559 16.0084 15.0548C16.2539 14.8569 16.3617 14.6163 16.3617 14.3956V11.7582C16.3617 11.5376 16.2539 11.2969 16.0084 11.099C15.7589 10.898 15.397 10.7692 14.998 10.7692H13.9071Z" fill="black"/>
</svg>
