<svg width="22" height="16" viewBox="0 0 22 16" fill="none" xmlns="http://www.w3.org/2000/svg">
<path fill-rule="evenodd" clip-rule="evenodd" d="M3.53667 0.40652C3.20879 0.110369 2.70291 0.136091 2.40676 0.463973C2.11061 0.791854 2.13633 1.29773 2.46421 1.59388L17.9642 15.5939C18.2921 15.89 18.798 15.8643 19.0941 15.5364C19.3903 15.2085 19.3645 14.7027 19.0367 14.4065L3.53667 0.40652ZM10.9824 0.200202C9.92949 0.200202 8.87448 0.383314 7.83852 0.744884C7.42137 0.890477 7.20123 1.34667 7.34682 1.76382C7.49241 2.18097 7.94861 2.40111 8.36576 2.25552C9.23992 1.95042 10.117 1.8002 10.9824 1.8002C14.7056 1.8002 18.1061 4.47179 20.1947 7.9834C20.1948 7.98369 20.1956 7.98524 20.1964 7.98815C20.1973 7.99159 20.198 7.99597 20.198 8.00093C20.198 8.00367 20.1978 8.00624 20.1975 8.00857C20.1972 8.01045 20.1968 8.01217 20.1964 8.01371C20.1955 8.01696 20.1946 8.01851 20.1946 8.01851L20.1933 8.02085C19.6542 8.94007 19.0232 9.80461 18.3168 10.5791C18.2048 10.7019 18.091 10.8223 17.9754 10.9404C17.6662 11.256 17.6714 11.7625 17.987 12.0717C18.3026 12.3809 18.8091 12.3757 19.1183 12.06C19.2474 11.9283 19.3743 11.794 19.4989 11.6573C20.284 10.7965 20.9803 9.84146 21.5728 8.83137C21.7218 8.57872 21.798 8.29068 21.798 8.00093C21.798 7.71072 21.7216 7.42221 21.5721 7.16926L21.571 7.16746C19.3239 3.38827 15.4851 0.200202 10.9824 0.200202ZM3.59653 5.62447C3.89105 5.29513 3.86282 4.78938 3.53348 4.49486C3.20413 4.20034 2.69839 4.22857 2.40386 4.55791C1.71941 5.32329 1.06596 6.18691 0.450757 7.14719L0.450749 7.14718L0.448626 7.15053C0.287138 7.40537 0.202309 7.70002 0.198158 7.9975C0.194018 8.29424 0.270189 8.59018 0.423161 8.84884C2.66277 12.6656 6.40363 15.8002 10.9824 15.8002C12.1231 15.8002 13.2223 15.5996 14.2627 15.2381C14.6801 15.0931 14.9009 14.6372 14.7559 14.2199C14.6109 13.8025 14.155 13.5817 13.7376 13.7267C12.8552 14.0333 11.9332 14.2002 10.9824 14.2002C7.18184 14.2002 3.88051 11.5801 1.80234 8.03775L1.80235 8.03775L1.80046 8.03456C1.80036 8.03435 1.79984 8.03323 1.79929 8.03115C1.79851 8.02817 1.79794 8.02427 1.798 8.01982C1.79806 8.01538 1.79874 8.01165 1.79952 8.00899L1.80038 8.00657C2.37248 7.11398 2.97412 6.32047 3.59653 5.62447ZM10.8197 4.14759C10.5176 4.15846 10.2178 4.20328 9.92578 4.2812C9.91102 4.28484 9.89752 4.2924 9.88672 4.3031C9.87592 4.3138 9.86822 4.32723 9.86445 4.34195C9.86067 4.35668 9.86095 4.37216 9.86527 4.38674C9.86959 4.40131 9.87778 4.41445 9.88897 4.42474L14.7906 8.9809C14.8017 8.99131 14.8154 8.99852 14.8302 9.00176C14.8451 9.00501 14.8605 9.00416 14.8749 8.99932C14.8894 8.99448 14.9022 8.98582 14.9121 8.97426C14.9219 8.96271 14.9285 8.94869 14.931 8.9337C15.0441 8.3381 15.0216 7.72468 14.8651 7.13899C14.7087 6.5533 14.4223 6.01038 14.0273 5.55057C13.6323 5.09075 13.1388 4.72585 12.5835 4.48297C12.0282 4.24008 11.4253 4.12545 10.8197 4.14759ZM7.20526 7.32056C7.22011 7.3238 7.23379 7.33101 7.24487 7.34141L12.1458 11.8969C12.157 11.9072 12.1652 11.9203 12.1695 11.9349C12.1738 11.9495 12.1741 11.9649 12.1703 11.9797C12.1666 11.9944 12.1589 12.0078 12.1481 12.0185C12.1373 12.0292 12.1238 12.0367 12.109 12.0404C11.4494 12.2169 10.7558 12.2231 10.0931 12.0584C9.43046 11.8936 8.82048 11.5633 8.32034 11.0984C7.8202 10.6336 7.44628 10.0493 7.23363 9.40043C7.02097 8.75156 6.97654 8.05932 7.10449 7.38858C7.10704 7.3736 7.1136 7.35959 7.12347 7.34804C7.13334 7.3365 7.14617 7.32784 7.16057 7.323C7.17497 7.31816 7.19042 7.31732 7.20526 7.32056Z" fill="#171719"/>
</svg>
