<svg width="16" height="16" viewBox="0 0 16 16" fill="none" xmlns="http://www.w3.org/2000/svg">
<path fill-rule="evenodd" clip-rule="evenodd" d="M13.1774 2.82271C13.3857 3.03099 13.3857 3.36868 13.1774 3.57696L8.75449 7.9999L13.1774 12.4228C13.3857 12.6311 13.3857 12.9688 13.1774 13.1771C12.9691 13.3854 12.6315 13.3854 12.4232 13.1771L8.00025 8.75415L3.57745 13.177C3.36917 13.3852 3.03148 13.3852 2.8232 13.177C2.61492 12.9687 2.61492 12.631 2.8232 12.4227L7.246 7.9999L2.8232 3.57709C2.61492 3.36881 2.61492 3.03112 2.8232 2.82284C3.03148 2.61456 3.36917 2.61456 3.57745 2.82284L8.00025 7.24566L12.4232 2.82271C12.6315 2.61443 12.9691 2.61443 13.1774 2.82271Z" fill="#8A8A91"/>
</svg>
