<svg width="32" height="32" viewBox="0 0 32 32" fill="none" xmlns="http://www.w3.org/2000/svg">
<rect width="32" height="32" rx="16" fill="#212125"/>
<path fill-rule="evenodd" clip-rule="evenodd" d="M21.1774 10.8227C21.3857 11.031 21.3857 11.3687 21.1774 11.577L16.7545 15.9999L21.1774 20.4228C21.3857 20.6311 21.3857 20.9688 21.1774 21.1771C20.9691 21.3854 20.6315 21.3854 20.4232 21.1771L16.0002 16.7541L11.5774 21.177C11.3692 21.3852 11.0315 21.3852 10.8232 21.177C10.6149 20.9687 10.6149 20.631 10.8232 20.4227L15.246 15.9999L10.8232 11.5771C10.6149 11.3688 10.6149 11.0311 10.8232 10.8228C11.0315 10.6146 11.3692 10.6146 11.5774 10.8228L16.0002 15.2457L20.4232 10.8227C20.6315 10.6144 20.9691 10.6144 21.1774 10.8227Z" fill="#8A8A91"/>
</svg>
