<svg width="24" height="24" viewBox="0 0 24 24" fill="none" xmlns="http://www.w3.org/2000/svg">
<mask id="mask0_5876_25100" style="mask-type:alpha" maskUnits="userSpaceOnUse" x="0" y="0" width="25" height="24">
<path fill-rule="evenodd" clip-rule="evenodd" d="M11.9821 4.19922C8.14197 4.19922 4.35231 6.61657 1.45039 11.1462L1.45038 11.1462L1.44826 11.1496C1.28677 11.4044 1.20194 11.699 1.19779 11.9965C1.19365 12.2932 1.26981 12.5892 1.42276 12.8478C3.66236 16.6645 7.40324 19.7992 11.9821 19.7992C16.5131 19.7992 20.3271 16.6585 22.5724 12.8304C22.7214 12.5777 22.7976 12.2897 22.7976 11.9999C22.7976 11.7097 22.7212 11.4212 22.5717 11.1683L22.5706 11.1665C20.3236 7.38729 16.4847 4.19922 11.9821 4.19922ZM2.79916 12.008L2.80001 12.0056C5.51707 7.76641 8.86446 5.79922 11.9821 5.79922C15.7052 5.79922 19.1057 8.4708 21.1943 11.9824C21.1944 11.9826 21.1947 11.9832 21.1951 11.9844C21.1954 11.9851 21.1957 11.986 21.196 11.9872C21.197 11.9906 21.1976 11.995 21.1976 11.9999C21.1976 12.0049 21.197 12.0093 21.196 12.0127C21.1951 12.0162 21.1942 12.0177 21.1943 12.0175L21.1929 12.0199C19.1125 15.5675 15.7396 18.1992 11.9821 18.1992C8.18147 18.1992 4.88014 15.5791 2.80198 12.0368L2.80198 12.0368L2.80011 12.0336L2.80009 12.0336C2.79999 12.0334 2.79948 12.0323 2.79893 12.0302C2.79815 12.0272 2.79757 12.0233 2.79764 12.0188C2.7977 12.0144 2.79837 12.0107 2.79916 12.008ZM9.3 11.999C9.3 10.5079 10.5088 9.29902 12 9.29902C13.4912 9.29902 14.7 10.5079 14.7 11.999C14.7 13.4902 13.4912 14.699 12 14.699C10.5088 14.699 9.3 13.4902 9.3 11.999ZM12 7.69902C9.62518 7.69902 7.7 9.6242 7.7 11.999C7.7 14.3738 9.62518 16.299 12 16.299C14.3748 16.299 16.3 14.3738 16.3 11.999C16.3 9.6242 14.3748 7.69902 12 7.69902Z" fill="#171719"/>
</mask>
<g mask="url(#mask0_5876_25100)">
<rect width="23.9999" height="24" fill="#B1B1B6"/>
</g>
</svg>
