<svg width="22" height="22" viewBox="0 0 22 22" fill="none" xmlns="http://www.w3.org/2000/svg">
<path fill-rule="evenodd" clip-rule="evenodd" d="M0.20044 6.0002C0.20044 2.79694 2.79719 0.200195 6.00044 0.200195H16.0004C19.2037 0.200195 21.8004 2.79694 21.8004 6.0002V6.00027V6.00036V6.00049V6.00065V6.00085V6.00108V6.00135V6.00166V6.002V6.00238V6.00279V6.00324V6.00373V6.00424V6.0048V6.00539V6.00601V6.00667V6.00737V6.0081V6.00886V6.00966V6.01049V6.01136V6.01226V6.0132V6.01417V6.01517V6.01621V6.01729V6.01839V6.01953V6.02071V6.02192V6.02316V6.02443V6.02574V6.02709V6.02846V6.02987V6.03131V6.03279V6.0343V6.03584V6.03741V6.03902V6.04066V6.04233V6.04403V6.04577V6.04754V6.04934V6.05117V6.05304V6.05494V6.05686V6.05883V6.06082V6.06284V6.0649V6.06699V6.06911V6.07126V6.07344V6.07566V6.0779V6.08018V6.08248V6.08482V6.08719V6.08959V6.09202V6.09448V6.09697V6.09949V6.10205V6.10463V6.10724V6.10988V6.11256V6.11526V6.11799V6.12076V6.12355V6.12637V6.12922V6.1321V6.13501V6.13795V6.14092V6.14392V6.14695V6.15V6.15309V6.1562V6.15935V6.16252V6.16572V6.16895V6.17221V6.17549V6.17881V6.18215V6.18552V6.18892V6.19234V6.1958V6.19928V6.20279V6.20633V6.20989V6.21349V6.21711V6.22076V6.22443V6.22813V6.23186V6.23562V6.2394V6.24321V6.24705V6.25091V6.25481V6.25872V6.26267V6.26664V6.27063V6.27465V6.2787V6.28278V6.28688V6.29101V6.29516V6.29934V6.30354V6.30777V6.31203V6.31631V6.32062V6.32495V6.3293V6.33369V6.33809V6.34253V6.34698V6.35146V6.35597V6.3605V6.36506V6.36964V6.37424V6.37887V6.38353V6.3882V6.39291V6.39763V6.40238V6.40716V6.41195V6.41678V6.42162V6.42649V6.43138V6.4363V6.44124V6.4462V6.45118V6.45619V6.46122V6.46628V6.47135V6.47645V6.48158V6.48672V6.49189V6.49708V6.50229V6.50753V6.51278V6.51806V6.52337V6.52869V6.53403V6.5394V6.54479V6.5502V6.55563V6.56109V6.56656V6.57206V6.57758V6.58312V6.58868V6.59426V6.59986V6.60548V6.61113V6.61679V6.62248V6.62818V6.63391V6.63966V6.64542V6.65121V6.65702V6.66284V6.66869V6.67456V6.68045V6.68635V6.69228V6.69823V6.70419V6.71018V6.71618V6.72221V6.72825V6.73431V6.74039V6.7465V6.75261V6.75875V6.76491V6.77109V6.77728V6.78349V6.78972V6.79597V6.80224V6.80853V6.81483V6.82115V6.82749V6.83385V6.84023V6.84662V6.85303V6.85946V6.86591V6.87237V6.87885V6.88535V6.89187V6.8984V6.90495V6.91151V6.9181V6.9247V6.93131V6.93795V6.9446V6.95126V6.95795V6.96465V6.97136V6.97809V6.98484V6.9916V6.99838V7.00518V7.01199V7.01881V7.02566V7.03251V7.03939V7.04628V7.05318V7.0601V7.06703V7.07398V7.08095V7.08792V7.09492V7.10193V7.10895V7.11599V7.12304V7.1301V7.13719V7.14428V7.15139V7.15851V7.16565V7.1728V7.17997V7.18714V7.19434V7.20154V7.20876V7.216V7.22324V7.2305V7.23777V7.24506V7.25236V7.25967V7.267V7.27433V7.28168V7.28905V7.29642V7.30381V7.31121V7.31863V7.32605V7.33349V7.34094V7.3484V7.35587V7.36336V7.37086V7.37836V7.38589V7.39342V7.40096V7.40852V7.41608V7.42366V7.43125V7.43885V7.44646V7.45408V7.46171V7.46936V7.47701V7.48467V7.49235V7.50003V7.50773V7.51544V7.52315V7.53088V7.53862V7.54636V7.55412V7.56189V7.56966V7.57745V7.58524V7.59305V7.60086V7.60868V7.61652V7.62436V7.63221V7.64007V7.64794V7.65582V7.6637V7.6716V7.6795V7.68741V7.69533V7.70326V7.7112V7.71915V7.7271V7.73506V7.74303V7.75101V7.759V7.76699V7.77499V7.783V7.79102V7.79904V7.80707V7.81511V7.82316V7.83121V7.83927V7.84734V7.85541V7.86349V7.87158V7.87967V7.88777V7.89588V7.90399V7.91211V7.92024V7.92837V7.93651V7.94465V7.9528V7.96096V7.96912V7.97729V7.98546V7.99364V8.00182V8.01001V8.0182V8.0264V8.03461V8.04282V8.05103V8.05926V8.06748V8.07571V8.08394V8.09218V8.10043V8.10867V8.11693V8.12518V8.13344V8.14171V8.14998V8.15825V8.16653V8.17481V8.18309V8.19138V8.19967V8.20796V8.21626V8.22456V8.23287V8.24118V8.24949V8.2578V8.26612V8.27444V8.28276V8.29109V8.29941V8.30774V8.31608V8.32441V8.33275V8.34109V8.34943V8.35778V8.36612V8.37447V8.38282V8.39117V8.39952V8.40788V8.41623V8.42459V8.43295V8.44131V8.44967V8.45804V8.4664V8.47476V8.48313V8.4915V8.49986V8.50823V8.5166V8.52497V8.53334V8.54171V8.55008V8.55844V8.56681V8.57518V8.58355V8.59192V8.60029V8.60866V8.61703V8.6254V8.63377V8.64213V8.6505V8.65886V8.66723V8.67559V8.68396V8.69232V8.70068V8.70904V8.71739V8.72575V8.73411V8.74246V8.75081V8.75916V8.76751V8.77585V8.7842V8.79254V8.80088V8.80922V8.81755V8.82589V8.83422V8.84255V8.85087V8.85919V8.86751V8.87583V8.88415V8.89246V8.90077V8.90907V8.91737V8.92567V8.93397V8.94226V8.95055V8.95883V8.96711V8.97539V8.98366V8.99193V9.0002C21.8004 9.44202 21.4423 9.8002 21.0004 9.8002C20.5586 9.8002 20.2004 9.44202 20.2004 9.0002V8.99193V8.98366V8.97539V8.96711V8.95883V8.95055V8.94226V8.93397V8.92567V8.91737V8.90907V8.90077V8.89246V8.88415V8.87583V8.86751V8.85919V8.85087V8.84255V8.83422V8.82589V8.81755V8.80922V8.80088V8.79254V8.7842V8.77585V8.76751V8.75916V8.75081V8.74246V8.73411V8.72575V8.71739V8.70904V8.70068V8.69232V8.68396V8.67559V8.66723V8.65886V8.6505V8.64213V8.63377V8.6254V8.61703V8.60866V8.60029V8.59192V8.58355V8.57518V8.56681V8.55844V8.55008V8.54171V8.53334V8.52497V8.5166V8.50823V8.49986V8.4915V8.48313V8.47476V8.4664V8.45804V8.44967V8.44131V8.43295V8.42459V8.41623V8.40788V8.39952V8.39117V8.38282V8.37447V8.36612V8.35778V8.34943V8.34109V8.33275V8.32441V8.31608V8.30774V8.29941V8.29109V8.28276V8.27444V8.26612V8.2578V8.24949V8.24118V8.23287V8.22456V8.21626V8.20796V8.19967V8.19138V8.18309V8.17481V8.16653V8.15825V8.14998V8.14171V8.13344V8.12518V8.11693V8.10867V8.10043V8.09218V8.08394V8.07571V8.06748V8.05926V8.05103V8.04282V8.03461V8.0264V8.0182V8.01001V8.00182V7.99364V7.98546V7.97729V7.96912V7.96096V7.9528V7.94465V7.93651V7.92837V7.92024V7.91211V7.90399V7.89588V7.88777V7.87967V7.87158V7.86349V7.85541V7.84734V7.83927V7.83121V7.82316V7.81511V7.80707V7.79904V7.79102V7.783V7.77499V7.76699V7.759V7.75101V7.74303V7.73506V7.7271V7.71915V7.7112V7.70326V7.69533V7.68741V7.6795V7.6716V7.6637V7.65582V7.64794V7.64007V7.63221V7.62436V7.61652V7.60868V7.60086V7.59305V7.58524V7.57745V7.56966V7.56189V7.55412V7.54636V7.53862V7.53088V7.52315V7.51544V7.50773V7.50003V7.49235V7.48467V7.47701V7.46936V7.46171V7.45408V7.44646V7.43885V7.43125V7.42366V7.41608V7.40852V7.40096V7.39342V7.38589V7.37836V7.37086V7.36336V7.35587V7.3484V7.34094V7.33349V7.32605V7.31863V7.31121V7.30381V7.29642V7.28905V7.28168V7.27433V7.267V7.25967V7.25236V7.24506V7.23777V7.2305V7.22324V7.216V7.20876V7.20154V7.19434V7.18714V7.17997V7.1728V7.16565V7.15851V7.15139V7.14428V7.13719V7.1301V7.12304V7.11599V7.10895V7.10193V7.09492V7.08792V7.08095V7.07398V7.06703V7.0601V7.05318V7.04628V7.03939V7.03251V7.02566V7.01881V7.01199V7.00518V6.99838V6.9916V6.98484V6.97809V6.97136V6.96465V6.95795V6.95126V6.9446V6.93795V6.93131V6.9247V6.9181V6.91151V6.90495V6.8984V6.89187V6.88535V6.87885V6.87237V6.86591V6.85946V6.85303V6.84662V6.84023V6.83385V6.82749V6.82115V6.81483V6.80853V6.80224V6.79597V6.78972V6.78349V6.77728V6.77109V6.76491V6.75875V6.75261V6.7465V6.74039V6.73431V6.72825V6.72221V6.71618V6.71018V6.70419V6.69823V6.69228V6.68635V6.68045V6.67456V6.66869V6.66284V6.65702V6.65121V6.64542V6.63966V6.63391V6.62818V6.62248V6.61679V6.61113V6.60548V6.59986V6.59426V6.58868V6.58312V6.57758V6.57206V6.56656V6.56109V6.55563V6.5502V6.54479V6.5394V6.53403V6.52869V6.52337V6.51806V6.51278V6.50753V6.50229V6.49708V6.49189V6.48672V6.48158V6.47645V6.47135V6.46628V6.46122V6.45619V6.45118V6.4462V6.44124V6.4363V6.43138V6.42649V6.42162V6.41678V6.41195V6.40716V6.40238V6.39763V6.39291V6.3882V6.38353V6.37887V6.37424V6.36964V6.36506V6.3605V6.35597V6.35146V6.34698V6.34253V6.33809V6.33369V6.3293V6.32495V6.32062V6.31631V6.31203V6.30777V6.30354V6.29934V6.29516V6.29101V6.28688V6.28278V6.2787V6.27465V6.27063V6.26664V6.26267V6.25872V6.25481V6.25091V6.24705V6.24321V6.2394V6.23562V6.23186V6.22813V6.22443V6.22076V6.21711V6.21349V6.20989V6.20633V6.20279V6.19928V6.1958V6.19234V6.18892V6.18552V6.18215V6.17881V6.17549V6.17221V6.16895V6.16572V6.16252V6.15935V6.1562V6.15309V6.15V6.14695V6.14392V6.14092V6.13795V6.13501V6.1321V6.12922V6.12637V6.12355V6.12076V6.11799V6.11526V6.11256V6.10988V6.10724V6.10463V6.10205V6.09949V6.09697V6.09448V6.09202V6.08959V6.08719V6.08482V6.08248V6.08018V6.0779V6.07566V6.07344V6.07126V6.06911V6.06699V6.0649V6.06284V6.06082V6.05883V6.05686V6.05494V6.05304V6.05117V6.04934V6.04754V6.04577V6.04403V6.04233V6.04066V6.03902V6.03741V6.03584V6.0343V6.03279V6.03131V6.02987V6.02846V6.02709V6.02574V6.02443V6.02316V6.02192V6.02071V6.01953V6.01839V6.01729V6.01621V6.01517V6.01417V6.0132V6.01226V6.01136V6.01049V6.00966V6.00886V6.0081V6.00737V6.00667V6.00601V6.00539V6.0048V6.00424V6.00373V6.00324V6.00279V6.00238V6.002V6.00166V6.00135V6.00108V6.00085V6.00065V6.00049V6.00036V6.00027V6.0002C20.2004 3.6806 18.32 1.8002 16.0004 1.8002H6.00044C3.68084 1.8002 1.80044 3.6806 1.80044 6.0002V9.0002C1.80044 9.44202 1.44227 9.8002 1.00044 9.8002C0.558612 9.8002 0.20044 9.44202 0.20044 9.0002V6.0002ZM1.00029 12.2002C1.44211 12.2002 1.8003 12.5583 1.80032 13.0002L1.80044 16.0002L1.00044 16.0002H1.80044C1.80044 18.3198 3.68084 20.2002 6.00044 20.2002H16.0004C18.32 20.2002 20.2004 18.3198 20.2004 16.0002V13.0002C20.2004 12.5584 20.5586 12.2002 21.0004 12.2002C21.4423 12.2002 21.8004 12.5584 21.8004 13.0002V16.0002C21.8004 19.2034 19.2037 21.8002 16.0004 21.8002H6.00044C2.7972 21.8002 0.200457 19.2035 0.20044 16.0002V16.0002L0.200317 13.0002C0.2003 12.5584 0.558457 12.2002 1.00029 12.2002ZM11.0004 13.4C12.3258 13.4 13.4004 12.3255 13.4004 11C13.4004 9.67452 12.3258 8.6 11.0004 8.6C9.67488 8.6 8.60037 9.67452 8.60037 11C8.60037 12.3255 9.67488 13.4 11.0004 13.4ZM11.0004 15C13.2095 15 15.0004 13.2091 15.0004 11C15.0004 8.79086 13.2095 7 11.0004 7C8.79123 7 7.00037 8.79086 7.00037 11C7.00037 13.2091 8.79123 15 11.0004 15ZM16.3362 4.92124L14.7653 6.49219L16.3362 8.06314L17.9072 6.49219L16.3362 4.92124Z" fill="#171719"/>
</svg>
