<svg width="20" height="20" viewBox="0 0 20 20" fill="none" xmlns="http://www.w3.org/2000/svg">
<path fill-rule="evenodd" clip-rule="evenodd" d="M1.83567 8.49982C1.74678 8.98658 1.70034 9.48816 1.70034 10.0006C1.70034 10.7127 1.79002 11.4038 1.95869 12.0634C2.01492 12.0509 2.07337 12.0442 2.13337 12.0442H5.31604C5.25234 11.3834 5.21909 10.6995 5.21909 10.0006C5.21909 9.50023 5.23613 9.00758 5.26918 8.52559H2.03784C1.968 8.52559 1.90025 8.51664 1.83567 8.49982ZM2.28859 6.92559H5.44275C5.65077 5.54053 5.99699 4.28586 6.45225 3.24526C6.60103 2.90518 6.7638 2.58262 6.9405 2.2828C4.82276 3.12313 3.13296 4.80989 2.28859 6.92559ZM10.0003 0.100586C4.53272 0.100586 0.100342 4.53297 0.100342 10.0006C0.100342 15.4682 4.53272 19.9006 10.0003 19.9006C15.468 19.9006 19.9003 15.4682 19.9003 10.0006C19.9003 4.53297 15.468 0.100586 10.0003 0.100586ZM10.0003 1.70059C9.71534 1.70059 9.38076 1.82924 9.00671 2.19087C8.62881 2.55621 8.25194 3.1235 7.9181 3.88657C7.55061 4.72654 7.25432 5.76015 7.0624 6.92559H12.9383C12.7464 5.76015 12.4501 4.72654 12.0826 3.88657C11.7487 3.1235 11.3719 2.55621 10.994 2.19087C10.6199 1.82924 10.2853 1.70059 10.0003 1.70059ZM14.5579 6.92559C14.3499 5.54053 14.0037 4.28586 13.5484 3.24526C13.3997 2.90518 13.2369 2.58262 13.0602 2.2828C15.1779 3.12313 16.8677 4.80989 17.7121 6.92559H14.5579ZM13.1275 8.52559H6.87323C6.83773 9.00349 6.81909 9.49626 6.81909 10.0006C6.81909 10.7076 6.85571 11.3918 6.92407 12.0442H13.0766C13.145 11.3918 13.1816 10.7076 13.1816 10.0006C13.1816 9.49626 13.163 9.00349 13.1275 8.52559ZM14.6846 12.0442C14.7483 11.3834 14.7816 10.6995 14.7816 10.0006C14.7816 9.50023 14.7646 9.00758 14.7315 8.52559H17.9628C18.0327 8.52559 18.1004 8.51663 18.165 8.49982C18.2539 8.98658 18.3003 9.48816 18.3003 10.0006C18.3003 10.7058 18.2124 11.3905 18.0469 12.0442H14.6846ZM12.8343 13.6442H7.16634C7.35455 14.5785 7.61156 15.4139 7.9181 16.1146C8.25194 16.8777 8.62881 17.445 9.00671 17.8103C9.38076 18.1719 9.71534 18.3006 10.0003 18.3006C10.2853 18.3006 10.6199 18.1719 10.994 17.8103C11.3719 17.445 11.7487 16.8777 12.0826 16.1146C12.3891 15.4139 12.6461 14.5785 12.8343 13.6442ZM13.0602 17.7184C13.2369 17.4186 13.3997 17.096 13.5484 16.7559C13.9405 15.8597 14.2518 14.8046 14.4635 13.6442H17.4599C16.5555 15.4923 14.9845 16.9548 13.0602 17.7184ZM6.94051 17.7184C6.7638 17.4186 6.60103 17.096 6.45225 16.7559C6.06014 15.8597 5.74892 14.8046 5.53722 13.6442H2.54079C3.4452 15.4923 5.01618 16.9548 6.94051 17.7184Z" fill="#171719"/>
</svg>
