<svg width="54" height="54" viewBox="0 0 54 54" fill="none" xmlns="http://www.w3.org/2000/svg">
<rect width="54" height="54" rx="27" fill="#2CBE50"/>
<rect x="1" y="1" width="52" height="52" rx="26" stroke="black" stroke-opacity="0.2" stroke-width="2"/>
<path d="M32.0062 30.8442C31.9316 32.0234 33.3428 32.8891 34.2318 33.3783C35.3508 33.9868 36.619 34.1122 37.8561 33.9115C39.0932 33.7108 40.2495 33.14 41.2939 32.4562C41.7664 32.1426 42.3756 31.8039 42.7611 31.3836C43.1714 30.932 43.0532 30.1542 42.4067 30.0162C41.6296 29.8468 41.2939 31.0575 42.0772 31.2268L42.1643 31.2456L41.7913 30.9571C41.8596 30.5933 41.8037 30.5117 41.6234 30.6999C41.5364 30.7689 41.4431 30.8316 41.3561 30.9006C41.1758 31.0324 40.9893 31.1578 40.8028 31.2833C40.4795 31.5028 40.1438 31.7098 39.8019 31.8917C39.0435 32.3057 38.2167 32.6256 37.3588 32.7197C36.5009 32.8138 35.6741 32.7197 34.9281 32.3308C34.5675 32.1426 34.2318 31.9043 33.9023 31.6596C33.6412 31.4589 33.2247 31.2143 33.2433 30.8442C33.2931 30.035 32.0497 30.0413 32 30.8442H32.0062Z" fill="#231916"/>
<path d="M31.0199 20.6844C30.9411 21.9635 31.0987 23.2495 31.4534 24.4944C31.5558 24.8433 32.0209 25.0827 32.4228 24.9732C32.8248 24.8638 33.0849 24.5013 32.9745 24.1319C32.8878 23.8446 32.8169 23.5505 32.7538 23.2563C32.7381 23.1879 32.7302 23.1195 32.7144 23.0511C32.7066 23.0033 32.6987 22.9622 32.6908 22.9143C32.675 22.8391 32.675 22.8254 32.6829 22.8665C32.6829 22.9143 32.6829 22.8938 32.6829 22.8186C32.6829 22.7707 32.6672 22.7296 32.6672 22.6818C32.6593 22.6134 32.6514 22.545 32.6435 22.4766C32.5805 21.8815 32.5647 21.2795 32.6041 20.6844C32.6277 20.3287 32.2258 19.9867 31.8159 20.0004C31.3667 20.0209 31.0514 20.3014 31.0278 20.6844H31.0199Z" fill="#231916"/>
<path d="M31.0199 20.6844C30.9411 21.9635 31.0987 23.2495 31.4534 24.4944C31.5558 24.8433 32.0209 25.0827 32.4228 24.9732C32.8248 24.8638 33.0849 24.5013 32.9745 24.1319C32.8878 23.8446 32.8169 23.5505 32.7538 23.2563C32.7381 23.1879 32.7302 23.1195 32.7144 23.0511C32.7066 23.0033 32.6987 22.9622 32.6908 22.9143C32.675 22.8391 32.675 22.8254 32.6829 22.8665C32.6829 22.9143 32.6829 22.8938 32.6829 22.8186C32.6829 22.7707 32.6672 22.7296 32.6672 22.6818C32.6593 22.6134 32.6514 22.545 32.6435 22.4766C32.5805 21.8815 32.5647 21.2795 32.6041 20.6844C32.6277 20.3287 32.2258 19.9867 31.8159 20.0004C31.3667 20.0209 31.0514 20.3014 31.0278 20.6844H31.0199Z" fill="#231916"/>
<path d="M41.0587 19.6732C40.9022 20.9582 41.0587 22.2769 41.5282 23.5013C41.6549 23.831 42.0425 24.0867 42.445 23.9723C42.8102 23.8646 43.1008 23.5013 42.9667 23.1448C42.8549 22.8487 42.758 22.546 42.6835 22.2365C42.6537 22.1019 42.6238 21.9741 42.594 21.8395C42.5791 21.7521 42.5642 21.6646 42.5493 21.5704C42.5642 21.6848 42.5493 21.5032 42.5419 21.483C42.4748 20.8775 42.4748 20.272 42.5493 19.6732C42.594 19.3233 42.1767 18.9869 41.804 19.0004C41.3643 19.0206 41.1034 19.2964 41.0587 19.6732Z" fill="#231916"/>
</svg>
