<svg width="18" height="20" viewBox="0 0 18 20" fill="none" xmlns="http://www.w3.org/2000/svg">
<path fill-rule="evenodd" clip-rule="evenodd" d="M8.50549 0.371686C8.79584 0.143032 9.20504 0.143032 9.49539 0.371686L17.4954 6.67169C17.688 6.82338 17.8004 7.05502 17.8004 7.3002V17.2002C17.8004 17.8866 17.5312 18.5468 17.0489 19.0351C16.5663 19.5238 15.9096 19.8002 15.2227 19.8002H2.77822C2.09132 19.8002 1.43459 19.5238 0.95195 19.0351C0.469642 18.5468 0.200439 17.8866 0.200439 17.2002V7.3002C0.200439 7.05502 0.312867 6.82338 0.505489 6.67169L8.50549 0.371686ZM1.80044 7.68848V17.2002C1.80044 17.4686 1.90584 17.724 2.09033 17.9108C2.27448 18.0973 2.52212 18.2002 2.77822 18.2002H15.2227C15.4788 18.2002 15.7264 18.0973 15.9106 17.9108C16.095 17.724 16.2004 17.4686 16.2004 17.2002V7.68848L9.00044 2.01848L1.80044 7.68848Z" fill="#171719"/>
<path fill-rule="evenodd" clip-rule="evenodd" d="M9.00046 12.4008C9.44229 12.4008 9.80046 12.759 9.80046 13.2008V18.2008C9.80046 18.6426 9.44229 19.0008 9.00046 19.0008C8.55864 19.0008 8.20046 18.6426 8.20046 18.2008V13.2008C8.20046 12.759 8.55864 12.4008 9.00046 12.4008Z" fill="#171719"/>
</svg>
