<svg width="20" height="20" viewBox="0 0 20 20" fill="none" xmlns="http://www.w3.org/2000/svg">
<path fill-rule="evenodd" clip-rule="evenodd" d="M10.0011 1.70059C5.41717 1.70059 1.70114 5.41662 1.70114 10.0006C1.70114 14.5846 5.41717 18.3006 10.0011 18.3006C14.5851 18.3006 18.3011 14.5846 18.3011 10.0006C18.3011 5.41662 14.5851 1.70059 10.0011 1.70059ZM0.101135 10.0006C0.101135 4.53297 4.53352 0.100586 10.0011 0.100586C15.4688 0.100586 19.9011 4.53297 19.9011 10.0006C19.9011 15.4682 15.4688 19.9006 10.0011 19.9006C4.53352 19.9006 0.101135 15.4682 0.101135 10.0006ZM10.0011 4.65059C10.443 4.65059 10.8011 5.00876 10.8011 5.45059V10.0006C10.8011 10.4424 10.443 10.8006 10.0011 10.8006C9.55931 10.8006 9.20114 10.4424 9.20114 10.0006V5.45059C9.20114 5.00876 9.55931 4.65059 10.0011 4.65059ZM10.0011 12.5731C10.443 12.5731 10.8011 12.9313 10.8011 13.3731V13.4131C10.8011 13.8549 10.443 14.2131 10.0011 14.2131C9.55931 14.2131 9.20114 13.8549 9.20114 13.4131V13.3731C9.20114 12.9313 9.55931 12.5731 10.0011 12.5731Z" fill="#171719"/>
</svg>
