<svg width="24" height="24" viewBox="0 0 24 24" fill="none" xmlns="http://www.w3.org/2000/svg">
<g clip-path="url(#clip0_1295_8039)">
<g clip-path="url(#clip1_1295_8039)">
<path fill-rule="evenodd" clip-rule="evenodd" d="M6.99878 5C3.13279 5 -0.0012207 8.13401 -0.0012207 12C-0.0012207 15.866 3.13279 19 6.99878 19H16.9988C20.8648 19 23.9988 15.866 23.9988 12C23.9988 8.13401 20.8648 5 16.9988 5H6.99878ZM6.79878 11.2002C6.35695 11.2002 5.99878 11.5584 5.99878 12.0002C5.99878 12.442 6.35695 12.8002 6.79878 12.8002H17.1988C17.6406 12.8002 17.9988 12.442 17.9988 12.0002C17.9988 11.5584 17.6406 11.2002 17.1988 11.2002H6.79878Z" fill="#171719"/>
</g>
</g>
<defs>
<clipPath id="clip0_1295_8039">
<rect width="24.0001" height="24" fill="white" transform="translate(0.000244141)"/>
</clipPath>
<clipPath id="clip1_1295_8039">
<rect width="24" height="24" fill="white" transform="translate(0.000244141)"/>
</clipPath>
</defs>
</svg>
