<svg width="24" height="24" viewBox="0 0 24 24" fill="none" xmlns="http://www.w3.org/2000/svg">
<g clip-path="url(#clip0_1280_8075)">
<path fill-rule="evenodd" clip-rule="evenodd" d="M11.9962 5.70013C11.7299 5.70013 11.4746 5.59431 11.2863 5.40595C11.098 5.2176 10.9922 4.96213 10.9922 4.69575V2.50438C10.9922 2.238 11.098 1.98253 11.2863 1.79418C11.4746 1.60582 11.7299 1.5 11.9962 1.5C12.2625 1.5 12.5179 1.60582 12.7062 1.79418C12.8945 1.98253 13.0002 2.238 13.0002 2.50438V4.69575C13.0002 4.96213 12.8945 5.2176 12.7062 5.40595C12.5179 5.59431 12.2625 5.70013 11.9962 5.70013ZM11.9962 22.5C11.7299 22.5 11.4746 22.3942 11.2863 22.2058C11.098 22.0175 10.9922 21.762 10.9922 21.4956V19.3042C10.9922 19.0379 11.098 18.7824 11.2863 18.594C11.4746 18.4057 11.7299 18.2999 11.9962 18.2999C12.2625 18.2999 12.5179 18.4057 12.7062 18.594C12.8945 18.7824 13.0002 19.0379 13.0002 19.3042V21.4956C13.0002 21.762 12.8945 22.0175 12.7062 22.2058C12.5179 22.3942 12.2625 22.5 11.9962 22.5ZM16.6025 7.66944C16.7676 7.77978 16.9616 7.83868 17.1602 7.83871C17.292 7.83886 17.4225 7.81297 17.5443 7.76252C17.6661 7.71206 17.7767 7.63804 17.8698 7.5447L19.4188 5.99521C19.6029 5.80603 19.7053 5.55189 19.7035 5.28781C19.7018 5.02373 19.5961 4.77096 19.4095 4.58422C19.2228 4.39748 18.9701 4.29181 18.7061 4.29007C18.4421 4.28833 18.1881 4.39067 17.999 4.57493L16.45 6.12441C16.3097 6.2649 16.2142 6.44386 16.1755 6.63865C16.1368 6.83345 16.1567 7.03534 16.2327 7.21882C16.3087 7.40229 16.4374 7.55911 16.6025 7.66944ZM5.28125 19.7175C5.08266 19.7175 4.88854 19.6586 4.72344 19.5482C4.55833 19.4378 4.42967 19.2809 4.3537 19.0973C4.27774 18.9138 4.25789 18.7118 4.29668 18.517C4.33546 18.3222 4.43113 18.1432 4.57158 18.0028L6.12052 16.4533C6.21329 16.358 6.32406 16.2821 6.44639 16.23C6.56873 16.1779 6.70019 16.1506 6.83315 16.1497C6.96611 16.1488 7.09792 16.1744 7.22093 16.2249C7.34394 16.2754 7.45569 16.3498 7.54971 16.4439C7.64373 16.5379 7.71814 16.6497 7.76862 16.7728C7.8191 16.8958 7.84464 17.0277 7.84376 17.1607C7.84289 17.2937 7.81561 17.4252 7.76352 17.5476C7.71142 17.67 7.63555 17.7808 7.5403 17.8736L5.99137 19.4231C5.89823 19.5165 5.78755 19.5906 5.66568 19.6412C5.54381 19.6917 5.41317 19.7177 5.28125 19.7175ZM19.3009 13.0036H21.4915C21.7578 13.0036 22.0132 12.8978 22.2015 12.7095C22.3897 12.5212 22.4955 12.2658 22.4955 11.9996C22.4955 11.7333 22.3897 11.4779 22.2015 11.2896C22.0132 11.1013 21.7578 10.9955 21.4915 10.9955H19.3009C19.0346 10.9955 18.7792 11.1013 18.5909 11.2896C18.4027 11.4779 18.2969 11.7333 18.2969 11.9996C18.2969 12.2658 18.4027 12.5212 18.5909 12.7095C18.7792 12.8978 19.0346 13.0036 19.3009 13.0036ZM4.69462 13.0036H2.50402C2.23774 13.0036 1.98236 12.8978 1.79407 12.7095C1.60578 12.5212 1.5 12.2658 1.5 11.9996C1.5 11.7333 1.60578 11.4779 1.79407 11.2896C1.98236 11.1013 2.23774 10.9955 2.50402 10.9955H4.69462C4.96091 10.9955 5.21629 11.1013 5.40458 11.2896C5.59287 11.4779 5.69865 11.7333 5.69865 11.9996C5.69865 12.2658 5.59287 12.5212 5.40458 12.7095C5.21629 12.8978 4.96091 13.0036 4.69462 13.0036ZM18.3235 19.642C18.4453 19.6925 18.576 19.7185 18.7079 19.7184C18.9065 19.7183 19.1006 19.6594 19.2657 19.549C19.4308 19.4386 19.5595 19.2817 19.6354 19.0982C19.7114 18.9146 19.7313 18.7127 19.6925 18.5178C19.6537 18.323 19.558 18.144 19.4176 18.0036L17.8686 16.4541C17.6795 16.2699 17.4255 16.1675 17.1615 16.1693C16.8975 16.171 16.6448 16.2767 16.4581 16.4634C16.2715 16.6501 16.1658 16.9029 16.1641 17.167C16.1623 17.4311 16.2646 17.6852 16.4488 17.8744L17.9978 19.4239C18.0909 19.5173 18.2016 19.5915 18.3235 19.642ZM6.83245 7.83871C6.70061 7.83896 6.57004 7.81312 6.44824 7.76266C6.32644 7.7122 6.21583 7.63812 6.12278 7.5447L4.57385 5.99521C4.38965 5.80603 4.28735 5.55189 4.28908 5.28781C4.29082 5.02373 4.39646 4.77096 4.58313 4.58422C4.76981 4.39748 5.02249 4.29181 5.28648 4.29007C5.55046 4.28833 5.80451 4.39067 5.99363 4.57493L7.54256 6.12441C7.68289 6.2649 7.77843 6.44386 7.81711 6.63865C7.85579 6.83345 7.83587 7.03534 7.75987 7.21882C7.68386 7.40229 7.55519 7.55911 7.39012 7.66944C7.22505 7.77978 7.03098 7.83868 6.83245 7.83871ZM9.40477 15.8704C10.1703 16.3821 11.0703 16.6552 11.991 16.6552C13.2251 16.6538 14.4083 16.1627 15.281 15.2897C16.1536 14.4167 16.6445 13.2332 16.646 11.9986C16.646 11.0776 16.373 10.1773 15.8615 9.41147C15.35 8.64568 14.623 8.04883 13.7724 7.69637C12.9218 7.34392 11.9858 7.2517 11.0828 7.43138C10.1798 7.61106 9.35038 8.05457 8.69936 8.70581C8.04835 9.35706 7.605 10.1868 7.42538 11.0901C7.24577 11.9934 7.33795 12.9297 7.69028 13.7806C8.04261 14.6315 8.63926 15.3588 9.40477 15.8704Z" fill="#171719"/>
</g>
<defs>
<clipPath id="clip0_1280_8075">
<rect width="24.0001" height="24" fill="white"/>
</clipPath>
</defs>
</svg>
