<svg width="16" height="21" viewBox="0 0 16 21" fill="none" xmlns="http://www.w3.org/2000/svg">
<path fill-rule="evenodd" clip-rule="evenodd" d="M8.00049 1.6C4.46587 1.6 1.60049 4.46538 1.60049 8C1.60049 9.01369 1.98562 10.1788 2.63252 11.4007C3.27398 12.6123 4.13895 13.817 5.01965 14.8934C5.89824 15.9672 6.77905 16.8972 7.44117 17.5593C7.6529 17.771 7.84178 17.9549 8.00049 18.1068C8.1592 17.9549 8.34808 17.771 8.5598 17.5593C9.22193 16.8972 10.1027 15.9672 10.9813 14.8934C11.862 13.817 12.727 12.6123 13.3685 11.4007C14.0154 10.1788 14.4005 9.01369 14.4005 8C14.4005 4.46538 11.5351 1.6 8.00049 1.6ZM8.00049 19.2C7.469 19.7979 7.4687 19.7977 7.4687 19.7977L7.46202 19.7917L7.44478 19.7762C7.42994 19.7629 7.40848 19.7435 7.38084 19.7183C7.32556 19.6679 7.24552 19.5944 7.14427 19.4995C6.94182 19.3099 6.65422 19.0351 6.3098 18.6907C5.62193 18.0028 4.70274 17.0328 3.78132 15.9066C2.86203 14.783 1.927 13.4877 1.21846 12.1493C0.515362 10.8212 0.000488281 9.38631 0.000488281 8C0.000488281 3.58172 3.58221 0 8.00049 0C12.4188 0 16.0005 3.58172 16.0005 8C16.0005 9.38631 15.4856 10.8212 14.7825 12.1493C14.074 13.4877 13.1389 14.783 12.2197 15.9066C11.2982 17.0328 10.379 18.0028 9.69117 18.6907C9.34676 19.0351 9.05916 19.3099 8.85671 19.4995C8.75546 19.5944 8.67542 19.6679 8.62014 19.7183C8.5925 19.7435 8.57104 19.7629 8.5562 19.7762L8.53896 19.7917L8.53274 19.7972C8.53274 19.7972 8.53198 19.7979 8.00049 19.2ZM8.00049 19.2L8.53198 19.7979L8.00049 20.2704L7.4687 19.7977L8.00049 19.2ZM8.00078 6.20015C7.17235 6.20015 6.50078 6.87172 6.50078 7.70014C6.50078 8.52857 7.17236 9.20014 8.00078 9.20014C8.82921 9.20014 9.50078 8.52857 9.50078 7.70014C9.50078 6.87172 8.82921 6.20015 8.00078 6.20015ZM4.90078 7.70014C4.90078 5.98806 6.2887 4.60014 8.00078 4.60014C9.71286 4.60014 11.1008 5.98806 11.1008 7.70014C11.1008 9.41223 9.71286 10.8001 8.00078 10.8001C6.2887 10.8001 4.90078 9.41223 4.90078 7.70014Z" fill="#171719"/>
</svg>
