<svg width="4" height="16" viewBox="0 0 4 16" fill="none" xmlns="http://www.w3.org/2000/svg">
<path fill-rule="evenodd" clip-rule="evenodd" d="M0.399902 1.6C0.399902 0.716344 1.11625 0 1.9999 0C2.88356 0 3.5999 0.716344 3.5999 1.6C3.5999 2.48366 2.88356 3.2 1.9999 3.2C1.11625 3.2 0.399902 2.48366 0.399902 1.6ZM0.399902 8.0002C0.399902 7.11654 1.11625 6.4002 1.9999 6.4002C2.88356 6.4002 3.5999 7.11654 3.5999 8.0002C3.5999 8.88385 2.88356 9.6002 1.9999 9.6002C1.11625 9.6002 0.399902 8.88385 0.399902 8.0002ZM0.399902 14.4C0.399902 13.5163 1.11625 12.8 1.9999 12.8C2.88356 12.8 3.5999 13.5163 3.5999 14.4C3.5999 15.2837 2.88356 16 1.9999 16C1.11625 16 0.399902 15.2837 0.399902 14.4Z" fill="#171719"/>
</svg>
