<svg width="20" height="8" viewBox="0 0 20 8" fill="none" xmlns="http://www.w3.org/2000/svg">
<path fill-rule="evenodd" clip-rule="evenodd" d="M3.10061 2.50039C2.27218 2.50039 1.60061 3.17196 1.60061 4.00039C1.60061 4.82882 2.27218 5.50039 3.10061 5.50039C3.92904 5.50039 4.60061 4.82882 4.60061 4.00039C4.60061 3.17196 3.92904 2.50039 3.10061 2.50039ZM0.000610352 4.00039C0.000610352 2.28831 1.38853 0.900391 3.10061 0.900391C4.81269 0.900391 6.20061 2.28831 6.20061 4.00039C6.20061 5.71247 4.81269 7.10039 3.10061 7.10039C1.38853 7.10039 0.000610352 5.71247 0.000610352 4.00039ZM10.0006 2.50039C9.17218 2.50039 8.50061 3.17196 8.50061 4.00039C8.50061 4.82882 9.17218 5.50039 10.0006 5.50039C10.829 5.50039 11.5006 4.82882 11.5006 4.00039C11.5006 3.17196 10.829 2.50039 10.0006 2.50039ZM6.90061 4.00039C6.90061 2.28831 8.28853 0.900391 10.0006 0.900391C11.7127 0.900391 13.1006 2.28831 13.1006 4.00039C13.1006 5.71247 11.7127 7.10039 10.0006 7.10039C8.28853 7.10039 6.90061 5.71247 6.90061 4.00039ZM16.9006 2.50039C16.0722 2.50039 15.4006 3.17196 15.4006 4.00039C15.4006 4.82882 16.0722 5.50039 16.9006 5.50039C17.729 5.50039 18.4006 4.82882 18.4006 4.00039C18.4006 3.17196 17.729 2.50039 16.9006 2.50039ZM13.8006 4.00039C13.8006 2.28831 15.1885 0.900391 16.9006 0.900391C18.6127 0.900391 20.0006 2.28831 20.0006 4.00039C20.0006 5.71247 18.6127 7.10039 16.9006 7.10039C15.1885 7.10039 13.8006 5.71247 13.8006 4.00039Z" fill="#171719"/>
</svg>
