<svg width="8" height="20" viewBox="0 0 8 20" fill="none" xmlns="http://www.w3.org/2000/svg">
<path fill-rule="evenodd" clip-rule="evenodd" d="M5.50071 3.1C5.50071 2.27157 4.82913 1.6 4.00071 1.6C3.17228 1.6 2.50071 2.27157 2.50071 3.1C2.50071 3.92843 3.17228 4.6 4.00071 4.6C4.82913 4.6 5.50071 3.92843 5.50071 3.1ZM4.00071 -1.35505e-07C5.71279 -6.06678e-08 7.10071 1.38792 7.10071 3.1C7.10071 4.81208 5.71279 6.2 4.00071 6.2C2.28863 6.2 0.900708 4.81208 0.900708 3.1C0.900708 1.38792 2.28863 -2.10343e-07 4.00071 -1.35505e-07ZM5.50071 10C5.50071 9.17157 4.82913 8.5 4.00071 8.5C3.17228 8.5 2.50071 9.17157 2.50071 10C2.50071 10.8284 3.17228 11.5 4.00071 11.5C4.82913 11.5 5.50071 10.8284 5.50071 10ZM4.00071 6.9C5.71279 6.9 7.10071 8.28792 7.10071 10C7.10071 11.7121 5.71279 13.1 4.00071 13.1C2.28863 13.1 0.900708 11.7121 0.900708 10C0.900708 8.28792 2.28863 6.9 4.00071 6.9ZM5.50071 16.9C5.50071 16.0716 4.82913 15.4 4.00071 15.4C3.17228 15.4 2.50071 16.0716 2.50071 16.9C2.50071 17.7284 3.17228 18.4 4.00071 18.4C4.82913 18.4 5.50071 17.7284 5.50071 16.9ZM4.00071 13.8C5.71279 13.8 7.10071 15.1879 7.10071 16.9C7.10071 18.6121 5.71279 20 4.00071 20C2.28862 20 0.900707 18.6121 0.900707 16.9C0.900708 15.1879 2.28863 13.8 4.00071 13.8Z" fill="#171719"/>
</svg>
