<svg width="16" height="4" viewBox="0 0 16 4" fill="none" xmlns="http://www.w3.org/2000/svg">
<path fill-rule="evenodd" clip-rule="evenodd" d="M14.3999 0.400391C15.2835 0.400391 15.9999 1.11674 15.9999 2.00039C15.9999 2.88405 15.2835 3.60039 14.3999 3.60039C13.5162 3.60039 12.7999 2.88405 12.7999 2.00039C12.7999 1.11673 13.5162 0.400391 14.3999 0.400391ZM7.99968 0.40039C8.88334 0.40039 9.59968 1.11673 9.59968 2.00039C9.59968 2.88405 8.88334 3.60039 7.99968 3.60039C7.11603 3.60039 6.39968 2.88405 6.39968 2.00039C6.39968 1.11673 7.11603 0.40039 7.99968 0.40039ZM1.59988 0.40039C2.48353 0.40039 3.19988 1.11673 3.19988 2.00039C3.19988 2.88405 2.48353 3.60039 1.59988 3.60039C0.716223 3.60039 -0.000121225 2.88405 -0.000121187 2.00039C-0.000121148 1.11673 0.716223 0.40039 1.59988 0.40039Z" fill="#171719"/>
</svg>
