<svg width="54" height="54" viewBox="0 0 54 54" fill="none" xmlns="http://www.w3.org/2000/svg">
<g opacity="0.9">
<rect width="54" height="54" rx="27" fill="#EE9100"/>
<rect x="1" y="1" width="52" height="52" rx="26" stroke="black" stroke-opacity="0.2" stroke-width="2"/>
</g>
<path d="M31.0861 20.6408C30.9086 21.9345 31.0101 23.2411 31.3481 24.5219C31.4326 24.8518 31.9734 25.0782 32.3875 24.9747C32.8523 24.8583 33.072 24.5348 32.979 24.1791C32.9368 24.0238 32.903 23.875 32.8692 23.7198C32.8523 23.6357 32.8354 23.5516 32.8185 23.474C32.8354 23.5775 32.8016 23.3576 32.8016 23.364C32.7593 23.0665 32.7255 22.7689 32.7086 22.4714C32.6748 21.8633 32.7002 21.2553 32.7847 20.6472C32.8269 20.3109 32.3622 19.9874 31.9396 20.0004C31.441 20.0198 31.1453 20.285 31.0946 20.6472L31.0861 20.6408Z" fill="#231916"/>
<path d="M42.0236 20.6392C41.985 21.5462 41.9927 22.4533 42.0545 23.3604C42.0777 23.6926 42.3943 24.0184 42.8268 23.9992C43.2283 23.9864 43.6222 23.7181 43.599 23.3604C43.5372 22.4533 43.5295 21.5462 43.5681 20.6392C43.5836 20.307 43.2052 19.9876 42.7959 20.0004C42.3634 20.0131 42.039 20.2814 42.0236 20.6392Z" fill="#231916"/>
<path d="M30.3074 32.6317C30.5697 31.9941 31.0089 31.022 32.0251 30.9906C32.7594 30.9697 33.1134 31.6962 33.8149 31.853C35.4211 32.2083 36.5029 31.0533 37.1257 30.0656L36.0964 30.1701C36.8438 30.8913 38.1222 31.785 39.3678 31.8216C39.9579 31.8373 40.3775 31.5864 40.7708 31.2728C41.3412 30.8234 41.8853 30.3478 42.4426 29.8879H41.5182C42.2918 30.5986 43.1769 31.346 44.4028 31.4767C45.3994 31.5864 46.3762 31.2885 46.9007 30.5882C47.3399 30.0133 46.2058 29.4854 45.7665 30.0603C44.8683 31.2467 43.0785 29.7363 42.436 29.151C42.2066 28.9419 41.7411 28.9576 41.5116 29.151L40.4692 30.0185C40.1808 30.2589 39.7546 30.7816 39.2695 30.7554C38.4369 30.7084 37.5059 29.9036 37.0208 29.4384C36.7585 29.1876 36.1685 29.2607 35.9915 29.5429C35.6637 30.0551 34.9687 31.2049 34.0312 30.7868C33.7297 30.6509 33.5461 30.3791 33.2511 30.2224C32.9561 30.0656 32.5955 29.9715 32.2349 29.9558C30.4451 29.8826 29.5207 31.1788 29.0356 32.3599C28.7733 33.0027 30.0386 33.2745 30.3009 32.6369L30.3074 32.6317Z" fill="#231916"/>
</svg>
