<svg width="24" height="24" viewBox="0 0 24 24" fill="none" xmlns="http://www.w3.org/2000/svg">
<g clip-path="url(#clip0_1647_8257)">
<path fill-rule="evenodd" clip-rule="evenodd" d="M16.2913 21.035C14.9909 21.6537 13.5359 22 12 22C10.4641 22 9.009 21.6537 7.70862 21.035C7.76695 20.924 7.79995 20.7976 7.79995 20.6634V17.6672C7.79995 17.2163 7.97906 16.7839 8.29787 16.4651C8.61668 16.1463 9.04908 15.9672 9.49995 15.9672C9.95082 15.9672 10.3832 16.1463 10.702 16.4651C11.0208 16.7839 11.2 17.2163 11.2 17.6672V21.0005C11.2 21.4423 11.5581 21.8005 12 21.8005C12.4418 21.8005 12.8 21.4423 12.8 21.0005V17.6672C12.8 17.2163 12.9791 16.7839 13.2979 16.4651C13.6167 16.1463 14.0491 15.9672 14.5 15.9672C14.9508 15.9672 15.3832 16.1463 15.702 16.4651C16.0208 16.7839 16.2 17.2163 16.2 17.6672V20.6634C16.2 20.7976 16.233 20.924 16.2913 21.035ZM17.8 20.1472V17.6672V16.2206C17.8 15.9601 17.7434 15.7028 17.6343 15.4663L15.4349 10.7008C15.4252 10.6768 15.4143 10.6534 15.4024 10.6306L13.6343 6.7996C12.9908 5.40534 11.0091 5.40534 10.3656 6.7996L8.59618 10.6334C8.58534 10.6544 8.5754 10.6759 8.56641 10.6979L6.36562 15.4663C6.25648 15.7028 6.19995 15.9601 6.19995 16.2206V17.6672V20.1471C3.65768 18.334 2 15.3606 2 12C2 6.47715 6.47715 2 12 2C17.5228 2 22 6.47715 22 12C22 15.3606 20.3423 18.334 17.8 20.1472ZM14.1801 11.8002L15.426 14.4998C15.1278 14.4126 14.8162 14.3672 14.5 14.3672C13.6247 14.3672 12.7854 14.7149 12.1665 15.3337C12.1086 15.3916 12.0531 15.4515 12 15.5131C11.9469 15.4515 11.8913 15.3916 11.8334 15.3337C11.2145 14.7149 10.3752 14.3672 9.49995 14.3672C9.18368 14.3672 8.87209 14.4126 8.57389 14.4998L9.81985 11.8002H14.1801ZM12.1815 7.47009L13.4416 10.2002H10.5583L11.8184 7.47009C11.8899 7.31518 12.11 7.31518 12.1815 7.47009Z" fill="#171719"/>
<path fill-rule="evenodd" clip-rule="evenodd" d="M12 2.8002C6.91893 2.8002 2.79995 6.91918 2.79995 12.0002C2.79995 17.0812 6.91893 21.2002 12 21.2002C17.081 21.2002 21.1999 17.0812 21.1999 12.0002C21.1999 6.91918 17.081 2.8002 12 2.8002ZM1.19995 12.0002C1.19995 6.03552 6.03528 1.2002 12 1.2002C17.9646 1.2002 22.7999 6.03552 22.7999 12.0002C22.7999 17.9649 17.9646 22.8002 12 22.8002C6.03528 22.8002 1.19995 17.9649 1.19995 12.0002Z" fill="#171719"/>
</g>
<defs>
<clipPath id="clip0_1647_8257">
<rect width="24.0001" height="24" fill="white" transform="translate(0.000732422)"/>
</clipPath>
</defs>
</svg>
