<svg width="21" height="20" viewBox="0 0 21 20" fill="none" xmlns="http://www.w3.org/2000/svg">
<path fill-rule="evenodd" clip-rule="evenodd" d="M16.3238 1.97394C15.8564 1.74228 15.3075 1.74228 14.84 1.97394C14.624 2.081 14.396 2.294 13.6767 3.0133L13.0069 3.68309L16.8174 7.49353L17.4872 6.82374C18.2065 6.10443 18.4195 5.87647 18.5265 5.66043C18.7582 5.19295 18.7582 4.64409 18.5265 4.17661C18.4195 3.96056 18.2065 3.73261 17.4872 3.0133C16.7678 2.294 16.5399 2.081 16.3238 1.97394ZM17.3875 9.18613L18.6185 7.95511C18.6517 7.92196 18.6844 7.88932 18.7166 7.85715C19.2945 7.27992 19.7205 6.85453 19.9601 6.37085C20.4136 5.45573 20.4136 4.38131 19.9601 3.46619C19.7205 2.98251 19.2945 2.55712 18.7166 1.97988C18.6843 1.94772 18.6517 1.91508 18.6185 1.88193C18.5854 1.84879 18.5527 1.81612 18.5206 1.78391C17.9433 1.20593 17.5179 0.779991 17.0343 0.540307C16.1191 0.0868247 15.0447 0.0868247 14.1296 0.540307C13.6459 0.779989 13.2205 1.20593 12.6433 1.7839C12.6111 1.8161 12.5785 1.84878 12.5453 1.88193L3.32166 11.1056C3.31046 11.1168 3.2994 11.1279 3.28848 11.1388C3.07422 11.3529 2.91372 11.5133 2.77585 11.6961C2.65399 11.8576 2.54738 12.0301 2.45739 12.2114C2.35559 12.4164 2.28389 12.6317 2.18817 12.9191C2.18329 12.9338 2.17835 12.9486 2.17334 12.9636L1.23554 15.777C1.04475 16.3494 0.884234 16.8309 0.793124 17.2186C0.702866 17.6027 0.640015 18.0459 0.792733 18.4742C0.997943 19.0497 1.4508 19.5025 2.02627 19.7077C2.45453 19.8604 2.89776 19.7976 3.28186 19.7073C3.66957 19.6162 4.15104 19.4557 4.72333 19.2649L7.53682 18.3271C7.55184 18.3221 7.56668 18.3172 7.58132 18.3123C7.86873 18.2166 8.08403 18.1449 8.28907 18.0431C8.47031 17.9531 8.64282 17.8465 8.80436 17.7246C8.98711 17.5867 9.14752 17.4262 9.36167 17.212C9.37259 17.201 9.38364 17.19 9.39484 17.1788L17.3786 9.19504C17.3801 9.19357 17.3816 9.19209 17.3831 9.1906C17.3845 9.18911 17.386 9.18762 17.3875 9.18613ZM15.686 8.6249L11.8756 4.81446L4.45303 12.237C4.19182 12.4982 4.11558 12.5769 4.05316 12.6597C3.99091 12.7422 3.93644 12.8303 3.89048 12.9229C3.84438 13.0157 3.80806 13.1191 3.69123 13.4696L2.76565 16.2464C2.55942 16.8651 2.42306 17.2766 2.3507 17.5846C2.28925 17.8461 2.30066 17.9334 2.30162 17.9418C2.34573 18.0609 2.4396 18.1547 2.55862 18.1988C2.5671 18.1998 2.65441 18.2112 2.91586 18.1498C3.2238 18.0774 3.63539 17.941 4.2541 17.7348L7.03085 16.8092C7.38132 16.6924 7.48471 16.6561 7.57755 16.61C7.67013 16.564 7.75825 16.5095 7.84077 16.4473C7.92351 16.3849 8.00225 16.3086 8.26347 16.0474L15.686 8.6249Z" fill="#171719"/>
</svg>
