<svg width="24" height="24" viewBox="0 0 24 24" fill="none" xmlns="http://www.w3.org/2000/svg">
<g clip-path="url(#clip0_1326_10250)">
<path fill-rule="evenodd" clip-rule="evenodd" d="M13.3017 3.3C13.3017 2.58203 12.7196 2 12.0017 2C11.2837 2 10.7017 2.58203 10.7017 3.3V10.6998H3.30025C2.58228 10.6998 2.00024 11.2818 2.00024 11.9998C2.00024 12.7177 2.58228 13.2998 3.30025 13.2998H10.7017V20.6996C10.7017 21.4175 11.2837 21.9996 12.0017 21.9996C12.7196 21.9996 13.3017 21.4175 13.3017 20.6996V13.2998H20.7002C21.4182 13.2998 22.0002 12.7177 22.0002 11.9998C22.0002 11.2818 21.4182 10.6998 20.7002 10.6998H13.3017V3.3Z" fill="#171719"/>
</g>
<defs>
<clipPath id="clip0_1326_10250">
<rect width="24.0001" height="24" fill="white" transform="translate(0.00170898)"/>
</clipPath>
</defs>
</svg>
