<svg width="24" height="24" viewBox="0 0 24 24" fill="none" xmlns="http://www.w3.org/2000/svg">
<g clip-path="url(#clip0_1644_77681)">
<path d="M9.60021 4H4.80024C4.35841 4 4.00024 4.35817 4.00024 4.8V9.59997C4.00024 10.0418 4.35841 10.4 4.80024 10.4H9.60021C10.042 10.4 10.4002 10.0418 10.4002 9.59997V4.8C10.4002 4.35817 10.042 4 9.60021 4Z" stroke="#171719" stroke-width="1.6" stroke-linecap="round" stroke-linejoin="round"/>
<path d="M9.60021 13.5996H4.80024C4.35841 13.5996 4.00024 13.9578 4.00024 14.3996V19.1996C4.00024 19.6414 4.35841 19.9996 4.80024 19.9996H9.60021C10.042 19.9996 10.4002 19.6414 10.4002 19.1996V14.3996C10.4002 13.9578 10.042 13.5996 9.60021 13.5996Z" stroke="#171719" stroke-width="1.6" stroke-linecap="round" stroke-linejoin="round"/>
<path d="M19.2003 4H14.4003C13.9585 4 13.6003 4.35817 13.6003 4.8V9.59997C13.6003 10.0418 13.9585 10.4 14.4003 10.4H19.2003C19.6421 10.4 20.0003 10.0418 20.0003 9.59997V4.8C20.0003 4.35817 19.6421 4 19.2003 4Z" stroke="#171719" stroke-width="1.6" stroke-linecap="round" stroke-linejoin="round"/>
<path d="M14.8596 15.0748H13.0159C12.8542 15.0748 12.8003 15.0101 12.8003 14.8268V13.0371C12.8003 12.8646 12.8542 12.7998 13.0159 12.7998H14.8596C15.0106 12.7998 15.0752 12.8646 15.0752 13.0371V14.8268C15.0752 15.0101 15.0106 15.0748 14.8596 15.0748Z" fill="#171719"/>
<path d="M20.5845 15.0748H18.7409C18.5793 15.0748 18.5253 15.0101 18.5253 14.8268V13.0371C18.5253 12.8646 18.5793 12.7998 18.7409 12.7998H20.5845C20.7355 12.7998 20.8002 12.8646 20.8002 13.0371V14.8268C20.8002 15.0101 20.7355 15.0748 20.5845 15.0748Z" fill="#171719"/>
<path d="M17.749 17.9427H15.9054C15.7436 17.9427 15.6897 17.878 15.6897 17.6839V15.9049C15.6897 15.7324 15.7436 15.6677 15.9054 15.6677H17.749C17.9 15.6677 17.9647 15.7324 17.9647 15.9049V17.6839C17.9647 17.878 17.9 17.9427 17.749 17.9427Z" fill="#171719"/>
<path d="M14.8596 20.7998H13.0159C12.8542 20.7998 12.8003 20.735 12.8003 20.5518V18.762C12.8003 18.5895 12.8542 18.5249 13.0159 18.5249H14.8596C15.0106 18.5249 15.0752 18.5895 15.0752 18.762V20.5518C15.0752 20.735 15.0106 20.7998 14.8596 20.7998Z" fill="#171719"/>
<path d="M20.5845 20.7998H18.7409C18.5793 20.7998 18.5253 20.735 18.5253 20.5518V18.762C18.5253 18.5895 18.5793 18.5249 18.7409 18.5249H20.5845C20.7355 18.5249 20.8002 18.5895 20.8002 18.762V20.5518C20.8002 20.735 20.7355 20.7998 20.5845 20.7998Z" fill="#171719"/>
<path fill-rule="evenodd" clip-rule="evenodd" d="M4.8002 4.8002V9.60016H9.60016V4.8002H4.8002ZM3.2002 4.80019C3.2002 3.91654 3.91654 3.2002 4.80019 3.2002H9.60016C10.4838 3.2002 11.2002 3.91654 11.2002 4.80019V9.60016C11.2002 10.4838 10.4838 11.2002 9.60016 11.2002H4.80019C3.91654 11.2002 3.2002 10.4838 3.2002 9.60016V4.80019Z" fill="#171719"/>
<path fill-rule="evenodd" clip-rule="evenodd" d="M4.8002 14.3998V19.1998H9.60016V14.3998H4.8002ZM3.2002 14.3998C3.2002 13.5161 3.91654 12.7998 4.80019 12.7998H9.60016C10.4838 12.7998 11.2002 13.5161 11.2002 14.3998V19.1998C11.2002 20.0834 10.4838 20.7998 9.60016 20.7998H4.80019C3.91654 20.7998 3.2002 20.0834 3.2002 19.1998V14.3998Z" fill="#171719"/>
<path fill-rule="evenodd" clip-rule="evenodd" d="M14.4003 4.8002V9.60016H19.2003V4.8002H14.4003ZM12.8003 4.80019C12.8003 3.91654 13.5166 3.2002 14.4003 3.2002H19.2003C20.0839 3.2002 20.8003 3.91654 20.8003 4.80019V9.60016C20.8003 10.4838 20.0839 11.2002 19.2003 11.2002H14.4003C13.5166 11.2002 12.8003 10.4838 12.8003 9.60016V4.80019Z" fill="#171719"/>
<path d="M14.8596 15.0748H13.0159C12.8542 15.0748 12.8003 15.0101 12.8003 14.8268V13.0371C12.8003 12.8646 12.8542 12.7998 13.0159 12.7998H14.8596C15.0106 12.7998 15.0752 12.8646 15.0752 13.0371V14.8268C15.0752 15.0101 15.0106 15.0748 14.8596 15.0748Z" fill="#171719"/>
<path d="M20.5845 15.0748H18.7409C18.5793 15.0748 18.5253 15.0101 18.5253 14.8268V13.0371C18.5253 12.8646 18.5793 12.7998 18.7409 12.7998H20.5845C20.7355 12.7998 20.8002 12.8646 20.8002 13.0371V14.8268C20.8002 15.0101 20.7355 15.0748 20.5845 15.0748Z" fill="#171719"/>
<path d="M17.749 17.9427H15.9054C15.7436 17.9427 15.6897 17.878 15.6897 17.6839V15.9049C15.6897 15.7324 15.7436 15.6677 15.9054 15.6677H17.749C17.9 15.6677 17.9647 15.7324 17.9647 15.9049V17.6839C17.9647 17.878 17.9 17.9427 17.749 17.9427Z" fill="#171719"/>
<path d="M14.8596 20.7998H13.0159C12.8542 20.7998 12.8003 20.735 12.8003 20.5518V18.762C12.8003 18.5895 12.8542 18.5249 13.0159 18.5249H14.8596C15.0106 18.5249 15.0752 18.5895 15.0752 18.762V20.5518C15.0752 20.735 15.0106 20.7998 14.8596 20.7998Z" fill="#171719"/>
<path d="M20.5845 20.7998H18.7409C18.5793 20.7998 18.5253 20.735 18.5253 20.5518V18.762C18.5253 18.5895 18.5793 18.5249 18.7409 18.5249H20.5845C20.7355 18.5249 20.8002 18.5895 20.8002 18.762V20.5518C20.8002 20.735 20.7355 20.7998 20.5845 20.7998Z" fill="#171719"/>
</g>
<defs>
<clipPath id="clip0_1644_77681">
<rect width="24.0001" height="24" fill="white" transform="translate(0.000732422)"/>
</clipPath>
</defs>
</svg>
