<svg width="24" height="24" viewBox="0 0 24 24" fill="none" xmlns="http://www.w3.org/2000/svg">
<g clip-path="url(#clip0_1439_8580)">
<path fill-rule="evenodd" clip-rule="evenodd" d="M12.0003 3.70059C7.41638 3.70059 3.70034 7.41662 3.70034 12.0006C3.70034 16.5846 7.41638 20.3006 12.0003 20.3006C16.5843 20.3006 20.3003 16.5846 20.3003 12.0006C20.3003 7.41662 16.5843 3.70059 12.0003 3.70059ZM2.10034 12.0006C2.10034 6.53297 6.53272 2.10059 12.0003 2.10059C17.468 2.10059 21.9003 6.53297 21.9003 12.0006C21.9003 17.4682 17.468 21.9006 12.0003 21.9006C6.53272 21.9006 2.10034 17.4682 2.10034 12.0006ZM12.0003 7.68184C11.1998 7.68184 10.5253 8.34728 10.5253 9.1998C10.5253 9.64163 10.1672 9.9998 9.72534 9.9998C9.28351 9.9998 8.92534 9.64163 8.92534 9.1998C8.92534 7.49197 10.288 6.08184 12.0003 6.08184C13.7127 6.08184 15.0753 7.49197 15.0753 9.1998C15.0753 10.6313 14.1179 11.8537 12.7997 12.2118C12.7995 12.4558 12.7994 12.7485 12.7994 13.0631C12.7994 13.5049 12.4412 13.8631 11.9994 13.8631C11.5575 13.8631 11.1994 13.5049 11.1994 13.0631C11.1994 12.6361 11.1996 12.2495 11.1998 11.9697L11.2003 11.5171C11.201 11.0758 11.559 10.7178 12.0003 10.7178C12.8009 10.7178 13.4753 10.0523 13.4753 9.1998C13.4753 8.34727 12.8009 7.68184 12.0003 7.68184ZM11.9994 15.7506C12.4412 15.7506 12.7994 16.1088 12.7994 16.5506V16.5906C12.7994 17.0324 12.4412 17.3906 11.9994 17.3906C11.5575 17.3906 11.1994 17.0324 11.1994 16.5906V16.5506C11.1994 16.1088 11.5575 15.7506 11.9994 15.7506Z" fill="#171719"/>
</g>
<defs>
<clipPath id="clip0_1439_8580">
<rect width="24.0001" height="24" fill="white" transform="translate(0.000488281)"/>
</clipPath>
</defs>
</svg>
