<svg width="54" height="54" viewBox="0 0 54 54" fill="none" xmlns="http://www.w3.org/2000/svg">
<g opacity="0.9">
<rect width="54" height="54" rx="27" fill="#E83F35"/>
<rect x="1" y="1" width="52" height="52" rx="26" stroke="black" stroke-opacity="0.2" stroke-width="2"/>
</g>
<path d="M32.1258 21.1038L29.288 23.6968C29.1604 23.8146 29.0675 23.9186 29.0211 24.1127C28.9805 24.2791 28.9979 24.501 29.0791 24.6466C29.23 24.9308 29.613 25.1319 29.8742 24.8962L32.712 22.3032C32.8396 22.1854 32.9325 22.0814 32.9789 21.8873C33.0195 21.7209 33.0021 21.499 32.9209 21.3534C32.77 21.0692 32.387 20.8681 32.1258 21.1038Z" fill="#231916"/>
<path d="M41.1797 21.1599C41.739 21.7264 42.3047 22.2929 42.8704 22.8524C43.1437 23.1288 43.4234 23.3982 43.7031 23.6745C43.8111 23.7851 43.9256 23.8818 44.0654 23.9439C44.3069 24.0545 44.6057 23.9992 44.8027 23.7989C45.1269 23.4535 45.0315 22.887 44.6629 22.6383C44.4658 22.507 44.2179 22.5208 44.0209 22.6383H44.0018C43.7094 22.8248 43.5887 23.2877 43.773 23.5916C43.9573 23.8956 44.3324 24.0268 44.6438 23.8403H44.0336L43.8048 23.5916L43.8175 23.6123L43.7285 23.2669V23.2946L43.9128 22.8041L43.9001 22.8248L44.3514 22.6245H44.3133L44.6311 22.7212C44.6692 22.7419 44.7137 22.811 44.6438 22.7419C44.6184 22.7143 44.593 22.6866 44.5675 22.6659C44.5103 22.6107 44.4468 22.5485 44.3896 22.4932C44.2815 22.3896 44.1798 22.286 44.0718 22.1823C43.8493 21.9613 43.6268 21.7402 43.398 21.5192C42.9594 21.0839 42.5208 20.6418 42.0823 20.1997C41.8407 19.951 41.4212 19.9164 41.186 20.1997C40.9509 20.4829 40.9254 20.9112 41.186 21.1737L41.1797 21.1599Z" fill="#231916"/>
<path d="M33.2467 32.5976C33.5725 31.435 35.0033 30.5895 36.2553 30.2669C36.9132 30.0944 37.6925 29.9776 38.3057 30.3336C38.9189 30.6896 39.4299 31.3238 39.9281 31.8077C40.4775 32.3417 41.3781 31.5518 40.8288 31.0234C40.2156 30.4282 39.6088 29.6828 38.7911 29.2934C37.9096 28.8763 36.8493 28.9597 35.9167 29.1989C34.2431 29.6272 32.4482 30.7619 32.0203 32.3083C31.8286 33.0036 33.0551 33.2985 33.2531 32.6031L33.2467 32.5976Z" fill="#231916"/>
</svg>
