<svg width="21" height="20" viewBox="0 0 21 20" fill="none" xmlns="http://www.w3.org/2000/svg">
<path fill-rule="evenodd" clip-rule="evenodd" d="M2.38656 8.13777L1.66568 7.05644C1.42059 6.68881 0.923899 6.58947 0.556276 6.83456C0.188653 7.07964 0.089314 7.57633 0.334396 7.94396L2.3344 10.944C2.57948 11.3116 3.07617 11.4109 3.4438 11.1658L6.4438 9.16584C6.81142 8.92075 6.91076 8.42406 6.66568 8.05644C6.42059 7.68881 5.9239 7.58947 5.55628 7.83456L3.86986 8.95883C4.37821 5.19877 7.60062 2.3002 11.5 2.3002C15.7526 2.3002 19.2 5.7476 19.2 10.0002C19.2 14.2528 15.7526 17.7002 11.5 17.7002C8.70003 17.7002 6.24819 16.2062 4.89954 13.968C4.67151 13.5895 4.17987 13.4676 3.80144 13.6956C3.423 13.9236 3.30107 14.4153 3.5291 14.7937C5.15521 17.4924 8.11611 19.3002 11.5 19.3002C16.6363 19.3002 20.8 15.1364 20.8 10.0002C20.8 4.86395 16.6363 0.700195 11.5 0.700195C7.00163 0.700195 3.24919 3.89401 2.38656 8.13777Z" fill="#171719"/>
</svg>
