<svg width="40" height="40" viewBox="0 0 40 40" fill="none" xmlns="http://www.w3.org/2000/svg">
<g clip-path="url(#clip0_4573_59493)">
<path d="M21.7933 19.0442C21.6633 18.8952 21.5423 18.7462 21.4193 18.5962C21.4163 18.6882 21.4083 18.7852 21.4023 18.8802C21.5353 18.9252 21.6633 18.9852 21.7933 19.0442Z" fill="#FF9C00"/>
<path d="M34.214 24.2009C34.579 26.0909 34.03 28.1219 32.567 29.5849C31.601 30.5509 30.384 31.0959 29.127 31.2649C30.991 31.2829 32.625 30.7859 33.829 29.7079C33.903 29.6409 33.987 29.5869 34.058 29.5159C35.49 28.0839 36.012 25.9649 35.751 23.5439C35.618 23.6289 35.481 23.7139 35.321 23.7939C34.968 23.9709 34.595 24.0999 34.214 24.2009Z" fill="#FF9C00"/>
<path d="M9.68164 10.4132C9.72464 10.3922 9.75864 10.3612 9.80264 10.3412C10.1196 10.1932 10.4456 10.0902 10.7736 10.0162C11.5186 8.42417 13.2656 5.27617 15.2206 5.84517C15.4336 5.90717 15.6226 6.01218 15.8006 6.13318C16.2986 5.64818 16.8896 5.31917 17.5166 5.14017C15.0156 4.82917 12.8216 5.33918 11.3526 6.80818C11.2816 6.87918 11.2266 6.96318 11.1606 7.03718C10.3466 7.94518 9.86464 9.10017 9.68264 10.4122L9.68164 10.4132Z" fill="#FF9C00"/>
<path d="M38.2653 15.4365C37.0093 13.3955 32.9283 13.4745 32.9283 13.4745C32.9283 13.4745 34.0663 11.7875 31.7123 10.0605C30.6983 9.31649 29.5103 9.33149 28.4863 9.58649C29.2773 9.72449 30.0363 10.0735 30.6473 10.6845C32.2383 12.2755 32.2383 14.8545 30.6473 16.4455C30.5913 16.5015 30.5263 16.5395 30.4683 16.5915C31.6673 18.2285 32.4103 19.8435 32.6303 21.1785C33.4683 22.0445 34.0023 23.0955 34.2153 24.2005C34.5963 24.0995 34.9693 23.9695 35.3223 23.7925C35.4823 23.7125 35.6193 23.6275 35.7523 23.5425C38.2343 21.9485 36.2653 19.4775 36.2653 19.4775C36.2653 19.4775 39.5213 17.4755 38.2653 15.4345V15.4365Z" fill="#036D50"/>
<path d="M16.0914 12.6303C16.5654 13.6463 16.6444 14.7433 16.3974 15.7543C17.0844 16.1173 17.6684 16.6853 18.0214 17.4433C18.2444 17.9223 18.3494 18.4243 18.3594 18.9213C19.3394 18.5623 20.4154 18.5453 21.4014 18.8803C21.4074 18.7853 21.4154 18.6883 21.4184 18.5963C21.4524 17.5753 21.3224 16.7053 21.0874 15.9663C20.5204 16.0683 19.9394 16.0423 19.3854 15.8283C17.5504 15.1193 16.7324 12.8113 17.5594 10.6723C17.5734 10.6363 17.5914 10.6003 17.6064 10.5643C17.4604 9.07228 17.0314 6.97028 15.8004 6.13228C15.6224 6.01128 15.4334 5.90628 15.2204 5.84428C13.2654 5.27528 11.5184 8.42328 10.7734 10.0153C12.8954 9.54028 15.1344 10.5783 16.0914 12.6293V12.6303Z" fill="#036D50"/>
<path d="M19.3863 15.8291C19.9403 16.0431 20.5213 16.0691 21.0883 15.9671C22.4003 15.7311 23.6283 14.7341 24.2053 13.2411C25.0313 11.1031 24.5523 7.91812 22.7173 7.20912C20.9133 6.51212 18.4753 8.46712 17.6073 10.5651C17.5923 10.6011 17.5743 10.6371 17.5603 10.6731C16.7343 12.8111 17.5523 15.1201 19.3863 15.8291ZM18.7713 11.1411C19.2103 10.0061 20.4863 9.44112 21.6213 9.88012C22.7563 10.3181 23.3213 11.5951 22.8823 12.7301C22.4433 13.8651 21.1673 14.4301 20.0323 13.9911C18.8973 13.5521 18.3323 12.2761 18.7703 11.1411H18.7713Z" fill="#FFFEFA"/>
<path d="M24.0876 21.1042C24.0596 21.1322 24.0426 21.1652 24.0156 21.1932C24.2246 21.6302 24.3596 22.0932 24.4246 22.5652C24.7446 22.6002 25.0626 22.6612 25.3746 22.7492C25.4306 22.6852 25.4746 22.6132 25.5356 22.5522C27.0786 21.0102 29.5796 21.0102 31.1216 22.5522C32.6636 24.0942 32.6636 26.5952 31.1216 28.1382C30.6696 28.5902 30.1316 28.8932 29.5626 29.0802C29.4706 29.8372 29.2316 30.5712 28.8436 31.2522C28.9386 31.2552 29.0356 31.2642 29.1296 31.2652C30.3866 31.0962 31.6036 30.5522 32.5696 29.5852C34.0326 28.1222 34.5816 26.0912 34.2166 24.2012C34.0036 23.0972 33.4696 22.0452 32.6316 21.1792C32.6086 21.1552 32.5936 21.1272 32.5706 21.1042C30.2286 18.7622 26.4316 18.7622 24.0896 21.1042H24.0876Z" fill="#D12030"/>
<path d="M29.561 29.08C30.129 28.893 30.668 28.59 31.12 28.138C32.662 26.596 32.662 24.095 31.12 22.552C29.577 21.01 27.076 21.01 25.534 22.552C25.473 22.613 25.43 22.685 25.373 22.749C26.305 23.01 27.185 23.506 27.918 24.239C29.24 25.561 29.772 27.358 29.561 29.08Z" fill="#F56570"/>
<path d="M32.5707 21.1001C32.5907 21.1301 32.6107 21.1601 32.6307 21.1801C32.4107 19.8401 31.6707 18.2301 30.4707 16.5901C30.5207 16.5401 30.5907 16.5001 30.6507 16.4501C32.2407 14.8501 32.2407 12.2701 30.6507 10.6801C30.0407 10.0701 29.2807 9.72012 28.4907 9.59012C28.3507 9.56012 28.2207 9.53012 28.0907 9.52012C28.7507 8.03012 28.4707 6.23012 27.2507 5.00012C25.6607 3.41012 23.0807 3.41012 21.4907 5.00012C21.2807 5.22012 21.1007 5.45012 20.9407 5.69012C19.9207 4.99012 18.6607 4.81012 17.5207 5.14012C16.8907 5.32012 16.3007 5.65012 15.8007 6.13012C17.0307 6.97012 17.4607 9.07012 17.6107 10.5701C18.4707 8.47012 20.9107 6.51012 22.7207 7.21012C24.5507 7.92012 25.0307 11.1001 24.2007 13.2401C23.6307 14.7301 22.4007 15.7301 21.0907 15.9701C21.3207 16.7101 21.4507 17.5801 21.4207 18.6001C21.5407 18.7501 21.6607 18.9001 21.7907 19.0401C21.6607 18.9901 21.5307 18.9301 21.4007 18.8801C20.4207 18.5401 19.3407 18.5601 18.3607 18.9201C18.3507 18.4201 18.2407 17.9201 18.0207 17.4401C17.6707 16.6801 17.0807 16.1201 16.4007 15.7501C16.6407 14.7401 16.5707 13.6501 16.0907 12.6301C15.1307 10.5801 12.9007 9.54012 10.7707 10.0201C10.4507 10.0901 10.1207 10.1901 9.80072 10.3401C9.76072 10.3601 9.72072 10.3901 9.68072 10.4101C9.12072 14.4801 11.4807 20.0901 16.1307 24.7401C16.3007 24.9101 16.4807 25.0701 16.6607 25.2401C20.6107 28.9801 25.1507 31.1101 28.8407 31.2501C29.2307 30.5701 29.4707 29.8401 29.5607 29.0801C29.7707 27.3601 29.2407 25.5601 27.9207 24.2401C27.1807 23.5101 26.3007 23.0101 25.3707 22.7501C25.0607 22.6601 24.7407 22.6001 24.4207 22.5601C24.3607 22.0901 24.2207 21.6301 24.0107 21.1901C24.0407 21.1601 24.0607 21.1301 24.0907 21.1001C26.4307 18.7601 30.2307 18.7601 32.5707 21.1001ZM27.6807 15.9901L27.9207 15.5201C28.1007 15.1701 28.5207 15.0401 28.8707 15.2101L29.3407 15.4601C29.6907 15.6301 29.8207 16.0601 29.6407 16.4101L29.4007 16.8701C29.2307 17.2201 28.8007 17.3601 28.4507 17.1801L27.9807 16.9401C27.6407 16.7601 27.5007 16.3401 27.6807 15.9901ZM22.8307 19.8501C22.4607 19.9801 22.0607 19.7801 21.9307 19.4101L21.8107 19.0501L21.7607 18.9101C21.6307 18.5401 21.8307 18.1401 22.1907 18.0201L22.6907 17.8401C23.0607 17.7201 23.4607 17.9101 23.5907 18.2801L23.7607 18.7801C23.8907 19.1501 23.7007 19.5501 23.3307 19.6801L22.9607 19.8001L22.8307 19.8501Z" fill="#23B169"/>
<path d="M20.0309 13.9913C21.1659 14.4303 22.4419 13.8653 22.8809 12.7303C23.3199 11.5953 22.7549 10.3183 21.6199 9.8803C20.4849 9.4413 19.2089 10.0063 18.7699 11.1413C18.3309 12.2763 18.8949 13.5523 20.0309 13.9913Z" fill="#FFD900"/>
<path d="M27.9195 15.5222L27.6792 15.9912C27.5015 16.3383 27.6388 16.7637 27.9858 16.9415L28.4549 17.1817C28.8019 17.3594 29.2273 17.2222 29.4051 16.8751L29.6453 16.4061C29.823 16.059 29.6858 15.6336 29.3387 15.4558L28.8697 15.2156C28.5226 15.0379 28.0972 15.1751 27.9195 15.5222Z" fill="#FFD900"/>
<path d="M21.93 19.4124C22.058 19.7804 22.459 19.9764 22.828 19.8484L22.957 19.8034L23.326 19.6754C23.694 19.5474 23.89 19.1454 23.762 18.7774L23.589 18.2784C23.461 17.9104 23.06 17.7144 22.691 17.8424L22.192 18.0154C21.824 18.1424 21.628 18.5444 21.756 18.9134L21.803 19.0504L21.928 19.4124H21.93Z" fill="#FFD900"/>
<path d="M29.1287 31.2652C29.0347 31.2652 28.9377 31.2562 28.8427 31.2522C25.1477 31.1142 20.6067 28.9842 16.6617 25.2402C16.4847 25.0722 16.3037 24.9122 16.1297 24.7382C11.4807 20.0892 9.11667 14.4832 9.68167 10.4122C9.86367 9.10019 10.3457 7.94519 11.1597 7.03719C11.1777 6.99619 11.1887 6.97119 11.1887 6.97119L8.27867 9.88119C2.00867 16.1522 2.00867 26.3182 8.27867 32.5882C14.5487 38.8582 24.7157 38.8582 30.9857 32.5882L33.8957 29.6782C33.8957 29.6782 33.8707 29.6902 33.8297 29.7072C32.6257 30.7852 30.9917 31.2822 29.1277 31.2642L29.1287 31.2652Z" fill="#FFC450"/>
</g>
<defs>
<clipPath id="clip0_4573_59493">
<rect width="40" height="40" fill="white"/>
</clipPath>
</defs>
</svg>
