<svg width="20" height="20" viewBox="0 0 20 20" fill="none" xmlns="http://www.w3.org/2000/svg">
<path fill-rule="evenodd" clip-rule="evenodd" d="M9.0002 1.8002C5.02375 1.8002 1.8002 5.02375 1.8002 9.0002C1.8002 12.9766 5.02375 16.2002 9.0002 16.2002C12.9766 16.2002 16.2002 12.9766 16.2002 9.0002C16.2002 5.02375 12.9766 1.8002 9.0002 1.8002ZM0.200195 9.0002C0.200195 4.14009 4.14009 0.200195 9.0002 0.200195C13.8603 0.200195 17.8002 4.14009 17.8002 9.0002C17.8002 11.1421 17.0349 13.1053 15.7629 14.6313L19.5661 18.4345C19.8785 18.7469 19.8785 19.2535 19.5661 19.5659C19.2537 19.8783 18.7472 19.8783 18.4348 19.5659L14.6316 15.7627C13.1056 17.0349 11.1423 17.8002 9.0002 17.8002C4.14009 17.8002 0.200195 13.8603 0.200195 9.0002Z" fill="#171719"/>
</svg>
