<svg width="20" height="20" viewBox="0 0 20 20" fill="none" xmlns="http://www.w3.org/2000/svg">
<path fill-rule="evenodd" clip-rule="evenodd" d="M6.94951 0.692152C7.27318 0.375273 7.70863 0.200195 8.1592 0.200195H11.8363C12.2869 0.200195 12.7223 0.375273 13.046 0.692152C13.3702 1.00959 13.5556 1.44379 13.5556 1.9002V2.81961C13.8998 2.98689 14.2316 3.17777 14.5486 3.39087L15.386 2.91754C15.779 2.69518 16.2438 2.6355 16.6798 2.74955C17.1161 2.86368 17.4933 3.14415 17.7245 3.53529L19.5626 6.64863C20.0494 7.47047 19.7521 8.5184 18.9327 8.98195C18.9327 8.98198 18.9328 8.98193 18.9327 8.98195L18.1312 9.4355C18.1597 9.81127 18.16 10.1886 18.1322 10.5644L18.9376 11.0202C19.329 11.2439 19.6191 11.6129 19.7387 12.0511C19.8584 12.4897 19.7958 12.9564 19.5667 13.348L19.565 13.3508L17.7265 16.4648C17.2481 17.2738 16.1997 17.5411 15.3886 17.0833L14.55 16.6093C14.2328 16.8222 13.9008 17.0131 13.5565 17.1805V18.1002C13.5565 18.5566 13.3712 18.9908 13.0469 19.3082C12.7232 19.6251 12.2878 19.8002 11.8372 19.8002H8.16012C7.70955 19.8002 7.2741 19.6251 6.95043 19.3082C6.62619 18.9908 6.44084 18.5566 6.44084 18.1002V17.1807C6.09768 17.0139 5.76521 16.8229 5.44719 16.6093L4.6095 17.0828C4.21655 17.3052 3.75167 17.3649 3.3157 17.2508C2.8794 17.1367 2.50219 16.8562 2.27104 16.4651L0.43288 13.3518C0.432756 13.3516 0.433005 13.352 0.43288 13.3518C-0.0533341 12.53 0.243588 11.4819 1.06276 11.0184C1.06272 11.0185 1.06281 11.0184 1.06276 11.0184L1.8647 10.5646C1.83661 10.1889 1.83661 9.81154 1.8647 9.43574L1.06276 8.98195L1.05974 8.98023C0.66839 8.75653 0.378268 8.38744 0.258678 7.94927C0.138965 7.51064 0.201596 7.04397 0.430689 6.65235L0.432321 6.64956L2.27063 3.53599C2.38494 3.34223 2.5367 3.17313 2.71598 3.03854C2.89535 2.90387 3.09918 2.8058 3.3156 2.74919C3.532 2.69258 3.7574 2.67834 3.97912 2.70716C4.2007 2.73596 4.41501 2.8073 4.60978 2.9177C4.60965 2.91763 4.60992 2.91778 4.60978 2.9177L5.44655 3.39103C5.76377 3.1781 6.09572 2.98726 6.43992 2.81988V1.9002C6.43992 1.44379 6.62527 1.00959 6.94951 0.692152ZM8.1592 1.8002C8.12216 1.8002 8.08996 1.81476 8.06883 1.83545C8.04828 1.85557 8.03992 1.87921 8.03992 1.9002V3.87621L7.54189 4.07922C6.98376 4.30672 6.46041 4.60746 5.9862 4.97288L5.56588 5.29677L3.82162 4.31011C3.80759 4.30215 3.7905 4.2961 3.77289 4.29381C3.75526 4.29152 3.7374 4.29269 3.72053 4.2971C3.70369 4.3015 3.68884 4.30888 3.67661 4.31806C3.66442 4.32721 3.65527 4.33781 3.64891 4.3486L1.81174 7.46024C1.81161 7.46048 1.81188 7.46001 1.81174 7.46024C1.79922 7.48207 1.79631 7.50633 1.80222 7.52799C1.80826 7.55013 1.82434 7.57406 1.85296 7.59069L3.59045 8.57389L3.50922 9.11761C3.42177 9.7029 3.42177 10.2975 3.50922 10.8828L3.59045 11.4265L1.85074 12.411C1.79508 12.4424 1.78888 12.5015 1.80955 12.5364L1.81011 12.5374L3.6485 15.6511C3.66148 15.673 3.68596 15.6939 3.72063 15.7029C3.75562 15.7121 3.7924 15.7068 3.8215 15.6903L5.5672 14.7036L5.98745 15.0278C6.4629 15.3945 6.98909 15.696 7.54224 15.9209L8.04084 16.1237V18.1002C8.04084 18.1212 8.0492 18.1448 8.06975 18.1649C8.09088 18.1856 8.12308 18.2002 8.16012 18.2002H11.8372C11.8743 18.2002 11.9065 18.1856 11.9276 18.1649C11.9481 18.1448 11.9565 18.1212 11.9565 18.1002V16.1242L12.4545 15.9212C13.0127 15.6937 13.536 15.3929 14.0102 15.0275L14.4304 14.7037L16.1751 15.6899C16.175 15.6899 16.1751 15.6899 16.1751 15.6899C16.2038 15.706 16.2395 15.7113 16.2765 15.7016C16.3135 15.6919 16.3367 15.6716 16.3489 15.651C16.3488 15.6511 16.3489 15.651 16.3489 15.651L18.1856 12.5401C18.1855 12.5404 18.1857 12.5399 18.1856 12.5401C18.1981 12.5183 18.201 12.4941 18.1951 12.4724C18.1891 12.4503 18.173 12.4264 18.1445 12.4097C18.1442 12.4096 18.1439 12.4094 18.1436 12.4092L16.4074 11.4268L16.488 10.8835C16.5749 10.2981 16.5744 9.70355 16.4864 9.11834L16.4046 8.57415L18.1448 7.58944C18.2004 7.55795 18.2066 7.49887 18.186 7.46396L16.347 4.3493C16.347 4.34928 16.347 4.34932 16.347 4.3493C16.334 4.32736 16.3095 4.30652 16.2749 4.29746C16.2399 4.2883 16.2031 4.29358 16.174 4.31005L14.428 5.297L14.0076 4.9723C13.5345 4.60678 13.0118 4.30626 12.4542 4.07944L11.9556 3.87664V1.9002C11.9556 1.87921 11.9472 1.85557 11.9267 1.83545C11.9055 1.81476 11.8733 1.8002 11.8363 1.8002H8.1592ZM9.99775 7.2002C8.39559 7.2002 7.12065 8.47252 7.12065 10.0002C7.12065 11.5279 8.39559 12.8002 9.99775 12.8002C11.5999 12.8002 12.8749 11.5279 12.8749 10.0002C12.8749 8.47252 11.5999 7.2002 9.99775 7.2002ZM5.52065 10.0002C5.52065 7.55707 7.54407 5.6002 9.99775 5.6002C12.4514 5.6002 14.4749 7.55707 14.4749 10.0002C14.4749 12.4433 12.4514 14.4002 9.99775 14.4002C7.54407 14.4002 5.52065 12.4433 5.52065 10.0002Z" fill="#171719"/>
</svg>
