<svg width="20" height="20" viewBox="0 0 20 20" fill="none" xmlns="http://www.w3.org/2000/svg">
<path fill-rule="evenodd" clip-rule="evenodd" d="M16.0004 1.8002C14.7854 1.8002 13.8004 2.78517 13.8004 4.0002C13.8004 5.21522 14.7854 6.2002 16.0004 6.2002C17.2155 6.2002 18.2004 5.21522 18.2004 4.0002C18.2004 2.78517 17.2155 1.8002 16.0004 1.8002ZM12.2004 4.0002C12.2004 1.90151 13.9018 0.200195 16.0004 0.200195C18.0991 0.200195 19.8004 1.90151 19.8004 4.0002C19.8004 6.09888 18.0991 7.8002 16.0004 7.8002C14.6461 7.8002 13.4573 7.09171 12.7843 6.02516L7.61065 8.81099C7.73381 9.18509 7.80044 9.58486 7.80044 10.0002C7.80044 10.4155 7.73381 10.8153 7.61065 11.1894L12.7843 13.9752C13.4573 12.9087 14.6461 12.2002 16.0004 12.2002C18.0991 12.2002 19.8004 13.9015 19.8004 16.0002C19.8004 18.0989 18.0991 19.8002 16.0004 19.8002C13.9018 19.8002 12.2004 18.0989 12.2004 16.0002C12.2004 15.8292 12.2117 15.6609 12.2336 15.4959L6.79979 12.57C6.10521 13.3262 5.10818 13.8002 4.00044 13.8002C1.90176 13.8002 0.200439 12.0989 0.200439 10.0002C0.200439 7.90151 1.90176 6.2002 4.00044 6.2002C5.10818 6.2002 6.10521 6.67418 6.79979 7.4304L12.2336 4.5045C12.2117 4.33951 12.2004 4.17117 12.2004 4.0002ZM4.00044 7.8002C2.78541 7.8002 1.80044 8.78517 1.80044 10.0002C1.80044 11.2152 2.78541 12.2002 4.00044 12.2002C5.21547 12.2002 6.20044 11.2152 6.20044 10.0002C6.20044 8.78517 5.21547 7.8002 4.00044 7.8002ZM16.0004 13.8002C14.7854 13.8002 13.8004 14.7852 13.8004 16.0002C13.8004 17.2152 14.7854 18.2002 16.0004 18.2002C17.2155 18.2002 18.2004 17.2152 18.2004 16.0002C18.2004 14.7852 17.2155 13.8002 16.0004 13.8002Z" fill="#171719"/>
</svg>
