<svg width="24" height="24" viewBox="0 0 24 24" fill="none" xmlns="http://www.w3.org/2000/svg">
<g clip-path="url(#clip0_1280_8110)">
<path fill-rule="evenodd" clip-rule="evenodd" d="M20.9539 4.82741C20.9985 4.8731 20.9985 4.8731 20.9985 4.91878C20.9985 4.96447 20.9985 5.01015 20.9985 5.01015C20.9985 5.05584 20.9539 5.10152 20.9539 5.10152L19.8378 6.19797L20.1057 7.75127C20.1057 7.79695 20.1057 7.84264 20.1057 7.84264C20.1057 7.88833 20.061 7.88832 20.061 7.93401C20.0164 7.93401 20.0164 7.9797 19.9718 7.9797C19.9271 7.9797 19.8825 7.9797 19.8825 7.9797L18.4985 7.24873L17.1146 7.9797C17.07 7.9797 17.0253 8.02538 17.0253 7.9797C16.9807 7.9797 16.936 7.9797 16.936 7.93401C16.8914 7.93401 16.8914 7.88833 16.8914 7.84264C16.8914 7.79695 16.8914 7.75127 16.8914 7.75127L17.1593 6.19797L16.0432 5.10152C15.9985 5.05584 15.9985 5.05584 15.9985 5.01015C15.9985 4.96447 15.9985 4.91878 15.9985 4.91878C15.9985 4.8731 16.0432 4.8731 16.0432 4.82741C16.0878 4.78173 16.0878 4.78173 16.1325 4.78173L17.6503 4.5533L18.32 3.13706C18.32 3.09137 18.3646 3.09137 18.4093 3.04569C18.4539 3.04569 18.4539 3 18.4985 3C18.5432 3 18.5878 3 18.5878 3.04569C18.6325 3.04569 18.6325 3.09137 18.6771 3.13706L19.3468 4.5533L20.8646 4.78173C20.8646 4.78173 20.9093 4.78173 20.9539 4.82741Z" fill="#171719"/>
<path d="M12.0196 20C9.90883 20 7.84023 19.1579 6.36265 17.6421C4.84287 16.1263 3.99854 14.1053 3.99854 12C3.99854 9.89474 4.84287 7.83158 6.36265 6.35789C7.88244 4.8421 9.90883 4 12.0196 4C12.1463 4 12.2307 4 12.3574 4H12.484C12.6107 4 12.7373 4.0421 12.8218 4.12632C12.9062 4.21053 12.9906 4.29474 13.0328 4.42105C13.0751 4.54737 13.0751 4.67368 13.0328 4.75789C12.9906 4.88421 12.9484 4.96842 12.864 5.05263C12.4418 5.43158 12.0619 5.93684 11.8086 6.4421C11.5553 6.98947 11.4286 7.53684 11.3864 8.12632C11.3864 8.71579 11.4708 9.30526 11.6819 9.85263C11.893 10.4 12.2307 10.9053 12.6529 11.3263C13.0751 11.7474 13.5817 12.0842 14.1305 12.2947C14.6793 12.5053 15.2703 12.6316 15.8613 12.5895C16.4524 12.5895 17.0434 12.4211 17.55 12.1684C18.0988 11.9158 18.5632 11.5789 18.9431 11.1158C19.0276 11.0316 19.112 10.9474 19.2386 10.9474C19.3653 10.9053 19.4919 10.9053 19.5764 10.9474C19.703 10.9895 19.7875 11.0737 19.8719 11.1579C19.9563 11.2421 19.9985 11.3684 19.9985 11.4947V11.6211C19.9985 11.7474 19.9985 11.8316 19.9985 11.9579C19.9985 14.0632 19.1542 16.1263 17.6344 17.6C16.1568 19.1579 14.1305 20 12.0196 20Z" fill="#171719"/>
</g>
<defs>
<clipPath id="clip0_1280_8110">
<rect width="24.0001" height="24" fill="white"/>
</clipPath>
</defs>
</svg>
