<svg width="22" height="20" viewBox="0 0 22 20" fill="none" xmlns="http://www.w3.org/2000/svg">
<path fill-rule="evenodd" clip-rule="evenodd" d="M14.7219 0.62016C14.9572 0.766064 15.1002 1.0232 15.1002 1.3V18.3C15.1002 18.5768 14.9572 18.8339 14.722 18.9798C14.4868 19.1257 14.1929 19.1397 13.9449 19.0168L6.04337 15.1H1.30024C0.858416 15.1 0.500244 14.7418 0.500244 14.3V5.3C0.500244 4.85817 0.858416 4.5 1.30024 4.5H6.04778L13.9448 0.583308C14.1928 0.460318 14.4867 0.474256 14.7219 0.62016ZM5.50024 6.1V13.5H2.10024V6.1H5.50024ZM13.5002 17.0106L7.10024 13.8381V5.76399L13.5002 2.58977V17.0106ZM17.4673 5.60698C17.0847 5.8279 16.9536 6.31717 17.1745 6.6998C17.3954 7.08244 17.8847 7.21354 18.2673 6.99263L19.9994 5.99263C20.382 5.77171 20.5131 5.28244 20.2922 4.8998C20.0713 4.51717 19.582 4.38607 19.1994 4.60698L17.4673 5.60698ZM16.5003 10.0498C16.5003 9.60798 16.8585 9.2498 17.3003 9.2498H20.8003C21.2421 9.2498 21.6003 9.60798 21.6003 10.0498C21.6003 10.4916 21.2421 10.8498 20.8003 10.8498H17.3003C16.8585 10.8498 16.5003 10.4916 16.5003 10.0498ZM18.2673 13.107C17.8847 12.8861 17.3954 13.0172 17.1745 13.3998C16.9536 13.7824 17.0847 14.2717 17.4673 14.4926L19.1994 15.4926C19.582 15.7135 20.0713 15.5824 20.2922 15.1998C20.5131 14.8172 20.382 14.3279 19.9994 14.107L18.2673 13.107Z" fill="black"/>
</svg>
