<svg width="22" height="20" viewBox="0 0 22 20" fill="none" xmlns="http://www.w3.org/2000/svg">
<path fill-rule="evenodd" clip-rule="evenodd" d="M9.80029 1.18162C10.2444 0.113942 11.7568 0.113937 12.2009 1.18162L14.3289 6.29788L19.8523 6.74069C21.005 6.8331 21.4724 8.27156 20.5942 9.02383L16.3859 12.6287L17.6716 18.0186C17.9399 19.1434 16.7163 20.0324 15.7294 19.4297L11.0006 16.5413L6.27177 19.4297C5.28495 20.0324 4.06132 19.1434 4.32962 18.0186L5.61532 12.6287L1.40704 9.02383C0.528847 8.27156 0.996228 6.8331 2.14888 6.74069L7.67231 6.29788L9.80029 1.18162ZM11.0006 2.46205L9.07926 7.08152C8.89205 7.53162 8.46875 7.83916 7.98283 7.87812L2.99572 8.27794L6.79537 11.5327C7.1656 11.8499 7.32728 12.3475 7.21417 12.8217L6.05331 17.6882L10.323 15.0803C10.739 14.8262 11.2622 14.8262 11.6782 15.0803L15.9479 17.6882L14.787 12.8217C14.6739 12.3475 14.8356 11.8499 15.2058 11.5327L19.0055 8.27794L14.0184 7.87812C13.5325 7.83916 13.1092 7.53162 12.922 7.08152L11.0006 2.46205Z" fill="#171719"/>
</svg>
