<svg width="20" height="21" viewBox="0 0 20 21" fill="none" xmlns="http://www.w3.org/2000/svg">
<path fill-rule="evenodd" clip-rule="evenodd" d="M9.29444 3.90458C9.48273 4.09287 9.73811 4.19865 10.0044 4.19865C10.2707 4.19865 10.5261 4.09287 10.7143 3.90458C10.9026 3.71629 11.0084 3.46091 11.0084 3.19462V1.00402C11.0084 0.737741 10.9026 0.482363 10.7143 0.294072C10.5261 0.105781 10.2707 0 10.0044 0C9.73811 0 9.48273 0.105781 9.29444 0.294072C9.10615 0.482363 9.00037 0.737741 9.00037 1.00402V3.19462C9.00037 3.46091 9.10615 3.71629 9.29444 3.90458ZM16.4498 11.9796C16.27 8.54154 13.4386 5.78205 9.97789 5.78205C6.51722 5.78205 3.68576 8.54154 3.50598 11.9796H0.814642C0.36493 11.9796 0.000366211 12.3441 0.000366211 12.7939C0.000366211 13.2436 0.36493 13.6081 0.814642 13.6081H19.1861C19.6358 13.6081 20.0004 13.2436 20.0004 12.7939C20.0004 12.3441 19.6358 11.9796 19.1861 11.9796H16.4498ZM3.91339 16.582C3.91339 17.0239 4.27156 17.382 4.71339 17.382H15.2873C15.7291 17.382 16.0873 17.0239 16.0873 16.582C16.0873 16.1402 15.7291 15.782 15.2873 15.782H4.71339C4.27156 15.782 3.91339 16.1402 3.91339 16.582ZM6.08735 19.6263C6.08735 20.0681 6.44552 20.4263 6.88735 20.4263H13.1134C13.5553 20.4263 13.9134 20.0681 13.9134 19.6263C13.9134 19.1844 13.5553 18.8263 13.1134 18.8263H6.88735C6.44552 18.8263 6.08735 19.1844 6.08735 19.6263ZM14.8494 6C14.6815 5.99998 14.5174 5.95018 14.3777 5.85691C14.2381 5.76363 14.1293 5.63106 14.065 5.47595C14.0008 5.32085 13.9839 5.15017 14.0166 4.98549C14.0493 4.82081 14.1301 4.66952 14.2488 4.55075L15.5588 3.24084C15.7187 3.08506 15.9336 2.99855 16.1568 3.00002C16.3801 3.00149 16.5938 3.09083 16.7517 3.24869C16.9095 3.40656 16.9989 3.62025 17.0003 3.8435C17.0018 4.06675 16.9153 4.2816 16.7595 4.44153L15.4496 5.75145C15.3708 5.83036 15.2773 5.89294 15.1743 5.93559C15.0713 5.97824 14.9609 6.00013 14.8494 6ZM4.82642 5.93571C4.92942 5.97837 5.03986 6.00022 5.15135 6C5.31925 5.99998 5.48338 5.95018 5.62298 5.85691C5.76259 5.76363 5.87141 5.63106 5.93568 5.47595C5.99996 5.32085 6.01681 5.15017 5.9841 4.98549C5.95139 4.82081 5.87058 4.66952 5.75191 4.55075L4.44195 3.24084C4.28201 3.08506 4.06715 2.99855 3.8439 3.00002C3.62064 3.00149 3.40694 3.09083 3.24907 3.24869C3.0912 3.40656 3.00185 3.62025 3.00038 3.8435C2.99891 4.06675 3.08543 4.2816 3.24121 4.44153L4.55117 5.75145C4.62987 5.83043 4.72341 5.89305 4.82642 5.93571Z" fill="#171719"/>
</svg>
