<svg width="24" height="24" viewBox="0 0 24 24" fill="none" xmlns="http://www.w3.org/2000/svg">
<g clip-path="url(#clip0_1452_8191)">
<path fill-rule="evenodd" clip-rule="evenodd" d="M5.80049 3.8002C5.69003 3.8002 5.60049 3.88974 5.60049 4.0002V20.0002C5.60049 20.1107 5.69003 20.2002 5.80049 20.2002H18.2005C18.3109 20.2002 18.4005 20.1107 18.4005 20.0002V9.2002H13.9008C12.9067 9.2002 12.1005 8.39431 12.1005 7.40019V3.8002H5.80049ZM13.7005 4.73957V7.40019C13.7005 7.51065 13.79 7.60019 13.9005 7.60019H17.0379L13.7005 4.73957ZM4.00049 4.0002C4.00049 3.00608 4.80638 2.2002 5.80049 2.2002H12.5306C12.9602 2.2002 13.3758 2.3539 13.702 2.63353L19.3719 7.49347C19.7709 7.83544 20.0005 8.33466 20.0005 8.86013V20.0002C20.0005 20.9943 19.1946 21.8002 18.2005 21.8002H5.80049C4.80638 21.8002 4.00049 20.9943 4.00049 20.0002V4.0002ZM6.90044 14.2004C6.90044 13.7586 7.25861 13.4004 7.70044 13.4004H11.5504C11.9923 13.4004 12.3504 13.7586 12.3504 14.2004C12.3504 14.6422 11.9923 15.0004 11.5504 15.0004H7.70044C7.25861 15.0004 6.90044 14.6422 6.90044 14.2004ZM6.90044 17.4006C6.90044 16.9588 7.25861 16.6006 7.70044 16.6006H13.8004C14.2423 16.6006 14.6004 16.9588 14.6004 17.4006C14.6004 17.8424 14.2423 18.2006 13.8004 18.2006H7.70044C7.25861 18.2006 6.90044 17.8424 6.90044 17.4006Z" fill="#171719"/>
</g>
<defs>
<clipPath id="clip0_1452_8191">
<rect width="24.0001" height="24" fill="white" transform="translate(0.000488281)"/>
</clipPath>
</defs>
</svg>
