<svg width="24" height="24" viewBox="0 0 24 24" fill="none" xmlns="http://www.w3.org/2000/svg">
<g clip-path="url(#clip0_1537_9287)">
<path fill-rule="evenodd" clip-rule="evenodd" d="M2.70044 15.0002C2.70044 14.5584 3.05861 14.2002 3.50044 14.2002H20.5004C20.8242 14.2002 21.116 14.3953 21.2397 14.6944C21.3634 14.9936 21.2947 15.3378 21.0656 15.5664L16.0556 20.5664C15.7428 20.8786 15.2363 20.878 14.9242 20.5653C14.6121 20.2526 14.6126 19.7461 14.9253 19.4339L18.5663 15.8002H3.50044C3.05861 15.8002 2.70044 15.442 2.70044 15.0002Z" fill="#171719"/>
<path fill-rule="evenodd" clip-rule="evenodd" d="M9.07671 3.43508C9.38882 3.74781 9.38831 4.25434 9.07558 4.56645L5.43457 8.2002H20.5005C20.9423 8.2002 21.3005 8.55837 21.3005 9.0002C21.3005 9.44202 20.9423 9.8002 20.5005 9.8002H3.50046C3.17675 9.8002 2.88494 9.60511 2.76121 9.30597C2.63748 9.00684 2.70621 8.66262 2.93534 8.43395L7.94534 3.43395C8.25807 3.12184 8.76461 3.12234 9.07671 3.43508Z" fill="#171719"/>
</g>
<defs>
<clipPath id="clip0_1537_9287">
<rect width="24.0001" height="24" fill="white" transform="translate(0.000488281)"/>
</clipPath>
</defs>
</svg>
