<svg width="24" height="24" viewBox="0 0 24 24" fill="none" xmlns="http://www.w3.org/2000/svg">
<path fill-rule="evenodd" clip-rule="evenodd" d="M3.19961 6.4999V17.4999H15.7996V6.4999H3.19961ZM1.59961 6.4874C1.59961 5.76681 2.10531 4.8999 3.04506 4.8999H15.9542C16.8939 4.8999 17.3996 5.76681 17.3996 6.4874V17.5124C17.3996 18.233 16.8939 19.0999 15.9542 19.0999H3.04506C2.10531 19.0999 1.59961 18.233 1.59961 17.5124V6.4874Z" fill="#171719"/>
<path fill-rule="evenodd" clip-rule="evenodd" d="M21.9937 6.80374C22.2445 6.94575 22.3996 7.21168 22.3996 7.4999V16.4999C22.3996 16.7881 22.2445 17.0541 21.9937 17.1961C21.7429 17.3381 21.4351 17.3342 21.188 17.1859L16.188 14.1859C15.8091 13.9586 15.6862 13.4672 15.9136 13.0883C16.1409 12.7094 16.6323 12.5866 17.0112 12.8139L20.7996 15.087V8.91285L17.0112 11.1859C16.6323 11.4132 16.1409 11.2904 15.9136 10.9115C15.6862 10.5326 15.8091 10.0412 16.188 9.81391L21.188 6.81391C21.4351 6.66562 21.7429 6.66174 21.9937 6.80374Z" fill="#171719"/>
</svg>
