<svg width="16" height="20" viewBox="0 0 16 20" fill="none" xmlns="http://www.w3.org/2000/svg">
<path fill-rule="evenodd" clip-rule="evenodd" d="M13.7539 15.1379L13.7582 15.1298C14.7476 13.2387 14.5889 11.0197 13.3145 9.24979L8.00033 1.96019L2.68614 9.24983C1.41181 11.0197 1.25312 13.2387 2.24255 15.1298L2.2468 15.1379L2.25095 15.1461C3.14963 16.9127 5.05545 18.1822 7.3185 18.3721C7.54435 18.3904 7.77155 18.4 8.00037 18.4C8.22921 18.4 8.45627 18.3904 8.68368 18.3721C10.9461 18.1817 12.8513 16.9124 13.7498 15.1461L13.7539 15.1379ZM8.81447 19.9667C8.54573 19.9884 8.275 20 8.00037 20C7.72574 20 7.45458 19.9884 7.18679 19.9667C4.42003 19.7351 1.99672 18.1752 0.824861 15.8715C-0.4499 13.4351 -0.235171 10.5658 1.39059 8.31091L7.17223 0.38005C7.51326 -0.03821 8.16048 -0.124462 8.61777 0.18741C8.69778 0.241952 8.76878 0.306879 8.82842 0.38005L14.6101 8.31091C16.2359 10.5658 16.4506 13.4351 15.1759 15.8715C14.0041 18.1751 11.5811 19.735 8.81447 19.9667Z" fill="#171719"/>
</svg>
