<svg width="24" height="24" viewBox="0 0 24 24" fill="none" xmlns="http://www.w3.org/2000/svg">
<g clip-path="url(#clip0_1439_8735)">
<path fill-rule="evenodd" clip-rule="evenodd" d="M2.10034 4.26559C2.10034 3.06989 3.06965 2.10059 4.26534 2.10059H19.7353C20.9311 2.10059 21.9003 3.0699 21.9003 4.26559V19.7356C21.9003 20.9313 20.9311 21.9006 19.7353 21.9006H4.26534C3.06966 21.9006 2.10034 20.9313 2.10034 19.7356V4.26559ZM4.26534 3.70059C3.9533 3.70059 3.70034 3.95355 3.70034 4.26559V19.7356C3.70034 20.0476 3.95329 20.3006 4.26534 20.3006H19.7353C20.0474 20.3006 20.3003 20.0476 20.3003 19.7356V4.26559C20.3003 3.95354 20.0474 3.70059 19.7353 3.70059H4.26534ZM7.50828 9.17495L9.25505 11.5781C10.8374 10.4097 13.1635 10.4097 14.7458 11.5781L16.4926 9.17495C13.8947 7.34195 10.1062 7.34195 7.50828 9.17495ZM6.34179 8.04639C9.57962 5.5848 14.4213 5.5848 17.6591 8.04639C18.2231 8.476 18.3907 9.27509 17.9516 9.88895L17.948 9.89392L15.9862 12.5929L15.9831 12.5972C15.7269 12.9448 15.3501 13.1261 14.9853 13.1829L14.9241 13.1925H14.8886C14.8807 13.1934 14.8699 13.1945 14.8594 13.1955C14.8404 13.1973 14.8054 13.2002 14.7632 13.2002C14.431 13.2002 14.103 13.0919 13.8396 12.8984L13.8337 12.8941L13.8279 12.8897C12.8026 12.1073 11.2063 12.1058 10.1788 12.8853C9.83642 13.1552 9.41695 13.2286 9.04986 13.1875L9.04588 13.1871C8.63589 13.1392 8.26201 12.9286 8.01779 12.5972L8.01464 12.593L6.04926 9.88896C5.60467 9.26736 5.78733 8.4861 6.32871 8.05654L6.3352 8.0514L6.34179 8.04639Z" fill="#171719"/>
</g>
<defs>
<clipPath id="clip0_1439_8735">
<rect width="24.0001" height="24" fill="white" transform="translate(0.000488281)"/>
</clipPath>
</defs>
</svg>
